G04 #@! TF.GenerationSoftware,KiCad,Pcbnew,6.0.4-6f826c9f35~116~ubuntu20.04.1*
G04 #@! TF.CreationDate,2022-05-04T20:07:54+01:00*
G04 #@! TF.ProjectId,boostAAA-panel,626f6f73-7441-4414-912d-70616e656c2e,rev?*
G04 #@! TF.SameCoordinates,Original*
G04 #@! TF.FileFunction,Soldermask,Top*
G04 #@! TF.FilePolarity,Negative*
%FSLAX46Y46*%
G04 Gerber Fmt 4.6, Leading zero omitted, Abs format (unit mm)*
G04 Created by KiCad (PCBNEW 6.0.4-6f826c9f35~116~ubuntu20.04.1) date 2022-05-04 20:07:54*
%MOMM*%
%LPD*%
G01*
G04 APERTURE LIST*
G04 Aperture macros list*
%AMRoundRect*
0 Rectangle with rounded corners*
0 $1 Rounding radius*
0 $2 $3 $4 $5 $6 $7 $8 $9 X,Y pos of 4 corners*
0 Add a 4 corners polygon primitive as box body*
4,1,4,$2,$3,$4,$5,$6,$7,$8,$9,$2,$3,0*
0 Add four circle primitives for the rounded corners*
1,1,$1+$1,$2,$3*
1,1,$1+$1,$4,$5*
1,1,$1+$1,$6,$7*
1,1,$1+$1,$8,$9*
0 Add four rect primitives between the rounded corners*
20,1,$1+$1,$2,$3,$4,$5,0*
20,1,$1+$1,$4,$5,$6,$7,0*
20,1,$1+$1,$6,$7,$8,$9,0*
20,1,$1+$1,$8,$9,$2,$3,0*%
G04 Aperture macros list end*
%ADD10C,3.200000*%
%ADD11RoundRect,0.250000X-0.250000X-0.475000X0.250000X-0.475000X0.250000X0.475000X-0.250000X0.475000X0*%
%ADD12R,1.700000X1.700000*%
%ADD13R,3.000000X3.000000*%
%ADD14RoundRect,0.225000X-0.250000X0.225000X-0.250000X-0.225000X0.250000X-0.225000X0.250000X0.225000X0*%
%ADD15RoundRect,0.250000X0.250000X0.475000X-0.250000X0.475000X-0.250000X-0.475000X0.250000X-0.475000X0*%
%ADD16RoundRect,0.200000X-0.275000X0.200000X-0.275000X-0.200000X0.275000X-0.200000X0.275000X0.200000X0*%
%ADD17RoundRect,0.100000X0.712500X0.100000X-0.712500X0.100000X-0.712500X-0.100000X0.712500X-0.100000X0*%
%ADD18R,3.600000X1.150000*%
%ADD19R,2.000000X2.000000*%
%ADD20C,2.000000*%
G04 APERTURE END LIST*
G04 #@! TO.C,SW1*
G36*
X49198446Y-108050000D02*
G01*
X48248446Y-108050000D01*
X48248446Y-106350000D01*
X49198446Y-106350000D01*
X49198446Y-108050000D01*
G37*
G36*
X51733446Y-108050000D02*
G01*
X50783446Y-108050000D01*
X50783446Y-106350000D01*
X51733446Y-106350000D01*
X51733446Y-108050000D01*
G37*
G36*
X49198446Y-28050000D02*
G01*
X48248446Y-28050000D01*
X48248446Y-26350000D01*
X49198446Y-26350000D01*
X49198446Y-28050000D01*
G37*
G36*
X51733446Y-28050000D02*
G01*
X50783446Y-28050000D01*
X50783446Y-26350000D01*
X51733446Y-26350000D01*
X51733446Y-28050000D01*
G37*
G36*
X51733446Y-92050000D02*
G01*
X50783446Y-92050000D01*
X50783446Y-90350000D01*
X51733446Y-90350000D01*
X51733446Y-92050000D01*
G37*
G36*
X49198446Y-92050000D02*
G01*
X48248446Y-92050000D01*
X48248446Y-90350000D01*
X49198446Y-90350000D01*
X49198446Y-92050000D01*
G37*
G36*
X51733446Y-44050000D02*
G01*
X50783446Y-44050000D01*
X50783446Y-42350000D01*
X51733446Y-42350000D01*
X51733446Y-44050000D01*
G37*
G36*
X49198446Y-44050000D02*
G01*
X48248446Y-44050000D01*
X48248446Y-42350000D01*
X49198446Y-42350000D01*
X49198446Y-44050000D01*
G37*
G36*
X49198446Y-76050000D02*
G01*
X48248446Y-76050000D01*
X48248446Y-74350000D01*
X49198446Y-74350000D01*
X49198446Y-76050000D01*
G37*
G36*
X51733446Y-76050000D02*
G01*
X50783446Y-76050000D01*
X50783446Y-74350000D01*
X51733446Y-74350000D01*
X51733446Y-76050000D01*
G37*
G36*
X51733446Y-60050000D02*
G01*
X50783446Y-60050000D01*
X50783446Y-58350000D01*
X51733446Y-58350000D01*
X51733446Y-60050000D01*
G37*
G36*
X49198446Y-60050000D02*
G01*
X48248446Y-60050000D01*
X48248446Y-58350000D01*
X49198446Y-58350000D01*
X49198446Y-60050000D01*
G37*
G04 #@! TD*
D10*
G04 #@! TO.C,H2*
X79998446Y-70000000D03*
G04 #@! TD*
D11*
G04 #@! TO.C,C1*
X47835946Y-24025000D03*
X49735946Y-24025000D03*
G04 #@! TD*
G04 #@! TO.C,C1*
X47835946Y-88025000D03*
X49735946Y-88025000D03*
G04 #@! TD*
D12*
G04 #@! TO.C,SW1*
X52523446Y-107200000D03*
X49983446Y-107200000D03*
X47443446Y-107200000D03*
G04 #@! TD*
D13*
G04 #@! TO.C,TP1*
X54998446Y-49000000D03*
G04 #@! TD*
D12*
G04 #@! TO.C,SW1*
X52523446Y-27200000D03*
X49983446Y-27200000D03*
X47443446Y-27200000D03*
G04 #@! TD*
D14*
G04 #@! TO.C,C3*
X55598446Y-36000000D03*
X55598446Y-37550000D03*
G04 #@! TD*
D10*
G04 #@! TO.C,H2*
X79998446Y-22000000D03*
G04 #@! TD*
D11*
G04 #@! TO.C,C1*
X47835946Y-56025000D03*
X49735946Y-56025000D03*
G04 #@! TD*
D15*
G04 #@! TO.C,C2*
X52198446Y-98475000D03*
X50298446Y-98475000D03*
G04 #@! TD*
D13*
G04 #@! TO.C,TP1*
X54998446Y-81000000D03*
G04 #@! TD*
D16*
G04 #@! TO.C,R1*
X53998446Y-67950000D03*
X53998446Y-69600000D03*
G04 #@! TD*
D13*
G04 #@! TO.C,TP1*
X54998446Y-17000000D03*
G04 #@! TD*
G04 #@! TO.C,TP1*
X54998446Y-97000000D03*
G04 #@! TD*
D17*
G04 #@! TO.C,U1*
X52098446Y-102250000D03*
X52098446Y-101600000D03*
X52098446Y-100950000D03*
X52098446Y-100300000D03*
X47873446Y-100300000D03*
X47873446Y-100950000D03*
X47873446Y-101600000D03*
X47873446Y-102250000D03*
G04 #@! TD*
D10*
G04 #@! TO.C,H1*
X19998446Y-38000000D03*
G04 #@! TD*
D13*
G04 #@! TO.C,TP2*
X44998446Y-97000000D03*
G04 #@! TD*
D18*
G04 #@! TO.C,L1*
X44498446Y-71225000D03*
X44498446Y-68275000D03*
G04 #@! TD*
D17*
G04 #@! TO.C,U1*
X52098446Y-70250000D03*
X52098446Y-69600000D03*
X52098446Y-68950000D03*
X52098446Y-68300000D03*
X47873446Y-68300000D03*
X47873446Y-68950000D03*
X47873446Y-69600000D03*
X47873446Y-70250000D03*
G04 #@! TD*
D13*
G04 #@! TO.C,TP1*
X54998446Y-65000000D03*
G04 #@! TD*
D10*
G04 #@! TO.C,H2*
X79998446Y-54000000D03*
G04 #@! TD*
D12*
G04 #@! TO.C,SW1*
X52523446Y-91200000D03*
X49983446Y-91200000D03*
X47443446Y-91200000D03*
G04 #@! TD*
D13*
G04 #@! TO.C,TP2*
X44998446Y-33000000D03*
G04 #@! TD*
D17*
G04 #@! TO.C,U1*
X52098446Y-54250000D03*
X52098446Y-53600000D03*
X52098446Y-52950000D03*
X52098446Y-52300000D03*
X47873446Y-52300000D03*
X47873446Y-52950000D03*
X47873446Y-53600000D03*
X47873446Y-54250000D03*
G04 #@! TD*
D16*
G04 #@! TO.C,R2*
X53998446Y-70975000D03*
X53998446Y-72625000D03*
G04 #@! TD*
D13*
G04 #@! TO.C,TP2*
X44998446Y-49000000D03*
G04 #@! TD*
D15*
G04 #@! TO.C,C2*
X52198446Y-34475000D03*
X50298446Y-34475000D03*
G04 #@! TD*
D10*
G04 #@! TO.C,H2*
X79998446Y-38000000D03*
G04 #@! TD*
D12*
G04 #@! TO.C,SW1*
X52523446Y-43200000D03*
X49983446Y-43200000D03*
X47443446Y-43200000D03*
G04 #@! TD*
D16*
G04 #@! TO.C,R1*
X53998446Y-35950000D03*
X53998446Y-37600000D03*
G04 #@! TD*
D14*
G04 #@! TO.C,C3*
X55598446Y-20000000D03*
X55598446Y-21550000D03*
G04 #@! TD*
D10*
G04 #@! TO.C,H1*
X19998446Y-54000000D03*
G04 #@! TD*
D18*
G04 #@! TO.C,L1*
X44498446Y-55225000D03*
X44498446Y-52275000D03*
G04 #@! TD*
D16*
G04 #@! TO.C,R2*
X53998446Y-86975000D03*
X53998446Y-88625000D03*
G04 #@! TD*
D10*
G04 #@! TO.C,H1*
X19998446Y-102000000D03*
G04 #@! TD*
D13*
G04 #@! TO.C,TP2*
X44998446Y-65000000D03*
G04 #@! TD*
D16*
G04 #@! TO.C,R1*
X53998446Y-99950000D03*
X53998446Y-101600000D03*
G04 #@! TD*
D11*
G04 #@! TO.C,C1*
X47835946Y-40025000D03*
X49735946Y-40025000D03*
G04 #@! TD*
D14*
G04 #@! TO.C,C3*
X55598446Y-68000000D03*
X55598446Y-69550000D03*
G04 #@! TD*
D18*
G04 #@! TO.C,L1*
X44498446Y-39225000D03*
X44498446Y-36275000D03*
G04 #@! TD*
D17*
G04 #@! TO.C,U1*
X52098446Y-86250000D03*
X52098446Y-85600000D03*
X52098446Y-84950000D03*
X52098446Y-84300000D03*
X47873446Y-84300000D03*
X47873446Y-84950000D03*
X47873446Y-85600000D03*
X47873446Y-86250000D03*
G04 #@! TD*
D14*
G04 #@! TO.C,C3*
X55598446Y-84000000D03*
X55598446Y-85550000D03*
G04 #@! TD*
D13*
G04 #@! TO.C,TP2*
X44998446Y-81000000D03*
G04 #@! TD*
D18*
G04 #@! TO.C,L1*
X44498446Y-23225000D03*
X44498446Y-20275000D03*
G04 #@! TD*
D10*
G04 #@! TO.C,H1*
X19998446Y-70000000D03*
G04 #@! TD*
D14*
G04 #@! TO.C,C3*
X55598446Y-100000000D03*
X55598446Y-101550000D03*
G04 #@! TD*
D10*
G04 #@! TO.C,H1*
X19998446Y-86000000D03*
G04 #@! TD*
D18*
G04 #@! TO.C,L1*
X44498446Y-103225000D03*
X44498446Y-100275000D03*
G04 #@! TD*
D16*
G04 #@! TO.C,R2*
X53998446Y-22975000D03*
X53998446Y-24625000D03*
G04 #@! TD*
D13*
G04 #@! TO.C,TP2*
X44998446Y-17000000D03*
G04 #@! TD*
D15*
G04 #@! TO.C,C2*
X52198446Y-18475000D03*
X50298446Y-18475000D03*
G04 #@! TD*
D12*
G04 #@! TO.C,SW1*
X52523446Y-75200000D03*
X49983446Y-75200000D03*
X47443446Y-75200000D03*
G04 #@! TD*
D16*
G04 #@! TO.C,R1*
X53998446Y-19950000D03*
X53998446Y-21600000D03*
G04 #@! TD*
D17*
G04 #@! TO.C,U1*
X52098446Y-38250000D03*
X52098446Y-37600000D03*
X52098446Y-36950000D03*
X52098446Y-36300000D03*
X47873446Y-36300000D03*
X47873446Y-36950000D03*
X47873446Y-37600000D03*
X47873446Y-38250000D03*
G04 #@! TD*
D10*
G04 #@! TO.C,H1*
X19998446Y-22000000D03*
G04 #@! TD*
D15*
G04 #@! TO.C,C2*
X52198446Y-82475000D03*
X50298446Y-82475000D03*
G04 #@! TD*
D11*
G04 #@! TO.C,C1*
X47835946Y-72025000D03*
X49735946Y-72025000D03*
G04 #@! TD*
D15*
G04 #@! TO.C,C2*
X52198446Y-50475000D03*
X50298446Y-50475000D03*
G04 #@! TD*
G04 #@! TO.C,C2*
X52198446Y-66475000D03*
X50298446Y-66475000D03*
G04 #@! TD*
D16*
G04 #@! TO.C,R2*
X53998446Y-102975000D03*
X53998446Y-104625000D03*
G04 #@! TD*
G04 #@! TO.C,R2*
X53998446Y-54975000D03*
X53998446Y-56625000D03*
G04 #@! TD*
D14*
G04 #@! TO.C,C3*
X55598446Y-52000000D03*
X55598446Y-53550000D03*
G04 #@! TD*
D16*
G04 #@! TO.C,R2*
X53998446Y-38975000D03*
X53998446Y-40625000D03*
G04 #@! TD*
G04 #@! TO.C,R1*
X53998446Y-51950000D03*
X53998446Y-53600000D03*
G04 #@! TD*
D17*
G04 #@! TO.C,U1*
X52098446Y-22250000D03*
X52098446Y-21600000D03*
X52098446Y-20950000D03*
X52098446Y-20300000D03*
X47873446Y-20300000D03*
X47873446Y-20950000D03*
X47873446Y-21600000D03*
X47873446Y-22250000D03*
G04 #@! TD*
D10*
G04 #@! TO.C,H2*
X79998446Y-86000000D03*
G04 #@! TD*
D12*
G04 #@! TO.C,SW1*
X52523446Y-59200000D03*
X49983446Y-59200000D03*
X47443446Y-59200000D03*
G04 #@! TD*
D13*
G04 #@! TO.C,TP1*
X54998446Y-33000000D03*
G04 #@! TD*
D16*
G04 #@! TO.C,R1*
X53998446Y-83950000D03*
X53998446Y-85600000D03*
G04 #@! TD*
D18*
G04 #@! TO.C,L1*
X44498446Y-87225000D03*
X44498446Y-84275000D03*
G04 #@! TD*
D10*
G04 #@! TO.C,H2*
X79998446Y-102000000D03*
G04 #@! TD*
D11*
G04 #@! TO.C,C1*
X47835946Y-104025000D03*
X49735946Y-104025000D03*
G04 #@! TD*
D19*
G04 #@! TO.C,BT1*
X27698446Y-102000000D03*
D20*
X72398446Y-102000000D03*
G04 #@! TD*
D19*
G04 #@! TO.C,BT1*
X27698446Y-86000000D03*
D20*
X72398446Y-86000000D03*
G04 #@! TD*
D19*
G04 #@! TO.C,BT1*
X27698446Y-54000000D03*
D20*
X72398446Y-54000000D03*
G04 #@! TD*
D19*
G04 #@! TO.C,BT1*
X27698446Y-22000000D03*
D20*
X72398446Y-22000000D03*
G04 #@! TD*
D19*
G04 #@! TO.C,BT1*
X27698446Y-38000000D03*
D20*
X72398446Y-38000000D03*
G04 #@! TD*
D19*
G04 #@! TO.C,BT1*
X27698446Y-70000000D03*
D20*
X72398446Y-70000000D03*
G04 #@! TD*
M02*
