G04 #@! TF.GenerationSoftware,KiCad,Pcbnew,6.0.4-6f826c9f35~116~ubuntu20.04.1*
G04 #@! TF.CreationDate,2022-05-04T20:07:54+01:00*
G04 #@! TF.ProjectId,boostAAA-panel,626f6f73-7441-4414-912d-70616e656c2e,rev?*
G04 #@! TF.SameCoordinates,Original*
G04 #@! TF.FileFunction,Profile,NP*
%FSLAX46Y46*%
G04 Gerber Fmt 4.6, Leading zero omitted, Abs format (unit mm)*
G04 Created by KiCad (PCBNEW 6.0.4-6f826c9f35~116~ubuntu20.04.1) date 2022-05-04 20:07:54*
%MOMM*%
%LPD*%
G01*
G04 APERTURE LIST*
G04 #@! TA.AperFunction,Profile*
%ADD10C,0.100000*%
G04 #@! TD*
G04 APERTURE END LIST*
D10*
X74749098Y-44968077D02*
X74797809Y-44954139D01*
X76151140Y-64937752D02*
X76104090Y-64918957D01*
X75149818Y-44758758D02*
X75187412Y-44724792D01*
X25347018Y-44988468D02*
X25397277Y-44994869D01*
X75969481Y-43151355D02*
X76013144Y-43125653D01*
X25247793Y-63031922D02*
X25199082Y-63045860D01*
X84198575Y-35287268D02*
X84058136Y-35081281D01*
X24223238Y-59311033D02*
X24257204Y-59348627D01*
X75773653Y-27311033D02*
X75809479Y-27275207D01*
X75396250Y-92440394D02*
X75417403Y-92394355D01*
X74797809Y-28954139D02*
X74845751Y-28937752D01*
X84922484Y-86868240D02*
X84959642Y-86621718D01*
X16784507Y-41830222D02*
X16979423Y-41985662D01*
X25498446Y-31000000D02*
X25447796Y-31001283D01*
X84959642Y-54621718D02*
X84984464Y-54373650D01*
X76104090Y-91081042D02*
X76151140Y-91062247D01*
X24347090Y-75471035D02*
X24372792Y-75514698D01*
X75600641Y-48440394D02*
X75579488Y-48394355D01*
X24417403Y-43605644D02*
X24436198Y-43652694D01*
X75509977Y-16151427D02*
X75503576Y-16101168D01*
X75773653Y-80688966D02*
X75739687Y-80651372D01*
X75677682Y-75428731D02*
X75707670Y-75387894D01*
X74549095Y-28998716D02*
X74599614Y-28994869D01*
X74797809Y-44954139D02*
X74845751Y-44937752D01*
X79998446Y-27000000D02*
X80247675Y-26993784D01*
X24499729Y-79949350D02*
X24497162Y-80050649D01*
X24069714Y-32820763D02*
X24027410Y-32848644D01*
X75372792Y-15514698D02*
X75347090Y-15471035D01*
X25104090Y-76918957D02*
X25151140Y-76937752D01*
X76247793Y-59031922D02*
X76297147Y-59020470D01*
X76297147Y-16979529D02*
X76247793Y-16968077D01*
X76151140Y-48937752D02*
X76104090Y-48918957D01*
X74549095Y-60998716D02*
X74599614Y-60994869D01*
X75847073Y-43241241D02*
X75886340Y-43209224D01*
X84922484Y-85131759D02*
X84873085Y-84887395D01*
X75466523Y-79749347D02*
X75452585Y-79700636D01*
X75927177Y-27179236D02*
X75969481Y-27151355D01*
X84198575Y-104712731D02*
X84328573Y-104500000D01*
X80989176Y-42900862D02*
X81232232Y-42845386D01*
X23649873Y-32988468D02*
X23599614Y-32994869D01*
X69998446Y-93000000D02*
X74498446Y-93000000D01*
X83399309Y-57665259D02*
X83577780Y-57491184D01*
X69998446Y-45000000D02*
X74498446Y-45000000D01*
X75624099Y-64485301D02*
X75600641Y-64440394D01*
X19500606Y-17024846D02*
X19253234Y-17055845D01*
X24486914Y-91848572D02*
X24493315Y-91898831D01*
X75372792Y-44485301D02*
X75396250Y-44440394D01*
X76397277Y-32994869D02*
X76347018Y-32988468D01*
X76199082Y-91045860D02*
X76247793Y-91031922D01*
X25247793Y-44968077D02*
X25297147Y-44979529D01*
X17607176Y-74391107D02*
X17829027Y-74504844D01*
X16597582Y-89665259D02*
X16784507Y-89830222D01*
X76247793Y-96968077D02*
X76199082Y-96954139D01*
X75347090Y-92528964D02*
X75372792Y-92485301D01*
X76058051Y-59102195D02*
X76104090Y-59081042D01*
X24110551Y-16790775D02*
X24069714Y-16820763D01*
X81232232Y-42845386D02*
X81472221Y-42777864D01*
X24624099Y-44485301D02*
X24649801Y-44528964D01*
X75493315Y-76101168D02*
X75497162Y-76050649D01*
X24497162Y-96050649D02*
X24493315Y-96101168D01*
X75417403Y-60394355D02*
X75436198Y-60347305D01*
X24372792Y-64485301D02*
X24347090Y-64528964D01*
X75493315Y-15898831D02*
X75486914Y-15848572D01*
X75477975Y-60201298D02*
X75486914Y-60151427D01*
X23699744Y-107020470D02*
X23749098Y-107031922D01*
X74938840Y-92897804D02*
X74983747Y-92874346D01*
X84984464Y-53626349D02*
X84959642Y-53378281D01*
X18056272Y-17392618D02*
X17829027Y-17495155D01*
X24707670Y-31387894D02*
X24677682Y-31428731D01*
X75493315Y-108101168D02*
X75497162Y-108050649D01*
X24372792Y-16485301D02*
X24347090Y-16528964D01*
X84996891Y-101875346D02*
X84984464Y-101626349D01*
X15798316Y-67287268D02*
X15668318Y-67500000D01*
X84652814Y-71826705D02*
X84738082Y-71592433D01*
X81708546Y-81301536D02*
X81472221Y-81222135D01*
X74892801Y-63081042D02*
X74845751Y-63062247D01*
X15344077Y-20173294D02*
X15258809Y-20407566D01*
X16784507Y-105830222D02*
X16979423Y-105985662D01*
X24372792Y-59514698D02*
X24396250Y-59559605D01*
X24486914Y-32151427D02*
X24477975Y-32201298D01*
X23649873Y-75011531D02*
X23699744Y-75020470D01*
X24257204Y-43348627D02*
X24289221Y-43387894D01*
X18764659Y-33154613D02*
X18524670Y-33222135D01*
X83747352Y-66691570D02*
X83577780Y-66508815D01*
X24436198Y-107652694D02*
X24452585Y-107700636D01*
X16597582Y-18334740D02*
X16419111Y-18508815D01*
X75187412Y-47275207D02*
X75149818Y-47241241D01*
X80247675Y-74993784D02*
X80496285Y-74975153D01*
X23938840Y-43102195D02*
X23983747Y-43125653D01*
X75600641Y-27559605D02*
X75624099Y-27514698D01*
X81708546Y-58698463D02*
X81940619Y-58607381D01*
X24773653Y-28688966D02*
X24809479Y-28724792D01*
X19998446Y-75000000D02*
X23498446Y-75000000D01*
X23649873Y-91011531D02*
X23699744Y-91020470D01*
X75069714Y-76820763D02*
X75110551Y-76790775D01*
X29998446Y-29000000D02*
X29998446Y-31000000D01*
X81708546Y-65301536D02*
X81472221Y-65222135D01*
X80989176Y-49099137D02*
X80743657Y-49055845D01*
X24466523Y-64250652D02*
X24452585Y-64299363D01*
X83212384Y-34169777D02*
X83017468Y-34014337D01*
X75396250Y-108440394D02*
X75417403Y-108394355D01*
X75886340Y-75209224D02*
X75927177Y-75179236D01*
X24530368Y-79749347D02*
X24518916Y-79798701D01*
X24497162Y-59949350D02*
X24499729Y-60050649D01*
X75027410Y-79151355D02*
X74983747Y-79125653D01*
X84058136Y-19081281D02*
X83907603Y-18882550D01*
X24544306Y-63700636D02*
X24530368Y-63749347D01*
X25498446Y-77000000D02*
X29998446Y-77000000D01*
X76447796Y-75001283D02*
X76498446Y-75000000D01*
X25447796Y-60998716D02*
X25498446Y-61000000D01*
X76151140Y-43062247D02*
X76199082Y-43045860D01*
X76297147Y-32979529D02*
X76247793Y-32968077D01*
X24600641Y-28440394D02*
X24624099Y-28485301D01*
X24110551Y-80790775D02*
X24069714Y-80820763D01*
X25247793Y-31031922D02*
X25199082Y-31045860D01*
X24579488Y-60394355D02*
X24600641Y-60440394D01*
X75497162Y-76050649D02*
X75499729Y-75949350D01*
X75396250Y-31559605D02*
X75372792Y-31514698D01*
X82605622Y-26266454D02*
X82815046Y-26131193D01*
X24436198Y-48347305D02*
X24417403Y-48394355D01*
X25151140Y-79062247D02*
X25104090Y-79081042D01*
X24257204Y-107348627D02*
X24289221Y-107387894D01*
X84984464Y-70373650D02*
X84996891Y-70124653D01*
X81708546Y-49301536D02*
X81472221Y-49222135D01*
X17391269Y-74266454D02*
X17607176Y-74391107D01*
X81232232Y-65154613D02*
X80989176Y-65099137D01*
X75319209Y-28571268D02*
X75347090Y-28528964D01*
X24497162Y-32050649D02*
X24493315Y-32101168D01*
X84873085Y-100887395D02*
X84811567Y-100645797D01*
X24649801Y-28528964D02*
X24677682Y-28571268D01*
X24707670Y-63387894D02*
X24677682Y-63428731D01*
X76013144Y-32874346D02*
X75969481Y-32848644D01*
X75707670Y-80612105D02*
X75677682Y-80571268D01*
X75600641Y-64440394D02*
X75579488Y-64394355D01*
X24257204Y-96651372D02*
X24223238Y-96688966D01*
X76397277Y-75005130D02*
X76447796Y-75001283D01*
X15074407Y-54868240D02*
X15123806Y-55112604D01*
X83399309Y-82334740D02*
X83212384Y-82169777D01*
X24503576Y-60101168D02*
X24509977Y-60151427D01*
X84198575Y-40712731D02*
X84328573Y-40500000D01*
X74845751Y-79062247D02*
X74797809Y-79045860D01*
X15440916Y-35943564D02*
X15344077Y-36173294D01*
X17391269Y-81733545D02*
X17181845Y-81868806D01*
X24579488Y-63605644D02*
X24560693Y-63652694D01*
X75110551Y-108790775D02*
X75149818Y-108758758D01*
X74649873Y-108988468D02*
X74699744Y-108979529D01*
X16089288Y-98882550D02*
X15938755Y-99081281D01*
X75493315Y-95898831D02*
X75486914Y-95848572D01*
X15185324Y-71354202D02*
X15258809Y-71592433D01*
X83907603Y-34882550D02*
X83747352Y-34691570D01*
X75347090Y-108528964D02*
X75372792Y-108485301D01*
X15549086Y-67718946D02*
X15440916Y-67943564D01*
X17829027Y-74504844D02*
X18056272Y-74607381D01*
X24560693Y-76347305D02*
X24579488Y-76394355D01*
X80989176Y-58900862D02*
X81232232Y-58845386D01*
X74599614Y-95005130D02*
X74549095Y-95001283D01*
X17829027Y-90504844D02*
X18056272Y-90607381D01*
X24677682Y-95428731D02*
X24649801Y-95471035D01*
X25104090Y-47081042D02*
X25058051Y-47102195D01*
X75497162Y-44050649D02*
X75499729Y-43949350D01*
X24223238Y-48688966D02*
X24187412Y-48724792D01*
X75417403Y-79605644D02*
X75396250Y-79559605D01*
X24707670Y-15387894D02*
X24677682Y-15428731D01*
X18524670Y-33222135D02*
X18288345Y-33301536D01*
X24518916Y-28201298D02*
X24530368Y-28250652D01*
X24503576Y-63898831D02*
X24499729Y-63949350D01*
X24530368Y-76250652D02*
X24544306Y-76299363D01*
X18288345Y-42698463D02*
X18524670Y-42777864D01*
X15185324Y-20645797D02*
X15123806Y-20887395D01*
X74649873Y-63011531D02*
X74599614Y-63005130D01*
X75372792Y-31514698D02*
X75347090Y-31471035D01*
X74649873Y-47011531D02*
X74599614Y-47005130D01*
X79998446Y-81000000D02*
X76498446Y-81000000D01*
X75707670Y-75387894D02*
X75739687Y-75348627D01*
X29998446Y-93000000D02*
X29998446Y-95000000D01*
X76447796Y-48998716D02*
X76397277Y-48994869D01*
X24847073Y-63241241D02*
X24809479Y-63275207D01*
X75289221Y-31387894D02*
X75257204Y-31348627D01*
X15258809Y-87592433D02*
X15344077Y-87826705D01*
X75544306Y-80299363D02*
X75530368Y-80250652D01*
X25297147Y-44979529D02*
X25347018Y-44988468D01*
X82605622Y-33733545D02*
X82389715Y-33608892D01*
X80743657Y-33055845D02*
X80496285Y-33024846D01*
X75466523Y-47749347D02*
X75452585Y-47700636D01*
X76347018Y-43011531D02*
X76397277Y-43005130D01*
X83399309Y-18334740D02*
X83212384Y-18169777D01*
X75624099Y-59514698D02*
X75649801Y-59471035D01*
X76347018Y-16988468D02*
X76297147Y-16979529D01*
X24493315Y-64101168D02*
X24486914Y-64151427D01*
X74983747Y-15125653D02*
X74938840Y-15102195D01*
X84447805Y-72281053D02*
X84555975Y-72056435D01*
X24486914Y-48151427D02*
X24477975Y-48201298D01*
X75707670Y-16612105D02*
X75677682Y-16571268D01*
X24509977Y-76151427D02*
X24518916Y-76201298D01*
X24739687Y-95348627D02*
X24707670Y-95387894D01*
X24110551Y-48790775D02*
X24069714Y-48820763D01*
X19253234Y-81055845D02*
X19007715Y-81099137D01*
X24509977Y-63848572D02*
X24503576Y-63898831D01*
X83907603Y-25117449D02*
X84058136Y-24918718D01*
X83577780Y-73491184D02*
X83747352Y-73308429D01*
X24452585Y-48299363D02*
X24436198Y-48347305D01*
X84996891Y-54124653D02*
X84996891Y-53875346D01*
X24518916Y-60201298D02*
X24530368Y-60250652D01*
X83907603Y-50882550D02*
X83747352Y-50691570D01*
X24847073Y-28758758D02*
X24886340Y-28790775D01*
X15074407Y-101131759D02*
X15037249Y-101378281D01*
X75149818Y-31241241D02*
X75110551Y-31209224D01*
X15000000Y-69875346D02*
X15000000Y-70124653D01*
X84198575Y-19287268D02*
X84058136Y-19081281D01*
X84198575Y-83287268D02*
X84058136Y-83081281D01*
X74749098Y-63031922D02*
X74699744Y-63020470D01*
X24396250Y-27559605D02*
X24417403Y-27605644D01*
X17181845Y-81868806D02*
X16979423Y-82014337D01*
X25347018Y-79011531D02*
X25297147Y-79020470D01*
X75486914Y-60151427D02*
X75493315Y-60101168D01*
X81472221Y-81222135D02*
X81232232Y-81154613D01*
X76151140Y-59062247D02*
X76199082Y-59045860D01*
X25247793Y-108968077D02*
X25297147Y-108979529D01*
X15123806Y-55112604D02*
X15185324Y-55354202D01*
X74892801Y-60918957D02*
X74938840Y-60897804D01*
X83747352Y-89308429D02*
X83907603Y-89117449D01*
X74845751Y-63062247D02*
X74797809Y-63045860D01*
X24544306Y-15700636D02*
X24530368Y-15749347D01*
X75579488Y-107605644D02*
X75600641Y-107559605D01*
X25199082Y-15045860D02*
X25151140Y-15062247D01*
X84198575Y-99287268D02*
X84058136Y-99081281D01*
X17829027Y-58504844D02*
X18056272Y-58607381D01*
X84959642Y-37378281D02*
X84922484Y-37131759D01*
X75110551Y-15209224D02*
X75069714Y-15179236D01*
X84328573Y-99500000D02*
X84198575Y-99287268D01*
X23599614Y-59005130D02*
X23649873Y-59011531D01*
X23983747Y-16874346D02*
X23938840Y-16897804D01*
X24396250Y-59559605D02*
X24417403Y-59605644D01*
X74498446Y-47000000D02*
X69998446Y-47000000D01*
X75486914Y-15848572D02*
X75477975Y-15798701D01*
X17181845Y-26131193D02*
X17391269Y-26266454D01*
X83907603Y-82882550D02*
X83747352Y-82691570D01*
X24509977Y-15848572D02*
X24503576Y-15898831D01*
X25347018Y-28988468D02*
X25397277Y-28994869D01*
X75319209Y-92571268D02*
X75347090Y-92528964D01*
X24187412Y-27275207D02*
X24223238Y-27311033D01*
X76397277Y-91005130D02*
X76447796Y-91001283D01*
X84738082Y-103592433D02*
X84811567Y-103354202D01*
X23498446Y-17000000D02*
X19998446Y-17000000D01*
X19007715Y-26900862D02*
X19253234Y-26944154D01*
X81472221Y-106777864D02*
X81708546Y-106698463D01*
X24847073Y-76758758D02*
X24886340Y-76790775D01*
X74699744Y-60979529D02*
X74749098Y-60968077D01*
X74749098Y-28968077D02*
X74797809Y-28954139D01*
X81940619Y-17392618D02*
X81708546Y-17301536D01*
X16979423Y-82014337D02*
X16784507Y-82169777D01*
X75809479Y-59275207D02*
X75847073Y-59241241D01*
X75110551Y-79209224D02*
X75069714Y-79179236D01*
X19998446Y-97000000D02*
X19749216Y-97006215D01*
X75497162Y-28050649D02*
X75499729Y-27949350D01*
X24223238Y-91311033D02*
X24257204Y-91348627D01*
X76151140Y-96937752D02*
X76104090Y-96918957D01*
X18524670Y-49222135D02*
X18288345Y-49301536D01*
X74599614Y-15005130D02*
X74549095Y-15001283D01*
X74938840Y-47102195D02*
X74892801Y-47081042D01*
X81232232Y-17154613D02*
X80989176Y-17099137D01*
X74498446Y-45000000D02*
X74549095Y-44998716D01*
X25151140Y-47062247D02*
X25104090Y-47081042D01*
X82167864Y-58504844D02*
X82389715Y-58391107D01*
X83577780Y-105491184D02*
X83747352Y-105308429D01*
X83017468Y-73985662D02*
X83212384Y-73830222D01*
X75503576Y-107898831D02*
X75509977Y-107848572D01*
X24773653Y-60688966D02*
X24809479Y-60724792D01*
X75707670Y-27387894D02*
X75739687Y-27348627D01*
X76013144Y-16874346D02*
X75969481Y-16848644D01*
X24544306Y-76299363D02*
X24560693Y-76347305D01*
X15012427Y-21626349D02*
X15000000Y-21875346D01*
X24027410Y-96848644D02*
X23983747Y-96874346D01*
X75466523Y-31749347D02*
X75452585Y-31700636D01*
X80247675Y-81006215D02*
X79998446Y-81000000D01*
X84984464Y-37626349D02*
X84959642Y-37378281D01*
X18288345Y-26698463D02*
X18524670Y-26777864D01*
X76397277Y-16994869D02*
X76347018Y-16988468D01*
X15037249Y-54621718D02*
X15074407Y-54868240D01*
X24773653Y-79311033D02*
X24739687Y-79348627D01*
X83399309Y-66334740D02*
X83212384Y-66169777D01*
X74892801Y-47081042D02*
X74845751Y-47062247D01*
X75530368Y-16250652D02*
X75518916Y-16201298D01*
X80247675Y-17006215D02*
X79998446Y-17000000D01*
X15000000Y-53875346D02*
X15000000Y-54124653D01*
X24847073Y-60758758D02*
X24886340Y-60790775D01*
X83577780Y-25491184D02*
X83747352Y-25308429D01*
X84738082Y-100407566D02*
X84652814Y-100173294D01*
X76297147Y-91020470D02*
X76347018Y-91011531D01*
X19500606Y-58975153D02*
X19749216Y-58993784D01*
X75027410Y-15151355D02*
X74983747Y-15125653D01*
X75509977Y-27848572D02*
X75518916Y-27798701D01*
X15798316Y-19287268D02*
X15668318Y-19500000D01*
X75809479Y-91275207D02*
X75847073Y-91241241D01*
X84873085Y-52887395D02*
X84811567Y-52645797D01*
X83907603Y-98882550D02*
X83747352Y-98691570D01*
X24579488Y-95605644D02*
X24560693Y-95652694D01*
X82605622Y-17733545D02*
X82389715Y-17608892D01*
X23797809Y-107045860D02*
X23845751Y-107062247D01*
X84984464Y-54373650D02*
X84996891Y-54124653D01*
X24493315Y-48101168D02*
X24486914Y-48151427D01*
X23892801Y-59081042D02*
X23938840Y-59102195D01*
X75110551Y-63209224D02*
X75069714Y-63179236D01*
X24530368Y-31749347D02*
X24518916Y-31798701D01*
X75027410Y-47151355D02*
X74983747Y-47125653D01*
X82605622Y-74266454D02*
X82815046Y-74131193D01*
X24027410Y-59151355D02*
X24069714Y-59179236D01*
X79998446Y-17000000D02*
X76498446Y-17000000D01*
X15258809Y-71592433D02*
X15344077Y-71826705D01*
X15344077Y-84173294D02*
X15258809Y-84407566D01*
X24187412Y-80724792D02*
X24149818Y-80758758D01*
X84058136Y-83081281D02*
X83907603Y-82882550D01*
X19007715Y-42900862D02*
X19253234Y-42944154D01*
X19500606Y-81024846D02*
X19253234Y-81055845D01*
X82815046Y-90131193D02*
X83017468Y-89985662D01*
X75969481Y-64848644D02*
X75927177Y-64820763D01*
X24518916Y-108201298D02*
X24530368Y-108250652D01*
X16249539Y-82691570D02*
X16089288Y-82882550D01*
X84555975Y-51943564D02*
X84447805Y-51718946D01*
X24027410Y-80848644D02*
X23983747Y-80874346D01*
X23938840Y-59102195D02*
X23983747Y-59125653D01*
X76247793Y-16968077D02*
X76199082Y-16954139D01*
X16419111Y-82508815D02*
X16249539Y-82691570D01*
X23599614Y-64994869D02*
X23549095Y-64998716D01*
X24396250Y-80440394D02*
X24372792Y-80485301D01*
X16419111Y-57491184D02*
X16597582Y-57665259D01*
X24624099Y-47514698D02*
X24600641Y-47559605D01*
X81940619Y-81392618D02*
X81708546Y-81301536D01*
X24436198Y-75652694D02*
X24452585Y-75700636D01*
X24069714Y-96820763D02*
X24027410Y-96848644D01*
X75544306Y-75700636D02*
X75560693Y-75652694D01*
X75530368Y-75749347D02*
X75544306Y-75700636D01*
X83747352Y-41308429D02*
X83907603Y-41117449D01*
X24579488Y-15605644D02*
X24560693Y-15652694D01*
X75739687Y-107348627D02*
X75773653Y-107311033D01*
X75187412Y-79275207D02*
X75149818Y-79241241D01*
X24497162Y-107949350D02*
X24499729Y-108050649D01*
X24499729Y-108050649D02*
X24503576Y-108101168D01*
X29998446Y-63000000D02*
X25498446Y-63000000D01*
X23938840Y-80897804D02*
X23892801Y-80918957D01*
X75396250Y-47559605D02*
X75372792Y-47514698D01*
X24503576Y-76101168D02*
X24509977Y-76151427D01*
X75969481Y-91151355D02*
X76013144Y-91125653D01*
X17391269Y-42266454D02*
X17607176Y-42391107D01*
X74797809Y-76954139D02*
X74845751Y-76937752D01*
X24477975Y-80201298D02*
X24466523Y-80250652D01*
X75773653Y-75311033D02*
X75809479Y-75275207D01*
X75518916Y-64201298D02*
X75509977Y-64151427D01*
X24847073Y-108758758D02*
X24886340Y-108790775D01*
X25151140Y-95062247D02*
X25104090Y-95081042D01*
X23549095Y-16998716D02*
X23498446Y-17000000D01*
X25058051Y-44897804D02*
X25104090Y-44918957D01*
X74699744Y-79020470D02*
X74649873Y-79011531D01*
X17829027Y-81495155D02*
X17607176Y-81608892D01*
X24544306Y-95700636D02*
X24530368Y-95749347D01*
X25447796Y-95001283D02*
X25397277Y-95005130D01*
X81472221Y-74777864D02*
X81708546Y-74698463D01*
X25013144Y-63125653D02*
X24969481Y-63151355D01*
X24466523Y-48250652D02*
X24452585Y-48299363D01*
X84555975Y-67943564D02*
X84447805Y-67718946D01*
X24396250Y-107559605D02*
X24417403Y-107605644D01*
X75466523Y-44250652D02*
X75477975Y-44201298D01*
X74845751Y-92937752D02*
X74892801Y-92918957D01*
X24624099Y-60485301D02*
X24649801Y-60528964D01*
X75493315Y-44101168D02*
X75497162Y-44050649D01*
X24069714Y-75179236D02*
X24110551Y-75209224D01*
X24027410Y-91151355D02*
X24069714Y-91179236D01*
X75739687Y-27348627D02*
X75773653Y-27311033D01*
X75503576Y-64101168D02*
X75499729Y-64050649D01*
X75773653Y-48688966D02*
X75739687Y-48651372D01*
X23599614Y-16994869D02*
X23549095Y-16998716D01*
X23749098Y-96968077D02*
X23699744Y-96979529D01*
X23845751Y-107062247D02*
X23892801Y-107081042D01*
X24739687Y-63348627D02*
X24707670Y-63387894D01*
X24452585Y-43700636D02*
X24466523Y-43749347D01*
X24486914Y-96151427D02*
X24477975Y-96201298D01*
X74749098Y-95031922D02*
X74699744Y-95020470D01*
X17607176Y-81608892D02*
X17391269Y-81733545D01*
X75477975Y-15798701D02*
X75466523Y-15749347D01*
X23938840Y-107102195D02*
X23983747Y-107125653D01*
X75560693Y-107652694D02*
X75579488Y-107605644D01*
X24466523Y-91749347D02*
X24477975Y-91798701D01*
X15012427Y-38373650D02*
X15037249Y-38621718D01*
X24847073Y-47241241D02*
X24809479Y-47275207D01*
X75257204Y-108651372D02*
X75289221Y-108612105D01*
X76013144Y-64874346D02*
X75969481Y-64848644D01*
X76104090Y-48918957D02*
X76058051Y-48897804D01*
X84058136Y-72918718D02*
X84198575Y-72712731D01*
X19007715Y-33099137D02*
X18764659Y-33154613D01*
X83577780Y-18508815D02*
X83399309Y-18334740D01*
X24436198Y-16347305D02*
X24417403Y-16394355D01*
X74749098Y-108968077D02*
X74797809Y-108954139D01*
X24503576Y-15898831D02*
X24499729Y-15949350D01*
X16249539Y-73308429D02*
X16419111Y-73491184D01*
X16089288Y-41117449D02*
X16249539Y-41308429D01*
X75579488Y-91605644D02*
X75600641Y-91559605D01*
X75486914Y-31848572D02*
X75477975Y-31798701D01*
X24347090Y-27471035D02*
X24372792Y-27514698D01*
X24809479Y-76724792D02*
X24847073Y-76758758D01*
X83747352Y-73308429D02*
X83907603Y-73117449D01*
X74983747Y-92874346D02*
X75027410Y-92848644D01*
X24649801Y-60528964D02*
X24677682Y-60571268D01*
X82389715Y-42391107D02*
X82605622Y-42266454D01*
X79998446Y-33000000D02*
X76498446Y-33000000D01*
X69998446Y-61000000D02*
X74498446Y-61000000D01*
X24499729Y-76050649D02*
X24503576Y-76101168D01*
X74892801Y-15081042D02*
X74845751Y-15062247D01*
X23797809Y-59045860D02*
X23845751Y-59062247D01*
X23549095Y-59001283D02*
X23599614Y-59005130D01*
X19500606Y-33024846D02*
X19253234Y-33055845D01*
X24886340Y-60790775D02*
X24927177Y-60820763D01*
X75319209Y-63428731D02*
X75289221Y-63387894D01*
X24773653Y-44688966D02*
X24809479Y-44724792D01*
X75677682Y-27428731D02*
X75707670Y-27387894D01*
X75600641Y-75559605D02*
X75624099Y-75514698D01*
X80496285Y-42975153D02*
X80743657Y-42944154D01*
X74797809Y-92954139D02*
X74845751Y-92937752D01*
X75187412Y-76724792D02*
X75223238Y-76688966D01*
X75624099Y-91514698D02*
X75649801Y-91471035D01*
X24509977Y-92151427D02*
X24518916Y-92201298D01*
X23549095Y-91001283D02*
X23599614Y-91005130D01*
X79998446Y-43000000D02*
X80247675Y-42993784D01*
X23699744Y-64979529D02*
X23649873Y-64988468D01*
X25397277Y-28994869D02*
X25447796Y-28998716D01*
X81708546Y-97301536D02*
X81472221Y-97222135D01*
X84328573Y-19500000D02*
X84198575Y-19287268D01*
X75969481Y-59151355D02*
X76013144Y-59125653D01*
X24396250Y-16440394D02*
X24372792Y-16485301D01*
X75886340Y-64790775D02*
X75847073Y-64758758D01*
X75477975Y-79798701D02*
X75466523Y-79749347D01*
X23549095Y-80998716D02*
X23498446Y-81000000D01*
X75499729Y-96050649D02*
X75497162Y-95949350D01*
X24027410Y-16848644D02*
X23983747Y-16874346D01*
X75739687Y-96651372D02*
X75707670Y-96612105D01*
X84811567Y-20645797D02*
X84738082Y-20407566D01*
X76498446Y-75000000D02*
X79998446Y-75000000D01*
X76447796Y-107001283D02*
X76498446Y-107000000D01*
X24223238Y-96688966D02*
X24187412Y-96724792D01*
X75149818Y-47241241D02*
X75110551Y-47209224D01*
X15440916Y-104056435D02*
X15549086Y-104281053D01*
X19749216Y-97006215D02*
X19500606Y-97024846D01*
X17607176Y-58391107D02*
X17829027Y-58504844D01*
X75600641Y-16440394D02*
X75579488Y-16394355D01*
X18288345Y-17301536D02*
X18056272Y-17392618D01*
X15344077Y-68173294D02*
X15258809Y-68407566D01*
X75069714Y-92820763D02*
X75110551Y-92790775D01*
X75927177Y-96820763D02*
X75886340Y-96790775D01*
X23549095Y-27001283D02*
X23599614Y-27005130D01*
X15037249Y-53378281D02*
X15012427Y-53626349D01*
X75969481Y-80848644D02*
X75927177Y-80820763D01*
X17607176Y-26391107D02*
X17829027Y-26504844D01*
X24530368Y-15749347D02*
X24518916Y-15798701D01*
X24847073Y-79241241D02*
X24809479Y-79275207D01*
X82389715Y-97608892D02*
X82167864Y-97495155D01*
X76498446Y-81000000D02*
X76447796Y-80998716D01*
X82167864Y-42504844D02*
X82389715Y-42391107D01*
X84198575Y-88712731D02*
X84328573Y-88500000D01*
X25151140Y-31062247D02*
X25104090Y-31081042D01*
X25151140Y-108937752D02*
X25199082Y-108954139D01*
X76297147Y-107020470D02*
X76347018Y-107011531D01*
X15798316Y-35287268D02*
X15668318Y-35500000D01*
X25297147Y-108979529D02*
X25347018Y-108988468D01*
X75560693Y-64347305D02*
X75544306Y-64299363D01*
X17391269Y-58266454D02*
X17607176Y-58391107D01*
X15258809Y-103592433D02*
X15344077Y-103826705D01*
X19007715Y-90900862D02*
X19253234Y-90944154D01*
X24396250Y-43559605D02*
X24417403Y-43605644D01*
X15258809Y-20407566D02*
X15185324Y-20645797D01*
X76297147Y-27020470D02*
X76347018Y-27011531D01*
X24027410Y-32848644D02*
X23983747Y-32874346D01*
X84447805Y-99718946D02*
X84328573Y-99500000D01*
X18524670Y-81222135D02*
X18288345Y-81301536D01*
X83017468Y-25985662D02*
X83212384Y-25830222D01*
X76151140Y-75062247D02*
X76199082Y-75045860D01*
X15012427Y-22373650D02*
X15037249Y-22621718D01*
X15074407Y-102868240D02*
X15123806Y-103112604D01*
X24886340Y-15209224D02*
X24847073Y-15241241D01*
X74892801Y-79081042D02*
X74845751Y-79062247D01*
X24886340Y-28790775D02*
X24927177Y-28820763D01*
X75624099Y-107514698D02*
X75649801Y-107471035D01*
X75486914Y-92151427D02*
X75493315Y-92101168D01*
X24707670Y-60612105D02*
X24739687Y-60651372D01*
X84652814Y-103826705D02*
X84738082Y-103592433D01*
X24347090Y-91471035D02*
X24372792Y-91514698D01*
X23699744Y-75020470D02*
X23749098Y-75031922D01*
X83399309Y-34334740D02*
X83212384Y-34169777D01*
X76199082Y-16954139D02*
X76151140Y-16937752D01*
X75600641Y-80440394D02*
X75579488Y-80394355D01*
X24319209Y-27428731D02*
X24347090Y-27471035D01*
X24809479Y-44724792D02*
X24847073Y-44758758D01*
X76104090Y-32918957D02*
X76058051Y-32897804D01*
X75773653Y-16688966D02*
X75739687Y-16651372D01*
X24187412Y-43275207D02*
X24223238Y-43311033D01*
X24560693Y-15652694D02*
X24544306Y-15700636D01*
X76104090Y-27081042D02*
X76151140Y-27062247D01*
X82815046Y-74131193D02*
X83017468Y-73985662D01*
X75809479Y-75275207D02*
X75847073Y-75241241D01*
X17181845Y-17868806D02*
X16979423Y-18014337D01*
X15798316Y-72712731D02*
X15938755Y-72918718D01*
X83017468Y-50014337D02*
X82815046Y-49868806D01*
X74983747Y-95125653D02*
X74938840Y-95102195D01*
X15185324Y-39354202D02*
X15258809Y-39592433D01*
X74749098Y-79031922D02*
X74699744Y-79020470D01*
X15000000Y-37875346D02*
X15000000Y-38124653D01*
X76347018Y-32988468D02*
X76297147Y-32979529D01*
X84652814Y-36173294D02*
X84555975Y-35943564D01*
X75677682Y-16571268D02*
X75649801Y-16528964D01*
X24969481Y-92848644D02*
X25013144Y-92874346D01*
X84738082Y-84407566D02*
X84652814Y-84173294D01*
X75452585Y-31700636D02*
X75436198Y-31652694D01*
X24739687Y-60651372D02*
X24773653Y-60688966D01*
X75530368Y-27749347D02*
X75544306Y-27700636D01*
X24927177Y-47179236D02*
X24886340Y-47209224D01*
X23498446Y-33000000D02*
X19998446Y-33000000D01*
X75499729Y-107949350D02*
X75503576Y-107898831D01*
X24417403Y-32394355D02*
X24396250Y-32440394D01*
X75452585Y-28299363D02*
X75466523Y-28250652D01*
X24347090Y-96528964D02*
X24319209Y-96571268D01*
X18764659Y-42845386D02*
X19007715Y-42900862D01*
X83399309Y-73665259D02*
X83577780Y-73491184D01*
X75509977Y-64151427D02*
X75503576Y-64101168D01*
X15123806Y-23112604D02*
X15185324Y-23354202D01*
X75530368Y-80250652D02*
X75518916Y-80201298D01*
X75027410Y-31151355D02*
X74983747Y-31125653D01*
X18288345Y-33301536D02*
X18056272Y-33392618D01*
X25247793Y-47031922D02*
X25199082Y-47045860D01*
X23797809Y-64954139D02*
X23749098Y-64968077D01*
X75069714Y-60820763D02*
X75110551Y-60790775D01*
X75969481Y-96848644D02*
X75927177Y-96820763D01*
X24257204Y-16651372D02*
X24223238Y-16688966D01*
X84922484Y-70868240D02*
X84959642Y-70621718D01*
X80496285Y-65024846D02*
X80247675Y-65006215D01*
X25347018Y-60988468D02*
X25397277Y-60994869D01*
X24396250Y-75559605D02*
X24417403Y-75605644D01*
X24486914Y-64151427D02*
X24477975Y-64201298D01*
X15344077Y-36173294D02*
X15258809Y-36407566D01*
X23549095Y-96998716D02*
X23498446Y-97000000D01*
X18288345Y-106698463D02*
X18524670Y-106777864D01*
X18524670Y-74777864D02*
X18764659Y-74845386D01*
X24493315Y-16101168D02*
X24486914Y-16151427D01*
X75497162Y-79949350D02*
X75493315Y-79898831D01*
X76058051Y-16897804D02*
X76013144Y-16874346D01*
X76247793Y-32968077D02*
X76199082Y-32954139D01*
X24319209Y-96571268D02*
X24289221Y-96612105D01*
X75509977Y-48151427D02*
X75503576Y-48101168D01*
X17181845Y-65868806D02*
X16979423Y-66014337D01*
X19500606Y-42975153D02*
X19749216Y-42993784D01*
X75187412Y-60724792D02*
X75223238Y-60688966D01*
X83212384Y-89830222D02*
X83399309Y-89665259D01*
X16089288Y-105117449D02*
X16249539Y-105308429D01*
X75739687Y-48651372D02*
X75707670Y-48612105D01*
X15258809Y-100407566D02*
X15185324Y-100645797D01*
X15668318Y-88500000D02*
X15798316Y-88712731D01*
X75677682Y-80571268D02*
X75649801Y-80528964D01*
X24739687Y-44651372D02*
X24773653Y-44688966D01*
X24600641Y-31559605D02*
X24579488Y-31605644D01*
X75503576Y-96101168D02*
X75499729Y-96050649D01*
X80743657Y-97055845D02*
X80496285Y-97024846D01*
X16249539Y-57308429D02*
X16419111Y-57491184D01*
X84555975Y-40056435D02*
X84652814Y-39826705D01*
X75396250Y-44440394D02*
X75417403Y-44394355D01*
X84984464Y-69626349D02*
X84959642Y-69378281D01*
X84058136Y-56918718D02*
X84198575Y-56712731D01*
X74549095Y-79001283D02*
X74498446Y-79000000D01*
X24110551Y-75209224D02*
X24149818Y-75241241D01*
X74983747Y-28874346D02*
X75027410Y-28848644D01*
X75027410Y-60848644D02*
X75069714Y-60820763D01*
X82167864Y-90504844D02*
X82389715Y-90391107D01*
X74983747Y-63125653D02*
X74938840Y-63102195D01*
X24509977Y-47848572D02*
X24503576Y-47898831D01*
X19500606Y-74975153D02*
X19749216Y-74993784D01*
X24886340Y-47209224D02*
X24847073Y-47241241D01*
X74549095Y-47001283D02*
X74498446Y-47000000D01*
X25058051Y-108897804D02*
X25104090Y-108918957D01*
X24289221Y-91387894D02*
X24319209Y-91428731D01*
X24600641Y-63559605D02*
X24579488Y-63605644D01*
X25498446Y-79000000D02*
X25447796Y-79001283D01*
X75927177Y-32820763D02*
X75886340Y-32790775D01*
X76347018Y-107011531D02*
X76397277Y-107005130D01*
X75486914Y-108151427D02*
X75493315Y-108101168D01*
X75530368Y-96250652D02*
X75518916Y-96201298D01*
X84996891Y-22124653D02*
X84996891Y-21875346D01*
X75649801Y-32528964D02*
X75624099Y-32485301D01*
X17391269Y-49733545D02*
X17181845Y-49868806D01*
X84996891Y-53875346D02*
X84984464Y-53626349D01*
X25104090Y-108918957D02*
X25151140Y-108937752D01*
X75149818Y-28758758D02*
X75187412Y-28724792D01*
X83907603Y-105117449D02*
X84058136Y-104918718D01*
X24466523Y-43749347D02*
X24477975Y-43798701D01*
X23983747Y-32874346D02*
X23938840Y-32897804D01*
X24969481Y-108848644D02*
X25013144Y-108874346D01*
X23983747Y-27125653D02*
X24027410Y-27151355D01*
X74699744Y-47020470D02*
X74649873Y-47011531D01*
X75544306Y-96299363D02*
X75530368Y-96250652D01*
X25397277Y-44994869D02*
X25447796Y-44998716D01*
X25297147Y-31020470D02*
X25247793Y-31031922D01*
X24649801Y-95471035D02*
X24624099Y-95514698D01*
X81940619Y-97392618D02*
X81708546Y-97301536D01*
X75452585Y-108299363D02*
X75466523Y-108250652D01*
X75530368Y-32250652D02*
X75518916Y-32201298D01*
X75319209Y-47428731D02*
X75289221Y-47387894D01*
X75677682Y-43428731D02*
X75707670Y-43387894D01*
X76247793Y-64968077D02*
X76199082Y-64954139D01*
X75497162Y-95949350D02*
X75493315Y-95898831D01*
X18056272Y-97392618D02*
X17829027Y-97495155D01*
X24773653Y-95311033D02*
X24739687Y-95348627D01*
X23983747Y-91125653D02*
X24027410Y-91151355D01*
X75809479Y-80724792D02*
X75773653Y-80688966D01*
X75773653Y-107311033D02*
X75809479Y-107275207D01*
X15938755Y-104918718D02*
X16089288Y-105117449D01*
X24347090Y-64528964D02*
X24319209Y-64571268D01*
X80496285Y-33024846D02*
X80247675Y-33006215D01*
X24452585Y-16299363D02*
X24436198Y-16347305D01*
X83747352Y-98691570D02*
X83577780Y-98508815D01*
X24319209Y-59428731D02*
X24347090Y-59471035D01*
X84811567Y-84645797D02*
X84738082Y-84407566D01*
X80496285Y-58975153D02*
X80743657Y-58944154D01*
X75544306Y-16299363D02*
X75530368Y-16250652D01*
X24452585Y-107700636D02*
X24466523Y-107749347D01*
X75486914Y-79848572D02*
X75477975Y-79798701D01*
X79998446Y-91000000D02*
X80247675Y-90993784D01*
X75518916Y-91798701D02*
X75530368Y-91749347D01*
X84959642Y-69378281D02*
X84922484Y-69131759D01*
X23498446Y-107000000D02*
X23549095Y-107001283D01*
X15344077Y-55826705D02*
X15440916Y-56056435D01*
X74983747Y-60874346D02*
X75027410Y-60848644D01*
X76104090Y-75081042D02*
X76151140Y-75062247D01*
X75927177Y-75179236D02*
X75969481Y-75151355D01*
X76447796Y-16998716D02*
X76397277Y-16994869D01*
X84198575Y-24712731D02*
X84328573Y-24500000D01*
X18056272Y-26607381D02*
X18288345Y-26698463D01*
X18056272Y-49392618D02*
X17829027Y-49495155D01*
X15074407Y-53131759D02*
X15037249Y-53378281D01*
X84922484Y-22868240D02*
X84959642Y-22621718D01*
X76104090Y-96918957D02*
X76058051Y-96897804D01*
X75452585Y-44299363D02*
X75466523Y-44250652D01*
X80989176Y-26900862D02*
X81232232Y-26845386D01*
X74983747Y-47125653D02*
X74938840Y-47102195D01*
X24503576Y-31898831D02*
X24499729Y-31949350D01*
X24677682Y-76571268D02*
X24707670Y-76612105D01*
X84738082Y-68407566D02*
X84652814Y-68173294D01*
X80989176Y-65099137D02*
X80743657Y-65055845D01*
X24497162Y-91949350D02*
X24499729Y-92050649D01*
X81940619Y-26607381D02*
X82167864Y-26504844D01*
X76397277Y-59005130D02*
X76447796Y-59001283D01*
X84058136Y-40918718D02*
X84198575Y-40712731D01*
X79998446Y-49000000D02*
X76498446Y-49000000D01*
X29998446Y-31000000D02*
X25498446Y-31000000D01*
X24257204Y-59348627D02*
X24289221Y-59387894D01*
X24809479Y-79275207D02*
X24773653Y-79311033D01*
X24319209Y-43428731D02*
X24347090Y-43471035D01*
X75739687Y-91348627D02*
X75773653Y-91311033D01*
X19253234Y-65055845D02*
X19007715Y-65099137D01*
X15037249Y-101378281D02*
X15012427Y-101626349D01*
X81472221Y-90777864D02*
X81708546Y-90698463D01*
X24493315Y-59898831D02*
X24497162Y-59949350D01*
X24223238Y-107311033D02*
X24257204Y-107348627D01*
X75503576Y-80101168D02*
X75499729Y-80050649D01*
X24110551Y-91209224D02*
X24149818Y-91241241D01*
X15938755Y-35081281D02*
X15798316Y-35287268D01*
X15185324Y-84645797D02*
X15123806Y-84887395D01*
X15000000Y-21875346D02*
X15000000Y-22124653D01*
X17829027Y-65495155D02*
X17607176Y-65608892D01*
X16249539Y-98691570D02*
X16089288Y-98882550D01*
X74845751Y-15062247D02*
X74797809Y-15045860D01*
X75886340Y-16790775D02*
X75847073Y-16758758D01*
X76058051Y-80897804D02*
X76013144Y-80874346D01*
X75707670Y-43387894D02*
X75739687Y-43348627D01*
X24187412Y-91275207D02*
X24223238Y-91311033D01*
X15000000Y-70124653D02*
X15012427Y-70373650D01*
X24372792Y-27514698D02*
X24396250Y-27559605D01*
X24027410Y-107151355D02*
X24069714Y-107179236D01*
X24560693Y-47652694D02*
X24544306Y-47700636D01*
X19007715Y-65099137D02*
X18764659Y-65154613D01*
X84058136Y-67081281D02*
X83907603Y-66882550D01*
X23797809Y-80954139D02*
X23749098Y-80968077D01*
X15258809Y-39592433D02*
X15344077Y-39826705D01*
X19253234Y-26944154D02*
X19500606Y-26975153D01*
X24497162Y-64050649D02*
X24493315Y-64101168D01*
X25104090Y-31081042D02*
X25058051Y-31102195D01*
X25498446Y-61000000D02*
X29998446Y-61000000D01*
X23983747Y-96874346D02*
X23938840Y-96897804D01*
X24579488Y-31605644D02*
X24560693Y-31652694D01*
X81940619Y-33392618D02*
X81708546Y-33301536D01*
X75677682Y-64571268D02*
X75649801Y-64528964D01*
X16089288Y-25117449D02*
X16249539Y-25308429D01*
X24436198Y-64347305D02*
X24417403Y-64394355D01*
X16419111Y-73491184D02*
X16597582Y-73665259D01*
X76347018Y-59011531D02*
X76397277Y-59005130D01*
X17829027Y-49495155D02*
X17607176Y-49608892D01*
X25297147Y-92979529D02*
X25347018Y-92988468D01*
X19998446Y-49000000D02*
X19749216Y-49006215D01*
X23749098Y-80968077D02*
X23699744Y-80979529D01*
X75493315Y-79898831D02*
X75486914Y-79848572D01*
X15938755Y-56918718D02*
X16089288Y-57117449D01*
X75773653Y-64688966D02*
X75739687Y-64651372D01*
X23749098Y-43031922D02*
X23797809Y-43045860D01*
X23892801Y-91081042D02*
X23938840Y-91102195D01*
X24518916Y-92201298D02*
X24530368Y-92250652D01*
X75600641Y-91559605D02*
X75624099Y-91514698D01*
X24773653Y-108688966D02*
X24809479Y-108724792D01*
X17391269Y-106266454D02*
X17607176Y-106391107D01*
X15123806Y-52887395D02*
X15074407Y-53131759D01*
X23845751Y-96937752D02*
X23797809Y-96954139D01*
X75257204Y-15348627D02*
X75223238Y-15311033D01*
X24518916Y-15798701D02*
X24509977Y-15848572D01*
X24417403Y-48394355D02*
X24396250Y-48440394D01*
X25199082Y-79045860D02*
X25151140Y-79062247D01*
X74938840Y-15102195D02*
X74892801Y-15081042D01*
X75847073Y-48758758D02*
X75809479Y-48724792D01*
X25199082Y-47045860D02*
X25151140Y-47062247D01*
X75927177Y-107179236D02*
X75969481Y-107151355D01*
X25447796Y-15001283D02*
X25397277Y-15005130D01*
X80247675Y-65006215D02*
X79998446Y-65000000D01*
X15037249Y-85378281D02*
X15012427Y-85626349D01*
X75372792Y-95514698D02*
X75347090Y-95471035D01*
X84996891Y-102124653D02*
X84996891Y-101875346D01*
X75417403Y-47605644D02*
X75396250Y-47559605D01*
X84984464Y-101626349D02*
X84959642Y-101378281D01*
X84996891Y-86124653D02*
X84996891Y-85875346D01*
X15938755Y-24918718D02*
X16089288Y-25117449D01*
X25347018Y-63011531D02*
X25297147Y-63020470D01*
X82167864Y-17495155D02*
X81940619Y-17392618D01*
X75417403Y-92394355D02*
X75436198Y-92347305D01*
X80743657Y-17055845D02*
X80496285Y-17024846D01*
X75847073Y-16758758D02*
X75809479Y-16724792D01*
X24257204Y-64651372D02*
X24223238Y-64688966D01*
X74498446Y-79000000D02*
X69998446Y-79000000D01*
X19007715Y-17099137D02*
X18764659Y-17154613D01*
X24417403Y-75605644D02*
X24436198Y-75652694D01*
X84996891Y-69875346D02*
X84984464Y-69626349D01*
X23549095Y-32998716D02*
X23498446Y-33000000D01*
X18764659Y-97154613D02*
X18524670Y-97222135D01*
X16784507Y-18169777D02*
X16597582Y-18334740D01*
X75579488Y-96394355D02*
X75560693Y-96347305D01*
X15344077Y-23826705D02*
X15440916Y-24056435D01*
X74649873Y-44988468D02*
X74699744Y-44979529D01*
X24497162Y-43949350D02*
X24499729Y-44050649D01*
X24223238Y-43311033D02*
X24257204Y-43348627D01*
X24739687Y-76651372D02*
X24773653Y-76688966D01*
X84652814Y-87826705D02*
X84738082Y-87592433D01*
X75624099Y-75514698D02*
X75649801Y-75471035D01*
X24677682Y-60571268D02*
X24707670Y-60612105D01*
X16089288Y-18882550D02*
X15938755Y-19081281D01*
X75886340Y-32790775D02*
X75847073Y-32758758D01*
X24927177Y-44820763D02*
X24969481Y-44848644D01*
X75927177Y-59179236D02*
X75969481Y-59151355D01*
X75466523Y-76250652D02*
X75477975Y-76201298D01*
X75503576Y-91898831D02*
X75509977Y-91848572D01*
X24560693Y-108347305D02*
X24579488Y-108394355D01*
X75493315Y-47898831D02*
X75486914Y-47848572D01*
X16784507Y-34169777D02*
X16597582Y-34334740D01*
X24677682Y-44571268D02*
X24707670Y-44612105D01*
X15037249Y-70621718D02*
X15074407Y-70868240D01*
X24069714Y-16820763D02*
X24027410Y-16848644D01*
X23699744Y-96979529D02*
X23649873Y-96988468D01*
X25104090Y-44918957D02*
X25151140Y-44937752D01*
X75257204Y-95348627D02*
X75223238Y-95311033D01*
X75452585Y-95700636D02*
X75436198Y-95652694D01*
X15012427Y-70373650D02*
X15037249Y-70621718D01*
X24069714Y-91179236D02*
X24110551Y-91209224D01*
X24649801Y-92528964D02*
X24677682Y-92571268D01*
X76013144Y-43125653D02*
X76058051Y-43102195D01*
X23649873Y-80988468D02*
X23599614Y-80994869D01*
X82605622Y-97733545D02*
X82389715Y-97608892D01*
X75027410Y-108848644D02*
X75069714Y-108820763D01*
X75289221Y-28612105D02*
X75319209Y-28571268D01*
X84447805Y-51718946D02*
X84328573Y-51500000D01*
X15549086Y-72281053D02*
X15668318Y-72500000D01*
X24886340Y-79209224D02*
X24847073Y-79241241D01*
X75649801Y-48528964D02*
X75624099Y-48485301D01*
X75149818Y-76758758D02*
X75187412Y-76724792D01*
X15258809Y-23592433D02*
X15344077Y-23826705D01*
X76347018Y-96988468D02*
X76297147Y-96979529D01*
X74983747Y-108874346D02*
X75027410Y-108848644D01*
X75289221Y-15387894D02*
X75257204Y-15348627D01*
X75187412Y-63275207D02*
X75149818Y-63241241D01*
X84738082Y-87592433D02*
X84811567Y-87354202D01*
X75560693Y-80347305D02*
X75544306Y-80299363D01*
X75347090Y-28528964D02*
X75372792Y-28485301D01*
X83212384Y-41830222D02*
X83399309Y-41665259D01*
X75677682Y-32571268D02*
X75649801Y-32528964D01*
X74983747Y-31125653D02*
X74938840Y-31102195D01*
X75624099Y-32485301D02*
X75600641Y-32440394D01*
X24969481Y-95151355D02*
X24927177Y-95179236D01*
X75347090Y-47471035D02*
X75319209Y-47428731D01*
X15440916Y-24056435D02*
X15549086Y-24281053D01*
X75739687Y-32651372D02*
X75707670Y-32612105D01*
X23749098Y-32968077D02*
X23699744Y-32979529D01*
X84922484Y-54868240D02*
X84959642Y-54621718D01*
X18764659Y-49154613D02*
X18524670Y-49222135D01*
X25013144Y-108874346D02*
X25058051Y-108897804D01*
X75110551Y-44790775D02*
X75149818Y-44758758D01*
X24707670Y-95387894D02*
X24677682Y-95428731D01*
X82605622Y-49733545D02*
X82389715Y-49608892D01*
X76013144Y-91125653D02*
X76058051Y-91102195D01*
X24969481Y-76848644D02*
X25013144Y-76874346D01*
X74797809Y-63045860D02*
X74749098Y-63031922D01*
X74892801Y-44918957D02*
X74938840Y-44897804D01*
X25247793Y-79031922D02*
X25199082Y-79045860D01*
X19749216Y-74993784D02*
X19998446Y-75000000D01*
X24739687Y-15348627D02*
X24707670Y-15387894D01*
X24809479Y-31275207D02*
X24773653Y-31311033D01*
X15798316Y-83287268D02*
X15668318Y-83500000D01*
X81708546Y-33301536D02*
X81472221Y-33222135D01*
X17391269Y-90266454D02*
X17607176Y-90391107D01*
X23699744Y-32979529D02*
X23649873Y-32988468D01*
X23549095Y-75001283D02*
X23599614Y-75005130D01*
X81232232Y-26845386D02*
X81472221Y-26777864D01*
X80496285Y-106975153D02*
X80743657Y-106944154D01*
X75223238Y-79311033D02*
X75187412Y-79275207D01*
X17829027Y-17495155D02*
X17607176Y-17608892D01*
X23983747Y-107125653D02*
X24027410Y-107151355D01*
X16249539Y-66691570D02*
X16089288Y-66882550D01*
X75886340Y-80790775D02*
X75847073Y-80758758D01*
X75223238Y-47311033D02*
X75187412Y-47275207D01*
X75223238Y-95311033D02*
X75187412Y-95275207D01*
X18524670Y-42777864D02*
X18764659Y-42845386D01*
X24289221Y-43387894D02*
X24319209Y-43428731D01*
X24477975Y-75798701D02*
X24486914Y-75848572D01*
X75486914Y-76151427D02*
X75493315Y-76101168D01*
X15938755Y-51081281D02*
X15798316Y-51287268D01*
X76104090Y-64918957D02*
X76058051Y-64897804D01*
X24319209Y-32571268D02*
X24289221Y-32612105D01*
X15012427Y-37626349D02*
X15000000Y-37875346D01*
X29998446Y-77000000D02*
X29998446Y-79000000D01*
X24110551Y-43209224D02*
X24149818Y-43241241D01*
X75499729Y-91949350D02*
X75503576Y-91898831D01*
X23498446Y-75000000D02*
X23549095Y-75001283D01*
X23599614Y-32994869D02*
X23549095Y-32998716D01*
X76104090Y-80918957D02*
X76058051Y-80897804D01*
X25297147Y-63020470D02*
X25247793Y-63031922D01*
X24624099Y-76485301D02*
X24649801Y-76528964D01*
X18056272Y-90607381D02*
X18288345Y-90698463D01*
X75499729Y-64050649D02*
X75497162Y-63949350D01*
X16597582Y-105665259D02*
X16784507Y-105830222D01*
X25104090Y-15081042D02*
X25058051Y-15102195D01*
X75069714Y-44820763D02*
X75110551Y-44790775D01*
X15258809Y-55592433D02*
X15344077Y-55826705D01*
X24886340Y-92790775D02*
X24927177Y-92820763D01*
X15012427Y-69626349D02*
X15000000Y-69875346D01*
X24707670Y-76612105D02*
X24739687Y-76651372D01*
X75477975Y-92201298D02*
X75486914Y-92151427D01*
X24436198Y-43652694D02*
X24452585Y-43700636D01*
X83399309Y-98334740D02*
X83212384Y-98169777D01*
X75624099Y-48485301D02*
X75600641Y-48440394D01*
X24773653Y-31311033D02*
X24739687Y-31348627D01*
X75503576Y-59898831D02*
X75509977Y-59848572D01*
X75493315Y-31898831D02*
X75486914Y-31848572D01*
X25247793Y-15031922D02*
X25199082Y-15045860D01*
X15668318Y-99500000D02*
X15549086Y-99718946D01*
X17181845Y-106131193D02*
X17391269Y-106266454D01*
X76013144Y-75125653D02*
X76058051Y-75102195D01*
X19749216Y-42993784D02*
X19998446Y-43000000D01*
X16249539Y-89308429D02*
X16419111Y-89491184D01*
X74938840Y-79102195D02*
X74892801Y-79081042D01*
X24436198Y-27652694D02*
X24452585Y-27700636D01*
X75187412Y-92724792D02*
X75223238Y-92688966D01*
X76498446Y-59000000D02*
X79998446Y-59000000D01*
X24223238Y-32688966D02*
X24187412Y-32724792D01*
X24649801Y-79471035D02*
X24624099Y-79514698D01*
X24509977Y-44151427D02*
X24518916Y-44201298D01*
X75499729Y-59949350D02*
X75503576Y-59898831D01*
X75372792Y-60485301D02*
X75396250Y-60440394D01*
X75600641Y-59559605D02*
X75624099Y-59514698D01*
X84996891Y-37875346D02*
X84984464Y-37626349D01*
X18764659Y-74845386D02*
X19007715Y-74900862D01*
X84811567Y-52645797D02*
X84738082Y-52407566D01*
X16419111Y-18508815D02*
X16249539Y-18691570D01*
X24707670Y-44612105D02*
X24739687Y-44651372D01*
X75518916Y-32201298D02*
X75509977Y-32151427D01*
X75452585Y-76299363D02*
X75466523Y-76250652D01*
X76058051Y-96897804D02*
X76013144Y-96874346D01*
X15012427Y-53626349D02*
X15000000Y-53875346D01*
X24372792Y-80485301D02*
X24347090Y-80528964D01*
X80743657Y-106944154D02*
X80989176Y-106900862D01*
X18056272Y-42607381D02*
X18288345Y-42698463D01*
X82815046Y-81868806D02*
X82605622Y-81733545D01*
X75847073Y-27241241D02*
X75886340Y-27209224D01*
X25347018Y-15011531D02*
X25297147Y-15020470D01*
X75110551Y-28790775D02*
X75149818Y-28758758D01*
X84058136Y-51081281D02*
X83907603Y-50882550D01*
X75289221Y-108612105D02*
X75319209Y-108571268D01*
X75560693Y-91652694D02*
X75579488Y-91605644D01*
X24773653Y-76688966D02*
X24809479Y-76724792D01*
X16979423Y-105985662D02*
X17181845Y-106131193D01*
X25151140Y-15062247D02*
X25104090Y-15081042D01*
X18288345Y-74698463D02*
X18524670Y-74777864D01*
X75493315Y-92101168D02*
X75497162Y-92050649D01*
X25013144Y-31125653D02*
X24969481Y-31151355D01*
X23892801Y-80918957D02*
X23845751Y-80937752D01*
X74599614Y-92994869D02*
X74649873Y-92988468D01*
X29998446Y-95000000D02*
X25498446Y-95000000D01*
X24649801Y-108528964D02*
X24677682Y-108571268D01*
X76397277Y-64994869D02*
X76347018Y-64988468D01*
X24624099Y-92485301D02*
X24649801Y-92528964D01*
X75649801Y-43471035D02*
X75677682Y-43428731D01*
X84652814Y-52173294D02*
X84555975Y-51943564D01*
X74983747Y-79125653D02*
X74938840Y-79102195D01*
X75069714Y-28820763D02*
X75110551Y-28790775D01*
X24477975Y-91798701D02*
X24486914Y-91848572D01*
X84984464Y-102373650D02*
X84996891Y-102124653D01*
X23498446Y-27000000D02*
X23549095Y-27001283D01*
X24544306Y-60299363D02*
X24560693Y-60347305D01*
X76247793Y-27031922D02*
X76297147Y-27020470D01*
X76151140Y-107062247D02*
X76199082Y-107045860D01*
X76199082Y-64954139D02*
X76151140Y-64937752D01*
X16979423Y-89985662D02*
X17181845Y-90131193D01*
X83399309Y-50334740D02*
X83212384Y-50169777D01*
X24372792Y-75514698D02*
X24396250Y-75559605D01*
X24927177Y-15179236D02*
X24886340Y-15209224D01*
X74938840Y-76897804D02*
X74983747Y-76874346D01*
X74749098Y-76968077D02*
X74797809Y-76954139D01*
X76058051Y-75102195D02*
X76104090Y-75081042D01*
X75503576Y-48101168D02*
X75499729Y-48050649D01*
X16249539Y-105308429D02*
X16419111Y-105491184D01*
X75149818Y-79241241D02*
X75110551Y-79209224D01*
X24452585Y-75700636D02*
X24466523Y-75749347D01*
X25013144Y-79125653D02*
X24969481Y-79151355D01*
X74498446Y-77000000D02*
X74549095Y-76998716D01*
X24518916Y-47798701D02*
X24509977Y-47848572D01*
X24739687Y-79348627D02*
X24707670Y-79387894D01*
X75544306Y-59700636D02*
X75560693Y-59652694D01*
X84555975Y-83943564D02*
X84447805Y-83718946D01*
X19007715Y-58900862D02*
X19253234Y-58944154D01*
X80247675Y-49006215D02*
X79998446Y-49000000D01*
X75497162Y-92050649D02*
X75499729Y-91949350D01*
X24027410Y-48848644D02*
X23983747Y-48874346D01*
X75436198Y-47652694D02*
X75417403Y-47605644D01*
X24257204Y-27348627D02*
X24289221Y-27387894D01*
X15440916Y-83943564D02*
X15344077Y-84173294D01*
X15668318Y-67500000D02*
X15549086Y-67718946D01*
X24809479Y-47275207D02*
X24773653Y-47311033D01*
X15000000Y-101875346D02*
X15000000Y-102124653D01*
X75518916Y-48201298D02*
X75509977Y-48151427D01*
X25498446Y-63000000D02*
X25447796Y-63001283D01*
X15123806Y-84887395D02*
X15074407Y-85131759D01*
X15037249Y-69378281D02*
X15012427Y-69626349D01*
X15344077Y-71826705D02*
X15440916Y-72056435D01*
X24624099Y-15514698D02*
X24600641Y-15559605D01*
X75466523Y-95749347D02*
X75452585Y-95700636D01*
X83017468Y-105985662D02*
X83212384Y-105830222D01*
X15000000Y-86124653D02*
X15012427Y-86373650D01*
X24509977Y-108151427D02*
X24518916Y-108201298D01*
X19749216Y-65006215D02*
X19500606Y-65024846D01*
X75886340Y-43209224D02*
X75927177Y-43179236D01*
X75223238Y-76688966D02*
X75257204Y-76651372D01*
X76013144Y-48874346D02*
X75969481Y-48848644D01*
X15185324Y-87354202D02*
X15258809Y-87592433D01*
X74699744Y-44979529D02*
X74749098Y-44968077D01*
X24319209Y-75428731D02*
X24347090Y-75471035D01*
X75289221Y-79387894D02*
X75257204Y-79348627D01*
X18288345Y-58698463D02*
X18524670Y-58777864D01*
X24969481Y-28848644D02*
X25013144Y-28874346D01*
X84873085Y-71112604D02*
X84922484Y-70868240D01*
X17181845Y-49868806D02*
X16979423Y-50014337D01*
X16979423Y-25985662D02*
X17181845Y-26131193D01*
X75452585Y-60299363D02*
X75466523Y-60250652D01*
X75600641Y-96440394D02*
X75579488Y-96394355D01*
X16979423Y-98014337D02*
X16784507Y-98169777D01*
X84922484Y-53131759D02*
X84873085Y-52887395D01*
X17391269Y-33733545D02*
X17181845Y-33868806D01*
X24223238Y-80688966D02*
X24187412Y-80724792D01*
X25199082Y-108954139D02*
X25247793Y-108968077D01*
X84873085Y-68887395D02*
X84811567Y-68645797D01*
X84922484Y-38868240D02*
X84959642Y-38621718D01*
X18056272Y-65392618D02*
X17829027Y-65495155D01*
X23549095Y-43001283D02*
X23599614Y-43005130D01*
X84328573Y-72500000D02*
X84447805Y-72281053D01*
X75417403Y-95605644D02*
X75396250Y-95559605D01*
X24530368Y-44250652D02*
X24544306Y-44299363D01*
X83577780Y-82508815D02*
X83399309Y-82334740D01*
X75257204Y-92651372D02*
X75289221Y-92612105D01*
X23549095Y-48998716D02*
X23498446Y-49000000D01*
X24579488Y-76394355D02*
X24600641Y-76440394D01*
X75739687Y-75348627D02*
X75773653Y-75311033D01*
X16419111Y-66508815D02*
X16249539Y-66691570D01*
X24372792Y-96485301D02*
X24347090Y-96528964D01*
X80496285Y-97024846D02*
X80247675Y-97006215D01*
X84555975Y-104056435D02*
X84652814Y-103826705D01*
X75477975Y-76201298D02*
X75486914Y-76151427D01*
X23797809Y-91045860D02*
X23845751Y-91062247D01*
X75600641Y-32440394D02*
X75579488Y-32394355D01*
X75436198Y-79652694D02*
X75417403Y-79605644D01*
X75560693Y-43652694D02*
X75579488Y-43605644D01*
X82815046Y-65868806D02*
X82605622Y-65733545D01*
X18524670Y-26777864D02*
X18764659Y-26845386D01*
X24110551Y-96790775D02*
X24069714Y-96820763D01*
X82605622Y-90266454D02*
X82815046Y-90131193D01*
X24187412Y-96724792D02*
X24149818Y-96758758D01*
X75624099Y-16485301D02*
X75600641Y-16440394D01*
X24477975Y-107798701D02*
X24486914Y-107848572D01*
X24677682Y-47428731D02*
X24649801Y-47471035D01*
X75739687Y-43348627D02*
X75773653Y-43311033D01*
X75223238Y-31311033D02*
X75187412Y-31275207D01*
X17607176Y-42391107D02*
X17829027Y-42504844D01*
X84652814Y-100173294D02*
X84555975Y-99943564D01*
X24624099Y-95514698D02*
X24600641Y-95559605D01*
X24396250Y-91559605D02*
X24417403Y-91605644D01*
X24149818Y-107241241D02*
X24187412Y-107275207D01*
X15668318Y-104500000D02*
X15798316Y-104712731D01*
X24289221Y-27387894D02*
X24319209Y-27428731D01*
X24477975Y-27798701D02*
X24486914Y-27848572D01*
X24600641Y-95559605D02*
X24579488Y-95605644D01*
X24969481Y-47151355D02*
X24927177Y-47179236D01*
X84738082Y-23592433D02*
X84811567Y-23354202D01*
X79998446Y-65000000D02*
X76498446Y-65000000D01*
X76199082Y-75045860D02*
X76247793Y-75031922D01*
X76104090Y-107081042D02*
X76151140Y-107062247D01*
X83577780Y-66508815D02*
X83399309Y-66334740D01*
X24560693Y-60347305D02*
X24579488Y-60394355D01*
X25058051Y-60897804D02*
X25104090Y-60918957D01*
X19749216Y-90993784D02*
X19998446Y-91000000D01*
X84959642Y-21378281D02*
X84922484Y-21131759D01*
X81940619Y-90607381D02*
X82167864Y-90504844D01*
X24707670Y-79387894D02*
X24677682Y-79428731D01*
X24436198Y-59652694D02*
X24452585Y-59700636D01*
X74699744Y-76979529D02*
X74749098Y-76968077D01*
X76199082Y-32954139D02*
X76151140Y-32937752D01*
X24649801Y-47471035D02*
X24624099Y-47514698D01*
X24518916Y-44201298D02*
X24530368Y-44250652D01*
X75518916Y-96201298D02*
X75509977Y-96151427D01*
X75847073Y-80758758D02*
X75809479Y-80724792D01*
X75417403Y-15605644D02*
X75396250Y-15559605D01*
X76347018Y-48988468D02*
X76297147Y-48979529D01*
X76058051Y-91102195D02*
X76104090Y-91081042D01*
X75436198Y-44347305D02*
X75452585Y-44299363D01*
X24486914Y-75848572D02*
X24493315Y-75898831D01*
X75927177Y-48820763D02*
X75886340Y-48790775D01*
X15123806Y-100887395D02*
X15074407Y-101131759D01*
X24503576Y-47898831D02*
X24499729Y-47949350D01*
X75497162Y-47949350D02*
X75493315Y-47898831D01*
X25447796Y-92998716D02*
X25498446Y-93000000D01*
X81940619Y-65392618D02*
X81708546Y-65301536D01*
X15185324Y-100645797D02*
X15123806Y-100887395D01*
X75069714Y-79179236D02*
X75027410Y-79151355D01*
X84811567Y-39354202D02*
X84873085Y-39112604D01*
X18764659Y-81154613D02*
X18524670Y-81222135D01*
X75319209Y-31428731D02*
X75289221Y-31387894D01*
X75518916Y-27798701D02*
X75530368Y-27749347D01*
X17181845Y-33868806D02*
X16979423Y-34014337D01*
X80496285Y-90975153D02*
X80743657Y-90944154D01*
X80247675Y-26993784D02*
X80496285Y-26975153D01*
X24486914Y-43848572D02*
X24493315Y-43898831D01*
X17829027Y-106504844D02*
X18056272Y-106607381D01*
X24452585Y-32299363D02*
X24436198Y-32347305D01*
X19007715Y-74900862D02*
X19253234Y-74944154D01*
X75624099Y-43514698D02*
X75649801Y-43471035D01*
X76199082Y-27045860D02*
X76247793Y-27031922D01*
X19253234Y-17055845D02*
X19007715Y-17099137D01*
X17607176Y-49608892D02*
X17391269Y-49733545D01*
X74549095Y-15001283D02*
X74498446Y-15000000D01*
X24503576Y-92101168D02*
X24509977Y-92151427D01*
X84811567Y-103354202D02*
X84873085Y-103112604D01*
X17181845Y-97868806D02*
X16979423Y-98014337D01*
X24499729Y-28050649D02*
X24503576Y-28101168D01*
X24579488Y-92394355D02*
X24600641Y-92440394D01*
X84652814Y-39826705D02*
X84738082Y-39592433D01*
X15344077Y-52173294D02*
X15258809Y-52407566D01*
X82815046Y-58131193D02*
X83017468Y-57985662D01*
X29998446Y-47000000D02*
X25498446Y-47000000D01*
X75544306Y-43700636D02*
X75560693Y-43652694D01*
X74892801Y-28918957D02*
X74938840Y-28897804D01*
X75436198Y-31652694D02*
X75417403Y-31605644D01*
X74797809Y-15045860D02*
X74749098Y-15031922D01*
X75499729Y-27949350D02*
X75503576Y-27898831D01*
X24477975Y-64201298D02*
X24466523Y-64250652D01*
X24497162Y-75949350D02*
X24499729Y-76050649D01*
X24518916Y-63798701D02*
X24509977Y-63848572D01*
X15037249Y-22621718D02*
X15074407Y-22868240D01*
X24560693Y-31652694D02*
X24544306Y-31700636D01*
X23983747Y-80874346D02*
X23938840Y-80897804D01*
X24707670Y-47387894D02*
X24677682Y-47428731D01*
X17607176Y-17608892D02*
X17391269Y-17733545D01*
X80743657Y-81055845D02*
X80496285Y-81024846D01*
X15344077Y-87826705D02*
X15440916Y-88056435D01*
X25247793Y-92968077D02*
X25297147Y-92979529D01*
X24499729Y-47949350D02*
X24497162Y-48050649D01*
X75069714Y-95179236D02*
X75027410Y-95151355D01*
X84447805Y-83718946D02*
X84328573Y-83500000D01*
X76013144Y-59125653D02*
X76058051Y-59102195D01*
X75677682Y-107428731D02*
X75707670Y-107387894D01*
X16249539Y-41308429D02*
X16419111Y-41491184D01*
X74892801Y-92918957D02*
X74938840Y-92897804D01*
X75530368Y-43749347D02*
X75544306Y-43700636D01*
X75149818Y-108758758D02*
X75187412Y-108724792D01*
X74749098Y-15031922D02*
X74699744Y-15020470D01*
X23983747Y-43125653D02*
X24027410Y-43151355D01*
X84198575Y-51287268D02*
X84058136Y-51081281D01*
X74938840Y-63102195D02*
X74892801Y-63081042D01*
X74649873Y-15011531D02*
X74599614Y-15005130D01*
X24149818Y-91241241D02*
X24187412Y-91275207D01*
X82167864Y-49495155D02*
X81940619Y-49392618D01*
X15440916Y-56056435D02*
X15549086Y-56281053D01*
X84328573Y-83500000D02*
X84198575Y-83287268D01*
X75707670Y-96612105D02*
X75677682Y-96571268D01*
X19500606Y-65024846D02*
X19253234Y-65055845D01*
X15938755Y-83081281D02*
X15798316Y-83287268D01*
X23797809Y-27045860D02*
X23845751Y-27062247D01*
X76397277Y-27005130D02*
X76447796Y-27001283D01*
X15798316Y-88712731D02*
X15938755Y-88918718D01*
X25347018Y-47011531D02*
X25297147Y-47020470D01*
X23845751Y-75062247D02*
X23892801Y-75081042D01*
X17607176Y-33608892D02*
X17391269Y-33733545D01*
X84959642Y-101378281D02*
X84922484Y-101131759D01*
X23845751Y-80937752D02*
X23797809Y-80954139D01*
X25058051Y-95102195D02*
X25013144Y-95125653D01*
X75396250Y-95559605D02*
X75372792Y-95514698D01*
X75847073Y-91241241D02*
X75886340Y-91209224D01*
X16784507Y-82169777D02*
X16597582Y-82334740D01*
X19253234Y-90944154D02*
X19500606Y-90975153D01*
X24560693Y-95652694D02*
X24544306Y-95700636D01*
X81708546Y-74698463D02*
X81940619Y-74607381D01*
X75069714Y-31179236D02*
X75027410Y-31151355D01*
X24530368Y-108250652D02*
X24544306Y-108299363D01*
X76498446Y-17000000D02*
X76447796Y-16998716D01*
X76498446Y-33000000D02*
X76447796Y-32998716D01*
X69998446Y-31000000D02*
X69998446Y-29000000D01*
X25447796Y-76998716D02*
X25498446Y-77000000D01*
X24579488Y-79605644D02*
X24560693Y-79652694D01*
X24544306Y-44299363D02*
X24560693Y-44347305D01*
X24739687Y-92651372D02*
X24773653Y-92688966D01*
X84959642Y-70621718D02*
X84984464Y-70373650D01*
X84652814Y-84173294D02*
X84555975Y-83943564D01*
X17829027Y-33495155D02*
X17607176Y-33608892D01*
X83907603Y-57117449D02*
X84058136Y-56918718D01*
X25013144Y-76874346D02*
X25058051Y-76897804D01*
X19749216Y-26993784D02*
X19998446Y-27000000D01*
X75739687Y-59348627D02*
X75773653Y-59311033D01*
X19998446Y-91000000D02*
X23498446Y-91000000D01*
X19007715Y-81099137D02*
X18764659Y-81154613D01*
X75347090Y-95471035D02*
X75319209Y-95428731D01*
X23498446Y-81000000D02*
X19998446Y-81000000D01*
X24503576Y-28101168D02*
X24509977Y-28151427D01*
X76199082Y-107045860D02*
X76247793Y-107031922D01*
X81708546Y-42698463D02*
X81940619Y-42607381D01*
X84959642Y-22621718D02*
X84984464Y-22373650D01*
X83747352Y-105308429D02*
X83907603Y-105117449D01*
X19998446Y-27000000D02*
X23498446Y-27000000D01*
X75319209Y-60571268D02*
X75347090Y-60528964D01*
X23549095Y-64998716D02*
X23498446Y-65000000D01*
X83212384Y-98169777D02*
X83017468Y-98014337D01*
X19007715Y-97099137D02*
X18764659Y-97154613D01*
X81708546Y-17301536D02*
X81472221Y-17222135D01*
X75509977Y-107848572D02*
X75518916Y-107798701D01*
X81472221Y-17222135D02*
X81232232Y-17154613D01*
X82389715Y-90391107D02*
X82605622Y-90266454D01*
X74699744Y-95020470D02*
X74649873Y-95011531D01*
X75579488Y-27605644D02*
X75600641Y-27559605D01*
X24649801Y-76528964D02*
X24677682Y-76571268D01*
X24499729Y-60050649D02*
X24503576Y-60101168D01*
X76199082Y-59045860D02*
X76247793Y-59031922D01*
X81472221Y-33222135D02*
X81232232Y-33154613D01*
X80247675Y-97006215D02*
X79998446Y-97000000D01*
X83017468Y-57985662D02*
X83212384Y-57830222D01*
X23498446Y-97000000D02*
X19998446Y-97000000D01*
X75396250Y-15559605D02*
X75372792Y-15514698D01*
X25199082Y-76954139D02*
X25247793Y-76968077D01*
X15012427Y-54373650D02*
X15037249Y-54621718D01*
X24509977Y-60151427D02*
X24518916Y-60201298D01*
X19749216Y-49006215D02*
X19500606Y-49024846D01*
X24436198Y-91652694D02*
X24452585Y-91700636D01*
X23892801Y-75081042D02*
X23938840Y-75102195D01*
X75927177Y-43179236D02*
X75969481Y-43151355D01*
X82389715Y-58391107D02*
X82605622Y-58266454D01*
X75579488Y-48394355D02*
X75560693Y-48347305D01*
X24486914Y-27848572D02*
X24493315Y-27898831D01*
X75497162Y-108050649D02*
X75499729Y-107949350D01*
X84555975Y-35943564D02*
X84447805Y-35718946D01*
X15549086Y-40281053D02*
X15668318Y-40500000D01*
X23845751Y-48937752D02*
X23797809Y-48954139D01*
X74892801Y-108918957D02*
X74938840Y-108897804D01*
X84652814Y-23826705D02*
X84738082Y-23592433D01*
X84447805Y-35718946D02*
X84328573Y-35500000D01*
X24809479Y-92724792D02*
X24847073Y-92758758D01*
X83017468Y-41985662D02*
X83212384Y-41830222D01*
X74498446Y-15000000D02*
X25498446Y-15000000D01*
X24257204Y-80651372D02*
X24223238Y-80688966D01*
X24477975Y-16201298D02*
X24466523Y-16250652D01*
X17829027Y-26504844D02*
X18056272Y-26607381D01*
X24110551Y-64790775D02*
X24069714Y-64820763D01*
X74549095Y-92998716D02*
X74599614Y-92994869D01*
X23938840Y-27102195D02*
X23983747Y-27125653D01*
X75436198Y-92347305D02*
X75452585Y-92299363D01*
X24809479Y-60724792D02*
X24847073Y-60758758D01*
X82605622Y-81733545D02*
X82389715Y-81608892D01*
X24677682Y-92571268D02*
X24707670Y-92612105D01*
X18288345Y-49301536D02*
X18056272Y-49392618D01*
X25447796Y-63001283D02*
X25397277Y-63005130D01*
X74749098Y-60968077D02*
X74797809Y-60954139D01*
X74845751Y-28937752D02*
X74892801Y-28918957D01*
X75466523Y-15749347D02*
X75452585Y-15700636D01*
X74699744Y-28979529D02*
X74749098Y-28968077D01*
X75223238Y-60688966D02*
X75257204Y-60651372D01*
X75499729Y-43949350D02*
X75503576Y-43898831D01*
X75847073Y-107241241D02*
X75886340Y-107209224D01*
X75466523Y-28250652D02*
X75477975Y-28201298D01*
X75499729Y-75949350D02*
X75503576Y-75898831D01*
X75027410Y-92848644D02*
X75069714Y-92820763D01*
X15185324Y-23354202D02*
X15258809Y-23592433D01*
X16249539Y-34691570D02*
X16089288Y-34882550D01*
X24436198Y-80347305D02*
X24417403Y-80394355D01*
X82167864Y-33495155D02*
X81940619Y-33392618D01*
X15549086Y-51718946D02*
X15440916Y-51943564D01*
X82389715Y-17608892D02*
X82167864Y-17495155D01*
X24739687Y-108651372D02*
X24773653Y-108688966D01*
X18288345Y-65301536D02*
X18056272Y-65392618D01*
X83017468Y-98014337D02*
X82815046Y-97868806D01*
X75544306Y-91700636D02*
X75560693Y-91652694D01*
X75417403Y-31605644D02*
X75396250Y-31559605D01*
X24518916Y-76201298D02*
X24530368Y-76250652D01*
X83577780Y-57491184D02*
X83747352Y-57308429D01*
X25199082Y-63045860D02*
X25151140Y-63062247D01*
X80989176Y-81099137D02*
X80743657Y-81055845D01*
X17181845Y-74131193D02*
X17391269Y-74266454D01*
X74983747Y-44874346D02*
X75027410Y-44848644D01*
X75372792Y-47514698D02*
X75347090Y-47471035D01*
X23599614Y-91005130D02*
X23649873Y-91011531D01*
X81940619Y-49392618D02*
X81708546Y-49301536D01*
X75223238Y-63311033D02*
X75187412Y-63275207D01*
X75257204Y-63348627D02*
X75223238Y-63311033D01*
X25498446Y-29000000D02*
X29998446Y-29000000D01*
X84922484Y-69131759D02*
X84873085Y-68887395D01*
X16784507Y-57830222D02*
X16979423Y-57985662D01*
X16597582Y-66334740D02*
X16419111Y-66508815D01*
X19253234Y-33055845D02*
X19007715Y-33099137D01*
X15938755Y-40918718D02*
X16089288Y-41117449D01*
X23649873Y-59011531D02*
X23699744Y-59020470D01*
X25151140Y-76937752D02*
X25199082Y-76954139D01*
X19998446Y-17000000D02*
X19749216Y-17006215D01*
X16597582Y-41665259D02*
X16784507Y-41830222D01*
X75319209Y-44571268D02*
X75347090Y-44528964D01*
X74498446Y-31000000D02*
X69998446Y-31000000D01*
X19253234Y-42944154D02*
X19500606Y-42975153D01*
X74649873Y-31011531D02*
X74599614Y-31005130D01*
X75347090Y-76528964D02*
X75372792Y-76485301D01*
X24110551Y-59209224D02*
X24149818Y-59241241D01*
X84328573Y-24500000D02*
X84447805Y-24281053D01*
X24289221Y-80612105D02*
X24257204Y-80651372D01*
X82605622Y-106266454D02*
X82815046Y-106131193D01*
X75452585Y-47700636D02*
X75436198Y-47652694D01*
X25247793Y-76968077D02*
X25297147Y-76979529D01*
X75503576Y-43898831D02*
X75509977Y-43848572D01*
X24530368Y-60250652D02*
X24544306Y-60299363D01*
X75886340Y-91209224D02*
X75927177Y-91179236D01*
X84555975Y-24056435D02*
X84652814Y-23826705D01*
X75497162Y-15949350D02*
X75493315Y-15898831D01*
X23749098Y-75031922D02*
X23797809Y-75045860D01*
X25199082Y-31045860D02*
X25151140Y-31062247D01*
X82389715Y-65608892D02*
X82167864Y-65495155D01*
X16784507Y-50169777D02*
X16597582Y-50334740D01*
X25247793Y-28968077D02*
X25297147Y-28979529D01*
X29998446Y-79000000D02*
X25498446Y-79000000D01*
X16089288Y-66882550D02*
X15938755Y-67081281D01*
X83212384Y-57830222D02*
X83399309Y-57665259D01*
X24069714Y-27179236D02*
X24110551Y-27209224D01*
X25058051Y-15102195D02*
X25013144Y-15125653D01*
X24499729Y-44050649D02*
X24503576Y-44101168D01*
X69998446Y-47000000D02*
X69998446Y-45000000D01*
X24493315Y-107898831D02*
X24497162Y-107949350D01*
X75187412Y-44724792D02*
X75223238Y-44688966D01*
X24886340Y-95209224D02*
X24847073Y-95241241D01*
X84738082Y-52407566D02*
X84652814Y-52173294D01*
X76447796Y-27001283D02*
X76498446Y-27000000D01*
X25347018Y-76988468D02*
X25397277Y-76994869D01*
X25104090Y-60918957D02*
X25151140Y-60937752D01*
X84996891Y-38124653D02*
X84996891Y-37875346D01*
X25397277Y-15005130D02*
X25347018Y-15011531D01*
X24677682Y-63428731D02*
X24649801Y-63471035D01*
X76297147Y-96979529D02*
X76247793Y-96968077D01*
X75187412Y-95275207D02*
X75149818Y-95241241D01*
X81708546Y-106698463D02*
X81940619Y-106607381D01*
X24969481Y-15151355D02*
X24927177Y-15179236D01*
X24149818Y-96758758D02*
X24110551Y-96790775D01*
X23797809Y-43045860D02*
X23845751Y-43062247D01*
X75518916Y-107798701D02*
X75530368Y-107749347D01*
X15549086Y-24281053D02*
X15668318Y-24500000D01*
X24289221Y-107387894D02*
X24319209Y-107428731D01*
X75372792Y-28485301D02*
X75396250Y-28440394D01*
X19749216Y-58993784D02*
X19998446Y-59000000D01*
X74549095Y-63001283D02*
X74498446Y-63000000D01*
X24579488Y-28394355D02*
X24600641Y-28440394D01*
X83747352Y-50691570D02*
X83577780Y-50508815D01*
X23938840Y-16897804D02*
X23892801Y-16918957D01*
X75452585Y-79700636D02*
X75436198Y-79652694D01*
X80496285Y-17024846D02*
X80247675Y-17006215D01*
X76297147Y-80979529D02*
X76247793Y-80968077D01*
X15123806Y-68887395D02*
X15074407Y-69131759D01*
X18524670Y-58777864D02*
X18764659Y-58845386D01*
X23699744Y-91020470D02*
X23749098Y-91031922D01*
X75579488Y-43605644D02*
X75600641Y-43559605D01*
X75452585Y-63700636D02*
X75436198Y-63652694D01*
X76297147Y-43020470D02*
X76347018Y-43011531D01*
X75499729Y-48050649D02*
X75497162Y-47949350D01*
X24739687Y-28651372D02*
X24773653Y-28688966D01*
X74599614Y-28994869D02*
X74649873Y-28988468D01*
X75579488Y-59605644D02*
X75600641Y-59559605D01*
X81472221Y-49222135D02*
X81232232Y-49154613D01*
X24187412Y-59275207D02*
X24223238Y-59311033D01*
X82389715Y-33608892D02*
X82167864Y-33495155D01*
X74845751Y-108937752D02*
X74892801Y-108918957D01*
X74498446Y-93000000D02*
X74549095Y-92998716D01*
X25151140Y-92937752D02*
X25199082Y-92954139D01*
X23797809Y-48954139D02*
X23749098Y-48968077D01*
X84555975Y-88056435D02*
X84652814Y-87826705D01*
X69998446Y-79000000D02*
X69998446Y-77000000D01*
X19749216Y-17006215D02*
X19500606Y-17024846D01*
X82167864Y-74504844D02*
X82389715Y-74391107D01*
X76498446Y-65000000D02*
X76447796Y-64998716D01*
X75347090Y-44528964D02*
X75372792Y-44485301D01*
X83907603Y-18882550D02*
X83747352Y-18691570D01*
X25297147Y-79020470D02*
X25247793Y-79031922D01*
X76247793Y-91031922D02*
X76297147Y-91020470D01*
X17391269Y-17733545D02*
X17181845Y-17868806D01*
X75624099Y-96485301D02*
X75600641Y-96440394D01*
X17607176Y-90391107D02*
X17829027Y-90504844D01*
X24069714Y-48820763D02*
X24027410Y-48848644D01*
X75436198Y-15652694D02*
X75417403Y-15605644D01*
X74797809Y-95045860D02*
X74749098Y-95031922D01*
X76397277Y-80994869D02*
X76347018Y-80988468D01*
X24809479Y-63275207D02*
X24773653Y-63311033D01*
X75477975Y-28201298D02*
X75486914Y-28151427D01*
X75289221Y-76612105D02*
X75319209Y-76571268D01*
X84873085Y-39112604D02*
X84922484Y-38868240D01*
X25199082Y-92954139D02*
X25247793Y-92968077D01*
X82389715Y-74391107D02*
X82605622Y-74266454D01*
X84652814Y-55826705D02*
X84738082Y-55592433D01*
X75149818Y-60758758D02*
X75187412Y-60724792D01*
X23699744Y-80979529D02*
X23649873Y-80988468D01*
X23892801Y-27081042D02*
X23938840Y-27102195D01*
X75436198Y-76347305D02*
X75452585Y-76299363D01*
X76247793Y-43031922D02*
X76297147Y-43020470D01*
X24600641Y-47559605D02*
X24579488Y-47605644D01*
X24466523Y-75749347D02*
X24477975Y-75798701D01*
X16419111Y-89491184D02*
X16597582Y-89665259D01*
X15440916Y-51943564D02*
X15344077Y-52173294D01*
X16597582Y-73665259D02*
X16784507Y-73830222D01*
X75560693Y-59652694D02*
X75579488Y-59605644D01*
X74549095Y-31001283D02*
X74498446Y-31000000D01*
X75417403Y-63605644D02*
X75396250Y-63559605D01*
X82389715Y-49608892D02*
X82167864Y-49495155D01*
X69998446Y-63000000D02*
X69998446Y-61000000D01*
X15000000Y-85875346D02*
X15000000Y-86124653D01*
X80743657Y-65055845D02*
X80496285Y-65024846D01*
X75069714Y-47179236D02*
X75027410Y-47151355D01*
X75509977Y-91848572D02*
X75518916Y-91798701D01*
X24927177Y-79179236D02*
X24886340Y-79209224D01*
X75809479Y-16724792D02*
X75773653Y-16688966D01*
X74649873Y-95011531D02*
X74599614Y-95005130D01*
X84959642Y-85378281D02*
X84922484Y-85131759D01*
X16597582Y-34334740D02*
X16419111Y-34508815D01*
X75396250Y-60440394D02*
X75417403Y-60394355D01*
X83747352Y-57308429D02*
X83907603Y-57117449D01*
X81232232Y-90845386D02*
X81472221Y-90777864D01*
X84198575Y-67287268D02*
X84058136Y-67081281D01*
X75347090Y-63471035D02*
X75319209Y-63428731D01*
X25151140Y-63062247D02*
X25104090Y-63081042D01*
X24149818Y-16758758D02*
X24110551Y-16790775D01*
X75417403Y-44394355D02*
X75436198Y-44347305D01*
X76498446Y-49000000D02*
X76447796Y-48998716D01*
X76013144Y-96874346D02*
X75969481Y-96848644D01*
X75493315Y-28101168D02*
X75497162Y-28050649D01*
X81232232Y-81154613D02*
X80989176Y-81099137D01*
X24319209Y-80571268D02*
X24289221Y-80612105D01*
X75739687Y-64651372D02*
X75707670Y-64612105D01*
X24624099Y-31514698D02*
X24600641Y-31559605D01*
X24509977Y-79848572D02*
X24503576Y-79898831D01*
X24417403Y-16394355D02*
X24396250Y-16440394D01*
X25058051Y-76897804D02*
X25104090Y-76918957D01*
X23649873Y-16988468D02*
X23599614Y-16994869D01*
X23892801Y-16918957D02*
X23845751Y-16937752D01*
X82605622Y-58266454D02*
X82815046Y-58131193D01*
X75847073Y-32758758D02*
X75809479Y-32724792D01*
X25447796Y-28998716D02*
X25498446Y-29000000D01*
X16089288Y-50882550D02*
X15938755Y-51081281D01*
X75372792Y-76485301D02*
X75396250Y-76440394D01*
X75493315Y-60101168D02*
X75497162Y-60050649D01*
X83399309Y-89665259D02*
X83577780Y-89491184D01*
X75739687Y-80651372D02*
X75707670Y-80612105D01*
X15549086Y-19718946D02*
X15440916Y-19943564D01*
X83212384Y-18169777D02*
X83017468Y-18014337D01*
X84447805Y-88281053D02*
X84555975Y-88056435D01*
X82815046Y-42131193D02*
X83017468Y-41985662D01*
X74845751Y-60937752D02*
X74892801Y-60918957D01*
X84555975Y-19943564D02*
X84447805Y-19718946D01*
X81708546Y-90698463D02*
X81940619Y-90607381D01*
X25397277Y-92994869D02*
X25447796Y-92998716D01*
X23749098Y-59031922D02*
X23797809Y-59045860D01*
X74699744Y-15020470D02*
X74649873Y-15011531D01*
X83907603Y-66882550D02*
X83747352Y-66691570D01*
X15074407Y-69131759D02*
X15037249Y-69378281D01*
X24110551Y-27209224D02*
X24149818Y-27241241D01*
X76013144Y-107125653D02*
X76058051Y-107102195D01*
X75223238Y-108688966D02*
X75257204Y-108651372D01*
X23938840Y-91102195D02*
X23983747Y-91125653D01*
X84996891Y-85875346D02*
X84984464Y-85626349D01*
X25104090Y-92918957D02*
X25151140Y-92937752D01*
X24069714Y-43179236D02*
X24110551Y-43209224D01*
X16979423Y-18014337D02*
X16784507Y-18169777D01*
X75027410Y-95151355D02*
X74983747Y-95125653D01*
X24969481Y-44848644D02*
X25013144Y-44874346D01*
X24223238Y-16688966D02*
X24187412Y-16724792D01*
X16089288Y-89117449D02*
X16249539Y-89308429D01*
X75969481Y-16848644D02*
X75927177Y-16820763D01*
X74599614Y-108994869D02*
X74649873Y-108988468D01*
X75289221Y-95387894D02*
X75257204Y-95348627D01*
X75347090Y-60528964D02*
X75372792Y-60485301D01*
X24530368Y-95749347D02*
X24518916Y-95798701D01*
X24452585Y-64299363D02*
X24436198Y-64347305D01*
X24886340Y-44790775D02*
X24927177Y-44820763D01*
X84198575Y-56712731D02*
X84328573Y-56500000D01*
X75466523Y-92250652D02*
X75477975Y-92201298D01*
X24319209Y-91428731D02*
X24347090Y-91471035D01*
X84328573Y-104500000D02*
X84447805Y-104281053D01*
X15123806Y-103112604D02*
X15185324Y-103354202D01*
X25397277Y-95005130D02*
X25347018Y-95011531D01*
X19500606Y-26975153D02*
X19749216Y-26993784D01*
X24466523Y-107749347D02*
X24477975Y-107798701D01*
X16419111Y-34508815D02*
X16249539Y-34691570D01*
X24809479Y-95275207D02*
X24773653Y-95311033D01*
X23749098Y-16968077D02*
X23699744Y-16979529D01*
X24497162Y-16050649D02*
X24493315Y-16101168D01*
X15938755Y-72918718D02*
X16089288Y-73117449D01*
X24773653Y-47311033D02*
X24739687Y-47348627D01*
X25058051Y-47102195D02*
X25013144Y-47125653D01*
X25447796Y-47001283D02*
X25397277Y-47005130D01*
X24503576Y-79898831D02*
X24499729Y-79949350D01*
X84447805Y-40281053D02*
X84555975Y-40056435D01*
X16597582Y-57665259D02*
X16784507Y-57830222D01*
X75886340Y-96790775D02*
X75847073Y-96758758D01*
X23983747Y-59125653D02*
X24027410Y-59151355D01*
X15074407Y-38868240D02*
X15123806Y-39112604D01*
X84811567Y-71354202D02*
X84873085Y-71112604D01*
X75544306Y-32299363D02*
X75530368Y-32250652D01*
X75969481Y-75151355D02*
X76013144Y-75125653D01*
X24187412Y-64724792D02*
X24149818Y-64758758D01*
X23845751Y-16937752D02*
X23797809Y-16954139D01*
X25498446Y-47000000D02*
X25447796Y-47001283D01*
X75560693Y-96347305D02*
X75544306Y-96299363D01*
X76297147Y-75020470D02*
X76347018Y-75011531D01*
X15344077Y-39826705D02*
X15440916Y-40056435D01*
X24027410Y-75151355D02*
X24069714Y-75179236D01*
X80989176Y-97099137D02*
X80743657Y-97055845D01*
X76498446Y-107000000D02*
X79998446Y-107000000D01*
X16419111Y-25491184D02*
X16597582Y-25665259D01*
X75624099Y-27514698D02*
X75649801Y-27471035D01*
X75847073Y-59241241D02*
X75886340Y-59209224D01*
X24600641Y-60440394D02*
X24624099Y-60485301D01*
X84058136Y-104918718D02*
X84198575Y-104712731D01*
X75649801Y-91471035D02*
X75677682Y-91428731D01*
X69998446Y-29000000D02*
X74498446Y-29000000D01*
X84984464Y-85626349D02*
X84959642Y-85378281D01*
X74649873Y-76988468D02*
X74699744Y-76979529D01*
X15440916Y-99943564D02*
X15344077Y-100173294D01*
X15074407Y-21131759D02*
X15037249Y-21378281D01*
X24223238Y-75311033D02*
X24257204Y-75348627D01*
X24677682Y-28571268D02*
X24707670Y-28612105D01*
X24396250Y-48440394D02*
X24372792Y-48485301D01*
X24497162Y-27949350D02*
X24499729Y-28050649D01*
X25447796Y-31001283D02*
X25397277Y-31005130D01*
X75257204Y-31348627D02*
X75223238Y-31311033D01*
X24707670Y-28612105D02*
X24739687Y-28651372D01*
X75969481Y-48848644D02*
X75927177Y-48820763D01*
X24417403Y-91605644D02*
X24436198Y-91652694D01*
X83399309Y-105665259D02*
X83577780Y-105491184D01*
X82167864Y-26504844D02*
X82389715Y-26391107D01*
X15123806Y-36887395D02*
X15074407Y-37131759D01*
X76199082Y-96954139D02*
X76151140Y-96937752D01*
X24493315Y-80101168D02*
X24486914Y-80151427D01*
X24499729Y-63949350D02*
X24497162Y-64050649D01*
X74749098Y-92968077D02*
X74797809Y-92954139D01*
X24624099Y-79514698D02*
X24600641Y-79559605D01*
X74649873Y-79011531D02*
X74599614Y-79005130D01*
X23649873Y-27011531D02*
X23699744Y-27020470D01*
X75027410Y-63151355D02*
X74983747Y-63125653D01*
X24417403Y-96394355D02*
X24396250Y-96440394D01*
X23938840Y-96897804D02*
X23892801Y-96918957D01*
X75649801Y-80528964D02*
X75624099Y-80485301D01*
X18056272Y-74607381D02*
X18288345Y-74698463D01*
X24518916Y-95798701D02*
X24509977Y-95848572D01*
X83399309Y-41665259D02*
X83577780Y-41491184D01*
X84555975Y-72056435D02*
X84652814Y-71826705D01*
X75493315Y-63898831D02*
X75486914Y-63848572D01*
X15798316Y-99287268D02*
X15668318Y-99500000D01*
X15000000Y-54124653D02*
X15012427Y-54373650D01*
X84652814Y-20173294D02*
X84555975Y-19943564D01*
X25199082Y-28954139D02*
X25247793Y-28968077D01*
X84984464Y-38373650D02*
X84996891Y-38124653D01*
X25247793Y-95031922D02*
X25199082Y-95045860D01*
X81472221Y-42777864D02*
X81708546Y-42698463D01*
X75187412Y-31275207D02*
X75149818Y-31241241D01*
X75110551Y-76790775D02*
X75149818Y-76758758D01*
X24477975Y-59798701D02*
X24486914Y-59848572D01*
X75518916Y-16201298D02*
X75509977Y-16151427D01*
X24486914Y-59848572D02*
X24493315Y-59898831D01*
X83212384Y-82169777D02*
X83017468Y-82014337D01*
X75436198Y-108347305D02*
X75452585Y-108299363D01*
X75396250Y-79559605D02*
X75372792Y-79514698D01*
X74549095Y-76998716D02*
X74599614Y-76994869D01*
X24677682Y-79428731D02*
X24649801Y-79471035D01*
X75886340Y-107209224D02*
X75927177Y-107179236D01*
X84738082Y-55592433D02*
X84811567Y-55354202D01*
X19500606Y-90975153D02*
X19749216Y-90993784D01*
X75503576Y-16101168D02*
X75499729Y-16050649D01*
X75110551Y-60790775D02*
X75149818Y-60758758D01*
X83577780Y-50508815D02*
X83399309Y-50334740D01*
X75518916Y-43798701D02*
X75530368Y-43749347D01*
X15000000Y-38124653D02*
X15012427Y-38373650D01*
X25058051Y-63102195D02*
X25013144Y-63125653D01*
X79998446Y-107000000D02*
X80247675Y-106993784D01*
X74845751Y-76937752D02*
X74892801Y-76918957D01*
X83577780Y-98508815D02*
X83399309Y-98334740D01*
X24372792Y-48485301D02*
X24347090Y-48528964D01*
X18056272Y-33392618D02*
X17829027Y-33495155D01*
X84922484Y-21131759D02*
X84873085Y-20887395D01*
X74498446Y-29000000D02*
X74549095Y-28998716D01*
X74845751Y-47062247D02*
X74797809Y-47045860D01*
X23549095Y-107001283D02*
X23599614Y-107005130D01*
X75886340Y-59209224D02*
X75927177Y-59179236D01*
X24886340Y-76790775D02*
X24927177Y-76820763D01*
X75509977Y-59848572D02*
X75518916Y-59798701D01*
X15668318Y-35500000D02*
X15549086Y-35718946D01*
X23699744Y-27020470D02*
X23749098Y-27031922D01*
X75530368Y-107749347D02*
X75544306Y-107700636D01*
X75436198Y-95652694D02*
X75417403Y-95605644D01*
X24509977Y-28151427D02*
X24518916Y-28201298D01*
X75560693Y-27652694D02*
X75579488Y-27605644D01*
X75773653Y-59311033D02*
X75809479Y-59275207D01*
X23797809Y-16954139D02*
X23749098Y-16968077D01*
X82605622Y-65733545D02*
X82389715Y-65608892D01*
X19749216Y-33006215D02*
X19500606Y-33024846D01*
X18288345Y-90698463D02*
X18524670Y-90777864D01*
X24257204Y-32651372D02*
X24223238Y-32688966D01*
X15000000Y-22124653D02*
X15012427Y-22373650D01*
X24027410Y-27151355D02*
X24069714Y-27179236D01*
X76297147Y-48979529D02*
X76247793Y-48968077D01*
X75773653Y-43311033D02*
X75809479Y-43275207D01*
X80743657Y-90944154D02*
X80989176Y-90900862D01*
X75486914Y-47848572D02*
X75477975Y-47798701D01*
X23649873Y-43011531D02*
X23699744Y-43020470D01*
X23699744Y-16979529D02*
X23649873Y-16988468D01*
X75809479Y-96724792D02*
X75773653Y-96688966D01*
X24347090Y-80528964D02*
X24319209Y-80571268D01*
X24530368Y-47749347D02*
X24518916Y-47798701D01*
X76447796Y-91001283D02*
X76498446Y-91000000D01*
X83747352Y-34691570D02*
X83577780Y-34508815D01*
X75347090Y-79471035D02*
X75319209Y-79428731D01*
X24257204Y-91348627D02*
X24289221Y-91387894D01*
X75466523Y-60250652D02*
X75477975Y-60201298D01*
X24289221Y-16612105D02*
X24257204Y-16651372D01*
X24847073Y-92758758D02*
X24886340Y-92790775D01*
X15074407Y-37131759D02*
X15037249Y-37378281D01*
X84328573Y-40500000D02*
X84447805Y-40281053D01*
X75530368Y-91749347D02*
X75544306Y-91700636D01*
X83212384Y-25830222D02*
X83399309Y-25665259D01*
X76199082Y-43045860D02*
X76247793Y-43031922D01*
X25247793Y-60968077D02*
X25297147Y-60979529D01*
X76151140Y-32937752D02*
X76104090Y-32918957D01*
X75530368Y-59749347D02*
X75544306Y-59700636D01*
X80496285Y-26975153D02*
X80743657Y-26944154D01*
X84058136Y-88918718D02*
X84198575Y-88712731D01*
X24149818Y-43241241D02*
X24187412Y-43275207D01*
X16784507Y-89830222D02*
X16979423Y-89985662D01*
X18524670Y-65222135D02*
X18288345Y-65301536D01*
X24969481Y-79151355D02*
X24927177Y-79179236D01*
X15798316Y-51287268D02*
X15668318Y-51500000D01*
X19749216Y-81006215D02*
X19500606Y-81024846D01*
X24560693Y-63652694D02*
X24544306Y-63700636D01*
X23699744Y-43020470D02*
X23749098Y-43031922D01*
X19253234Y-106944154D02*
X19500606Y-106975153D01*
X18764659Y-26845386D02*
X19007715Y-26900862D01*
X24497162Y-80050649D02*
X24493315Y-80101168D01*
X15798316Y-40712731D02*
X15938755Y-40918718D01*
X84922484Y-102868240D02*
X84959642Y-102621718D01*
X76247793Y-75031922D02*
X76297147Y-75020470D01*
X74498446Y-61000000D02*
X74549095Y-60998716D01*
X24707670Y-108612105D02*
X24739687Y-108651372D01*
X74599614Y-76994869D02*
X74649873Y-76988468D01*
X24493315Y-91898831D02*
X24497162Y-91949350D01*
X75560693Y-32347305D02*
X75544306Y-32299363D01*
X75927177Y-91179236D02*
X75969481Y-91151355D01*
X16784507Y-66169777D02*
X16597582Y-66334740D01*
X84447805Y-104281053D02*
X84555975Y-104056435D01*
X24886340Y-108790775D02*
X24927177Y-108820763D01*
X24452585Y-59700636D02*
X24466523Y-59749347D01*
X24486914Y-16151427D02*
X24477975Y-16201298D01*
X15798316Y-24712731D02*
X15938755Y-24918718D01*
X76447796Y-32998716D02*
X76397277Y-32994869D01*
X17181845Y-42131193D02*
X17391269Y-42266454D01*
X84328573Y-88500000D02*
X84447805Y-88281053D01*
X75677682Y-91428731D02*
X75707670Y-91387894D01*
X16249539Y-50691570D02*
X16089288Y-50882550D01*
X24347090Y-59471035D02*
X24372792Y-59514698D01*
X15074407Y-22868240D02*
X15123806Y-23112604D01*
X75544306Y-48299363D02*
X75530368Y-48250652D01*
X74699744Y-92979529D02*
X74749098Y-92968077D01*
X75497162Y-63949350D02*
X75493315Y-63898831D01*
X16979423Y-50014337D02*
X16784507Y-50169777D01*
X18524670Y-97222135D02*
X18288345Y-97301536D01*
X75149818Y-92758758D02*
X75187412Y-92724792D01*
X74797809Y-31045860D02*
X74749098Y-31031922D01*
X84811567Y-100645797D02*
X84738082Y-100407566D01*
X75518916Y-75798701D02*
X75530368Y-75749347D01*
X76151140Y-27062247D02*
X76199082Y-27045860D01*
X84959642Y-53378281D02*
X84922484Y-53131759D01*
X75739687Y-16651372D02*
X75707670Y-16612105D01*
X75486914Y-95848572D02*
X75477975Y-95798701D01*
X23892801Y-48918957D02*
X23845751Y-48937752D01*
X15549086Y-104281053D02*
X15668318Y-104500000D01*
X25397277Y-63005130D02*
X25347018Y-63011531D01*
X74498446Y-63000000D02*
X69998446Y-63000000D01*
X15012427Y-86373650D02*
X15037249Y-86621718D01*
X24347090Y-107471035D02*
X24372792Y-107514698D01*
X74599614Y-47005130D02*
X74549095Y-47001283D01*
X23749098Y-27031922D02*
X23797809Y-27045860D01*
X24452585Y-27700636D02*
X24466523Y-27749347D01*
X83577780Y-41491184D02*
X83747352Y-41308429D01*
X75396250Y-76440394D02*
X75417403Y-76394355D01*
X84873085Y-36887395D02*
X84811567Y-36645797D01*
X15549086Y-88281053D02*
X15668318Y-88500000D01*
X84922484Y-101131759D02*
X84873085Y-100887395D01*
X23649873Y-64988468D02*
X23599614Y-64994869D01*
X75649801Y-96528964D02*
X75624099Y-96485301D01*
X75809479Y-48724792D02*
X75773653Y-48688966D01*
X75969481Y-32848644D02*
X75927177Y-32820763D01*
X74845751Y-31062247D02*
X74797809Y-31045860D01*
X80743657Y-42944154D02*
X80989176Y-42900862D01*
X16979423Y-66014337D02*
X16784507Y-66169777D01*
X76104090Y-43081042D02*
X76151140Y-43062247D01*
X24347090Y-16528964D02*
X24319209Y-16571268D01*
X24624099Y-63514698D02*
X24600641Y-63559605D01*
X25498446Y-95000000D02*
X25447796Y-95001283D01*
X24149818Y-27241241D02*
X24187412Y-27275207D01*
X25297147Y-95020470D02*
X25247793Y-95031922D01*
X76058051Y-43102195D02*
X76104090Y-43081042D01*
X82815046Y-97868806D02*
X82605622Y-97733545D01*
X75289221Y-63387894D02*
X75257204Y-63348627D01*
X19253234Y-97055845D02*
X19007715Y-97099137D01*
X84873085Y-23112604D02*
X84922484Y-22868240D01*
X75223238Y-92688966D02*
X75257204Y-92651372D01*
X25397277Y-108994869D02*
X25447796Y-108998716D01*
X25447796Y-44998716D02*
X25498446Y-45000000D01*
X75707670Y-64612105D02*
X75677682Y-64571268D01*
X23498446Y-91000000D02*
X23549095Y-91001283D01*
X83212384Y-105830222D02*
X83399309Y-105665259D01*
X17181845Y-90131193D02*
X17391269Y-90266454D01*
X24509977Y-95848572D02*
X24503576Y-95898831D01*
X15344077Y-100173294D02*
X15258809Y-100407566D01*
X24466523Y-59749347D02*
X24477975Y-59798701D01*
X75319209Y-15428731D02*
X75289221Y-15387894D01*
X24372792Y-91514698D02*
X24396250Y-91559605D01*
X18056272Y-106607381D02*
X18288345Y-106698463D01*
X75969481Y-107151355D02*
X76013144Y-107125653D01*
X16597582Y-25665259D02*
X16784507Y-25830222D01*
X24969481Y-31151355D02*
X24927177Y-31179236D01*
X15037249Y-38621718D02*
X15074407Y-38868240D01*
X82815046Y-106131193D02*
X83017468Y-105985662D01*
X15185324Y-55354202D02*
X15258809Y-55592433D01*
X24499729Y-15949350D02*
X24497162Y-16050649D01*
X15344077Y-103826705D02*
X15440916Y-104056435D01*
X24319209Y-16571268D02*
X24289221Y-16612105D01*
X84738082Y-71592433D02*
X84811567Y-71354202D01*
X15123806Y-20887395D02*
X15074407Y-21131759D01*
X25151140Y-60937752D02*
X25199082Y-60954139D01*
X80247675Y-90993784D02*
X80496285Y-90975153D01*
X15123806Y-71112604D02*
X15185324Y-71354202D01*
X15185324Y-36645797D02*
X15123806Y-36887395D01*
X75187412Y-15275207D02*
X75149818Y-15241241D01*
X24847073Y-31241241D02*
X24809479Y-31275207D01*
X23892801Y-107081042D02*
X23938840Y-107102195D01*
X84738082Y-20407566D02*
X84652814Y-20173294D01*
X84959642Y-102621718D02*
X84984464Y-102373650D01*
X83017468Y-66014337D02*
X82815046Y-65868806D01*
X75372792Y-92485301D02*
X75396250Y-92440394D01*
X74649873Y-28988468D02*
X74699744Y-28979529D01*
X74599614Y-44994869D02*
X74649873Y-44988468D01*
X25347018Y-95011531D02*
X25297147Y-95020470D01*
X23599614Y-107005130D02*
X23649873Y-107011531D01*
X75027410Y-44848644D02*
X75069714Y-44820763D01*
X75707670Y-32612105D02*
X75677682Y-32571268D01*
X16089288Y-82882550D02*
X15938755Y-83081281D01*
X24927177Y-92820763D02*
X24969481Y-92848644D01*
X81232232Y-74845386D02*
X81472221Y-74777864D01*
X15668318Y-40500000D02*
X15798316Y-40712731D01*
X74845751Y-95062247D02*
X74797809Y-95045860D01*
X15074407Y-85131759D02*
X15037249Y-85378281D01*
X18764659Y-17154613D02*
X18524670Y-17222135D01*
X84811567Y-68645797D02*
X84738082Y-68407566D01*
X24289221Y-48612105D02*
X24257204Y-48651372D01*
X24503576Y-95898831D02*
X24499729Y-95949350D01*
X24649801Y-63471035D02*
X24624099Y-63514698D01*
X84873085Y-84887395D02*
X84811567Y-84645797D01*
X84873085Y-103112604D02*
X84922484Y-102868240D01*
X75544306Y-64299363D02*
X75530368Y-64250652D01*
X19998446Y-81000000D02*
X19749216Y-81006215D01*
X76104090Y-16918957D02*
X76058051Y-16897804D01*
X24677682Y-108571268D02*
X24707670Y-108612105D01*
X75649801Y-75471035D02*
X75677682Y-75428731D01*
X84447805Y-19718946D02*
X84328573Y-19500000D01*
X25447796Y-79001283D02*
X25397277Y-79005130D01*
X80496285Y-74975153D02*
X80743657Y-74944154D01*
X75677682Y-48571268D02*
X75649801Y-48528964D01*
X76447796Y-96998716D02*
X76397277Y-96994869D01*
X80247675Y-58993784D02*
X80496285Y-58975153D01*
X23699744Y-48979529D02*
X23649873Y-48988468D01*
X75069714Y-63179236D02*
X75027410Y-63151355D01*
X75069714Y-108820763D02*
X75110551Y-108790775D01*
X84058136Y-99081281D02*
X83907603Y-98882550D01*
X23845751Y-27062247D02*
X23892801Y-27081042D01*
X24149818Y-59241241D02*
X24187412Y-59275207D01*
X25013144Y-95125653D02*
X24969481Y-95151355D01*
X75677682Y-59428731D02*
X75707670Y-59387894D01*
X18056272Y-81392618D02*
X17829027Y-81495155D01*
X24069714Y-107179236D02*
X24110551Y-107209224D01*
X15938755Y-67081281D02*
X15798316Y-67287268D01*
X75847073Y-64758758D02*
X75809479Y-64724792D01*
X23938840Y-75102195D02*
X23983747Y-75125653D01*
X24149818Y-80758758D02*
X24110551Y-80790775D01*
X23845751Y-32937752D02*
X23797809Y-32954139D01*
X74797809Y-60954139D02*
X74845751Y-60937752D01*
X83747352Y-25308429D02*
X83907603Y-25117449D01*
X74498446Y-109000000D02*
X74549095Y-108998716D01*
X15258809Y-52407566D02*
X15185324Y-52645797D01*
X16597582Y-82334740D02*
X16419111Y-82508815D01*
X18524670Y-90777864D02*
X18764659Y-90845386D01*
X17829027Y-42504844D02*
X18056272Y-42607381D01*
X75927177Y-64820763D02*
X75886340Y-64790775D01*
X80989176Y-17099137D02*
X80743657Y-17055845D01*
X75257204Y-60651372D02*
X75289221Y-60612105D01*
X19998446Y-65000000D02*
X19749216Y-65006215D01*
X76199082Y-80954139D02*
X76151140Y-80937752D01*
X84959642Y-86621718D02*
X84984464Y-86373650D01*
X76058051Y-32897804D02*
X76013144Y-32874346D01*
X23498446Y-59000000D02*
X23549095Y-59001283D01*
X23983747Y-64874346D02*
X23938840Y-64897804D01*
X24739687Y-31348627D02*
X24707670Y-31387894D01*
X84996891Y-21875346D02*
X84984464Y-21626349D01*
X24493315Y-43898831D02*
X24497162Y-43949350D01*
X76447796Y-59001283D02*
X76498446Y-59000000D01*
X24544306Y-28299363D02*
X24560693Y-28347305D01*
X74797809Y-79045860D02*
X74749098Y-79031922D01*
X23938840Y-64897804D02*
X23892801Y-64918957D01*
X84328573Y-51500000D02*
X84198575Y-51287268D01*
X81940619Y-42607381D02*
X82167864Y-42504844D01*
X75809479Y-107275207D02*
X75847073Y-107241241D01*
X76447796Y-80998716D02*
X76397277Y-80994869D01*
X75649801Y-59471035D02*
X75677682Y-59428731D01*
X81232232Y-97154613D02*
X80989176Y-97099137D01*
X75110551Y-92790775D02*
X75149818Y-92758758D01*
X25498446Y-109000000D02*
X74498446Y-109000000D01*
X75223238Y-44688966D02*
X75257204Y-44651372D01*
X75069714Y-15179236D02*
X75027410Y-15151355D01*
X75649801Y-16528964D02*
X75624099Y-16485301D01*
X24466523Y-16250652D02*
X24452585Y-16299363D01*
X84328573Y-56500000D02*
X84447805Y-56281053D01*
X82167864Y-81495155D02*
X81940619Y-81392618D01*
X25058051Y-28897804D02*
X25104090Y-28918957D01*
X24223238Y-64688966D02*
X24187412Y-64724792D01*
X23498446Y-43000000D02*
X23549095Y-43001283D01*
X75499729Y-32050649D02*
X75497162Y-31949350D01*
X74599614Y-79005130D02*
X74549095Y-79001283D01*
X16089288Y-73117449D02*
X16249539Y-73308429D01*
X75497162Y-60050649D02*
X75499729Y-59949350D01*
X24466523Y-80250652D02*
X24452585Y-80299363D01*
X24886340Y-31209224D02*
X24847073Y-31241241D01*
X75509977Y-32151427D02*
X75503576Y-32101168D01*
X24187412Y-75275207D02*
X24223238Y-75311033D01*
X76058051Y-64897804D02*
X76013144Y-64874346D01*
X17181845Y-58131193D02*
X17391269Y-58266454D01*
X24649801Y-15471035D02*
X24624099Y-15514698D01*
X24579488Y-44394355D02*
X24600641Y-44440394D01*
X76013144Y-80874346D02*
X75969481Y-80848644D01*
X76498446Y-97000000D02*
X76447796Y-96998716D01*
X29998446Y-61000000D02*
X29998446Y-63000000D01*
X74549095Y-44998716D02*
X74599614Y-44994869D01*
X82389715Y-106391107D02*
X82605622Y-106266454D01*
X23892801Y-43081042D02*
X23938840Y-43102195D01*
X75809479Y-27275207D02*
X75847073Y-27241241D01*
X75372792Y-63514698D02*
X75347090Y-63471035D01*
X24624099Y-108485301D02*
X24649801Y-108528964D01*
X25347018Y-108988468D02*
X25397277Y-108994869D01*
X75417403Y-28394355D02*
X75436198Y-28347305D01*
X19998446Y-59000000D02*
X23498446Y-59000000D01*
X75257204Y-44651372D02*
X75289221Y-44612105D01*
X83017468Y-34014337D02*
X82815046Y-33868806D01*
X75503576Y-32101168D02*
X75499729Y-32050649D01*
X74797809Y-47045860D02*
X74749098Y-47031922D01*
X24499729Y-95949350D02*
X24497162Y-96050649D01*
X84922484Y-37131759D02*
X84873085Y-36887395D01*
X24396250Y-96440394D02*
X24372792Y-96485301D01*
X84811567Y-23354202D02*
X84873085Y-23112604D01*
X19998446Y-107000000D02*
X23498446Y-107000000D01*
X84811567Y-87354202D02*
X84873085Y-87112604D01*
X81232232Y-106845386D02*
X81472221Y-106777864D01*
X82389715Y-26391107D02*
X82605622Y-26266454D01*
X75886340Y-27209224D02*
X75927177Y-27179236D01*
X23649873Y-48988468D02*
X23599614Y-48994869D01*
X18524670Y-106777864D02*
X18764659Y-106845386D01*
X76199082Y-48954139D02*
X76151140Y-48937752D01*
X84447805Y-67718946D02*
X84328573Y-67500000D01*
X74599614Y-31005130D02*
X74549095Y-31001283D01*
X24969481Y-63151355D02*
X24927177Y-63179236D01*
X75649801Y-64528964D02*
X75624099Y-64485301D01*
X25058051Y-79102195D02*
X25013144Y-79125653D01*
X24493315Y-96101168D02*
X24486914Y-96151427D01*
X24624099Y-28485301D02*
X24649801Y-28528964D01*
X24927177Y-95179236D02*
X24886340Y-95209224D01*
X24477975Y-48201298D02*
X24466523Y-48250652D01*
X24600641Y-79559605D02*
X24579488Y-79605644D01*
X25151140Y-28937752D02*
X25199082Y-28954139D01*
X24289221Y-59387894D02*
X24319209Y-59428731D01*
X25397277Y-79005130D02*
X25347018Y-79011531D01*
X82815046Y-17868806D02*
X82605622Y-17733545D01*
X15000000Y-102124653D02*
X15012427Y-102373650D01*
X76347018Y-27011531D02*
X76397277Y-27005130D01*
X25297147Y-47020470D02*
X25247793Y-47031922D01*
X75372792Y-79514698D02*
X75347090Y-79471035D01*
X24417403Y-107605644D02*
X24436198Y-107652694D01*
X17607176Y-97608892D02*
X17391269Y-97733545D01*
X25199082Y-95045860D02*
X25151140Y-95062247D01*
X76247793Y-80968077D02*
X76199082Y-80954139D01*
X24257204Y-75348627D02*
X24289221Y-75387894D01*
X75466523Y-63749347D02*
X75452585Y-63700636D01*
X15258809Y-84407566D02*
X15185324Y-84645797D01*
X75027410Y-28848644D02*
X75069714Y-28820763D01*
X25297147Y-60979529D02*
X25347018Y-60988468D01*
X76397277Y-96994869D02*
X76347018Y-96988468D01*
X24477975Y-32201298D02*
X24466523Y-32250652D01*
X24493315Y-32101168D02*
X24486914Y-32151427D01*
X15258809Y-36407566D02*
X15185324Y-36645797D01*
X16979423Y-73985662D02*
X17181845Y-74131193D01*
X76498446Y-43000000D02*
X79998446Y-43000000D01*
X18764659Y-58845386D02*
X19007715Y-58900862D01*
X76397277Y-107005130D02*
X76447796Y-107001283D01*
X24809479Y-15275207D02*
X24773653Y-15311033D01*
X15185324Y-103354202D02*
X15258809Y-103592433D01*
X25447796Y-108998716D02*
X25498446Y-109000000D01*
X75223238Y-15311033D02*
X75187412Y-15275207D01*
X24289221Y-64612105D02*
X24257204Y-64651372D01*
X82815046Y-49868806D02*
X82605622Y-49733545D01*
X75600641Y-107559605D02*
X75624099Y-107514698D01*
X23649873Y-107011531D02*
X23699744Y-107020470D01*
X75886340Y-48790775D02*
X75847073Y-48758758D01*
X23599614Y-43005130D02*
X23649873Y-43011531D01*
X81232232Y-58845386D02*
X81472221Y-58777864D01*
X16419111Y-105491184D02*
X16597582Y-105665259D01*
X75319209Y-76571268D02*
X75347090Y-76528964D01*
X25199082Y-44954139D02*
X25247793Y-44968077D01*
X75649801Y-107471035D02*
X75677682Y-107428731D01*
X69998446Y-77000000D02*
X74498446Y-77000000D01*
X82815046Y-26131193D02*
X83017468Y-25985662D01*
X83907603Y-89117449D02*
X84058136Y-88918718D01*
X76397277Y-48994869D02*
X76347018Y-48988468D01*
X25104090Y-63081042D02*
X25058051Y-63102195D01*
X74938840Y-44897804D02*
X74983747Y-44874346D01*
X75110551Y-31209224D02*
X75069714Y-31179236D01*
X15668318Y-56500000D02*
X15798316Y-56712731D01*
X24773653Y-92688966D02*
X24809479Y-92724792D01*
X75452585Y-15700636D02*
X75436198Y-15652694D01*
X24372792Y-107514698D02*
X24396250Y-107559605D01*
X16419111Y-41491184D02*
X16597582Y-41665259D01*
X75477975Y-95798701D02*
X75466523Y-95749347D01*
X80743657Y-26944154D02*
X80989176Y-26900862D01*
X74699744Y-108979529D02*
X74749098Y-108968077D01*
X23749098Y-48968077D02*
X23699744Y-48979529D01*
X81940619Y-106607381D02*
X82167864Y-106504844D01*
X24544306Y-108299363D02*
X24560693Y-108347305D01*
X75560693Y-75652694D02*
X75579488Y-75605644D01*
X23699744Y-59020470D02*
X23749098Y-59031922D01*
X75347090Y-15471035D02*
X75319209Y-15428731D01*
X75649801Y-27471035D02*
X75677682Y-27428731D01*
X25297147Y-28979529D02*
X25347018Y-28988468D01*
X25397277Y-60994869D02*
X25447796Y-60998716D01*
X16597582Y-98334740D02*
X16419111Y-98508815D01*
X24149818Y-32758758D02*
X24110551Y-32790775D01*
X24417403Y-64394355D02*
X24396250Y-64440394D01*
X16784507Y-73830222D02*
X16979423Y-73985662D01*
X24773653Y-15311033D02*
X24739687Y-15348627D01*
X23649873Y-96988468D02*
X23599614Y-96994869D01*
X16979423Y-57985662D02*
X17181845Y-58131193D01*
X76247793Y-48968077D02*
X76199082Y-48954139D01*
X19253234Y-74944154D02*
X19500606Y-74975153D01*
X24677682Y-15428731D02*
X24649801Y-15471035D01*
X75518916Y-80201298D02*
X75509977Y-80151427D01*
X75707670Y-59387894D02*
X75739687Y-59348627D01*
X76498446Y-91000000D02*
X79998446Y-91000000D01*
X23599614Y-96994869D02*
X23549095Y-96998716D01*
X84555975Y-99943564D02*
X84447805Y-99718946D01*
X24466523Y-27749347D02*
X24477975Y-27798701D01*
X75477975Y-108201298D02*
X75486914Y-108151427D01*
X15185324Y-68645797D02*
X15123806Y-68887395D01*
X15037249Y-37378281D02*
X15012427Y-37626349D01*
X24809479Y-28724792D02*
X24847073Y-28758758D01*
X83017468Y-18014337D02*
X82815046Y-17868806D01*
X84984464Y-86373650D02*
X84996891Y-86124653D01*
X76297147Y-59020470D02*
X76347018Y-59011531D01*
X75847073Y-96758758D02*
X75809479Y-96724792D01*
X84447805Y-24281053D02*
X84555975Y-24056435D01*
X75257204Y-79348627D02*
X75223238Y-79311033D01*
X25058051Y-31102195D02*
X25013144Y-31125653D01*
X15123806Y-39112604D02*
X15185324Y-39354202D01*
X23749098Y-64968077D02*
X23699744Y-64979529D01*
X23498446Y-49000000D02*
X19998446Y-49000000D01*
X25347018Y-92988468D02*
X25397277Y-92994869D01*
X24579488Y-47605644D02*
X24560693Y-47652694D01*
X25297147Y-76979529D02*
X25347018Y-76988468D01*
X79998446Y-97000000D02*
X76498446Y-97000000D01*
X24319209Y-64571268D02*
X24289221Y-64612105D01*
X76058051Y-27102195D02*
X76104090Y-27081042D01*
X75477975Y-44201298D02*
X75486914Y-44151427D01*
X16249539Y-18691570D02*
X16089288Y-18882550D01*
X74599614Y-60994869D02*
X74649873Y-60988468D01*
X24544306Y-79700636D02*
X24530368Y-79749347D01*
X75600641Y-43559605D02*
X75624099Y-43514698D01*
X76447796Y-64998716D02*
X76397277Y-64994869D01*
X17391269Y-65733545D02*
X17181845Y-65868806D01*
X81472221Y-65222135D02*
X81232232Y-65154613D01*
X74649873Y-92988468D02*
X74699744Y-92979529D01*
X80743657Y-74944154D02*
X80989176Y-74900862D01*
X24452585Y-91700636D02*
X24466523Y-91749347D01*
X75809479Y-43275207D02*
X75847073Y-43241241D01*
X15258809Y-68407566D02*
X15185324Y-68645797D01*
X74599614Y-63005130D02*
X74549095Y-63001283D01*
X76347018Y-91011531D02*
X76397277Y-91005130D01*
X75223238Y-28688966D02*
X75257204Y-28651372D01*
X84738082Y-36407566D02*
X84652814Y-36173294D01*
X75452585Y-92299363D02*
X75466523Y-92250652D01*
X15074407Y-86868240D02*
X15123806Y-87112604D01*
X16784507Y-98169777D02*
X16597582Y-98334740D01*
X15012427Y-85626349D02*
X15000000Y-85875346D01*
X24493315Y-27898831D02*
X24497162Y-27949350D01*
X24452585Y-96299363D02*
X24436198Y-96347305D01*
X24927177Y-31179236D02*
X24886340Y-31209224D01*
X17607176Y-65608892D02*
X17391269Y-65733545D01*
X23599614Y-27005130D02*
X23649873Y-27011531D01*
X16419111Y-50508815D02*
X16249539Y-50691570D01*
X23892801Y-32918957D02*
X23845751Y-32937752D01*
X24560693Y-92347305D02*
X24579488Y-92394355D01*
X82605622Y-42266454D02*
X82815046Y-42131193D01*
X75530368Y-64250652D02*
X75518916Y-64201298D01*
X76151140Y-91062247D02*
X76199082Y-91045860D01*
X80989176Y-33099137D02*
X80743657Y-33055845D01*
X69998446Y-95000000D02*
X69998446Y-93000000D01*
X80743657Y-58944154D02*
X80989176Y-58900862D01*
X15440916Y-40056435D02*
X15549086Y-40281053D01*
X19500606Y-97024846D02*
X19253234Y-97055845D01*
X15440916Y-88056435D02*
X15549086Y-88281053D01*
X75579488Y-32394355D02*
X75560693Y-32347305D01*
X80989176Y-106900862D02*
X81232232Y-106845386D01*
X24436198Y-96347305D02*
X24417403Y-96394355D01*
X75773653Y-32688966D02*
X75739687Y-32651372D01*
X74845751Y-44937752D02*
X74892801Y-44918957D01*
X75110551Y-95209224D02*
X75069714Y-95179236D01*
X24530368Y-63749347D02*
X24518916Y-63798701D01*
X19253234Y-49055845D02*
X19007715Y-49099137D01*
X74938840Y-31102195D02*
X74892801Y-31081042D01*
X74938840Y-28897804D02*
X74983747Y-28874346D01*
X19500606Y-106975153D02*
X19749216Y-106993784D01*
X75187412Y-28724792D02*
X75223238Y-28688966D01*
X16249539Y-25308429D02*
X16419111Y-25491184D01*
X24187412Y-32724792D02*
X24149818Y-32758758D01*
X24503576Y-44101168D02*
X24509977Y-44151427D01*
X75289221Y-92612105D02*
X75319209Y-92571268D01*
X24289221Y-32612105D02*
X24257204Y-32651372D01*
X75503576Y-27898831D02*
X75509977Y-27848572D01*
X15037249Y-86621718D02*
X15074407Y-86868240D01*
X24579488Y-108394355D02*
X24600641Y-108440394D01*
X25347018Y-31011531D02*
X25297147Y-31020470D01*
X84873085Y-87112604D02*
X84922484Y-86868240D01*
X24847073Y-15241241D02*
X24809479Y-15275207D01*
X23749098Y-107031922D02*
X23797809Y-107045860D01*
X84328573Y-35500000D02*
X84198575Y-35287268D01*
X75257204Y-76651372D02*
X75289221Y-76612105D01*
X25013144Y-44874346D02*
X25058051Y-44897804D01*
X16419111Y-98508815D02*
X16249539Y-98691570D01*
X25498446Y-93000000D02*
X29998446Y-93000000D01*
X75499729Y-80050649D02*
X75497162Y-79949350D01*
X24396250Y-64440394D02*
X24372792Y-64485301D01*
X23749098Y-91031922D02*
X23797809Y-91045860D01*
X24187412Y-16724792D02*
X24149818Y-16758758D01*
X23599614Y-75005130D02*
X23649873Y-75011531D01*
X76151140Y-16937752D02*
X76104090Y-16918957D01*
X24347090Y-32528964D02*
X24319209Y-32571268D01*
X15123806Y-87112604D02*
X15185324Y-87354202D01*
X75544306Y-107700636D02*
X75560693Y-107652694D01*
X74699744Y-31020470D02*
X74649873Y-31011531D01*
X80989176Y-90900862D02*
X81232232Y-90845386D01*
X75544306Y-27700636D02*
X75560693Y-27652694D01*
X15549086Y-99718946D02*
X15440916Y-99943564D01*
X24319209Y-107428731D02*
X24347090Y-107471035D01*
X24600641Y-44440394D02*
X24624099Y-44485301D01*
X75289221Y-44612105D02*
X75319209Y-44571268D01*
X17607176Y-106391107D02*
X17829027Y-106504844D01*
X19007715Y-49099137D02*
X18764659Y-49154613D01*
X24518916Y-31798701D02*
X24509977Y-31848572D01*
X24530368Y-28250652D02*
X24544306Y-28299363D01*
X16979423Y-41985662D02*
X17181845Y-42131193D01*
X24560693Y-79652694D02*
X24544306Y-79700636D01*
X80247675Y-42993784D02*
X80496285Y-42975153D01*
X15668318Y-19500000D02*
X15549086Y-19718946D01*
X75149818Y-15241241D02*
X75110551Y-15209224D01*
X23845751Y-91062247D02*
X23892801Y-91081042D01*
X75027410Y-76848644D02*
X75069714Y-76820763D01*
X15938755Y-19081281D02*
X15798316Y-19287268D01*
X75289221Y-60612105D02*
X75319209Y-60571268D01*
X84984464Y-21626349D02*
X84959642Y-21378281D01*
X24927177Y-60820763D02*
X24969481Y-60848644D01*
X24110551Y-32790775D02*
X24069714Y-32820763D01*
X15440916Y-67943564D02*
X15344077Y-68173294D01*
X75560693Y-16347305D02*
X75544306Y-16299363D01*
X19998446Y-43000000D02*
X23498446Y-43000000D01*
X19007715Y-106900862D02*
X19253234Y-106944154D01*
X84328573Y-67500000D02*
X84198575Y-67287268D01*
X83017468Y-82014337D02*
X82815046Y-81868806D01*
X76498446Y-27000000D02*
X79998446Y-27000000D01*
X24773653Y-63311033D02*
X24739687Y-63348627D01*
X24503576Y-108101168D02*
X24509977Y-108151427D01*
X75969481Y-27151355D02*
X76013144Y-27125653D01*
X19998446Y-33000000D02*
X19749216Y-33006215D01*
X75499729Y-16050649D02*
X75497162Y-15949350D01*
X83577780Y-89491184D02*
X83747352Y-89308429D01*
X75509977Y-43848572D02*
X75518916Y-43798701D01*
X18764659Y-65154613D02*
X18524670Y-65222135D01*
X74938840Y-108897804D02*
X74983747Y-108874346D01*
X80247675Y-106993784D02*
X80496285Y-106975153D01*
X74892801Y-95081042D02*
X74845751Y-95062247D01*
X83212384Y-50169777D02*
X83017468Y-50014337D01*
X75773653Y-91311033D02*
X75809479Y-91275207D01*
X75187412Y-108724792D02*
X75223238Y-108688966D01*
X23892801Y-64918957D02*
X23845751Y-64937752D01*
X74797809Y-108954139D02*
X74845751Y-108937752D01*
X75847073Y-75241241D02*
X75886340Y-75209224D01*
X75503576Y-75898831D02*
X75509977Y-75848572D01*
X75809479Y-32724792D02*
X75773653Y-32688966D01*
X24466523Y-32250652D02*
X24452585Y-32299363D01*
X18764659Y-90845386D02*
X19007715Y-90900862D01*
X75289221Y-47387894D02*
X75257204Y-47348627D01*
X19500606Y-49024846D02*
X19253234Y-49055845D01*
X74938840Y-95102195D02*
X74892801Y-95081042D01*
X25397277Y-31005130D02*
X25347018Y-31011531D01*
X23983747Y-48874346D02*
X23938840Y-48897804D01*
X75579488Y-75605644D02*
X75600641Y-75559605D01*
X23938840Y-32897804D02*
X23892801Y-32918957D01*
X18524670Y-17222135D02*
X18288345Y-17301536D01*
X24417403Y-59605644D02*
X24436198Y-59652694D01*
X83747352Y-18691570D02*
X83577780Y-18508815D01*
X24110551Y-107209224D02*
X24149818Y-107241241D01*
X16089288Y-34882550D02*
X15938755Y-35081281D01*
X24649801Y-31471035D02*
X24624099Y-31514698D01*
X24396250Y-32440394D02*
X24372792Y-32485301D01*
X15074407Y-70868240D02*
X15123806Y-71112604D01*
X24149818Y-48758758D02*
X24110551Y-48790775D01*
X15549086Y-35718946D02*
X15440916Y-35943564D01*
X24187412Y-107275207D02*
X24223238Y-107311033D01*
X75707670Y-48612105D02*
X75677682Y-48571268D01*
X84984464Y-22373650D02*
X84996891Y-22124653D01*
X75436198Y-28347305D02*
X75452585Y-28299363D01*
X75518916Y-59798701D02*
X75530368Y-59749347D01*
X24187412Y-48724792D02*
X24149818Y-48758758D01*
X84873085Y-55112604D02*
X84922484Y-54868240D01*
X24927177Y-108820763D02*
X24969481Y-108848644D01*
X74892801Y-31081042D02*
X74845751Y-31062247D01*
X76151140Y-80937752D02*
X76104090Y-80918957D01*
X84738082Y-39592433D02*
X84811567Y-39354202D01*
X15012427Y-102373650D02*
X15037249Y-102621718D01*
X81472221Y-58777864D02*
X81708546Y-58698463D01*
X23983747Y-75125653D02*
X24027410Y-75151355D01*
X76013144Y-27125653D02*
X76058051Y-27102195D01*
X24069714Y-59179236D02*
X24110551Y-59209224D01*
X75257204Y-28651372D02*
X75289221Y-28612105D01*
X15440916Y-72056435D02*
X15549086Y-72281053D01*
X23892801Y-96918957D02*
X23845751Y-96937752D01*
X24347090Y-43471035D02*
X24372792Y-43514698D01*
X25151140Y-44937752D02*
X25199082Y-44954139D01*
X24466523Y-96250652D02*
X24452585Y-96299363D01*
X24027410Y-43151355D02*
X24069714Y-43179236D01*
X18764659Y-106845386D02*
X19007715Y-106900862D01*
X15798316Y-104712731D02*
X15938755Y-104918718D01*
X24486914Y-107848572D02*
X24493315Y-107898831D01*
X18056272Y-58607381D02*
X18288345Y-58698463D01*
X75466523Y-108250652D02*
X75477975Y-108201298D01*
X75707670Y-107387894D02*
X75739687Y-107348627D01*
X16979423Y-34014337D02*
X16784507Y-34169777D01*
X76447796Y-43001283D02*
X76498446Y-43000000D01*
X75149818Y-63241241D02*
X75110551Y-63209224D01*
X25397277Y-76994869D02*
X25447796Y-76998716D01*
X15668318Y-51500000D02*
X15549086Y-51718946D01*
X81708546Y-26698463D02*
X81940619Y-26607381D01*
X24477975Y-43798701D02*
X24486914Y-43848572D01*
X24477975Y-96201298D02*
X24466523Y-96250652D01*
X24289221Y-96612105D02*
X24257204Y-96651372D01*
X23845751Y-43062247D02*
X23892801Y-43081042D01*
X24347090Y-48528964D02*
X24319209Y-48571268D01*
X15185324Y-52645797D02*
X15123806Y-52887395D01*
X74892801Y-76918957D02*
X74938840Y-76897804D01*
X75319209Y-95428731D02*
X75289221Y-95387894D01*
X82167864Y-106504844D02*
X82389715Y-106391107D01*
X76297147Y-64979529D02*
X76247793Y-64968077D01*
X24497162Y-48050649D02*
X24493315Y-48101168D01*
X79998446Y-75000000D02*
X80247675Y-74993784D01*
X24847073Y-95241241D02*
X24809479Y-95275207D01*
X83399309Y-25665259D02*
X83577780Y-25491184D01*
X82389715Y-81608892D02*
X82167864Y-81495155D01*
X24600641Y-76440394D02*
X24624099Y-76485301D01*
X24739687Y-47348627D02*
X24707670Y-47387894D01*
X82167864Y-65495155D02*
X81940619Y-65392618D01*
X23845751Y-59062247D02*
X23892801Y-59081042D01*
X24560693Y-28347305D02*
X24579488Y-28394355D01*
X75579488Y-16394355D02*
X75560693Y-16347305D01*
X75509977Y-80151427D02*
X75503576Y-80101168D01*
X23797809Y-32954139D02*
X23749098Y-32968077D01*
X25058051Y-92897804D02*
X25104090Y-92918957D01*
X25013144Y-60874346D02*
X25058051Y-60897804D01*
X81940619Y-74607381D02*
X82167864Y-74504844D01*
X24544306Y-92299363D02*
X24560693Y-92347305D01*
X83747352Y-82691570D02*
X83577780Y-82508815D01*
X81232232Y-33154613D02*
X80989176Y-33099137D01*
X25104090Y-28918957D02*
X25151140Y-28937752D01*
X15938755Y-88918718D02*
X16089288Y-89117449D01*
X16784507Y-25830222D02*
X16979423Y-25985662D01*
X84198575Y-72712731D02*
X84328573Y-72500000D01*
X83017468Y-89985662D02*
X83212384Y-89830222D01*
X74983747Y-76874346D02*
X75027410Y-76848644D01*
X24499729Y-31949350D02*
X24497162Y-32050649D01*
X24886340Y-63209224D02*
X24847073Y-63241241D01*
X81232232Y-49154613D02*
X80989176Y-49099137D01*
X25013144Y-28874346D02*
X25058051Y-28897804D01*
X75486914Y-63848572D02*
X75477975Y-63798701D01*
X25498446Y-45000000D02*
X29998446Y-45000000D01*
X24149818Y-64758758D02*
X24110551Y-64790775D01*
X80989176Y-74900862D02*
X81232232Y-74845386D01*
X24493315Y-75898831D02*
X24497162Y-75949350D01*
X75347090Y-31471035D02*
X75319209Y-31428731D01*
X15440916Y-19943564D02*
X15344077Y-20173294D01*
X75530368Y-48250652D02*
X75518916Y-48201298D01*
X75257204Y-47348627D02*
X75223238Y-47311033D01*
X81472221Y-97222135D02*
X81232232Y-97154613D01*
X84447805Y-56281053D02*
X84555975Y-56056435D01*
X24649801Y-44528964D02*
X24677682Y-44571268D01*
X75773653Y-96688966D02*
X75739687Y-96651372D01*
X24417403Y-80394355D02*
X24396250Y-80440394D01*
X84058136Y-35081281D02*
X83907603Y-34882550D01*
X76347018Y-80988468D02*
X76297147Y-80979529D01*
X25199082Y-60954139D02*
X25247793Y-60968077D01*
X23797809Y-96954139D02*
X23749098Y-96968077D01*
X19253234Y-58944154D02*
X19500606Y-58975153D01*
X15549086Y-56281053D02*
X15668318Y-56500000D01*
X25013144Y-92874346D02*
X25058051Y-92897804D01*
X16597582Y-50334740D02*
X16419111Y-50508815D01*
X74938840Y-60897804D02*
X74983747Y-60874346D01*
X75477975Y-47798701D02*
X75466523Y-47749347D01*
X16089288Y-57117449D02*
X16249539Y-57308429D01*
X75436198Y-63652694D02*
X75417403Y-63605644D01*
X80743657Y-49055845D02*
X80496285Y-49024846D01*
X75319209Y-108571268D02*
X75347090Y-108528964D01*
X24600641Y-92440394D02*
X24624099Y-92485301D01*
X18288345Y-97301536D02*
X18056272Y-97392618D01*
X76347018Y-75011531D02*
X76397277Y-75005130D01*
X24417403Y-27605644D02*
X24436198Y-27652694D01*
X24319209Y-48571268D02*
X24289221Y-48612105D01*
X82815046Y-33868806D02*
X82605622Y-33733545D01*
X82167864Y-97495155D02*
X81940619Y-97392618D01*
X24289221Y-75387894D02*
X24319209Y-75428731D01*
X83907603Y-41117449D02*
X84058136Y-40918718D01*
X24927177Y-63179236D02*
X24886340Y-63209224D01*
X24600641Y-15559605D02*
X24579488Y-15605644D01*
X24149818Y-75241241D02*
X24187412Y-75275207D01*
X24707670Y-92612105D02*
X24739687Y-92651372D01*
X76247793Y-107031922D02*
X76297147Y-107020470D01*
X23938840Y-48897804D02*
X23892801Y-48918957D01*
X24560693Y-44347305D02*
X24579488Y-44394355D01*
X15012427Y-101626349D02*
X15000000Y-101875346D01*
X76397277Y-43005130D02*
X76447796Y-43001283D01*
X84652814Y-68173294D02*
X84555975Y-67943564D01*
X75809479Y-64724792D02*
X75773653Y-64688966D01*
X15549086Y-83718946D02*
X15440916Y-83943564D01*
X15037249Y-21378281D02*
X15012427Y-21626349D01*
X23599614Y-48994869D02*
X23549095Y-48998716D01*
X84811567Y-36645797D02*
X84738082Y-36407566D01*
X15668318Y-72500000D02*
X15798316Y-72712731D01*
X74699744Y-63020470D02*
X74649873Y-63011531D01*
X75319209Y-79428731D02*
X75289221Y-79387894D01*
X25498446Y-15000000D02*
X25447796Y-15001283D01*
X24847073Y-44758758D02*
X24886340Y-44790775D01*
X75624099Y-80485301D02*
X75600641Y-80440394D01*
X24027410Y-64848644D02*
X23983747Y-64874346D01*
X24969481Y-60848644D02*
X25013144Y-60874346D01*
X24372792Y-43514698D02*
X24396250Y-43559605D01*
X74749098Y-31031922D02*
X74699744Y-31020470D01*
X75707670Y-91387894D02*
X75739687Y-91348627D01*
X74649873Y-60988468D02*
X74699744Y-60979529D01*
X84873085Y-20887395D02*
X84811567Y-20645797D01*
X76104090Y-59081042D02*
X76151140Y-59062247D01*
X25013144Y-47125653D02*
X24969481Y-47151355D01*
X75579488Y-64394355D02*
X75560693Y-64347305D01*
X74549095Y-95001283D02*
X74498446Y-95000000D01*
X23845751Y-64937752D02*
X23797809Y-64954139D01*
X24927177Y-28820763D02*
X24969481Y-28848644D01*
X24518916Y-79798701D02*
X24509977Y-79848572D01*
X75927177Y-16820763D02*
X75886340Y-16790775D01*
X83212384Y-66169777D02*
X83017468Y-66014337D01*
X25013144Y-15125653D02*
X24969481Y-15151355D01*
X25104090Y-79081042D02*
X25058051Y-79102195D01*
X24257204Y-48651372D02*
X24223238Y-48688966D01*
X23797809Y-75045860D02*
X23845751Y-75062247D01*
X84996891Y-70124653D02*
X84996891Y-69875346D01*
X75486914Y-28151427D02*
X75493315Y-28101168D01*
X17391269Y-97733545D02*
X17181845Y-97868806D01*
X75372792Y-108485301D02*
X75396250Y-108440394D01*
X76347018Y-64988468D02*
X76297147Y-64979529D01*
X75417403Y-76394355D02*
X75436198Y-76347305D01*
X15668318Y-83500000D02*
X15549086Y-83718946D01*
X79998446Y-59000000D02*
X80247675Y-58993784D01*
X74549095Y-108998716D02*
X74599614Y-108994869D01*
X75436198Y-60347305D02*
X75452585Y-60299363D01*
X81940619Y-58607381D02*
X82167864Y-58504844D01*
X83577780Y-34508815D02*
X83399309Y-34334740D01*
X75509977Y-75848572D02*
X75518916Y-75798701D01*
X24499729Y-92050649D02*
X24503576Y-92101168D01*
X75677682Y-96571268D02*
X75649801Y-96528964D01*
X24509977Y-31848572D02*
X24503576Y-31898831D01*
X76058051Y-107102195D02*
X76104090Y-107081042D01*
X25397277Y-47005130D02*
X25347018Y-47011531D01*
X24809479Y-108724792D02*
X24847073Y-108758758D01*
X84959642Y-38621718D02*
X84984464Y-38373650D01*
X84058136Y-24918718D02*
X84198575Y-24712731D01*
X23599614Y-80994869D02*
X23549095Y-80998716D01*
X75509977Y-96151427D02*
X75503576Y-96101168D01*
X75927177Y-80820763D02*
X75886340Y-80790775D01*
X81472221Y-26777864D02*
X81708546Y-26698463D01*
X17391269Y-26266454D02*
X17607176Y-26391107D01*
X75477975Y-31798701D02*
X75466523Y-31749347D01*
X19749216Y-106993784D02*
X19998446Y-107000000D01*
X24372792Y-32485301D02*
X24347090Y-32528964D01*
X76058051Y-48897804D02*
X76013144Y-48874346D01*
X75417403Y-108394355D02*
X75436198Y-108347305D01*
X80496285Y-81024846D02*
X80247675Y-81006215D01*
X75396250Y-63559605D02*
X75372792Y-63514698D01*
X24677682Y-31428731D02*
X24649801Y-31471035D01*
X24452585Y-80299363D02*
X24436198Y-80347305D01*
X24544306Y-47700636D02*
X24530368Y-47749347D01*
X75497162Y-31949350D02*
X75493315Y-31898831D01*
X75396250Y-28440394D02*
X75417403Y-28394355D01*
X75149818Y-95241241D02*
X75110551Y-95209224D01*
X84555975Y-56056435D02*
X84652814Y-55826705D01*
X75579488Y-80394355D02*
X75560693Y-80347305D01*
X17829027Y-97495155D02*
X17607176Y-97608892D01*
X75560693Y-48347305D02*
X75544306Y-48299363D01*
X24600641Y-108440394D02*
X24624099Y-108485301D01*
X25297147Y-15020470D02*
X25247793Y-15031922D01*
X25104090Y-95081042D02*
X25058051Y-95102195D01*
X24486914Y-80151427D02*
X24477975Y-80201298D01*
X24927177Y-76820763D02*
X24969481Y-76848644D01*
X83907603Y-73117449D02*
X84058136Y-72918718D01*
X80247675Y-33006215D02*
X79998446Y-33000000D01*
X15938755Y-99081281D02*
X15798316Y-99287268D01*
X24530368Y-92250652D02*
X24544306Y-92299363D01*
X29998446Y-45000000D02*
X29998446Y-47000000D01*
X84811567Y-55354202D02*
X84873085Y-55112604D01*
X83212384Y-73830222D02*
X83399309Y-73665259D01*
X75110551Y-47209224D02*
X75069714Y-47179236D01*
X15668318Y-24500000D02*
X15798316Y-24712731D01*
X15798316Y-56712731D02*
X15938755Y-56918718D01*
X23498446Y-65000000D02*
X19998446Y-65000000D01*
X24069714Y-80820763D02*
X24027410Y-80848644D01*
X75486914Y-44151427D02*
X75493315Y-44101168D01*
X18288345Y-81301536D02*
X18056272Y-81392618D01*
X74749098Y-47031922D02*
X74699744Y-47020470D01*
X75477975Y-63798701D02*
X75466523Y-63749347D01*
X24544306Y-31700636D02*
X24530368Y-31749347D01*
X24223238Y-27311033D02*
X24257204Y-27348627D01*
X24069714Y-64820763D02*
X24027410Y-64848644D01*
X74498446Y-95000000D02*
X69998446Y-95000000D01*
X24436198Y-32347305D02*
X24417403Y-32394355D01*
X15037249Y-102621718D02*
X15074407Y-102868240D01*
X80496285Y-49024846D02*
X80247675Y-49006215D01*
M02*
