G04 #@! TF.GenerationSoftware,KiCad,Pcbnew,6.0.4-6f826c9f35~116~ubuntu20.04.1*
G04 #@! TF.CreationDate,2022-05-04T20:07:54+01:00*
G04 #@! TF.ProjectId,boostAAA-panel,626f6f73-7441-4414-912d-70616e656c2e,rev?*
G04 #@! TF.SameCoordinates,Original*
G04 #@! TF.FileFunction,Legend,Top*
G04 #@! TF.FilePolarity,Positive*
%FSLAX46Y46*%
G04 Gerber Fmt 4.6, Leading zero omitted, Abs format (unit mm)*
G04 Created by KiCad (PCBNEW 6.0.4-6f826c9f35~116~ubuntu20.04.1) date 2022-05-04 20:07:54*
%MOMM*%
%LPD*%
G01*
G04 APERTURE LIST*
%ADD10C,0.150000*%
%ADD11C,0.120000*%
G04 APERTURE END LIST*
D10*
X59391184Y-19842380D02*
X59724517Y-20842380D01*
X60057850Y-19842380D01*
X60391184Y-20842380D02*
X60391184Y-20175714D01*
X60391184Y-19842380D02*
X60343565Y-19890000D01*
X60391184Y-19937619D01*
X60438803Y-19890000D01*
X60391184Y-19842380D01*
X60391184Y-19937619D01*
X60867374Y-20175714D02*
X60867374Y-20842380D01*
X60867374Y-20270952D02*
X60914993Y-20223333D01*
X61010231Y-20175714D01*
X61153088Y-20175714D01*
X61248326Y-20223333D01*
X61295946Y-20318571D01*
X61295946Y-20842380D01*
X61772136Y-20747142D02*
X61819755Y-20794761D01*
X61772136Y-20842380D01*
X61724517Y-20794761D01*
X61772136Y-20747142D01*
X61772136Y-20842380D01*
X61772136Y-20223333D02*
X61819755Y-20270952D01*
X61772136Y-20318571D01*
X61724517Y-20270952D01*
X61772136Y-20223333D01*
X61772136Y-20318571D01*
X63200707Y-19842380D02*
X63295946Y-19842380D01*
X63391184Y-19890000D01*
X63438803Y-19937619D01*
X63486422Y-20032857D01*
X63534041Y-20223333D01*
X63534041Y-20461428D01*
X63486422Y-20651904D01*
X63438803Y-20747142D01*
X63391184Y-20794761D01*
X63295946Y-20842380D01*
X63200707Y-20842380D01*
X63105469Y-20794761D01*
X63057850Y-20747142D01*
X63010231Y-20651904D01*
X62962612Y-20461428D01*
X62962612Y-20223333D01*
X63010231Y-20032857D01*
X63057850Y-19937619D01*
X63105469Y-19890000D01*
X63200707Y-19842380D01*
X63962612Y-20747142D02*
X64010231Y-20794761D01*
X63962612Y-20842380D01*
X63914993Y-20794761D01*
X63962612Y-20747142D01*
X63962612Y-20842380D01*
X64867374Y-19842380D02*
X64676898Y-19842380D01*
X64581660Y-19890000D01*
X64534041Y-19937619D01*
X64438803Y-20080476D01*
X64391184Y-20270952D01*
X64391184Y-20651904D01*
X64438803Y-20747142D01*
X64486422Y-20794761D01*
X64581660Y-20842380D01*
X64772136Y-20842380D01*
X64867374Y-20794761D01*
X64914993Y-20747142D01*
X64962612Y-20651904D01*
X64962612Y-20413809D01*
X64914993Y-20318571D01*
X64867374Y-20270952D01*
X64772136Y-20223333D01*
X64581660Y-20223333D01*
X64486422Y-20270952D01*
X64438803Y-20318571D01*
X64391184Y-20413809D01*
X65867374Y-19842380D02*
X65391184Y-19842380D01*
X65343565Y-20318571D01*
X65391184Y-20270952D01*
X65486422Y-20223333D01*
X65724517Y-20223333D01*
X65819755Y-20270952D01*
X65867374Y-20318571D01*
X65914993Y-20413809D01*
X65914993Y-20651904D01*
X65867374Y-20747142D01*
X65819755Y-20794761D01*
X65724517Y-20842380D01*
X65486422Y-20842380D01*
X65391184Y-20794761D01*
X65343565Y-20747142D01*
X66200707Y-19842380D02*
X66534041Y-20842380D01*
X66867374Y-19842380D01*
X67200707Y-20461428D02*
X67962612Y-20461428D01*
X68867374Y-19842380D02*
X68676898Y-19842380D01*
X68581660Y-19890000D01*
X68534041Y-19937619D01*
X68438803Y-20080476D01*
X68391184Y-20270952D01*
X68391184Y-20651904D01*
X68438803Y-20747142D01*
X68486422Y-20794761D01*
X68581660Y-20842380D01*
X68772136Y-20842380D01*
X68867374Y-20794761D01*
X68914993Y-20747142D01*
X68962612Y-20651904D01*
X68962612Y-20413809D01*
X68914993Y-20318571D01*
X68867374Y-20270952D01*
X68772136Y-20223333D01*
X68581660Y-20223333D01*
X68486422Y-20270952D01*
X68438803Y-20318571D01*
X68391184Y-20413809D01*
X69391184Y-20747142D02*
X69438803Y-20794761D01*
X69391184Y-20842380D01*
X69343565Y-20794761D01*
X69391184Y-20747142D01*
X69391184Y-20842380D01*
X70343565Y-19842380D02*
X69867374Y-19842380D01*
X69819755Y-20318571D01*
X69867374Y-20270952D01*
X69962612Y-20223333D01*
X70200707Y-20223333D01*
X70295946Y-20270952D01*
X70343565Y-20318571D01*
X70391184Y-20413809D01*
X70391184Y-20651904D01*
X70343565Y-20747142D01*
X70295946Y-20794761D01*
X70200707Y-20842380D01*
X69962612Y-20842380D01*
X69867374Y-20794761D01*
X69819755Y-20747142D01*
X70676898Y-19842380D02*
X71010231Y-20842380D01*
X71343565Y-19842380D01*
X59391184Y-21452380D02*
X59724517Y-22452380D01*
X60057850Y-21452380D01*
X60534041Y-22452380D02*
X60438803Y-22404761D01*
X60391184Y-22357142D01*
X60343565Y-22261904D01*
X60343565Y-21976190D01*
X60391184Y-21880952D01*
X60438803Y-21833333D01*
X60534041Y-21785714D01*
X60676898Y-21785714D01*
X60772136Y-21833333D01*
X60819755Y-21880952D01*
X60867374Y-21976190D01*
X60867374Y-22261904D01*
X60819755Y-22357142D01*
X60772136Y-22404761D01*
X60676898Y-22452380D01*
X60534041Y-22452380D01*
X61724517Y-21785714D02*
X61724517Y-22452380D01*
X61295946Y-21785714D02*
X61295946Y-22309523D01*
X61343565Y-22404761D01*
X61438803Y-22452380D01*
X61581660Y-22452380D01*
X61676898Y-22404761D01*
X61724517Y-22357142D01*
X62057850Y-21785714D02*
X62438803Y-21785714D01*
X62200707Y-21452380D02*
X62200707Y-22309523D01*
X62248326Y-22404761D01*
X62343565Y-22452380D01*
X62438803Y-22452380D01*
X62772136Y-22357142D02*
X62819755Y-22404761D01*
X62772136Y-22452380D01*
X62724517Y-22404761D01*
X62772136Y-22357142D01*
X62772136Y-22452380D01*
X62772136Y-21833333D02*
X62819755Y-21880952D01*
X62772136Y-21928571D01*
X62724517Y-21880952D01*
X62772136Y-21833333D01*
X62772136Y-21928571D01*
X64486422Y-21452380D02*
X64010231Y-21452380D01*
X63962612Y-21928571D01*
X64010231Y-21880952D01*
X64105469Y-21833333D01*
X64343565Y-21833333D01*
X64438803Y-21880952D01*
X64486422Y-21928571D01*
X64534041Y-22023809D01*
X64534041Y-22261904D01*
X64486422Y-22357142D01*
X64438803Y-22404761D01*
X64343565Y-22452380D01*
X64105469Y-22452380D01*
X64010231Y-22404761D01*
X63962612Y-22357142D01*
X64819755Y-21452380D02*
X65153088Y-22452380D01*
X65486422Y-21452380D01*
X59534041Y-24062380D02*
X59534041Y-23062380D01*
X60010231Y-24062380D02*
X60010231Y-23395714D01*
X60010231Y-23490952D02*
X60057850Y-23443333D01*
X60153088Y-23395714D01*
X60295946Y-23395714D01*
X60391184Y-23443333D01*
X60438803Y-23538571D01*
X60438803Y-24062380D01*
X60438803Y-23538571D02*
X60486422Y-23443333D01*
X60581660Y-23395714D01*
X60724517Y-23395714D01*
X60819755Y-23443333D01*
X60867374Y-23538571D01*
X60867374Y-24062380D01*
X61772136Y-24062380D02*
X61772136Y-23538571D01*
X61724517Y-23443333D01*
X61629279Y-23395714D01*
X61438803Y-23395714D01*
X61343565Y-23443333D01*
X61772136Y-24014761D02*
X61676898Y-24062380D01*
X61438803Y-24062380D01*
X61343565Y-24014761D01*
X61295946Y-23919523D01*
X61295946Y-23824285D01*
X61343565Y-23729047D01*
X61438803Y-23681428D01*
X61676898Y-23681428D01*
X61772136Y-23633809D01*
X62153088Y-24062380D02*
X62676898Y-23395714D01*
X62153088Y-23395714D02*
X62676898Y-24062380D01*
X63057850Y-23967142D02*
X63105469Y-24014761D01*
X63057850Y-24062380D01*
X63010231Y-24014761D01*
X63057850Y-23967142D01*
X63057850Y-24062380D01*
X63057850Y-23443333D02*
X63105469Y-23490952D01*
X63057850Y-23538571D01*
X63010231Y-23490952D01*
X63057850Y-23443333D01*
X63057850Y-23538571D01*
X64438803Y-23490952D02*
X64343565Y-23443333D01*
X64295946Y-23395714D01*
X64248326Y-23300476D01*
X64248326Y-23252857D01*
X64295946Y-23157619D01*
X64343565Y-23110000D01*
X64438803Y-23062380D01*
X64629279Y-23062380D01*
X64724517Y-23110000D01*
X64772136Y-23157619D01*
X64819755Y-23252857D01*
X64819755Y-23300476D01*
X64772136Y-23395714D01*
X64724517Y-23443333D01*
X64629279Y-23490952D01*
X64438803Y-23490952D01*
X64343565Y-23538571D01*
X64295946Y-23586190D01*
X64248326Y-23681428D01*
X64248326Y-23871904D01*
X64295946Y-23967142D01*
X64343565Y-24014761D01*
X64438803Y-24062380D01*
X64629279Y-24062380D01*
X64724517Y-24014761D01*
X64772136Y-23967142D01*
X64819755Y-23871904D01*
X64819755Y-23681428D01*
X64772136Y-23586190D01*
X64724517Y-23538571D01*
X64629279Y-23490952D01*
X65438803Y-23062380D02*
X65534041Y-23062380D01*
X65629279Y-23110000D01*
X65676898Y-23157619D01*
X65724517Y-23252857D01*
X65772136Y-23443333D01*
X65772136Y-23681428D01*
X65724517Y-23871904D01*
X65676898Y-23967142D01*
X65629279Y-24014761D01*
X65534041Y-24062380D01*
X65438803Y-24062380D01*
X65343565Y-24014761D01*
X65295946Y-23967142D01*
X65248326Y-23871904D01*
X65200707Y-23681428D01*
X65200707Y-23443333D01*
X65248326Y-23252857D01*
X65295946Y-23157619D01*
X65343565Y-23110000D01*
X65438803Y-23062380D01*
X66391184Y-23062380D02*
X66486422Y-23062380D01*
X66581660Y-23110000D01*
X66629279Y-23157619D01*
X66676898Y-23252857D01*
X66724517Y-23443333D01*
X66724517Y-23681428D01*
X66676898Y-23871904D01*
X66629279Y-23967142D01*
X66581660Y-24014761D01*
X66486422Y-24062380D01*
X66391184Y-24062380D01*
X66295946Y-24014761D01*
X66248326Y-23967142D01*
X66200707Y-23871904D01*
X66153088Y-23681428D01*
X66153088Y-23443333D01*
X66200707Y-23252857D01*
X66248326Y-23157619D01*
X66295946Y-23110000D01*
X66391184Y-23062380D01*
X67153088Y-24062380D02*
X67153088Y-23395714D01*
X67153088Y-23490952D02*
X67200707Y-23443333D01*
X67295946Y-23395714D01*
X67438803Y-23395714D01*
X67534041Y-23443333D01*
X67581660Y-23538571D01*
X67581660Y-24062380D01*
X67581660Y-23538571D02*
X67629279Y-23443333D01*
X67724517Y-23395714D01*
X67867374Y-23395714D01*
X67962612Y-23443333D01*
X68010231Y-23538571D01*
X68010231Y-24062380D01*
X68438803Y-23776666D02*
X68914993Y-23776666D01*
X68343565Y-24062380D02*
X68676898Y-23062380D01*
X69010231Y-24062380D01*
X59391184Y-35842380D02*
X59724517Y-36842380D01*
X60057850Y-35842380D01*
X60391184Y-36842380D02*
X60391184Y-36175714D01*
X60391184Y-35842380D02*
X60343565Y-35890000D01*
X60391184Y-35937619D01*
X60438803Y-35890000D01*
X60391184Y-35842380D01*
X60391184Y-35937619D01*
X60867374Y-36175714D02*
X60867374Y-36842380D01*
X60867374Y-36270952D02*
X60914993Y-36223333D01*
X61010231Y-36175714D01*
X61153088Y-36175714D01*
X61248326Y-36223333D01*
X61295946Y-36318571D01*
X61295946Y-36842380D01*
X61772136Y-36747142D02*
X61819755Y-36794761D01*
X61772136Y-36842380D01*
X61724517Y-36794761D01*
X61772136Y-36747142D01*
X61772136Y-36842380D01*
X61772136Y-36223333D02*
X61819755Y-36270952D01*
X61772136Y-36318571D01*
X61724517Y-36270952D01*
X61772136Y-36223333D01*
X61772136Y-36318571D01*
X63200707Y-35842380D02*
X63295946Y-35842380D01*
X63391184Y-35890000D01*
X63438803Y-35937619D01*
X63486422Y-36032857D01*
X63534041Y-36223333D01*
X63534041Y-36461428D01*
X63486422Y-36651904D01*
X63438803Y-36747142D01*
X63391184Y-36794761D01*
X63295946Y-36842380D01*
X63200707Y-36842380D01*
X63105469Y-36794761D01*
X63057850Y-36747142D01*
X63010231Y-36651904D01*
X62962612Y-36461428D01*
X62962612Y-36223333D01*
X63010231Y-36032857D01*
X63057850Y-35937619D01*
X63105469Y-35890000D01*
X63200707Y-35842380D01*
X63962612Y-36747142D02*
X64010231Y-36794761D01*
X63962612Y-36842380D01*
X63914993Y-36794761D01*
X63962612Y-36747142D01*
X63962612Y-36842380D01*
X64867374Y-35842380D02*
X64676898Y-35842380D01*
X64581660Y-35890000D01*
X64534041Y-35937619D01*
X64438803Y-36080476D01*
X64391184Y-36270952D01*
X64391184Y-36651904D01*
X64438803Y-36747142D01*
X64486422Y-36794761D01*
X64581660Y-36842380D01*
X64772136Y-36842380D01*
X64867374Y-36794761D01*
X64914993Y-36747142D01*
X64962612Y-36651904D01*
X64962612Y-36413809D01*
X64914993Y-36318571D01*
X64867374Y-36270952D01*
X64772136Y-36223333D01*
X64581660Y-36223333D01*
X64486422Y-36270952D01*
X64438803Y-36318571D01*
X64391184Y-36413809D01*
X65867374Y-35842380D02*
X65391184Y-35842380D01*
X65343565Y-36318571D01*
X65391184Y-36270952D01*
X65486422Y-36223333D01*
X65724517Y-36223333D01*
X65819755Y-36270952D01*
X65867374Y-36318571D01*
X65914993Y-36413809D01*
X65914993Y-36651904D01*
X65867374Y-36747142D01*
X65819755Y-36794761D01*
X65724517Y-36842380D01*
X65486422Y-36842380D01*
X65391184Y-36794761D01*
X65343565Y-36747142D01*
X66200707Y-35842380D02*
X66534041Y-36842380D01*
X66867374Y-35842380D01*
X67200707Y-36461428D02*
X67962612Y-36461428D01*
X68867374Y-35842380D02*
X68676898Y-35842380D01*
X68581660Y-35890000D01*
X68534041Y-35937619D01*
X68438803Y-36080476D01*
X68391184Y-36270952D01*
X68391184Y-36651904D01*
X68438803Y-36747142D01*
X68486422Y-36794761D01*
X68581660Y-36842380D01*
X68772136Y-36842380D01*
X68867374Y-36794761D01*
X68914993Y-36747142D01*
X68962612Y-36651904D01*
X68962612Y-36413809D01*
X68914993Y-36318571D01*
X68867374Y-36270952D01*
X68772136Y-36223333D01*
X68581660Y-36223333D01*
X68486422Y-36270952D01*
X68438803Y-36318571D01*
X68391184Y-36413809D01*
X69391184Y-36747142D02*
X69438803Y-36794761D01*
X69391184Y-36842380D01*
X69343565Y-36794761D01*
X69391184Y-36747142D01*
X69391184Y-36842380D01*
X70343565Y-35842380D02*
X69867374Y-35842380D01*
X69819755Y-36318571D01*
X69867374Y-36270952D01*
X69962612Y-36223333D01*
X70200707Y-36223333D01*
X70295946Y-36270952D01*
X70343565Y-36318571D01*
X70391184Y-36413809D01*
X70391184Y-36651904D01*
X70343565Y-36747142D01*
X70295946Y-36794761D01*
X70200707Y-36842380D01*
X69962612Y-36842380D01*
X69867374Y-36794761D01*
X69819755Y-36747142D01*
X70676898Y-35842380D02*
X71010231Y-36842380D01*
X71343565Y-35842380D01*
X59391184Y-37452380D02*
X59724517Y-38452380D01*
X60057850Y-37452380D01*
X60534041Y-38452380D02*
X60438803Y-38404761D01*
X60391184Y-38357142D01*
X60343565Y-38261904D01*
X60343565Y-37976190D01*
X60391184Y-37880952D01*
X60438803Y-37833333D01*
X60534041Y-37785714D01*
X60676898Y-37785714D01*
X60772136Y-37833333D01*
X60819755Y-37880952D01*
X60867374Y-37976190D01*
X60867374Y-38261904D01*
X60819755Y-38357142D01*
X60772136Y-38404761D01*
X60676898Y-38452380D01*
X60534041Y-38452380D01*
X61724517Y-37785714D02*
X61724517Y-38452380D01*
X61295946Y-37785714D02*
X61295946Y-38309523D01*
X61343565Y-38404761D01*
X61438803Y-38452380D01*
X61581660Y-38452380D01*
X61676898Y-38404761D01*
X61724517Y-38357142D01*
X62057850Y-37785714D02*
X62438803Y-37785714D01*
X62200707Y-37452380D02*
X62200707Y-38309523D01*
X62248326Y-38404761D01*
X62343565Y-38452380D01*
X62438803Y-38452380D01*
X62772136Y-38357142D02*
X62819755Y-38404761D01*
X62772136Y-38452380D01*
X62724517Y-38404761D01*
X62772136Y-38357142D01*
X62772136Y-38452380D01*
X62772136Y-37833333D02*
X62819755Y-37880952D01*
X62772136Y-37928571D01*
X62724517Y-37880952D01*
X62772136Y-37833333D01*
X62772136Y-37928571D01*
X64486422Y-37452380D02*
X64010231Y-37452380D01*
X63962612Y-37928571D01*
X64010231Y-37880952D01*
X64105469Y-37833333D01*
X64343565Y-37833333D01*
X64438803Y-37880952D01*
X64486422Y-37928571D01*
X64534041Y-38023809D01*
X64534041Y-38261904D01*
X64486422Y-38357142D01*
X64438803Y-38404761D01*
X64343565Y-38452380D01*
X64105469Y-38452380D01*
X64010231Y-38404761D01*
X63962612Y-38357142D01*
X64819755Y-37452380D02*
X65153088Y-38452380D01*
X65486422Y-37452380D01*
X59534041Y-40062380D02*
X59534041Y-39062380D01*
X60010231Y-40062380D02*
X60010231Y-39395714D01*
X60010231Y-39490952D02*
X60057850Y-39443333D01*
X60153088Y-39395714D01*
X60295946Y-39395714D01*
X60391184Y-39443333D01*
X60438803Y-39538571D01*
X60438803Y-40062380D01*
X60438803Y-39538571D02*
X60486422Y-39443333D01*
X60581660Y-39395714D01*
X60724517Y-39395714D01*
X60819755Y-39443333D01*
X60867374Y-39538571D01*
X60867374Y-40062380D01*
X61772136Y-40062380D02*
X61772136Y-39538571D01*
X61724517Y-39443333D01*
X61629279Y-39395714D01*
X61438803Y-39395714D01*
X61343565Y-39443333D01*
X61772136Y-40014761D02*
X61676898Y-40062380D01*
X61438803Y-40062380D01*
X61343565Y-40014761D01*
X61295946Y-39919523D01*
X61295946Y-39824285D01*
X61343565Y-39729047D01*
X61438803Y-39681428D01*
X61676898Y-39681428D01*
X61772136Y-39633809D01*
X62153088Y-40062380D02*
X62676898Y-39395714D01*
X62153088Y-39395714D02*
X62676898Y-40062380D01*
X63057850Y-39967142D02*
X63105469Y-40014761D01*
X63057850Y-40062380D01*
X63010231Y-40014761D01*
X63057850Y-39967142D01*
X63057850Y-40062380D01*
X63057850Y-39443333D02*
X63105469Y-39490952D01*
X63057850Y-39538571D01*
X63010231Y-39490952D01*
X63057850Y-39443333D01*
X63057850Y-39538571D01*
X64438803Y-39490952D02*
X64343565Y-39443333D01*
X64295946Y-39395714D01*
X64248326Y-39300476D01*
X64248326Y-39252857D01*
X64295946Y-39157619D01*
X64343565Y-39110000D01*
X64438803Y-39062380D01*
X64629279Y-39062380D01*
X64724517Y-39110000D01*
X64772136Y-39157619D01*
X64819755Y-39252857D01*
X64819755Y-39300476D01*
X64772136Y-39395714D01*
X64724517Y-39443333D01*
X64629279Y-39490952D01*
X64438803Y-39490952D01*
X64343565Y-39538571D01*
X64295946Y-39586190D01*
X64248326Y-39681428D01*
X64248326Y-39871904D01*
X64295946Y-39967142D01*
X64343565Y-40014761D01*
X64438803Y-40062380D01*
X64629279Y-40062380D01*
X64724517Y-40014761D01*
X64772136Y-39967142D01*
X64819755Y-39871904D01*
X64819755Y-39681428D01*
X64772136Y-39586190D01*
X64724517Y-39538571D01*
X64629279Y-39490952D01*
X65438803Y-39062380D02*
X65534041Y-39062380D01*
X65629279Y-39110000D01*
X65676898Y-39157619D01*
X65724517Y-39252857D01*
X65772136Y-39443333D01*
X65772136Y-39681428D01*
X65724517Y-39871904D01*
X65676898Y-39967142D01*
X65629279Y-40014761D01*
X65534041Y-40062380D01*
X65438803Y-40062380D01*
X65343565Y-40014761D01*
X65295946Y-39967142D01*
X65248326Y-39871904D01*
X65200707Y-39681428D01*
X65200707Y-39443333D01*
X65248326Y-39252857D01*
X65295946Y-39157619D01*
X65343565Y-39110000D01*
X65438803Y-39062380D01*
X66391184Y-39062380D02*
X66486422Y-39062380D01*
X66581660Y-39110000D01*
X66629279Y-39157619D01*
X66676898Y-39252857D01*
X66724517Y-39443333D01*
X66724517Y-39681428D01*
X66676898Y-39871904D01*
X66629279Y-39967142D01*
X66581660Y-40014761D01*
X66486422Y-40062380D01*
X66391184Y-40062380D01*
X66295946Y-40014761D01*
X66248326Y-39967142D01*
X66200707Y-39871904D01*
X66153088Y-39681428D01*
X66153088Y-39443333D01*
X66200707Y-39252857D01*
X66248326Y-39157619D01*
X66295946Y-39110000D01*
X66391184Y-39062380D01*
X67153088Y-40062380D02*
X67153088Y-39395714D01*
X67153088Y-39490952D02*
X67200707Y-39443333D01*
X67295946Y-39395714D01*
X67438803Y-39395714D01*
X67534041Y-39443333D01*
X67581660Y-39538571D01*
X67581660Y-40062380D01*
X67581660Y-39538571D02*
X67629279Y-39443333D01*
X67724517Y-39395714D01*
X67867374Y-39395714D01*
X67962612Y-39443333D01*
X68010231Y-39538571D01*
X68010231Y-40062380D01*
X68438803Y-39776666D02*
X68914993Y-39776666D01*
X68343565Y-40062380D02*
X68676898Y-39062380D01*
X69010231Y-40062380D01*
X59391184Y-51842380D02*
X59724517Y-52842380D01*
X60057850Y-51842380D01*
X60391184Y-52842380D02*
X60391184Y-52175714D01*
X60391184Y-51842380D02*
X60343565Y-51890000D01*
X60391184Y-51937619D01*
X60438803Y-51890000D01*
X60391184Y-51842380D01*
X60391184Y-51937619D01*
X60867374Y-52175714D02*
X60867374Y-52842380D01*
X60867374Y-52270952D02*
X60914993Y-52223333D01*
X61010231Y-52175714D01*
X61153088Y-52175714D01*
X61248326Y-52223333D01*
X61295946Y-52318571D01*
X61295946Y-52842380D01*
X61772136Y-52747142D02*
X61819755Y-52794761D01*
X61772136Y-52842380D01*
X61724517Y-52794761D01*
X61772136Y-52747142D01*
X61772136Y-52842380D01*
X61772136Y-52223333D02*
X61819755Y-52270952D01*
X61772136Y-52318571D01*
X61724517Y-52270952D01*
X61772136Y-52223333D01*
X61772136Y-52318571D01*
X63200707Y-51842380D02*
X63295946Y-51842380D01*
X63391184Y-51890000D01*
X63438803Y-51937619D01*
X63486422Y-52032857D01*
X63534041Y-52223333D01*
X63534041Y-52461428D01*
X63486422Y-52651904D01*
X63438803Y-52747142D01*
X63391184Y-52794761D01*
X63295946Y-52842380D01*
X63200707Y-52842380D01*
X63105469Y-52794761D01*
X63057850Y-52747142D01*
X63010231Y-52651904D01*
X62962612Y-52461428D01*
X62962612Y-52223333D01*
X63010231Y-52032857D01*
X63057850Y-51937619D01*
X63105469Y-51890000D01*
X63200707Y-51842380D01*
X63962612Y-52747142D02*
X64010231Y-52794761D01*
X63962612Y-52842380D01*
X63914993Y-52794761D01*
X63962612Y-52747142D01*
X63962612Y-52842380D01*
X64867374Y-51842380D02*
X64676898Y-51842380D01*
X64581660Y-51890000D01*
X64534041Y-51937619D01*
X64438803Y-52080476D01*
X64391184Y-52270952D01*
X64391184Y-52651904D01*
X64438803Y-52747142D01*
X64486422Y-52794761D01*
X64581660Y-52842380D01*
X64772136Y-52842380D01*
X64867374Y-52794761D01*
X64914993Y-52747142D01*
X64962612Y-52651904D01*
X64962612Y-52413809D01*
X64914993Y-52318571D01*
X64867374Y-52270952D01*
X64772136Y-52223333D01*
X64581660Y-52223333D01*
X64486422Y-52270952D01*
X64438803Y-52318571D01*
X64391184Y-52413809D01*
X65867374Y-51842380D02*
X65391184Y-51842380D01*
X65343565Y-52318571D01*
X65391184Y-52270952D01*
X65486422Y-52223333D01*
X65724517Y-52223333D01*
X65819755Y-52270952D01*
X65867374Y-52318571D01*
X65914993Y-52413809D01*
X65914993Y-52651904D01*
X65867374Y-52747142D01*
X65819755Y-52794761D01*
X65724517Y-52842380D01*
X65486422Y-52842380D01*
X65391184Y-52794761D01*
X65343565Y-52747142D01*
X66200707Y-51842380D02*
X66534041Y-52842380D01*
X66867374Y-51842380D01*
X67200707Y-52461428D02*
X67962612Y-52461428D01*
X68867374Y-51842380D02*
X68676898Y-51842380D01*
X68581660Y-51890000D01*
X68534041Y-51937619D01*
X68438803Y-52080476D01*
X68391184Y-52270952D01*
X68391184Y-52651904D01*
X68438803Y-52747142D01*
X68486422Y-52794761D01*
X68581660Y-52842380D01*
X68772136Y-52842380D01*
X68867374Y-52794761D01*
X68914993Y-52747142D01*
X68962612Y-52651904D01*
X68962612Y-52413809D01*
X68914993Y-52318571D01*
X68867374Y-52270952D01*
X68772136Y-52223333D01*
X68581660Y-52223333D01*
X68486422Y-52270952D01*
X68438803Y-52318571D01*
X68391184Y-52413809D01*
X69391184Y-52747142D02*
X69438803Y-52794761D01*
X69391184Y-52842380D01*
X69343565Y-52794761D01*
X69391184Y-52747142D01*
X69391184Y-52842380D01*
X70343565Y-51842380D02*
X69867374Y-51842380D01*
X69819755Y-52318571D01*
X69867374Y-52270952D01*
X69962612Y-52223333D01*
X70200707Y-52223333D01*
X70295946Y-52270952D01*
X70343565Y-52318571D01*
X70391184Y-52413809D01*
X70391184Y-52651904D01*
X70343565Y-52747142D01*
X70295946Y-52794761D01*
X70200707Y-52842380D01*
X69962612Y-52842380D01*
X69867374Y-52794761D01*
X69819755Y-52747142D01*
X70676898Y-51842380D02*
X71010231Y-52842380D01*
X71343565Y-51842380D01*
X59391184Y-53452380D02*
X59724517Y-54452380D01*
X60057850Y-53452380D01*
X60534041Y-54452380D02*
X60438803Y-54404761D01*
X60391184Y-54357142D01*
X60343565Y-54261904D01*
X60343565Y-53976190D01*
X60391184Y-53880952D01*
X60438803Y-53833333D01*
X60534041Y-53785714D01*
X60676898Y-53785714D01*
X60772136Y-53833333D01*
X60819755Y-53880952D01*
X60867374Y-53976190D01*
X60867374Y-54261904D01*
X60819755Y-54357142D01*
X60772136Y-54404761D01*
X60676898Y-54452380D01*
X60534041Y-54452380D01*
X61724517Y-53785714D02*
X61724517Y-54452380D01*
X61295946Y-53785714D02*
X61295946Y-54309523D01*
X61343565Y-54404761D01*
X61438803Y-54452380D01*
X61581660Y-54452380D01*
X61676898Y-54404761D01*
X61724517Y-54357142D01*
X62057850Y-53785714D02*
X62438803Y-53785714D01*
X62200707Y-53452380D02*
X62200707Y-54309523D01*
X62248326Y-54404761D01*
X62343565Y-54452380D01*
X62438803Y-54452380D01*
X62772136Y-54357142D02*
X62819755Y-54404761D01*
X62772136Y-54452380D01*
X62724517Y-54404761D01*
X62772136Y-54357142D01*
X62772136Y-54452380D01*
X62772136Y-53833333D02*
X62819755Y-53880952D01*
X62772136Y-53928571D01*
X62724517Y-53880952D01*
X62772136Y-53833333D01*
X62772136Y-53928571D01*
X64486422Y-53452380D02*
X64010231Y-53452380D01*
X63962612Y-53928571D01*
X64010231Y-53880952D01*
X64105469Y-53833333D01*
X64343565Y-53833333D01*
X64438803Y-53880952D01*
X64486422Y-53928571D01*
X64534041Y-54023809D01*
X64534041Y-54261904D01*
X64486422Y-54357142D01*
X64438803Y-54404761D01*
X64343565Y-54452380D01*
X64105469Y-54452380D01*
X64010231Y-54404761D01*
X63962612Y-54357142D01*
X64819755Y-53452380D02*
X65153088Y-54452380D01*
X65486422Y-53452380D01*
X59534041Y-56062380D02*
X59534041Y-55062380D01*
X60010231Y-56062380D02*
X60010231Y-55395714D01*
X60010231Y-55490952D02*
X60057850Y-55443333D01*
X60153088Y-55395714D01*
X60295946Y-55395714D01*
X60391184Y-55443333D01*
X60438803Y-55538571D01*
X60438803Y-56062380D01*
X60438803Y-55538571D02*
X60486422Y-55443333D01*
X60581660Y-55395714D01*
X60724517Y-55395714D01*
X60819755Y-55443333D01*
X60867374Y-55538571D01*
X60867374Y-56062380D01*
X61772136Y-56062380D02*
X61772136Y-55538571D01*
X61724517Y-55443333D01*
X61629279Y-55395714D01*
X61438803Y-55395714D01*
X61343565Y-55443333D01*
X61772136Y-56014761D02*
X61676898Y-56062380D01*
X61438803Y-56062380D01*
X61343565Y-56014761D01*
X61295946Y-55919523D01*
X61295946Y-55824285D01*
X61343565Y-55729047D01*
X61438803Y-55681428D01*
X61676898Y-55681428D01*
X61772136Y-55633809D01*
X62153088Y-56062380D02*
X62676898Y-55395714D01*
X62153088Y-55395714D02*
X62676898Y-56062380D01*
X63057850Y-55967142D02*
X63105469Y-56014761D01*
X63057850Y-56062380D01*
X63010231Y-56014761D01*
X63057850Y-55967142D01*
X63057850Y-56062380D01*
X63057850Y-55443333D02*
X63105469Y-55490952D01*
X63057850Y-55538571D01*
X63010231Y-55490952D01*
X63057850Y-55443333D01*
X63057850Y-55538571D01*
X64438803Y-55490952D02*
X64343565Y-55443333D01*
X64295946Y-55395714D01*
X64248326Y-55300476D01*
X64248326Y-55252857D01*
X64295946Y-55157619D01*
X64343565Y-55110000D01*
X64438803Y-55062380D01*
X64629279Y-55062380D01*
X64724517Y-55110000D01*
X64772136Y-55157619D01*
X64819755Y-55252857D01*
X64819755Y-55300476D01*
X64772136Y-55395714D01*
X64724517Y-55443333D01*
X64629279Y-55490952D01*
X64438803Y-55490952D01*
X64343565Y-55538571D01*
X64295946Y-55586190D01*
X64248326Y-55681428D01*
X64248326Y-55871904D01*
X64295946Y-55967142D01*
X64343565Y-56014761D01*
X64438803Y-56062380D01*
X64629279Y-56062380D01*
X64724517Y-56014761D01*
X64772136Y-55967142D01*
X64819755Y-55871904D01*
X64819755Y-55681428D01*
X64772136Y-55586190D01*
X64724517Y-55538571D01*
X64629279Y-55490952D01*
X65438803Y-55062380D02*
X65534041Y-55062380D01*
X65629279Y-55110000D01*
X65676898Y-55157619D01*
X65724517Y-55252857D01*
X65772136Y-55443333D01*
X65772136Y-55681428D01*
X65724517Y-55871904D01*
X65676898Y-55967142D01*
X65629279Y-56014761D01*
X65534041Y-56062380D01*
X65438803Y-56062380D01*
X65343565Y-56014761D01*
X65295946Y-55967142D01*
X65248326Y-55871904D01*
X65200707Y-55681428D01*
X65200707Y-55443333D01*
X65248326Y-55252857D01*
X65295946Y-55157619D01*
X65343565Y-55110000D01*
X65438803Y-55062380D01*
X66391184Y-55062380D02*
X66486422Y-55062380D01*
X66581660Y-55110000D01*
X66629279Y-55157619D01*
X66676898Y-55252857D01*
X66724517Y-55443333D01*
X66724517Y-55681428D01*
X66676898Y-55871904D01*
X66629279Y-55967142D01*
X66581660Y-56014761D01*
X66486422Y-56062380D01*
X66391184Y-56062380D01*
X66295946Y-56014761D01*
X66248326Y-55967142D01*
X66200707Y-55871904D01*
X66153088Y-55681428D01*
X66153088Y-55443333D01*
X66200707Y-55252857D01*
X66248326Y-55157619D01*
X66295946Y-55110000D01*
X66391184Y-55062380D01*
X67153088Y-56062380D02*
X67153088Y-55395714D01*
X67153088Y-55490952D02*
X67200707Y-55443333D01*
X67295946Y-55395714D01*
X67438803Y-55395714D01*
X67534041Y-55443333D01*
X67581660Y-55538571D01*
X67581660Y-56062380D01*
X67581660Y-55538571D02*
X67629279Y-55443333D01*
X67724517Y-55395714D01*
X67867374Y-55395714D01*
X67962612Y-55443333D01*
X68010231Y-55538571D01*
X68010231Y-56062380D01*
X68438803Y-55776666D02*
X68914993Y-55776666D01*
X68343565Y-56062380D02*
X68676898Y-55062380D01*
X69010231Y-56062380D01*
X59391184Y-67842380D02*
X59724517Y-68842380D01*
X60057850Y-67842380D01*
X60391184Y-68842380D02*
X60391184Y-68175714D01*
X60391184Y-67842380D02*
X60343565Y-67890000D01*
X60391184Y-67937619D01*
X60438803Y-67890000D01*
X60391184Y-67842380D01*
X60391184Y-67937619D01*
X60867374Y-68175714D02*
X60867374Y-68842380D01*
X60867374Y-68270952D02*
X60914993Y-68223333D01*
X61010231Y-68175714D01*
X61153088Y-68175714D01*
X61248326Y-68223333D01*
X61295946Y-68318571D01*
X61295946Y-68842380D01*
X61772136Y-68747142D02*
X61819755Y-68794761D01*
X61772136Y-68842380D01*
X61724517Y-68794761D01*
X61772136Y-68747142D01*
X61772136Y-68842380D01*
X61772136Y-68223333D02*
X61819755Y-68270952D01*
X61772136Y-68318571D01*
X61724517Y-68270952D01*
X61772136Y-68223333D01*
X61772136Y-68318571D01*
X63200707Y-67842380D02*
X63295946Y-67842380D01*
X63391184Y-67890000D01*
X63438803Y-67937619D01*
X63486422Y-68032857D01*
X63534041Y-68223333D01*
X63534041Y-68461428D01*
X63486422Y-68651904D01*
X63438803Y-68747142D01*
X63391184Y-68794761D01*
X63295946Y-68842380D01*
X63200707Y-68842380D01*
X63105469Y-68794761D01*
X63057850Y-68747142D01*
X63010231Y-68651904D01*
X62962612Y-68461428D01*
X62962612Y-68223333D01*
X63010231Y-68032857D01*
X63057850Y-67937619D01*
X63105469Y-67890000D01*
X63200707Y-67842380D01*
X63962612Y-68747142D02*
X64010231Y-68794761D01*
X63962612Y-68842380D01*
X63914993Y-68794761D01*
X63962612Y-68747142D01*
X63962612Y-68842380D01*
X64867374Y-67842380D02*
X64676898Y-67842380D01*
X64581660Y-67890000D01*
X64534041Y-67937619D01*
X64438803Y-68080476D01*
X64391184Y-68270952D01*
X64391184Y-68651904D01*
X64438803Y-68747142D01*
X64486422Y-68794761D01*
X64581660Y-68842380D01*
X64772136Y-68842380D01*
X64867374Y-68794761D01*
X64914993Y-68747142D01*
X64962612Y-68651904D01*
X64962612Y-68413809D01*
X64914993Y-68318571D01*
X64867374Y-68270952D01*
X64772136Y-68223333D01*
X64581660Y-68223333D01*
X64486422Y-68270952D01*
X64438803Y-68318571D01*
X64391184Y-68413809D01*
X65867374Y-67842380D02*
X65391184Y-67842380D01*
X65343565Y-68318571D01*
X65391184Y-68270952D01*
X65486422Y-68223333D01*
X65724517Y-68223333D01*
X65819755Y-68270952D01*
X65867374Y-68318571D01*
X65914993Y-68413809D01*
X65914993Y-68651904D01*
X65867374Y-68747142D01*
X65819755Y-68794761D01*
X65724517Y-68842380D01*
X65486422Y-68842380D01*
X65391184Y-68794761D01*
X65343565Y-68747142D01*
X66200707Y-67842380D02*
X66534041Y-68842380D01*
X66867374Y-67842380D01*
X67200707Y-68461428D02*
X67962612Y-68461428D01*
X68867374Y-67842380D02*
X68676898Y-67842380D01*
X68581660Y-67890000D01*
X68534041Y-67937619D01*
X68438803Y-68080476D01*
X68391184Y-68270952D01*
X68391184Y-68651904D01*
X68438803Y-68747142D01*
X68486422Y-68794761D01*
X68581660Y-68842380D01*
X68772136Y-68842380D01*
X68867374Y-68794761D01*
X68914993Y-68747142D01*
X68962612Y-68651904D01*
X68962612Y-68413809D01*
X68914993Y-68318571D01*
X68867374Y-68270952D01*
X68772136Y-68223333D01*
X68581660Y-68223333D01*
X68486422Y-68270952D01*
X68438803Y-68318571D01*
X68391184Y-68413809D01*
X69391184Y-68747142D02*
X69438803Y-68794761D01*
X69391184Y-68842380D01*
X69343565Y-68794761D01*
X69391184Y-68747142D01*
X69391184Y-68842380D01*
X70343565Y-67842380D02*
X69867374Y-67842380D01*
X69819755Y-68318571D01*
X69867374Y-68270952D01*
X69962612Y-68223333D01*
X70200707Y-68223333D01*
X70295946Y-68270952D01*
X70343565Y-68318571D01*
X70391184Y-68413809D01*
X70391184Y-68651904D01*
X70343565Y-68747142D01*
X70295946Y-68794761D01*
X70200707Y-68842380D01*
X69962612Y-68842380D01*
X69867374Y-68794761D01*
X69819755Y-68747142D01*
X70676898Y-67842380D02*
X71010231Y-68842380D01*
X71343565Y-67842380D01*
X59391184Y-69452380D02*
X59724517Y-70452380D01*
X60057850Y-69452380D01*
X60534041Y-70452380D02*
X60438803Y-70404761D01*
X60391184Y-70357142D01*
X60343565Y-70261904D01*
X60343565Y-69976190D01*
X60391184Y-69880952D01*
X60438803Y-69833333D01*
X60534041Y-69785714D01*
X60676898Y-69785714D01*
X60772136Y-69833333D01*
X60819755Y-69880952D01*
X60867374Y-69976190D01*
X60867374Y-70261904D01*
X60819755Y-70357142D01*
X60772136Y-70404761D01*
X60676898Y-70452380D01*
X60534041Y-70452380D01*
X61724517Y-69785714D02*
X61724517Y-70452380D01*
X61295946Y-69785714D02*
X61295946Y-70309523D01*
X61343565Y-70404761D01*
X61438803Y-70452380D01*
X61581660Y-70452380D01*
X61676898Y-70404761D01*
X61724517Y-70357142D01*
X62057850Y-69785714D02*
X62438803Y-69785714D01*
X62200707Y-69452380D02*
X62200707Y-70309523D01*
X62248326Y-70404761D01*
X62343565Y-70452380D01*
X62438803Y-70452380D01*
X62772136Y-70357142D02*
X62819755Y-70404761D01*
X62772136Y-70452380D01*
X62724517Y-70404761D01*
X62772136Y-70357142D01*
X62772136Y-70452380D01*
X62772136Y-69833333D02*
X62819755Y-69880952D01*
X62772136Y-69928571D01*
X62724517Y-69880952D01*
X62772136Y-69833333D01*
X62772136Y-69928571D01*
X64486422Y-69452380D02*
X64010231Y-69452380D01*
X63962612Y-69928571D01*
X64010231Y-69880952D01*
X64105469Y-69833333D01*
X64343565Y-69833333D01*
X64438803Y-69880952D01*
X64486422Y-69928571D01*
X64534041Y-70023809D01*
X64534041Y-70261904D01*
X64486422Y-70357142D01*
X64438803Y-70404761D01*
X64343565Y-70452380D01*
X64105469Y-70452380D01*
X64010231Y-70404761D01*
X63962612Y-70357142D01*
X64819755Y-69452380D02*
X65153088Y-70452380D01*
X65486422Y-69452380D01*
X59534041Y-72062380D02*
X59534041Y-71062380D01*
X60010231Y-72062380D02*
X60010231Y-71395714D01*
X60010231Y-71490952D02*
X60057850Y-71443333D01*
X60153088Y-71395714D01*
X60295946Y-71395714D01*
X60391184Y-71443333D01*
X60438803Y-71538571D01*
X60438803Y-72062380D01*
X60438803Y-71538571D02*
X60486422Y-71443333D01*
X60581660Y-71395714D01*
X60724517Y-71395714D01*
X60819755Y-71443333D01*
X60867374Y-71538571D01*
X60867374Y-72062380D01*
X61772136Y-72062380D02*
X61772136Y-71538571D01*
X61724517Y-71443333D01*
X61629279Y-71395714D01*
X61438803Y-71395714D01*
X61343565Y-71443333D01*
X61772136Y-72014761D02*
X61676898Y-72062380D01*
X61438803Y-72062380D01*
X61343565Y-72014761D01*
X61295946Y-71919523D01*
X61295946Y-71824285D01*
X61343565Y-71729047D01*
X61438803Y-71681428D01*
X61676898Y-71681428D01*
X61772136Y-71633809D01*
X62153088Y-72062380D02*
X62676898Y-71395714D01*
X62153088Y-71395714D02*
X62676898Y-72062380D01*
X63057850Y-71967142D02*
X63105469Y-72014761D01*
X63057850Y-72062380D01*
X63010231Y-72014761D01*
X63057850Y-71967142D01*
X63057850Y-72062380D01*
X63057850Y-71443333D02*
X63105469Y-71490952D01*
X63057850Y-71538571D01*
X63010231Y-71490952D01*
X63057850Y-71443333D01*
X63057850Y-71538571D01*
X64438803Y-71490952D02*
X64343565Y-71443333D01*
X64295946Y-71395714D01*
X64248326Y-71300476D01*
X64248326Y-71252857D01*
X64295946Y-71157619D01*
X64343565Y-71110000D01*
X64438803Y-71062380D01*
X64629279Y-71062380D01*
X64724517Y-71110000D01*
X64772136Y-71157619D01*
X64819755Y-71252857D01*
X64819755Y-71300476D01*
X64772136Y-71395714D01*
X64724517Y-71443333D01*
X64629279Y-71490952D01*
X64438803Y-71490952D01*
X64343565Y-71538571D01*
X64295946Y-71586190D01*
X64248326Y-71681428D01*
X64248326Y-71871904D01*
X64295946Y-71967142D01*
X64343565Y-72014761D01*
X64438803Y-72062380D01*
X64629279Y-72062380D01*
X64724517Y-72014761D01*
X64772136Y-71967142D01*
X64819755Y-71871904D01*
X64819755Y-71681428D01*
X64772136Y-71586190D01*
X64724517Y-71538571D01*
X64629279Y-71490952D01*
X65438803Y-71062380D02*
X65534041Y-71062380D01*
X65629279Y-71110000D01*
X65676898Y-71157619D01*
X65724517Y-71252857D01*
X65772136Y-71443333D01*
X65772136Y-71681428D01*
X65724517Y-71871904D01*
X65676898Y-71967142D01*
X65629279Y-72014761D01*
X65534041Y-72062380D01*
X65438803Y-72062380D01*
X65343565Y-72014761D01*
X65295946Y-71967142D01*
X65248326Y-71871904D01*
X65200707Y-71681428D01*
X65200707Y-71443333D01*
X65248326Y-71252857D01*
X65295946Y-71157619D01*
X65343565Y-71110000D01*
X65438803Y-71062380D01*
X66391184Y-71062380D02*
X66486422Y-71062380D01*
X66581660Y-71110000D01*
X66629279Y-71157619D01*
X66676898Y-71252857D01*
X66724517Y-71443333D01*
X66724517Y-71681428D01*
X66676898Y-71871904D01*
X66629279Y-71967142D01*
X66581660Y-72014761D01*
X66486422Y-72062380D01*
X66391184Y-72062380D01*
X66295946Y-72014761D01*
X66248326Y-71967142D01*
X66200707Y-71871904D01*
X66153088Y-71681428D01*
X66153088Y-71443333D01*
X66200707Y-71252857D01*
X66248326Y-71157619D01*
X66295946Y-71110000D01*
X66391184Y-71062380D01*
X67153088Y-72062380D02*
X67153088Y-71395714D01*
X67153088Y-71490952D02*
X67200707Y-71443333D01*
X67295946Y-71395714D01*
X67438803Y-71395714D01*
X67534041Y-71443333D01*
X67581660Y-71538571D01*
X67581660Y-72062380D01*
X67581660Y-71538571D02*
X67629279Y-71443333D01*
X67724517Y-71395714D01*
X67867374Y-71395714D01*
X67962612Y-71443333D01*
X68010231Y-71538571D01*
X68010231Y-72062380D01*
X68438803Y-71776666D02*
X68914993Y-71776666D01*
X68343565Y-72062380D02*
X68676898Y-71062380D01*
X69010231Y-72062380D01*
X59391184Y-83842380D02*
X59724517Y-84842380D01*
X60057850Y-83842380D01*
X60391184Y-84842380D02*
X60391184Y-84175714D01*
X60391184Y-83842380D02*
X60343565Y-83890000D01*
X60391184Y-83937619D01*
X60438803Y-83890000D01*
X60391184Y-83842380D01*
X60391184Y-83937619D01*
X60867374Y-84175714D02*
X60867374Y-84842380D01*
X60867374Y-84270952D02*
X60914993Y-84223333D01*
X61010231Y-84175714D01*
X61153088Y-84175714D01*
X61248326Y-84223333D01*
X61295946Y-84318571D01*
X61295946Y-84842380D01*
X61772136Y-84747142D02*
X61819755Y-84794761D01*
X61772136Y-84842380D01*
X61724517Y-84794761D01*
X61772136Y-84747142D01*
X61772136Y-84842380D01*
X61772136Y-84223333D02*
X61819755Y-84270952D01*
X61772136Y-84318571D01*
X61724517Y-84270952D01*
X61772136Y-84223333D01*
X61772136Y-84318571D01*
X63200707Y-83842380D02*
X63295946Y-83842380D01*
X63391184Y-83890000D01*
X63438803Y-83937619D01*
X63486422Y-84032857D01*
X63534041Y-84223333D01*
X63534041Y-84461428D01*
X63486422Y-84651904D01*
X63438803Y-84747142D01*
X63391184Y-84794761D01*
X63295946Y-84842380D01*
X63200707Y-84842380D01*
X63105469Y-84794761D01*
X63057850Y-84747142D01*
X63010231Y-84651904D01*
X62962612Y-84461428D01*
X62962612Y-84223333D01*
X63010231Y-84032857D01*
X63057850Y-83937619D01*
X63105469Y-83890000D01*
X63200707Y-83842380D01*
X63962612Y-84747142D02*
X64010231Y-84794761D01*
X63962612Y-84842380D01*
X63914993Y-84794761D01*
X63962612Y-84747142D01*
X63962612Y-84842380D01*
X64867374Y-83842380D02*
X64676898Y-83842380D01*
X64581660Y-83890000D01*
X64534041Y-83937619D01*
X64438803Y-84080476D01*
X64391184Y-84270952D01*
X64391184Y-84651904D01*
X64438803Y-84747142D01*
X64486422Y-84794761D01*
X64581660Y-84842380D01*
X64772136Y-84842380D01*
X64867374Y-84794761D01*
X64914993Y-84747142D01*
X64962612Y-84651904D01*
X64962612Y-84413809D01*
X64914993Y-84318571D01*
X64867374Y-84270952D01*
X64772136Y-84223333D01*
X64581660Y-84223333D01*
X64486422Y-84270952D01*
X64438803Y-84318571D01*
X64391184Y-84413809D01*
X65867374Y-83842380D02*
X65391184Y-83842380D01*
X65343565Y-84318571D01*
X65391184Y-84270952D01*
X65486422Y-84223333D01*
X65724517Y-84223333D01*
X65819755Y-84270952D01*
X65867374Y-84318571D01*
X65914993Y-84413809D01*
X65914993Y-84651904D01*
X65867374Y-84747142D01*
X65819755Y-84794761D01*
X65724517Y-84842380D01*
X65486422Y-84842380D01*
X65391184Y-84794761D01*
X65343565Y-84747142D01*
X66200707Y-83842380D02*
X66534041Y-84842380D01*
X66867374Y-83842380D01*
X67200707Y-84461428D02*
X67962612Y-84461428D01*
X68867374Y-83842380D02*
X68676898Y-83842380D01*
X68581660Y-83890000D01*
X68534041Y-83937619D01*
X68438803Y-84080476D01*
X68391184Y-84270952D01*
X68391184Y-84651904D01*
X68438803Y-84747142D01*
X68486422Y-84794761D01*
X68581660Y-84842380D01*
X68772136Y-84842380D01*
X68867374Y-84794761D01*
X68914993Y-84747142D01*
X68962612Y-84651904D01*
X68962612Y-84413809D01*
X68914993Y-84318571D01*
X68867374Y-84270952D01*
X68772136Y-84223333D01*
X68581660Y-84223333D01*
X68486422Y-84270952D01*
X68438803Y-84318571D01*
X68391184Y-84413809D01*
X69391184Y-84747142D02*
X69438803Y-84794761D01*
X69391184Y-84842380D01*
X69343565Y-84794761D01*
X69391184Y-84747142D01*
X69391184Y-84842380D01*
X70343565Y-83842380D02*
X69867374Y-83842380D01*
X69819755Y-84318571D01*
X69867374Y-84270952D01*
X69962612Y-84223333D01*
X70200707Y-84223333D01*
X70295946Y-84270952D01*
X70343565Y-84318571D01*
X70391184Y-84413809D01*
X70391184Y-84651904D01*
X70343565Y-84747142D01*
X70295946Y-84794761D01*
X70200707Y-84842380D01*
X69962612Y-84842380D01*
X69867374Y-84794761D01*
X69819755Y-84747142D01*
X70676898Y-83842380D02*
X71010231Y-84842380D01*
X71343565Y-83842380D01*
X59391184Y-85452380D02*
X59724517Y-86452380D01*
X60057850Y-85452380D01*
X60534041Y-86452380D02*
X60438803Y-86404761D01*
X60391184Y-86357142D01*
X60343565Y-86261904D01*
X60343565Y-85976190D01*
X60391184Y-85880952D01*
X60438803Y-85833333D01*
X60534041Y-85785714D01*
X60676898Y-85785714D01*
X60772136Y-85833333D01*
X60819755Y-85880952D01*
X60867374Y-85976190D01*
X60867374Y-86261904D01*
X60819755Y-86357142D01*
X60772136Y-86404761D01*
X60676898Y-86452380D01*
X60534041Y-86452380D01*
X61724517Y-85785714D02*
X61724517Y-86452380D01*
X61295946Y-85785714D02*
X61295946Y-86309523D01*
X61343565Y-86404761D01*
X61438803Y-86452380D01*
X61581660Y-86452380D01*
X61676898Y-86404761D01*
X61724517Y-86357142D01*
X62057850Y-85785714D02*
X62438803Y-85785714D01*
X62200707Y-85452380D02*
X62200707Y-86309523D01*
X62248326Y-86404761D01*
X62343565Y-86452380D01*
X62438803Y-86452380D01*
X62772136Y-86357142D02*
X62819755Y-86404761D01*
X62772136Y-86452380D01*
X62724517Y-86404761D01*
X62772136Y-86357142D01*
X62772136Y-86452380D01*
X62772136Y-85833333D02*
X62819755Y-85880952D01*
X62772136Y-85928571D01*
X62724517Y-85880952D01*
X62772136Y-85833333D01*
X62772136Y-85928571D01*
X64486422Y-85452380D02*
X64010231Y-85452380D01*
X63962612Y-85928571D01*
X64010231Y-85880952D01*
X64105469Y-85833333D01*
X64343565Y-85833333D01*
X64438803Y-85880952D01*
X64486422Y-85928571D01*
X64534041Y-86023809D01*
X64534041Y-86261904D01*
X64486422Y-86357142D01*
X64438803Y-86404761D01*
X64343565Y-86452380D01*
X64105469Y-86452380D01*
X64010231Y-86404761D01*
X63962612Y-86357142D01*
X64819755Y-85452380D02*
X65153088Y-86452380D01*
X65486422Y-85452380D01*
X59534041Y-88062380D02*
X59534041Y-87062380D01*
X60010231Y-88062380D02*
X60010231Y-87395714D01*
X60010231Y-87490952D02*
X60057850Y-87443333D01*
X60153088Y-87395714D01*
X60295946Y-87395714D01*
X60391184Y-87443333D01*
X60438803Y-87538571D01*
X60438803Y-88062380D01*
X60438803Y-87538571D02*
X60486422Y-87443333D01*
X60581660Y-87395714D01*
X60724517Y-87395714D01*
X60819755Y-87443333D01*
X60867374Y-87538571D01*
X60867374Y-88062380D01*
X61772136Y-88062380D02*
X61772136Y-87538571D01*
X61724517Y-87443333D01*
X61629279Y-87395714D01*
X61438803Y-87395714D01*
X61343565Y-87443333D01*
X61772136Y-88014761D02*
X61676898Y-88062380D01*
X61438803Y-88062380D01*
X61343565Y-88014761D01*
X61295946Y-87919523D01*
X61295946Y-87824285D01*
X61343565Y-87729047D01*
X61438803Y-87681428D01*
X61676898Y-87681428D01*
X61772136Y-87633809D01*
X62153088Y-88062380D02*
X62676898Y-87395714D01*
X62153088Y-87395714D02*
X62676898Y-88062380D01*
X63057850Y-87967142D02*
X63105469Y-88014761D01*
X63057850Y-88062380D01*
X63010231Y-88014761D01*
X63057850Y-87967142D01*
X63057850Y-88062380D01*
X63057850Y-87443333D02*
X63105469Y-87490952D01*
X63057850Y-87538571D01*
X63010231Y-87490952D01*
X63057850Y-87443333D01*
X63057850Y-87538571D01*
X64438803Y-87490952D02*
X64343565Y-87443333D01*
X64295946Y-87395714D01*
X64248326Y-87300476D01*
X64248326Y-87252857D01*
X64295946Y-87157619D01*
X64343565Y-87110000D01*
X64438803Y-87062380D01*
X64629279Y-87062380D01*
X64724517Y-87110000D01*
X64772136Y-87157619D01*
X64819755Y-87252857D01*
X64819755Y-87300476D01*
X64772136Y-87395714D01*
X64724517Y-87443333D01*
X64629279Y-87490952D01*
X64438803Y-87490952D01*
X64343565Y-87538571D01*
X64295946Y-87586190D01*
X64248326Y-87681428D01*
X64248326Y-87871904D01*
X64295946Y-87967142D01*
X64343565Y-88014761D01*
X64438803Y-88062380D01*
X64629279Y-88062380D01*
X64724517Y-88014761D01*
X64772136Y-87967142D01*
X64819755Y-87871904D01*
X64819755Y-87681428D01*
X64772136Y-87586190D01*
X64724517Y-87538571D01*
X64629279Y-87490952D01*
X65438803Y-87062380D02*
X65534041Y-87062380D01*
X65629279Y-87110000D01*
X65676898Y-87157619D01*
X65724517Y-87252857D01*
X65772136Y-87443333D01*
X65772136Y-87681428D01*
X65724517Y-87871904D01*
X65676898Y-87967142D01*
X65629279Y-88014761D01*
X65534041Y-88062380D01*
X65438803Y-88062380D01*
X65343565Y-88014761D01*
X65295946Y-87967142D01*
X65248326Y-87871904D01*
X65200707Y-87681428D01*
X65200707Y-87443333D01*
X65248326Y-87252857D01*
X65295946Y-87157619D01*
X65343565Y-87110000D01*
X65438803Y-87062380D01*
X66391184Y-87062380D02*
X66486422Y-87062380D01*
X66581660Y-87110000D01*
X66629279Y-87157619D01*
X66676898Y-87252857D01*
X66724517Y-87443333D01*
X66724517Y-87681428D01*
X66676898Y-87871904D01*
X66629279Y-87967142D01*
X66581660Y-88014761D01*
X66486422Y-88062380D01*
X66391184Y-88062380D01*
X66295946Y-88014761D01*
X66248326Y-87967142D01*
X66200707Y-87871904D01*
X66153088Y-87681428D01*
X66153088Y-87443333D01*
X66200707Y-87252857D01*
X66248326Y-87157619D01*
X66295946Y-87110000D01*
X66391184Y-87062380D01*
X67153088Y-88062380D02*
X67153088Y-87395714D01*
X67153088Y-87490952D02*
X67200707Y-87443333D01*
X67295946Y-87395714D01*
X67438803Y-87395714D01*
X67534041Y-87443333D01*
X67581660Y-87538571D01*
X67581660Y-88062380D01*
X67581660Y-87538571D02*
X67629279Y-87443333D01*
X67724517Y-87395714D01*
X67867374Y-87395714D01*
X67962612Y-87443333D01*
X68010231Y-87538571D01*
X68010231Y-88062380D01*
X68438803Y-87776666D02*
X68914993Y-87776666D01*
X68343565Y-88062380D02*
X68676898Y-87062380D01*
X69010231Y-88062380D01*
X59391184Y-99842380D02*
X59724517Y-100842380D01*
X60057850Y-99842380D01*
X60391184Y-100842380D02*
X60391184Y-100175714D01*
X60391184Y-99842380D02*
X60343565Y-99890000D01*
X60391184Y-99937619D01*
X60438803Y-99890000D01*
X60391184Y-99842380D01*
X60391184Y-99937619D01*
X60867374Y-100175714D02*
X60867374Y-100842380D01*
X60867374Y-100270952D02*
X60914993Y-100223333D01*
X61010231Y-100175714D01*
X61153088Y-100175714D01*
X61248326Y-100223333D01*
X61295946Y-100318571D01*
X61295946Y-100842380D01*
X61772136Y-100747142D02*
X61819755Y-100794761D01*
X61772136Y-100842380D01*
X61724517Y-100794761D01*
X61772136Y-100747142D01*
X61772136Y-100842380D01*
X61772136Y-100223333D02*
X61819755Y-100270952D01*
X61772136Y-100318571D01*
X61724517Y-100270952D01*
X61772136Y-100223333D01*
X61772136Y-100318571D01*
X63200707Y-99842380D02*
X63295946Y-99842380D01*
X63391184Y-99890000D01*
X63438803Y-99937619D01*
X63486422Y-100032857D01*
X63534041Y-100223333D01*
X63534041Y-100461428D01*
X63486422Y-100651904D01*
X63438803Y-100747142D01*
X63391184Y-100794761D01*
X63295946Y-100842380D01*
X63200707Y-100842380D01*
X63105469Y-100794761D01*
X63057850Y-100747142D01*
X63010231Y-100651904D01*
X62962612Y-100461428D01*
X62962612Y-100223333D01*
X63010231Y-100032857D01*
X63057850Y-99937619D01*
X63105469Y-99890000D01*
X63200707Y-99842380D01*
X63962612Y-100747142D02*
X64010231Y-100794761D01*
X63962612Y-100842380D01*
X63914993Y-100794761D01*
X63962612Y-100747142D01*
X63962612Y-100842380D01*
X64867374Y-99842380D02*
X64676898Y-99842380D01*
X64581660Y-99890000D01*
X64534041Y-99937619D01*
X64438803Y-100080476D01*
X64391184Y-100270952D01*
X64391184Y-100651904D01*
X64438803Y-100747142D01*
X64486422Y-100794761D01*
X64581660Y-100842380D01*
X64772136Y-100842380D01*
X64867374Y-100794761D01*
X64914993Y-100747142D01*
X64962612Y-100651904D01*
X64962612Y-100413809D01*
X64914993Y-100318571D01*
X64867374Y-100270952D01*
X64772136Y-100223333D01*
X64581660Y-100223333D01*
X64486422Y-100270952D01*
X64438803Y-100318571D01*
X64391184Y-100413809D01*
X65867374Y-99842380D02*
X65391184Y-99842380D01*
X65343565Y-100318571D01*
X65391184Y-100270952D01*
X65486422Y-100223333D01*
X65724517Y-100223333D01*
X65819755Y-100270952D01*
X65867374Y-100318571D01*
X65914993Y-100413809D01*
X65914993Y-100651904D01*
X65867374Y-100747142D01*
X65819755Y-100794761D01*
X65724517Y-100842380D01*
X65486422Y-100842380D01*
X65391184Y-100794761D01*
X65343565Y-100747142D01*
X66200707Y-99842380D02*
X66534041Y-100842380D01*
X66867374Y-99842380D01*
X67200707Y-100461428D02*
X67962612Y-100461428D01*
X68867374Y-99842380D02*
X68676898Y-99842380D01*
X68581660Y-99890000D01*
X68534041Y-99937619D01*
X68438803Y-100080476D01*
X68391184Y-100270952D01*
X68391184Y-100651904D01*
X68438803Y-100747142D01*
X68486422Y-100794761D01*
X68581660Y-100842380D01*
X68772136Y-100842380D01*
X68867374Y-100794761D01*
X68914993Y-100747142D01*
X68962612Y-100651904D01*
X68962612Y-100413809D01*
X68914993Y-100318571D01*
X68867374Y-100270952D01*
X68772136Y-100223333D01*
X68581660Y-100223333D01*
X68486422Y-100270952D01*
X68438803Y-100318571D01*
X68391184Y-100413809D01*
X69391184Y-100747142D02*
X69438803Y-100794761D01*
X69391184Y-100842380D01*
X69343565Y-100794761D01*
X69391184Y-100747142D01*
X69391184Y-100842380D01*
X70343565Y-99842380D02*
X69867374Y-99842380D01*
X69819755Y-100318571D01*
X69867374Y-100270952D01*
X69962612Y-100223333D01*
X70200707Y-100223333D01*
X70295946Y-100270952D01*
X70343565Y-100318571D01*
X70391184Y-100413809D01*
X70391184Y-100651904D01*
X70343565Y-100747142D01*
X70295946Y-100794761D01*
X70200707Y-100842380D01*
X69962612Y-100842380D01*
X69867374Y-100794761D01*
X69819755Y-100747142D01*
X70676898Y-99842380D02*
X71010231Y-100842380D01*
X71343565Y-99842380D01*
X59391184Y-101452380D02*
X59724517Y-102452380D01*
X60057850Y-101452380D01*
X60534041Y-102452380D02*
X60438803Y-102404761D01*
X60391184Y-102357142D01*
X60343565Y-102261904D01*
X60343565Y-101976190D01*
X60391184Y-101880952D01*
X60438803Y-101833333D01*
X60534041Y-101785714D01*
X60676898Y-101785714D01*
X60772136Y-101833333D01*
X60819755Y-101880952D01*
X60867374Y-101976190D01*
X60867374Y-102261904D01*
X60819755Y-102357142D01*
X60772136Y-102404761D01*
X60676898Y-102452380D01*
X60534041Y-102452380D01*
X61724517Y-101785714D02*
X61724517Y-102452380D01*
X61295946Y-101785714D02*
X61295946Y-102309523D01*
X61343565Y-102404761D01*
X61438803Y-102452380D01*
X61581660Y-102452380D01*
X61676898Y-102404761D01*
X61724517Y-102357142D01*
X62057850Y-101785714D02*
X62438803Y-101785714D01*
X62200707Y-101452380D02*
X62200707Y-102309523D01*
X62248326Y-102404761D01*
X62343565Y-102452380D01*
X62438803Y-102452380D01*
X62772136Y-102357142D02*
X62819755Y-102404761D01*
X62772136Y-102452380D01*
X62724517Y-102404761D01*
X62772136Y-102357142D01*
X62772136Y-102452380D01*
X62772136Y-101833333D02*
X62819755Y-101880952D01*
X62772136Y-101928571D01*
X62724517Y-101880952D01*
X62772136Y-101833333D01*
X62772136Y-101928571D01*
X64486422Y-101452380D02*
X64010231Y-101452380D01*
X63962612Y-101928571D01*
X64010231Y-101880952D01*
X64105469Y-101833333D01*
X64343565Y-101833333D01*
X64438803Y-101880952D01*
X64486422Y-101928571D01*
X64534041Y-102023809D01*
X64534041Y-102261904D01*
X64486422Y-102357142D01*
X64438803Y-102404761D01*
X64343565Y-102452380D01*
X64105469Y-102452380D01*
X64010231Y-102404761D01*
X63962612Y-102357142D01*
X64819755Y-101452380D02*
X65153088Y-102452380D01*
X65486422Y-101452380D01*
X59534041Y-104062380D02*
X59534041Y-103062380D01*
X60010231Y-104062380D02*
X60010231Y-103395714D01*
X60010231Y-103490952D02*
X60057850Y-103443333D01*
X60153088Y-103395714D01*
X60295946Y-103395714D01*
X60391184Y-103443333D01*
X60438803Y-103538571D01*
X60438803Y-104062380D01*
X60438803Y-103538571D02*
X60486422Y-103443333D01*
X60581660Y-103395714D01*
X60724517Y-103395714D01*
X60819755Y-103443333D01*
X60867374Y-103538571D01*
X60867374Y-104062380D01*
X61772136Y-104062380D02*
X61772136Y-103538571D01*
X61724517Y-103443333D01*
X61629279Y-103395714D01*
X61438803Y-103395714D01*
X61343565Y-103443333D01*
X61772136Y-104014761D02*
X61676898Y-104062380D01*
X61438803Y-104062380D01*
X61343565Y-104014761D01*
X61295946Y-103919523D01*
X61295946Y-103824285D01*
X61343565Y-103729047D01*
X61438803Y-103681428D01*
X61676898Y-103681428D01*
X61772136Y-103633809D01*
X62153088Y-104062380D02*
X62676898Y-103395714D01*
X62153088Y-103395714D02*
X62676898Y-104062380D01*
X63057850Y-103967142D02*
X63105469Y-104014761D01*
X63057850Y-104062380D01*
X63010231Y-104014761D01*
X63057850Y-103967142D01*
X63057850Y-104062380D01*
X63057850Y-103443333D02*
X63105469Y-103490952D01*
X63057850Y-103538571D01*
X63010231Y-103490952D01*
X63057850Y-103443333D01*
X63057850Y-103538571D01*
X64438803Y-103490952D02*
X64343565Y-103443333D01*
X64295946Y-103395714D01*
X64248326Y-103300476D01*
X64248326Y-103252857D01*
X64295946Y-103157619D01*
X64343565Y-103110000D01*
X64438803Y-103062380D01*
X64629279Y-103062380D01*
X64724517Y-103110000D01*
X64772136Y-103157619D01*
X64819755Y-103252857D01*
X64819755Y-103300476D01*
X64772136Y-103395714D01*
X64724517Y-103443333D01*
X64629279Y-103490952D01*
X64438803Y-103490952D01*
X64343565Y-103538571D01*
X64295946Y-103586190D01*
X64248326Y-103681428D01*
X64248326Y-103871904D01*
X64295946Y-103967142D01*
X64343565Y-104014761D01*
X64438803Y-104062380D01*
X64629279Y-104062380D01*
X64724517Y-104014761D01*
X64772136Y-103967142D01*
X64819755Y-103871904D01*
X64819755Y-103681428D01*
X64772136Y-103586190D01*
X64724517Y-103538571D01*
X64629279Y-103490952D01*
X65438803Y-103062380D02*
X65534041Y-103062380D01*
X65629279Y-103110000D01*
X65676898Y-103157619D01*
X65724517Y-103252857D01*
X65772136Y-103443333D01*
X65772136Y-103681428D01*
X65724517Y-103871904D01*
X65676898Y-103967142D01*
X65629279Y-104014761D01*
X65534041Y-104062380D01*
X65438803Y-104062380D01*
X65343565Y-104014761D01*
X65295946Y-103967142D01*
X65248326Y-103871904D01*
X65200707Y-103681428D01*
X65200707Y-103443333D01*
X65248326Y-103252857D01*
X65295946Y-103157619D01*
X65343565Y-103110000D01*
X65438803Y-103062380D01*
X66391184Y-103062380D02*
X66486422Y-103062380D01*
X66581660Y-103110000D01*
X66629279Y-103157619D01*
X66676898Y-103252857D01*
X66724517Y-103443333D01*
X66724517Y-103681428D01*
X66676898Y-103871904D01*
X66629279Y-103967142D01*
X66581660Y-104014761D01*
X66486422Y-104062380D01*
X66391184Y-104062380D01*
X66295946Y-104014761D01*
X66248326Y-103967142D01*
X66200707Y-103871904D01*
X66153088Y-103681428D01*
X66153088Y-103443333D01*
X66200707Y-103252857D01*
X66248326Y-103157619D01*
X66295946Y-103110000D01*
X66391184Y-103062380D01*
X67153088Y-104062380D02*
X67153088Y-103395714D01*
X67153088Y-103490952D02*
X67200707Y-103443333D01*
X67295946Y-103395714D01*
X67438803Y-103395714D01*
X67534041Y-103443333D01*
X67581660Y-103538571D01*
X67581660Y-104062380D01*
X67581660Y-103538571D02*
X67629279Y-103443333D01*
X67724517Y-103395714D01*
X67867374Y-103395714D01*
X67962612Y-103443333D01*
X68010231Y-103538571D01*
X68010231Y-104062380D01*
X68438803Y-103776666D02*
X68914993Y-103776666D01*
X68343565Y-104062380D02*
X68676898Y-103062380D01*
X69010231Y-104062380D01*
X44700826Y-27619047D02*
X44700826Y-27428571D01*
X44748446Y-27333333D01*
X44843684Y-27238095D01*
X45034160Y-27190476D01*
X45367493Y-27190476D01*
X45557969Y-27238095D01*
X45653207Y-27333333D01*
X45700826Y-27428571D01*
X45700826Y-27619047D01*
X45653207Y-27714285D01*
X45557969Y-27809523D01*
X45367493Y-27857142D01*
X45034160Y-27857142D01*
X44843684Y-27809523D01*
X44748446Y-27714285D01*
X44700826Y-27619047D01*
X45700826Y-26761904D02*
X44700826Y-26761904D01*
X45700826Y-26190476D01*
X44700826Y-26190476D01*
X44700826Y-43619047D02*
X44700826Y-43428571D01*
X44748446Y-43333333D01*
X44843684Y-43238095D01*
X45034160Y-43190476D01*
X45367493Y-43190476D01*
X45557969Y-43238095D01*
X45653207Y-43333333D01*
X45700826Y-43428571D01*
X45700826Y-43619047D01*
X45653207Y-43714285D01*
X45557969Y-43809523D01*
X45367493Y-43857142D01*
X45034160Y-43857142D01*
X44843684Y-43809523D01*
X44748446Y-43714285D01*
X44700826Y-43619047D01*
X45700826Y-42761904D02*
X44700826Y-42761904D01*
X45700826Y-42190476D01*
X44700826Y-42190476D01*
X44700826Y-59619047D02*
X44700826Y-59428571D01*
X44748446Y-59333333D01*
X44843684Y-59238095D01*
X45034160Y-59190476D01*
X45367493Y-59190476D01*
X45557969Y-59238095D01*
X45653207Y-59333333D01*
X45700826Y-59428571D01*
X45700826Y-59619047D01*
X45653207Y-59714285D01*
X45557969Y-59809523D01*
X45367493Y-59857142D01*
X45034160Y-59857142D01*
X44843684Y-59809523D01*
X44748446Y-59714285D01*
X44700826Y-59619047D01*
X45700826Y-58761904D02*
X44700826Y-58761904D01*
X45700826Y-58190476D01*
X44700826Y-58190476D01*
X44700826Y-75619047D02*
X44700826Y-75428571D01*
X44748446Y-75333333D01*
X44843684Y-75238095D01*
X45034160Y-75190476D01*
X45367493Y-75190476D01*
X45557969Y-75238095D01*
X45653207Y-75333333D01*
X45700826Y-75428571D01*
X45700826Y-75619047D01*
X45653207Y-75714285D01*
X45557969Y-75809523D01*
X45367493Y-75857142D01*
X45034160Y-75857142D01*
X44843684Y-75809523D01*
X44748446Y-75714285D01*
X44700826Y-75619047D01*
X45700826Y-74761904D02*
X44700826Y-74761904D01*
X45700826Y-74190476D01*
X44700826Y-74190476D01*
X44700826Y-91619047D02*
X44700826Y-91428571D01*
X44748446Y-91333333D01*
X44843684Y-91238095D01*
X45034160Y-91190476D01*
X45367493Y-91190476D01*
X45557969Y-91238095D01*
X45653207Y-91333333D01*
X45700826Y-91428571D01*
X45700826Y-91619047D01*
X45653207Y-91714285D01*
X45557969Y-91809523D01*
X45367493Y-91857142D01*
X45034160Y-91857142D01*
X44843684Y-91809523D01*
X44748446Y-91714285D01*
X44700826Y-91619047D01*
X45700826Y-90761904D02*
X44700826Y-90761904D01*
X45700826Y-90190476D01*
X44700826Y-90190476D01*
X44700826Y-107619047D02*
X44700826Y-107428571D01*
X44748446Y-107333333D01*
X44843684Y-107238095D01*
X45034160Y-107190476D01*
X45367493Y-107190476D01*
X45557969Y-107238095D01*
X45653207Y-107333333D01*
X45700826Y-107428571D01*
X45700826Y-107619047D01*
X45653207Y-107714285D01*
X45557969Y-107809523D01*
X45367493Y-107857142D01*
X45034160Y-107857142D01*
X44843684Y-107809523D01*
X44748446Y-107714285D01*
X44700826Y-107619047D01*
X45700826Y-106761904D02*
X44700826Y-106761904D01*
X45700826Y-106190476D01*
X44700826Y-106190476D01*
X54700826Y-27952380D02*
X54700826Y-27761904D01*
X54748446Y-27666666D01*
X54843684Y-27571428D01*
X55034160Y-27523809D01*
X55367493Y-27523809D01*
X55557969Y-27571428D01*
X55653207Y-27666666D01*
X55700826Y-27761904D01*
X55700826Y-27952380D01*
X55653207Y-28047619D01*
X55557969Y-28142857D01*
X55367493Y-28190476D01*
X55034160Y-28190476D01*
X54843684Y-28142857D01*
X54748446Y-28047619D01*
X54700826Y-27952380D01*
X55177017Y-26761904D02*
X55177017Y-27095238D01*
X55700826Y-27095238D02*
X54700826Y-27095238D01*
X54700826Y-26619047D01*
X55177017Y-25904761D02*
X55177017Y-26238095D01*
X55700826Y-26238095D02*
X54700826Y-26238095D01*
X54700826Y-25761904D01*
X54700826Y-43952380D02*
X54700826Y-43761904D01*
X54748446Y-43666666D01*
X54843684Y-43571428D01*
X55034160Y-43523809D01*
X55367493Y-43523809D01*
X55557969Y-43571428D01*
X55653207Y-43666666D01*
X55700826Y-43761904D01*
X55700826Y-43952380D01*
X55653207Y-44047619D01*
X55557969Y-44142857D01*
X55367493Y-44190476D01*
X55034160Y-44190476D01*
X54843684Y-44142857D01*
X54748446Y-44047619D01*
X54700826Y-43952380D01*
X55177017Y-42761904D02*
X55177017Y-43095238D01*
X55700826Y-43095238D02*
X54700826Y-43095238D01*
X54700826Y-42619047D01*
X55177017Y-41904761D02*
X55177017Y-42238095D01*
X55700826Y-42238095D02*
X54700826Y-42238095D01*
X54700826Y-41761904D01*
X54700826Y-59952380D02*
X54700826Y-59761904D01*
X54748446Y-59666666D01*
X54843684Y-59571428D01*
X55034160Y-59523809D01*
X55367493Y-59523809D01*
X55557969Y-59571428D01*
X55653207Y-59666666D01*
X55700826Y-59761904D01*
X55700826Y-59952380D01*
X55653207Y-60047619D01*
X55557969Y-60142857D01*
X55367493Y-60190476D01*
X55034160Y-60190476D01*
X54843684Y-60142857D01*
X54748446Y-60047619D01*
X54700826Y-59952380D01*
X55177017Y-58761904D02*
X55177017Y-59095238D01*
X55700826Y-59095238D02*
X54700826Y-59095238D01*
X54700826Y-58619047D01*
X55177017Y-57904761D02*
X55177017Y-58238095D01*
X55700826Y-58238095D02*
X54700826Y-58238095D01*
X54700826Y-57761904D01*
X54700826Y-75952380D02*
X54700826Y-75761904D01*
X54748446Y-75666666D01*
X54843684Y-75571428D01*
X55034160Y-75523809D01*
X55367493Y-75523809D01*
X55557969Y-75571428D01*
X55653207Y-75666666D01*
X55700826Y-75761904D01*
X55700826Y-75952380D01*
X55653207Y-76047619D01*
X55557969Y-76142857D01*
X55367493Y-76190476D01*
X55034160Y-76190476D01*
X54843684Y-76142857D01*
X54748446Y-76047619D01*
X54700826Y-75952380D01*
X55177017Y-74761904D02*
X55177017Y-75095238D01*
X55700826Y-75095238D02*
X54700826Y-75095238D01*
X54700826Y-74619047D01*
X55177017Y-73904761D02*
X55177017Y-74238095D01*
X55700826Y-74238095D02*
X54700826Y-74238095D01*
X54700826Y-73761904D01*
X54700826Y-91952380D02*
X54700826Y-91761904D01*
X54748446Y-91666666D01*
X54843684Y-91571428D01*
X55034160Y-91523809D01*
X55367493Y-91523809D01*
X55557969Y-91571428D01*
X55653207Y-91666666D01*
X55700826Y-91761904D01*
X55700826Y-91952380D01*
X55653207Y-92047619D01*
X55557969Y-92142857D01*
X55367493Y-92190476D01*
X55034160Y-92190476D01*
X54843684Y-92142857D01*
X54748446Y-92047619D01*
X54700826Y-91952380D01*
X55177017Y-90761904D02*
X55177017Y-91095238D01*
X55700826Y-91095238D02*
X54700826Y-91095238D01*
X54700826Y-90619047D01*
X55177017Y-89904761D02*
X55177017Y-90238095D01*
X55700826Y-90238095D02*
X54700826Y-90238095D01*
X54700826Y-89761904D01*
X54700826Y-107952380D02*
X54700826Y-107761904D01*
X54748446Y-107666666D01*
X54843684Y-107571428D01*
X55034160Y-107523809D01*
X55367493Y-107523809D01*
X55557969Y-107571428D01*
X55653207Y-107666666D01*
X55700826Y-107761904D01*
X55700826Y-107952380D01*
X55653207Y-108047619D01*
X55557969Y-108142857D01*
X55367493Y-108190476D01*
X55034160Y-108190476D01*
X54843684Y-108142857D01*
X54748446Y-108047619D01*
X54700826Y-107952380D01*
X55177017Y-106761904D02*
X55177017Y-107095238D01*
X55700826Y-107095238D02*
X54700826Y-107095238D01*
X54700826Y-106619047D01*
X55177017Y-105904761D02*
X55177017Y-106238095D01*
X55700826Y-106238095D02*
X54700826Y-106238095D01*
X54700826Y-105761904D01*
G04 #@! TO.C,C1*
X51231779Y-24157142D02*
X51184160Y-24204761D01*
X51041303Y-24252380D01*
X50946065Y-24252380D01*
X50803207Y-24204761D01*
X50707969Y-24109523D01*
X50660350Y-24014285D01*
X50612731Y-23823809D01*
X50612731Y-23680952D01*
X50660350Y-23490476D01*
X50707969Y-23395238D01*
X50803207Y-23300000D01*
X50946065Y-23252380D01*
X51041303Y-23252380D01*
X51184160Y-23300000D01*
X51231779Y-23347619D01*
X52184160Y-24252380D02*
X51612731Y-24252380D01*
X51898446Y-24252380D02*
X51898446Y-23252380D01*
X51803207Y-23395238D01*
X51707969Y-23490476D01*
X51612731Y-23538095D01*
X51231779Y-88157142D02*
X51184160Y-88204761D01*
X51041303Y-88252380D01*
X50946065Y-88252380D01*
X50803207Y-88204761D01*
X50707969Y-88109523D01*
X50660350Y-88014285D01*
X50612731Y-87823809D01*
X50612731Y-87680952D01*
X50660350Y-87490476D01*
X50707969Y-87395238D01*
X50803207Y-87300000D01*
X50946065Y-87252380D01*
X51041303Y-87252380D01*
X51184160Y-87300000D01*
X51231779Y-87347619D01*
X52184160Y-88252380D02*
X51612731Y-88252380D01*
X51898446Y-88252380D02*
X51898446Y-87252380D01*
X51803207Y-87395238D01*
X51707969Y-87490476D01*
X51612731Y-87538095D01*
G04 #@! TO.C,SW1*
X51435350Y-105128571D02*
X51768684Y-105128571D01*
X51911541Y-105652380D02*
X51435350Y-105652380D01*
X51435350Y-104652380D01*
X51911541Y-104652380D01*
X52340112Y-105652380D02*
X52340112Y-104652380D01*
X52911541Y-105652380D01*
X52911541Y-104652380D01*
G04 #@! TO.C,TP1*
X57450826Y-49190476D02*
X57450826Y-49666666D01*
X57927017Y-49714285D01*
X57879398Y-49666666D01*
X57831779Y-49571428D01*
X57831779Y-49333333D01*
X57879398Y-49238095D01*
X57927017Y-49190476D01*
X58022255Y-49142857D01*
X58260350Y-49142857D01*
X58355588Y-49190476D01*
X58403207Y-49238095D01*
X58450826Y-49333333D01*
X58450826Y-49571428D01*
X58403207Y-49666666D01*
X58355588Y-49714285D01*
X57450826Y-48857142D02*
X58450826Y-48523809D01*
X57450826Y-48190476D01*
G04 #@! TO.C,SW1*
X51435350Y-25128571D02*
X51768684Y-25128571D01*
X51911541Y-25652380D02*
X51435350Y-25652380D01*
X51435350Y-24652380D01*
X51911541Y-24652380D01*
X52340112Y-25652380D02*
X52340112Y-24652380D01*
X52911541Y-25652380D01*
X52911541Y-24652380D01*
G04 #@! TO.C,C3*
X57181779Y-37957142D02*
X57134160Y-38004761D01*
X56991303Y-38052380D01*
X56896065Y-38052380D01*
X56753207Y-38004761D01*
X56657969Y-37909523D01*
X56610350Y-37814285D01*
X56562731Y-37623809D01*
X56562731Y-37480952D01*
X56610350Y-37290476D01*
X56657969Y-37195238D01*
X56753207Y-37100000D01*
X56896065Y-37052380D01*
X56991303Y-37052380D01*
X57134160Y-37100000D01*
X57181779Y-37147619D01*
X57515112Y-37052380D02*
X58134160Y-37052380D01*
X57800826Y-37433333D01*
X57943684Y-37433333D01*
X58038922Y-37480952D01*
X58086541Y-37528571D01*
X58134160Y-37623809D01*
X58134160Y-37861904D01*
X58086541Y-37957142D01*
X58038922Y-38004761D01*
X57943684Y-38052380D01*
X57657969Y-38052380D01*
X57562731Y-38004761D01*
X57515112Y-37957142D01*
G04 #@! TO.C,C1*
X51231779Y-56157142D02*
X51184160Y-56204761D01*
X51041303Y-56252380D01*
X50946065Y-56252380D01*
X50803207Y-56204761D01*
X50707969Y-56109523D01*
X50660350Y-56014285D01*
X50612731Y-55823809D01*
X50612731Y-55680952D01*
X50660350Y-55490476D01*
X50707969Y-55395238D01*
X50803207Y-55300000D01*
X50946065Y-55252380D01*
X51041303Y-55252380D01*
X51184160Y-55300000D01*
X51231779Y-55347619D01*
X52184160Y-56252380D02*
X51612731Y-56252380D01*
X51898446Y-56252380D02*
X51898446Y-55252380D01*
X51803207Y-55395238D01*
X51707969Y-55490476D01*
X51612731Y-55538095D01*
G04 #@! TO.C,C2*
X48244279Y-98857142D02*
X48196660Y-98904761D01*
X48053803Y-98952380D01*
X47958565Y-98952380D01*
X47815707Y-98904761D01*
X47720469Y-98809523D01*
X47672850Y-98714285D01*
X47625231Y-98523809D01*
X47625231Y-98380952D01*
X47672850Y-98190476D01*
X47720469Y-98095238D01*
X47815707Y-98000000D01*
X47958565Y-97952380D01*
X48053803Y-97952380D01*
X48196660Y-98000000D01*
X48244279Y-98047619D01*
X48625231Y-98047619D02*
X48672850Y-98000000D01*
X48768088Y-97952380D01*
X49006184Y-97952380D01*
X49101422Y-98000000D01*
X49149041Y-98047619D01*
X49196660Y-98142857D01*
X49196660Y-98238095D01*
X49149041Y-98380952D01*
X48577612Y-98952380D01*
X49196660Y-98952380D01*
G04 #@! TO.C,TP1*
X57450826Y-81190476D02*
X57450826Y-81666666D01*
X57927017Y-81714285D01*
X57879398Y-81666666D01*
X57831779Y-81571428D01*
X57831779Y-81333333D01*
X57879398Y-81238095D01*
X57927017Y-81190476D01*
X58022255Y-81142857D01*
X58260350Y-81142857D01*
X58355588Y-81190476D01*
X58403207Y-81238095D01*
X58450826Y-81333333D01*
X58450826Y-81571428D01*
X58403207Y-81666666D01*
X58355588Y-81714285D01*
X57450826Y-80857142D02*
X58450826Y-80523809D01*
X57450826Y-80190476D01*
G04 #@! TO.C,R1*
X57031779Y-68452380D02*
X56698446Y-67976190D01*
X56460350Y-68452380D02*
X56460350Y-67452380D01*
X56841303Y-67452380D01*
X56936541Y-67500000D01*
X56984160Y-67547619D01*
X57031779Y-67642857D01*
X57031779Y-67785714D01*
X56984160Y-67880952D01*
X56936541Y-67928571D01*
X56841303Y-67976190D01*
X56460350Y-67976190D01*
X57984160Y-68452380D02*
X57412731Y-68452380D01*
X57698446Y-68452380D02*
X57698446Y-67452380D01*
X57603207Y-67595238D01*
X57507969Y-67690476D01*
X57412731Y-67738095D01*
G04 #@! TO.C,TP1*
X57450826Y-17190476D02*
X57450826Y-17666666D01*
X57927017Y-17714285D01*
X57879398Y-17666666D01*
X57831779Y-17571428D01*
X57831779Y-17333333D01*
X57879398Y-17238095D01*
X57927017Y-17190476D01*
X58022255Y-17142857D01*
X58260350Y-17142857D01*
X58355588Y-17190476D01*
X58403207Y-17238095D01*
X58450826Y-17333333D01*
X58450826Y-17571428D01*
X58403207Y-17666666D01*
X58355588Y-17714285D01*
X57450826Y-16857142D02*
X58450826Y-16523809D01*
X57450826Y-16190476D01*
X57450826Y-97190476D02*
X57450826Y-97666666D01*
X57927017Y-97714285D01*
X57879398Y-97666666D01*
X57831779Y-97571428D01*
X57831779Y-97333333D01*
X57879398Y-97238095D01*
X57927017Y-97190476D01*
X58022255Y-97142857D01*
X58260350Y-97142857D01*
X58355588Y-97190476D01*
X58403207Y-97238095D01*
X58450826Y-97333333D01*
X58450826Y-97571428D01*
X58403207Y-97666666D01*
X58355588Y-97714285D01*
X57450826Y-96857142D02*
X58450826Y-96523809D01*
X57450826Y-96190476D01*
G04 #@! TO.C,U1*
X49224041Y-100727380D02*
X49224041Y-101536904D01*
X49271660Y-101632142D01*
X49319279Y-101679761D01*
X49414517Y-101727380D01*
X49604993Y-101727380D01*
X49700231Y-101679761D01*
X49747850Y-101632142D01*
X49795469Y-101536904D01*
X49795469Y-100727380D01*
X50795469Y-101727380D02*
X50224041Y-101727380D01*
X50509755Y-101727380D02*
X50509755Y-100727380D01*
X50414517Y-100870238D01*
X50319279Y-100965476D01*
X50224041Y-101013095D01*
G04 #@! TO.C,TP2*
X41498446Y-97761904D02*
X41450826Y-97857142D01*
X41450826Y-98000000D01*
X41498446Y-98142857D01*
X41593684Y-98238095D01*
X41688922Y-98285714D01*
X41879398Y-98333333D01*
X42022255Y-98333333D01*
X42212731Y-98285714D01*
X42307969Y-98238095D01*
X42403207Y-98142857D01*
X42450826Y-98000000D01*
X42450826Y-97904761D01*
X42403207Y-97761904D01*
X42355588Y-97714285D01*
X42022255Y-97714285D01*
X42022255Y-97904761D01*
X42450826Y-97285714D02*
X41450826Y-97285714D01*
X42450826Y-96714285D01*
X41450826Y-96714285D01*
X42450826Y-96238095D02*
X41450826Y-96238095D01*
X41450826Y-96000000D01*
X41498446Y-95857142D01*
X41593684Y-95761904D01*
X41688922Y-95714285D01*
X41879398Y-95666666D01*
X42022255Y-95666666D01*
X42212731Y-95714285D01*
X42307969Y-95761904D01*
X42403207Y-95857142D01*
X42450826Y-96000000D01*
X42450826Y-96238095D01*
G04 #@! TO.C,L1*
X44331779Y-70252380D02*
X43855588Y-70252380D01*
X43855588Y-69252380D01*
X45188922Y-70252380D02*
X44617493Y-70252380D01*
X44903207Y-70252380D02*
X44903207Y-69252380D01*
X44807969Y-69395238D01*
X44712731Y-69490476D01*
X44617493Y-69538095D01*
G04 #@! TO.C,U1*
X49224041Y-68727380D02*
X49224041Y-69536904D01*
X49271660Y-69632142D01*
X49319279Y-69679761D01*
X49414517Y-69727380D01*
X49604993Y-69727380D01*
X49700231Y-69679761D01*
X49747850Y-69632142D01*
X49795469Y-69536904D01*
X49795469Y-68727380D01*
X50795469Y-69727380D02*
X50224041Y-69727380D01*
X50509755Y-69727380D02*
X50509755Y-68727380D01*
X50414517Y-68870238D01*
X50319279Y-68965476D01*
X50224041Y-69013095D01*
G04 #@! TO.C,TP1*
X57450826Y-65190476D02*
X57450826Y-65666666D01*
X57927017Y-65714285D01*
X57879398Y-65666666D01*
X57831779Y-65571428D01*
X57831779Y-65333333D01*
X57879398Y-65238095D01*
X57927017Y-65190476D01*
X58022255Y-65142857D01*
X58260350Y-65142857D01*
X58355588Y-65190476D01*
X58403207Y-65238095D01*
X58450826Y-65333333D01*
X58450826Y-65571428D01*
X58403207Y-65666666D01*
X58355588Y-65714285D01*
X57450826Y-64857142D02*
X58450826Y-64523809D01*
X57450826Y-64190476D01*
G04 #@! TO.C,SW1*
X51435350Y-89128571D02*
X51768684Y-89128571D01*
X51911541Y-89652380D02*
X51435350Y-89652380D01*
X51435350Y-88652380D01*
X51911541Y-88652380D01*
X52340112Y-89652380D02*
X52340112Y-88652380D01*
X52911541Y-89652380D01*
X52911541Y-88652380D01*
G04 #@! TO.C,TP2*
X41498446Y-33761904D02*
X41450826Y-33857142D01*
X41450826Y-34000000D01*
X41498446Y-34142857D01*
X41593684Y-34238095D01*
X41688922Y-34285714D01*
X41879398Y-34333333D01*
X42022255Y-34333333D01*
X42212731Y-34285714D01*
X42307969Y-34238095D01*
X42403207Y-34142857D01*
X42450826Y-34000000D01*
X42450826Y-33904761D01*
X42403207Y-33761904D01*
X42355588Y-33714285D01*
X42022255Y-33714285D01*
X42022255Y-33904761D01*
X42450826Y-33285714D02*
X41450826Y-33285714D01*
X42450826Y-32714285D01*
X41450826Y-32714285D01*
X42450826Y-32238095D02*
X41450826Y-32238095D01*
X41450826Y-32000000D01*
X41498446Y-31857142D01*
X41593684Y-31761904D01*
X41688922Y-31714285D01*
X41879398Y-31666666D01*
X42022255Y-31666666D01*
X42212731Y-31714285D01*
X42307969Y-31761904D01*
X42403207Y-31857142D01*
X42450826Y-32000000D01*
X42450826Y-32238095D01*
G04 #@! TO.C,U1*
X49224041Y-52727380D02*
X49224041Y-53536904D01*
X49271660Y-53632142D01*
X49319279Y-53679761D01*
X49414517Y-53727380D01*
X49604993Y-53727380D01*
X49700231Y-53679761D01*
X49747850Y-53632142D01*
X49795469Y-53536904D01*
X49795469Y-52727380D01*
X50795469Y-53727380D02*
X50224041Y-53727380D01*
X50509755Y-53727380D02*
X50509755Y-52727380D01*
X50414517Y-52870238D01*
X50319279Y-52965476D01*
X50224041Y-53013095D01*
G04 #@! TO.C,R2*
X55431779Y-72252380D02*
X55098446Y-71776190D01*
X54860350Y-72252380D02*
X54860350Y-71252380D01*
X55241303Y-71252380D01*
X55336541Y-71300000D01*
X55384160Y-71347619D01*
X55431779Y-71442857D01*
X55431779Y-71585714D01*
X55384160Y-71680952D01*
X55336541Y-71728571D01*
X55241303Y-71776190D01*
X54860350Y-71776190D01*
X55812731Y-71347619D02*
X55860350Y-71300000D01*
X55955588Y-71252380D01*
X56193684Y-71252380D01*
X56288922Y-71300000D01*
X56336541Y-71347619D01*
X56384160Y-71442857D01*
X56384160Y-71538095D01*
X56336541Y-71680952D01*
X55765112Y-72252380D01*
X56384160Y-72252380D01*
G04 #@! TO.C,TP2*
X41498446Y-49761904D02*
X41450826Y-49857142D01*
X41450826Y-50000000D01*
X41498446Y-50142857D01*
X41593684Y-50238095D01*
X41688922Y-50285714D01*
X41879398Y-50333333D01*
X42022255Y-50333333D01*
X42212731Y-50285714D01*
X42307969Y-50238095D01*
X42403207Y-50142857D01*
X42450826Y-50000000D01*
X42450826Y-49904761D01*
X42403207Y-49761904D01*
X42355588Y-49714285D01*
X42022255Y-49714285D01*
X42022255Y-49904761D01*
X42450826Y-49285714D02*
X41450826Y-49285714D01*
X42450826Y-48714285D01*
X41450826Y-48714285D01*
X42450826Y-48238095D02*
X41450826Y-48238095D01*
X41450826Y-48000000D01*
X41498446Y-47857142D01*
X41593684Y-47761904D01*
X41688922Y-47714285D01*
X41879398Y-47666666D01*
X42022255Y-47666666D01*
X42212731Y-47714285D01*
X42307969Y-47761904D01*
X42403207Y-47857142D01*
X42450826Y-48000000D01*
X42450826Y-48238095D01*
G04 #@! TO.C,C2*
X48244279Y-34857142D02*
X48196660Y-34904761D01*
X48053803Y-34952380D01*
X47958565Y-34952380D01*
X47815707Y-34904761D01*
X47720469Y-34809523D01*
X47672850Y-34714285D01*
X47625231Y-34523809D01*
X47625231Y-34380952D01*
X47672850Y-34190476D01*
X47720469Y-34095238D01*
X47815707Y-34000000D01*
X47958565Y-33952380D01*
X48053803Y-33952380D01*
X48196660Y-34000000D01*
X48244279Y-34047619D01*
X48625231Y-34047619D02*
X48672850Y-34000000D01*
X48768088Y-33952380D01*
X49006184Y-33952380D01*
X49101422Y-34000000D01*
X49149041Y-34047619D01*
X49196660Y-34142857D01*
X49196660Y-34238095D01*
X49149041Y-34380952D01*
X48577612Y-34952380D01*
X49196660Y-34952380D01*
G04 #@! TO.C,SW1*
X51435350Y-41128571D02*
X51768684Y-41128571D01*
X51911541Y-41652380D02*
X51435350Y-41652380D01*
X51435350Y-40652380D01*
X51911541Y-40652380D01*
X52340112Y-41652380D02*
X52340112Y-40652380D01*
X52911541Y-41652380D01*
X52911541Y-40652380D01*
G04 #@! TO.C,R1*
X57031779Y-36452380D02*
X56698446Y-35976190D01*
X56460350Y-36452380D02*
X56460350Y-35452380D01*
X56841303Y-35452380D01*
X56936541Y-35500000D01*
X56984160Y-35547619D01*
X57031779Y-35642857D01*
X57031779Y-35785714D01*
X56984160Y-35880952D01*
X56936541Y-35928571D01*
X56841303Y-35976190D01*
X56460350Y-35976190D01*
X57984160Y-36452380D02*
X57412731Y-36452380D01*
X57698446Y-36452380D02*
X57698446Y-35452380D01*
X57603207Y-35595238D01*
X57507969Y-35690476D01*
X57412731Y-35738095D01*
G04 #@! TO.C,C3*
X57181779Y-21957142D02*
X57134160Y-22004761D01*
X56991303Y-22052380D01*
X56896065Y-22052380D01*
X56753207Y-22004761D01*
X56657969Y-21909523D01*
X56610350Y-21814285D01*
X56562731Y-21623809D01*
X56562731Y-21480952D01*
X56610350Y-21290476D01*
X56657969Y-21195238D01*
X56753207Y-21100000D01*
X56896065Y-21052380D01*
X56991303Y-21052380D01*
X57134160Y-21100000D01*
X57181779Y-21147619D01*
X57515112Y-21052380D02*
X58134160Y-21052380D01*
X57800826Y-21433333D01*
X57943684Y-21433333D01*
X58038922Y-21480952D01*
X58086541Y-21528571D01*
X58134160Y-21623809D01*
X58134160Y-21861904D01*
X58086541Y-21957142D01*
X58038922Y-22004761D01*
X57943684Y-22052380D01*
X57657969Y-22052380D01*
X57562731Y-22004761D01*
X57515112Y-21957142D01*
G04 #@! TO.C,L1*
X44331779Y-54252380D02*
X43855588Y-54252380D01*
X43855588Y-53252380D01*
X45188922Y-54252380D02*
X44617493Y-54252380D01*
X44903207Y-54252380D02*
X44903207Y-53252380D01*
X44807969Y-53395238D01*
X44712731Y-53490476D01*
X44617493Y-53538095D01*
G04 #@! TO.C,R2*
X55431779Y-88252380D02*
X55098446Y-87776190D01*
X54860350Y-88252380D02*
X54860350Y-87252380D01*
X55241303Y-87252380D01*
X55336541Y-87300000D01*
X55384160Y-87347619D01*
X55431779Y-87442857D01*
X55431779Y-87585714D01*
X55384160Y-87680952D01*
X55336541Y-87728571D01*
X55241303Y-87776190D01*
X54860350Y-87776190D01*
X55812731Y-87347619D02*
X55860350Y-87300000D01*
X55955588Y-87252380D01*
X56193684Y-87252380D01*
X56288922Y-87300000D01*
X56336541Y-87347619D01*
X56384160Y-87442857D01*
X56384160Y-87538095D01*
X56336541Y-87680952D01*
X55765112Y-88252380D01*
X56384160Y-88252380D01*
G04 #@! TO.C,TP2*
X41498446Y-65761904D02*
X41450826Y-65857142D01*
X41450826Y-66000000D01*
X41498446Y-66142857D01*
X41593684Y-66238095D01*
X41688922Y-66285714D01*
X41879398Y-66333333D01*
X42022255Y-66333333D01*
X42212731Y-66285714D01*
X42307969Y-66238095D01*
X42403207Y-66142857D01*
X42450826Y-66000000D01*
X42450826Y-65904761D01*
X42403207Y-65761904D01*
X42355588Y-65714285D01*
X42022255Y-65714285D01*
X42022255Y-65904761D01*
X42450826Y-65285714D02*
X41450826Y-65285714D01*
X42450826Y-64714285D01*
X41450826Y-64714285D01*
X42450826Y-64238095D02*
X41450826Y-64238095D01*
X41450826Y-64000000D01*
X41498446Y-63857142D01*
X41593684Y-63761904D01*
X41688922Y-63714285D01*
X41879398Y-63666666D01*
X42022255Y-63666666D01*
X42212731Y-63714285D01*
X42307969Y-63761904D01*
X42403207Y-63857142D01*
X42450826Y-64000000D01*
X42450826Y-64238095D01*
G04 #@! TO.C,R1*
X57031779Y-100452380D02*
X56698446Y-99976190D01*
X56460350Y-100452380D02*
X56460350Y-99452380D01*
X56841303Y-99452380D01*
X56936541Y-99500000D01*
X56984160Y-99547619D01*
X57031779Y-99642857D01*
X57031779Y-99785714D01*
X56984160Y-99880952D01*
X56936541Y-99928571D01*
X56841303Y-99976190D01*
X56460350Y-99976190D01*
X57984160Y-100452380D02*
X57412731Y-100452380D01*
X57698446Y-100452380D02*
X57698446Y-99452380D01*
X57603207Y-99595238D01*
X57507969Y-99690476D01*
X57412731Y-99738095D01*
G04 #@! TO.C,C1*
X51231779Y-40157142D02*
X51184160Y-40204761D01*
X51041303Y-40252380D01*
X50946065Y-40252380D01*
X50803207Y-40204761D01*
X50707969Y-40109523D01*
X50660350Y-40014285D01*
X50612731Y-39823809D01*
X50612731Y-39680952D01*
X50660350Y-39490476D01*
X50707969Y-39395238D01*
X50803207Y-39300000D01*
X50946065Y-39252380D01*
X51041303Y-39252380D01*
X51184160Y-39300000D01*
X51231779Y-39347619D01*
X52184160Y-40252380D02*
X51612731Y-40252380D01*
X51898446Y-40252380D02*
X51898446Y-39252380D01*
X51803207Y-39395238D01*
X51707969Y-39490476D01*
X51612731Y-39538095D01*
G04 #@! TO.C,C3*
X57181779Y-69957142D02*
X57134160Y-70004761D01*
X56991303Y-70052380D01*
X56896065Y-70052380D01*
X56753207Y-70004761D01*
X56657969Y-69909523D01*
X56610350Y-69814285D01*
X56562731Y-69623809D01*
X56562731Y-69480952D01*
X56610350Y-69290476D01*
X56657969Y-69195238D01*
X56753207Y-69100000D01*
X56896065Y-69052380D01*
X56991303Y-69052380D01*
X57134160Y-69100000D01*
X57181779Y-69147619D01*
X57515112Y-69052380D02*
X58134160Y-69052380D01*
X57800826Y-69433333D01*
X57943684Y-69433333D01*
X58038922Y-69480952D01*
X58086541Y-69528571D01*
X58134160Y-69623809D01*
X58134160Y-69861904D01*
X58086541Y-69957142D01*
X58038922Y-70004761D01*
X57943684Y-70052380D01*
X57657969Y-70052380D01*
X57562731Y-70004761D01*
X57515112Y-69957142D01*
G04 #@! TO.C,L1*
X44331779Y-38252380D02*
X43855588Y-38252380D01*
X43855588Y-37252380D01*
X45188922Y-38252380D02*
X44617493Y-38252380D01*
X44903207Y-38252380D02*
X44903207Y-37252380D01*
X44807969Y-37395238D01*
X44712731Y-37490476D01*
X44617493Y-37538095D01*
G04 #@! TO.C,U1*
X49224041Y-84727380D02*
X49224041Y-85536904D01*
X49271660Y-85632142D01*
X49319279Y-85679761D01*
X49414517Y-85727380D01*
X49604993Y-85727380D01*
X49700231Y-85679761D01*
X49747850Y-85632142D01*
X49795469Y-85536904D01*
X49795469Y-84727380D01*
X50795469Y-85727380D02*
X50224041Y-85727380D01*
X50509755Y-85727380D02*
X50509755Y-84727380D01*
X50414517Y-84870238D01*
X50319279Y-84965476D01*
X50224041Y-85013095D01*
G04 #@! TO.C,C3*
X57181779Y-85957142D02*
X57134160Y-86004761D01*
X56991303Y-86052380D01*
X56896065Y-86052380D01*
X56753207Y-86004761D01*
X56657969Y-85909523D01*
X56610350Y-85814285D01*
X56562731Y-85623809D01*
X56562731Y-85480952D01*
X56610350Y-85290476D01*
X56657969Y-85195238D01*
X56753207Y-85100000D01*
X56896065Y-85052380D01*
X56991303Y-85052380D01*
X57134160Y-85100000D01*
X57181779Y-85147619D01*
X57515112Y-85052380D02*
X58134160Y-85052380D01*
X57800826Y-85433333D01*
X57943684Y-85433333D01*
X58038922Y-85480952D01*
X58086541Y-85528571D01*
X58134160Y-85623809D01*
X58134160Y-85861904D01*
X58086541Y-85957142D01*
X58038922Y-86004761D01*
X57943684Y-86052380D01*
X57657969Y-86052380D01*
X57562731Y-86004761D01*
X57515112Y-85957142D01*
G04 #@! TO.C,TP2*
X41498446Y-81761904D02*
X41450826Y-81857142D01*
X41450826Y-82000000D01*
X41498446Y-82142857D01*
X41593684Y-82238095D01*
X41688922Y-82285714D01*
X41879398Y-82333333D01*
X42022255Y-82333333D01*
X42212731Y-82285714D01*
X42307969Y-82238095D01*
X42403207Y-82142857D01*
X42450826Y-82000000D01*
X42450826Y-81904761D01*
X42403207Y-81761904D01*
X42355588Y-81714285D01*
X42022255Y-81714285D01*
X42022255Y-81904761D01*
X42450826Y-81285714D02*
X41450826Y-81285714D01*
X42450826Y-80714285D01*
X41450826Y-80714285D01*
X42450826Y-80238095D02*
X41450826Y-80238095D01*
X41450826Y-80000000D01*
X41498446Y-79857142D01*
X41593684Y-79761904D01*
X41688922Y-79714285D01*
X41879398Y-79666666D01*
X42022255Y-79666666D01*
X42212731Y-79714285D01*
X42307969Y-79761904D01*
X42403207Y-79857142D01*
X42450826Y-80000000D01*
X42450826Y-80238095D01*
G04 #@! TO.C,L1*
X44331779Y-22252380D02*
X43855588Y-22252380D01*
X43855588Y-21252380D01*
X45188922Y-22252380D02*
X44617493Y-22252380D01*
X44903207Y-22252380D02*
X44903207Y-21252380D01*
X44807969Y-21395238D01*
X44712731Y-21490476D01*
X44617493Y-21538095D01*
G04 #@! TO.C,C3*
X57181779Y-101957142D02*
X57134160Y-102004761D01*
X56991303Y-102052380D01*
X56896065Y-102052380D01*
X56753207Y-102004761D01*
X56657969Y-101909523D01*
X56610350Y-101814285D01*
X56562731Y-101623809D01*
X56562731Y-101480952D01*
X56610350Y-101290476D01*
X56657969Y-101195238D01*
X56753207Y-101100000D01*
X56896065Y-101052380D01*
X56991303Y-101052380D01*
X57134160Y-101100000D01*
X57181779Y-101147619D01*
X57515112Y-101052380D02*
X58134160Y-101052380D01*
X57800826Y-101433333D01*
X57943684Y-101433333D01*
X58038922Y-101480952D01*
X58086541Y-101528571D01*
X58134160Y-101623809D01*
X58134160Y-101861904D01*
X58086541Y-101957142D01*
X58038922Y-102004761D01*
X57943684Y-102052380D01*
X57657969Y-102052380D01*
X57562731Y-102004761D01*
X57515112Y-101957142D01*
G04 #@! TO.C,L1*
X44331779Y-102252380D02*
X43855588Y-102252380D01*
X43855588Y-101252380D01*
X45188922Y-102252380D02*
X44617493Y-102252380D01*
X44903207Y-102252380D02*
X44903207Y-101252380D01*
X44807969Y-101395238D01*
X44712731Y-101490476D01*
X44617493Y-101538095D01*
G04 #@! TO.C,R2*
X55431779Y-24252380D02*
X55098446Y-23776190D01*
X54860350Y-24252380D02*
X54860350Y-23252380D01*
X55241303Y-23252380D01*
X55336541Y-23300000D01*
X55384160Y-23347619D01*
X55431779Y-23442857D01*
X55431779Y-23585714D01*
X55384160Y-23680952D01*
X55336541Y-23728571D01*
X55241303Y-23776190D01*
X54860350Y-23776190D01*
X55812731Y-23347619D02*
X55860350Y-23300000D01*
X55955588Y-23252380D01*
X56193684Y-23252380D01*
X56288922Y-23300000D01*
X56336541Y-23347619D01*
X56384160Y-23442857D01*
X56384160Y-23538095D01*
X56336541Y-23680952D01*
X55765112Y-24252380D01*
X56384160Y-24252380D01*
G04 #@! TO.C,TP2*
X41498446Y-17761904D02*
X41450826Y-17857142D01*
X41450826Y-18000000D01*
X41498446Y-18142857D01*
X41593684Y-18238095D01*
X41688922Y-18285714D01*
X41879398Y-18333333D01*
X42022255Y-18333333D01*
X42212731Y-18285714D01*
X42307969Y-18238095D01*
X42403207Y-18142857D01*
X42450826Y-18000000D01*
X42450826Y-17904761D01*
X42403207Y-17761904D01*
X42355588Y-17714285D01*
X42022255Y-17714285D01*
X42022255Y-17904761D01*
X42450826Y-17285714D02*
X41450826Y-17285714D01*
X42450826Y-16714285D01*
X41450826Y-16714285D01*
X42450826Y-16238095D02*
X41450826Y-16238095D01*
X41450826Y-16000000D01*
X41498446Y-15857142D01*
X41593684Y-15761904D01*
X41688922Y-15714285D01*
X41879398Y-15666666D01*
X42022255Y-15666666D01*
X42212731Y-15714285D01*
X42307969Y-15761904D01*
X42403207Y-15857142D01*
X42450826Y-16000000D01*
X42450826Y-16238095D01*
G04 #@! TO.C,C2*
X48244279Y-18857142D02*
X48196660Y-18904761D01*
X48053803Y-18952380D01*
X47958565Y-18952380D01*
X47815707Y-18904761D01*
X47720469Y-18809523D01*
X47672850Y-18714285D01*
X47625231Y-18523809D01*
X47625231Y-18380952D01*
X47672850Y-18190476D01*
X47720469Y-18095238D01*
X47815707Y-18000000D01*
X47958565Y-17952380D01*
X48053803Y-17952380D01*
X48196660Y-18000000D01*
X48244279Y-18047619D01*
X48625231Y-18047619D02*
X48672850Y-18000000D01*
X48768088Y-17952380D01*
X49006184Y-17952380D01*
X49101422Y-18000000D01*
X49149041Y-18047619D01*
X49196660Y-18142857D01*
X49196660Y-18238095D01*
X49149041Y-18380952D01*
X48577612Y-18952380D01*
X49196660Y-18952380D01*
G04 #@! TO.C,SW1*
X51435350Y-73128571D02*
X51768684Y-73128571D01*
X51911541Y-73652380D02*
X51435350Y-73652380D01*
X51435350Y-72652380D01*
X51911541Y-72652380D01*
X52340112Y-73652380D02*
X52340112Y-72652380D01*
X52911541Y-73652380D01*
X52911541Y-72652380D01*
G04 #@! TO.C,R1*
X57031779Y-20452380D02*
X56698446Y-19976190D01*
X56460350Y-20452380D02*
X56460350Y-19452380D01*
X56841303Y-19452380D01*
X56936541Y-19500000D01*
X56984160Y-19547619D01*
X57031779Y-19642857D01*
X57031779Y-19785714D01*
X56984160Y-19880952D01*
X56936541Y-19928571D01*
X56841303Y-19976190D01*
X56460350Y-19976190D01*
X57984160Y-20452380D02*
X57412731Y-20452380D01*
X57698446Y-20452380D02*
X57698446Y-19452380D01*
X57603207Y-19595238D01*
X57507969Y-19690476D01*
X57412731Y-19738095D01*
G04 #@! TO.C,U1*
X49224041Y-36727380D02*
X49224041Y-37536904D01*
X49271660Y-37632142D01*
X49319279Y-37679761D01*
X49414517Y-37727380D01*
X49604993Y-37727380D01*
X49700231Y-37679761D01*
X49747850Y-37632142D01*
X49795469Y-37536904D01*
X49795469Y-36727380D01*
X50795469Y-37727380D02*
X50224041Y-37727380D01*
X50509755Y-37727380D02*
X50509755Y-36727380D01*
X50414517Y-36870238D01*
X50319279Y-36965476D01*
X50224041Y-37013095D01*
G04 #@! TO.C,C2*
X48244279Y-82857142D02*
X48196660Y-82904761D01*
X48053803Y-82952380D01*
X47958565Y-82952380D01*
X47815707Y-82904761D01*
X47720469Y-82809523D01*
X47672850Y-82714285D01*
X47625231Y-82523809D01*
X47625231Y-82380952D01*
X47672850Y-82190476D01*
X47720469Y-82095238D01*
X47815707Y-82000000D01*
X47958565Y-81952380D01*
X48053803Y-81952380D01*
X48196660Y-82000000D01*
X48244279Y-82047619D01*
X48625231Y-82047619D02*
X48672850Y-82000000D01*
X48768088Y-81952380D01*
X49006184Y-81952380D01*
X49101422Y-82000000D01*
X49149041Y-82047619D01*
X49196660Y-82142857D01*
X49196660Y-82238095D01*
X49149041Y-82380952D01*
X48577612Y-82952380D01*
X49196660Y-82952380D01*
G04 #@! TO.C,C1*
X51231779Y-72157142D02*
X51184160Y-72204761D01*
X51041303Y-72252380D01*
X50946065Y-72252380D01*
X50803207Y-72204761D01*
X50707969Y-72109523D01*
X50660350Y-72014285D01*
X50612731Y-71823809D01*
X50612731Y-71680952D01*
X50660350Y-71490476D01*
X50707969Y-71395238D01*
X50803207Y-71300000D01*
X50946065Y-71252380D01*
X51041303Y-71252380D01*
X51184160Y-71300000D01*
X51231779Y-71347619D01*
X52184160Y-72252380D02*
X51612731Y-72252380D01*
X51898446Y-72252380D02*
X51898446Y-71252380D01*
X51803207Y-71395238D01*
X51707969Y-71490476D01*
X51612731Y-71538095D01*
G04 #@! TO.C,C2*
X48244279Y-50857142D02*
X48196660Y-50904761D01*
X48053803Y-50952380D01*
X47958565Y-50952380D01*
X47815707Y-50904761D01*
X47720469Y-50809523D01*
X47672850Y-50714285D01*
X47625231Y-50523809D01*
X47625231Y-50380952D01*
X47672850Y-50190476D01*
X47720469Y-50095238D01*
X47815707Y-50000000D01*
X47958565Y-49952380D01*
X48053803Y-49952380D01*
X48196660Y-50000000D01*
X48244279Y-50047619D01*
X48625231Y-50047619D02*
X48672850Y-50000000D01*
X48768088Y-49952380D01*
X49006184Y-49952380D01*
X49101422Y-50000000D01*
X49149041Y-50047619D01*
X49196660Y-50142857D01*
X49196660Y-50238095D01*
X49149041Y-50380952D01*
X48577612Y-50952380D01*
X49196660Y-50952380D01*
X48244279Y-66857142D02*
X48196660Y-66904761D01*
X48053803Y-66952380D01*
X47958565Y-66952380D01*
X47815707Y-66904761D01*
X47720469Y-66809523D01*
X47672850Y-66714285D01*
X47625231Y-66523809D01*
X47625231Y-66380952D01*
X47672850Y-66190476D01*
X47720469Y-66095238D01*
X47815707Y-66000000D01*
X47958565Y-65952380D01*
X48053803Y-65952380D01*
X48196660Y-66000000D01*
X48244279Y-66047619D01*
X48625231Y-66047619D02*
X48672850Y-66000000D01*
X48768088Y-65952380D01*
X49006184Y-65952380D01*
X49101422Y-66000000D01*
X49149041Y-66047619D01*
X49196660Y-66142857D01*
X49196660Y-66238095D01*
X49149041Y-66380952D01*
X48577612Y-66952380D01*
X49196660Y-66952380D01*
G04 #@! TO.C,R2*
X55431779Y-104252380D02*
X55098446Y-103776190D01*
X54860350Y-104252380D02*
X54860350Y-103252380D01*
X55241303Y-103252380D01*
X55336541Y-103300000D01*
X55384160Y-103347619D01*
X55431779Y-103442857D01*
X55431779Y-103585714D01*
X55384160Y-103680952D01*
X55336541Y-103728571D01*
X55241303Y-103776190D01*
X54860350Y-103776190D01*
X55812731Y-103347619D02*
X55860350Y-103300000D01*
X55955588Y-103252380D01*
X56193684Y-103252380D01*
X56288922Y-103300000D01*
X56336541Y-103347619D01*
X56384160Y-103442857D01*
X56384160Y-103538095D01*
X56336541Y-103680952D01*
X55765112Y-104252380D01*
X56384160Y-104252380D01*
X55431779Y-56252380D02*
X55098446Y-55776190D01*
X54860350Y-56252380D02*
X54860350Y-55252380D01*
X55241303Y-55252380D01*
X55336541Y-55300000D01*
X55384160Y-55347619D01*
X55431779Y-55442857D01*
X55431779Y-55585714D01*
X55384160Y-55680952D01*
X55336541Y-55728571D01*
X55241303Y-55776190D01*
X54860350Y-55776190D01*
X55812731Y-55347619D02*
X55860350Y-55300000D01*
X55955588Y-55252380D01*
X56193684Y-55252380D01*
X56288922Y-55300000D01*
X56336541Y-55347619D01*
X56384160Y-55442857D01*
X56384160Y-55538095D01*
X56336541Y-55680952D01*
X55765112Y-56252380D01*
X56384160Y-56252380D01*
G04 #@! TO.C,C3*
X57181779Y-53957142D02*
X57134160Y-54004761D01*
X56991303Y-54052380D01*
X56896065Y-54052380D01*
X56753207Y-54004761D01*
X56657969Y-53909523D01*
X56610350Y-53814285D01*
X56562731Y-53623809D01*
X56562731Y-53480952D01*
X56610350Y-53290476D01*
X56657969Y-53195238D01*
X56753207Y-53100000D01*
X56896065Y-53052380D01*
X56991303Y-53052380D01*
X57134160Y-53100000D01*
X57181779Y-53147619D01*
X57515112Y-53052380D02*
X58134160Y-53052380D01*
X57800826Y-53433333D01*
X57943684Y-53433333D01*
X58038922Y-53480952D01*
X58086541Y-53528571D01*
X58134160Y-53623809D01*
X58134160Y-53861904D01*
X58086541Y-53957142D01*
X58038922Y-54004761D01*
X57943684Y-54052380D01*
X57657969Y-54052380D01*
X57562731Y-54004761D01*
X57515112Y-53957142D01*
G04 #@! TO.C,R2*
X55431779Y-40252380D02*
X55098446Y-39776190D01*
X54860350Y-40252380D02*
X54860350Y-39252380D01*
X55241303Y-39252380D01*
X55336541Y-39300000D01*
X55384160Y-39347619D01*
X55431779Y-39442857D01*
X55431779Y-39585714D01*
X55384160Y-39680952D01*
X55336541Y-39728571D01*
X55241303Y-39776190D01*
X54860350Y-39776190D01*
X55812731Y-39347619D02*
X55860350Y-39300000D01*
X55955588Y-39252380D01*
X56193684Y-39252380D01*
X56288922Y-39300000D01*
X56336541Y-39347619D01*
X56384160Y-39442857D01*
X56384160Y-39538095D01*
X56336541Y-39680952D01*
X55765112Y-40252380D01*
X56384160Y-40252380D01*
G04 #@! TO.C,R1*
X57031779Y-52452380D02*
X56698446Y-51976190D01*
X56460350Y-52452380D02*
X56460350Y-51452380D01*
X56841303Y-51452380D01*
X56936541Y-51500000D01*
X56984160Y-51547619D01*
X57031779Y-51642857D01*
X57031779Y-51785714D01*
X56984160Y-51880952D01*
X56936541Y-51928571D01*
X56841303Y-51976190D01*
X56460350Y-51976190D01*
X57984160Y-52452380D02*
X57412731Y-52452380D01*
X57698446Y-52452380D02*
X57698446Y-51452380D01*
X57603207Y-51595238D01*
X57507969Y-51690476D01*
X57412731Y-51738095D01*
G04 #@! TO.C,U1*
X49224041Y-20727380D02*
X49224041Y-21536904D01*
X49271660Y-21632142D01*
X49319279Y-21679761D01*
X49414517Y-21727380D01*
X49604993Y-21727380D01*
X49700231Y-21679761D01*
X49747850Y-21632142D01*
X49795469Y-21536904D01*
X49795469Y-20727380D01*
X50795469Y-21727380D02*
X50224041Y-21727380D01*
X50509755Y-21727380D02*
X50509755Y-20727380D01*
X50414517Y-20870238D01*
X50319279Y-20965476D01*
X50224041Y-21013095D01*
G04 #@! TO.C,SW1*
X51435350Y-57128571D02*
X51768684Y-57128571D01*
X51911541Y-57652380D02*
X51435350Y-57652380D01*
X51435350Y-56652380D01*
X51911541Y-56652380D01*
X52340112Y-57652380D02*
X52340112Y-56652380D01*
X52911541Y-57652380D01*
X52911541Y-56652380D01*
G04 #@! TO.C,TP1*
X57450826Y-33190476D02*
X57450826Y-33666666D01*
X57927017Y-33714285D01*
X57879398Y-33666666D01*
X57831779Y-33571428D01*
X57831779Y-33333333D01*
X57879398Y-33238095D01*
X57927017Y-33190476D01*
X58022255Y-33142857D01*
X58260350Y-33142857D01*
X58355588Y-33190476D01*
X58403207Y-33238095D01*
X58450826Y-33333333D01*
X58450826Y-33571428D01*
X58403207Y-33666666D01*
X58355588Y-33714285D01*
X57450826Y-32857142D02*
X58450826Y-32523809D01*
X57450826Y-32190476D01*
G04 #@! TO.C,R1*
X57031779Y-84452380D02*
X56698446Y-83976190D01*
X56460350Y-84452380D02*
X56460350Y-83452380D01*
X56841303Y-83452380D01*
X56936541Y-83500000D01*
X56984160Y-83547619D01*
X57031779Y-83642857D01*
X57031779Y-83785714D01*
X56984160Y-83880952D01*
X56936541Y-83928571D01*
X56841303Y-83976190D01*
X56460350Y-83976190D01*
X57984160Y-84452380D02*
X57412731Y-84452380D01*
X57698446Y-84452380D02*
X57698446Y-83452380D01*
X57603207Y-83595238D01*
X57507969Y-83690476D01*
X57412731Y-83738095D01*
G04 #@! TO.C,L1*
X44331779Y-86252380D02*
X43855588Y-86252380D01*
X43855588Y-85252380D01*
X45188922Y-86252380D02*
X44617493Y-86252380D01*
X44903207Y-86252380D02*
X44903207Y-85252380D01*
X44807969Y-85395238D01*
X44712731Y-85490476D01*
X44617493Y-85538095D01*
G04 #@! TO.C,C1*
X51231779Y-104157142D02*
X51184160Y-104204761D01*
X51041303Y-104252380D01*
X50946065Y-104252380D01*
X50803207Y-104204761D01*
X50707969Y-104109523D01*
X50660350Y-104014285D01*
X50612731Y-103823809D01*
X50612731Y-103680952D01*
X50660350Y-103490476D01*
X50707969Y-103395238D01*
X50803207Y-103300000D01*
X50946065Y-103252380D01*
X51041303Y-103252380D01*
X51184160Y-103300000D01*
X51231779Y-103347619D01*
X52184160Y-104252380D02*
X51612731Y-104252380D01*
X51898446Y-104252380D02*
X51898446Y-103252380D01*
X51803207Y-103395238D01*
X51707969Y-103490476D01*
X51612731Y-103538095D01*
D11*
X48524694Y-23290000D02*
X49047198Y-23290000D01*
X48524694Y-24760000D02*
X49047198Y-24760000D01*
G04 #@! TO.C,kibuzzard-6259CC62*
G36*
X31794933Y-54087313D02*
G01*
X31840177Y-54189706D01*
X31824302Y-54260350D01*
X31783821Y-54303213D01*
X31727465Y-54323850D01*
X31662377Y-54329406D01*
X31613958Y-54327819D01*
X31568715Y-54323056D01*
X31568715Y-54056356D01*
X31673490Y-54056356D01*
X31794933Y-54087313D01*
G37*
G36*
X31710002Y-53666625D02*
G01*
X31754452Y-53682500D01*
X31784615Y-53715837D01*
X31795727Y-53772194D01*
X31757627Y-53861887D01*
X31644915Y-53894431D01*
X31568715Y-53894431D01*
X31568715Y-53669006D01*
X31611577Y-53664244D01*
X31657615Y-53662656D01*
X31710002Y-53666625D01*
G37*
G36*
X36474884Y-53799975D02*
G01*
X36500284Y-53898400D01*
X36521715Y-53996031D01*
X36540765Y-54097631D01*
X36348677Y-54097631D01*
X36368521Y-53996031D01*
X36390746Y-53898400D01*
X36416146Y-53799975D01*
X36445515Y-53694406D01*
X36474884Y-53799975D01*
G37*
G36*
X33342151Y-53906536D02*
G01*
X33388783Y-53952375D01*
X33415573Y-54023217D01*
X33424502Y-54113506D01*
X33414779Y-54203994D01*
X33385608Y-54275431D01*
X33337388Y-54321866D01*
X33270515Y-54337344D01*
X33202054Y-54321866D01*
X33155421Y-54275431D01*
X33128632Y-54203994D01*
X33119702Y-54113506D01*
X33129426Y-54023217D01*
X33158596Y-53952375D01*
X33206816Y-53906536D01*
X33273690Y-53891256D01*
X33342151Y-53906536D01*
G37*
G36*
X37268634Y-53799975D02*
G01*
X37294034Y-53898400D01*
X37315465Y-53996031D01*
X37334515Y-54097631D01*
X37142427Y-54097631D01*
X37162271Y-53996031D01*
X37184496Y-53898400D01*
X37209896Y-53799975D01*
X37239265Y-53694406D01*
X37268634Y-53799975D01*
G37*
G36*
X30180931Y-54000000D02*
G01*
X30860822Y-52980164D01*
X38136070Y-52980164D01*
X38815961Y-54000000D01*
X38136070Y-55019836D01*
X30860822Y-55019836D01*
X30494727Y-54470694D01*
X31373452Y-54470694D01*
X31442112Y-54483195D01*
X31511565Y-54492125D01*
X31580224Y-54497483D01*
X31646502Y-54499269D01*
X31724885Y-54495498D01*
X31798108Y-54484188D01*
X31863990Y-54463947D01*
X31920346Y-54433388D01*
X32002102Y-54338138D01*
X32024724Y-54271264D01*
X32032265Y-54189706D01*
X32023335Y-54123031D01*
X32018647Y-54111919D01*
X32127515Y-54111919D01*
X32133865Y-54196652D01*
X32152915Y-54273050D01*
X32183673Y-54340320D01*
X32225146Y-54397669D01*
X32276343Y-54444103D01*
X32336271Y-54478631D01*
X32404335Y-54500062D01*
X32479940Y-54507206D01*
X32555544Y-54500062D01*
X32623608Y-54478631D01*
X32683338Y-54444103D01*
X32733940Y-54397669D01*
X32774818Y-54340320D01*
X32805377Y-54273050D01*
X32824427Y-54196652D01*
X32830777Y-54111919D01*
X32921265Y-54111919D01*
X32927615Y-54196652D01*
X32946665Y-54273050D01*
X32977423Y-54340320D01*
X33018896Y-54397669D01*
X33070093Y-54444103D01*
X33130021Y-54478631D01*
X33198085Y-54500062D01*
X33273690Y-54507206D01*
X33349294Y-54500062D01*
X33417358Y-54478631D01*
X33477088Y-54444103D01*
X33479250Y-54442119D01*
X33754702Y-54442119D01*
X33864240Y-54481806D01*
X33939646Y-54498475D01*
X34029340Y-54504031D01*
X34117049Y-54499666D01*
X34189677Y-54486569D01*
X34295246Y-54438944D01*
X34353190Y-54367506D01*
X34370652Y-54280194D01*
X34346840Y-54180975D01*
X34285721Y-54114300D01*
X34202377Y-54070644D01*
X34113477Y-54038894D01*
X34057121Y-54019050D01*
X34011083Y-53997619D01*
X33979333Y-53973012D01*
X33967427Y-53942056D01*
X33993621Y-53903162D01*
X34094427Y-53884906D01*
X34223015Y-53903162D01*
X34307152Y-53929356D01*
X34312082Y-53902369D01*
X34519877Y-53902369D01*
X34689740Y-53902369D01*
X34689740Y-54208756D01*
X34694502Y-54293489D01*
X34708790Y-54360363D01*
X34764352Y-54450056D01*
X34853252Y-54492919D01*
X34973902Y-54504031D01*
X35095346Y-54494506D01*
X35124514Y-54486569D01*
X35270765Y-54486569D01*
X35473965Y-54486569D01*
X35518415Y-54259556D01*
X35780352Y-54259556D01*
X35826390Y-54486569D01*
X36035940Y-54486569D01*
X36064515Y-54486569D01*
X36267715Y-54486569D01*
X36312165Y-54259556D01*
X36574102Y-54259556D01*
X36620140Y-54486569D01*
X36829690Y-54486569D01*
X36858265Y-54486569D01*
X37061465Y-54486569D01*
X37105915Y-54259556D01*
X37367852Y-54259556D01*
X37413890Y-54486569D01*
X37623440Y-54486569D01*
X37597246Y-54375158D01*
X37570735Y-54266986D01*
X37543906Y-54162052D01*
X37516760Y-54060357D01*
X37489296Y-53961900D01*
X37454718Y-53842490D01*
X37420041Y-53726355D01*
X37385265Y-53613493D01*
X37350390Y-53503906D01*
X37137665Y-53503906D01*
X37104030Y-53612600D01*
X37069799Y-53724370D01*
X37034973Y-53839216D01*
X36999552Y-53957137D01*
X36971041Y-54054769D01*
X36942656Y-54156528D01*
X36914399Y-54262414D01*
X36886268Y-54372428D01*
X36858265Y-54486569D01*
X36829690Y-54486569D01*
X36803496Y-54375158D01*
X36776985Y-54266986D01*
X36750156Y-54162052D01*
X36723010Y-54060357D01*
X36695546Y-53961900D01*
X36660968Y-53842490D01*
X36626291Y-53726355D01*
X36591515Y-53613493D01*
X36556640Y-53503906D01*
X36343915Y-53503906D01*
X36310280Y-53612600D01*
X36276049Y-53724370D01*
X36241223Y-53839216D01*
X36205802Y-53957137D01*
X36177291Y-54054769D01*
X36148906Y-54156528D01*
X36120649Y-54262414D01*
X36092518Y-54372428D01*
X36064515Y-54486569D01*
X36035940Y-54486569D01*
X36009746Y-54375158D01*
X35983235Y-54266986D01*
X35956406Y-54162052D01*
X35929260Y-54060357D01*
X35901796Y-53961900D01*
X35867218Y-53842490D01*
X35832541Y-53726355D01*
X35797765Y-53613493D01*
X35762890Y-53503906D01*
X35550165Y-53503906D01*
X35516530Y-53612600D01*
X35482299Y-53724370D01*
X35447473Y-53839216D01*
X35412052Y-53957137D01*
X35383541Y-54054769D01*
X35355156Y-54156528D01*
X35326899Y-54262414D01*
X35298768Y-54372428D01*
X35270765Y-54486569D01*
X35124514Y-54486569D01*
X35212027Y-54462756D01*
X35185040Y-54294481D01*
X35135034Y-54315119D01*
X35090584Y-54327025D01*
X35046134Y-54332581D01*
X34996127Y-54334169D01*
X34950090Y-54329406D01*
X34915165Y-54310356D01*
X34892940Y-54270669D01*
X34885002Y-54203994D01*
X34885002Y-53902369D01*
X35197740Y-53902369D01*
X35197740Y-53740444D01*
X34885002Y-53740444D01*
X34885002Y-53521369D01*
X34689740Y-53553119D01*
X34689740Y-53740444D01*
X34519877Y-53740444D01*
X34519877Y-53902369D01*
X34312082Y-53902369D01*
X34337315Y-53764256D01*
X34228571Y-53732506D01*
X34163285Y-53724172D01*
X34092840Y-53721394D01*
X34014655Y-53725958D01*
X33948377Y-53739650D01*
X33849158Y-53790450D01*
X33792008Y-53865062D01*
X33773752Y-53954756D01*
X33797565Y-54052388D01*
X33857890Y-54116681D01*
X33938852Y-54158750D01*
X34026165Y-54188119D01*
X34084108Y-54207169D01*
X34133321Y-54227013D01*
X34166658Y-54251619D01*
X34178565Y-54286544D01*
X34140465Y-54328613D01*
X34030927Y-54338931D01*
X33903133Y-54319881D01*
X33784865Y-54278606D01*
X33754702Y-54442119D01*
X33479250Y-54442119D01*
X33527690Y-54397669D01*
X33568568Y-54340320D01*
X33599127Y-54273050D01*
X33618177Y-54196652D01*
X33624527Y-54111919D01*
X33618177Y-54028377D01*
X33599127Y-53952375D01*
X33568369Y-53885303D01*
X33526896Y-53828550D01*
X33475699Y-53782909D01*
X33415771Y-53749175D01*
X33348104Y-53728339D01*
X33273690Y-53721394D01*
X33200268Y-53728339D01*
X33132402Y-53749175D01*
X33071879Y-53782909D01*
X33020483Y-53828550D01*
X32978812Y-53885303D01*
X32947458Y-53952375D01*
X32927813Y-54028377D01*
X32921265Y-54111919D01*
X32830777Y-54111919D01*
X32824427Y-54028377D01*
X32805377Y-53952375D01*
X32774619Y-53885303D01*
X32733146Y-53828550D01*
X32681949Y-53782909D01*
X32622021Y-53749175D01*
X32554354Y-53728339D01*
X32479940Y-53721394D01*
X32406518Y-53728339D01*
X32338652Y-53749175D01*
X32278129Y-53782909D01*
X32226733Y-53828550D01*
X32185062Y-53885303D01*
X32153708Y-53952375D01*
X32134063Y-54028377D01*
X32127515Y-54111919D01*
X32018647Y-54111919D01*
X31996546Y-54059531D01*
X31944754Y-54003969D01*
X31860815Y-53961106D01*
X31952096Y-53875381D01*
X31977694Y-53817437D01*
X31986227Y-53751556D01*
X31971940Y-53659481D01*
X31917965Y-53576137D01*
X31808427Y-53515812D01*
X31728258Y-53498548D01*
X31627452Y-53492794D01*
X31495690Y-53499938D01*
X31373452Y-53516606D01*
X31373452Y-54470694D01*
X30494727Y-54470694D01*
X30180931Y-54000000D01*
G37*
G36*
X32548401Y-53906536D02*
G01*
X32595033Y-53952375D01*
X32621823Y-54023217D01*
X32630752Y-54113506D01*
X32621029Y-54203994D01*
X32591858Y-54275431D01*
X32543638Y-54321866D01*
X32476765Y-54337344D01*
X32408304Y-54321866D01*
X32361671Y-54275431D01*
X32334882Y-54203994D01*
X32325952Y-54113506D01*
X32335676Y-54023217D01*
X32364846Y-53952375D01*
X32413066Y-53906536D01*
X32479940Y-53891256D01*
X32548401Y-53906536D01*
G37*
G36*
X35681134Y-53799975D02*
G01*
X35706534Y-53898400D01*
X35727965Y-53996031D01*
X35747015Y-54097631D01*
X35554927Y-54097631D01*
X35574771Y-53996031D01*
X35596996Y-53898400D01*
X35622396Y-53799975D01*
X35651765Y-53694406D01*
X35681134Y-53799975D01*
G37*
G04 #@! TO.C,C1*
X48524694Y-88760000D02*
X49047198Y-88760000D01*
X48524694Y-87290000D02*
X49047198Y-87290000D01*
G04 #@! TO.C,SW1*
X46113446Y-105870000D02*
X46113446Y-108530000D01*
X51253446Y-105870000D02*
X46113446Y-105870000D01*
X51253446Y-108110000D02*
X51253446Y-108530000D01*
X52523446Y-105870000D02*
X53853446Y-105870000D01*
X53853446Y-105870000D02*
X53853446Y-107200000D01*
X51253446Y-105870000D02*
X51253446Y-106290000D01*
X51253446Y-108530000D02*
X46113446Y-108530000D01*
G04 #@! TO.C,TP1*
X56698446Y-50700000D02*
X53298446Y-50700000D01*
X53298446Y-50700000D02*
X53298446Y-47300000D01*
X53298446Y-47300000D02*
X56698446Y-47300000D01*
X56698446Y-47300000D02*
X56698446Y-50700000D01*
G04 #@! TO.C,SW1*
X51253446Y-28530000D02*
X46113446Y-28530000D01*
X51253446Y-28110000D02*
X51253446Y-28530000D01*
X46113446Y-25870000D02*
X46113446Y-28530000D01*
X51253446Y-25870000D02*
X51253446Y-26290000D01*
X53853446Y-25870000D02*
X53853446Y-27200000D01*
X51253446Y-25870000D02*
X46113446Y-25870000D01*
X52523446Y-25870000D02*
X53853446Y-25870000D01*
G04 #@! TO.C,C3*
X56108446Y-36634420D02*
X56108446Y-36915580D01*
X55088446Y-36634420D02*
X55088446Y-36915580D01*
G04 #@! TO.C,C1*
X48524694Y-56760000D02*
X49047198Y-56760000D01*
X48524694Y-55290000D02*
X49047198Y-55290000D01*
G04 #@! TO.C,C2*
X51509698Y-97740000D02*
X50987194Y-97740000D01*
X51509698Y-99210000D02*
X50987194Y-99210000D01*
G04 #@! TO.C,TP1*
X53298446Y-79300000D02*
X56698446Y-79300000D01*
X53298446Y-82700000D02*
X53298446Y-79300000D01*
X56698446Y-79300000D02*
X56698446Y-82700000D01*
X56698446Y-82700000D02*
X53298446Y-82700000D01*
G04 #@! TO.C,R1*
X53475946Y-68537742D02*
X53475946Y-69012258D01*
X54520946Y-68537742D02*
X54520946Y-69012258D01*
G04 #@! TO.C,TP1*
X56698446Y-15300000D02*
X56698446Y-18700000D01*
X53298446Y-15300000D02*
X56698446Y-15300000D01*
X53298446Y-18700000D02*
X53298446Y-15300000D01*
X56698446Y-18700000D02*
X53298446Y-18700000D01*
X56698446Y-98700000D02*
X53298446Y-98700000D01*
X53298446Y-98700000D02*
X53298446Y-95300000D01*
X53298446Y-95300000D02*
X56698446Y-95300000D01*
X56698446Y-95300000D02*
X56698446Y-98700000D01*
G04 #@! TO.C,U1*
X49985946Y-102885000D02*
X52910946Y-102885000D01*
X49985946Y-102885000D02*
X48485946Y-102885000D01*
X49985946Y-99665000D02*
X48485946Y-99665000D01*
X49985946Y-99665000D02*
X51485946Y-99665000D01*
G04 #@! TO.C,TP2*
X43298446Y-98700000D02*
X43298446Y-95300000D01*
X46698446Y-95300000D02*
X46698446Y-98700000D01*
X46698446Y-98700000D02*
X43298446Y-98700000D01*
X43298446Y-95300000D02*
X46698446Y-95300000D01*
G04 #@! TO.C,L1*
X42388446Y-71750000D02*
X42388446Y-67750000D01*
X46608446Y-67750000D02*
X46608446Y-71750000D01*
G04 #@! TO.C,U1*
X49985946Y-70885000D02*
X48485946Y-70885000D01*
X49985946Y-70885000D02*
X52910946Y-70885000D01*
X49985946Y-67665000D02*
X51485946Y-67665000D01*
X49985946Y-67665000D02*
X48485946Y-67665000D01*
G04 #@! TO.C,TP1*
X53298446Y-66700000D02*
X53298446Y-63300000D01*
X56698446Y-63300000D02*
X56698446Y-66700000D01*
X56698446Y-66700000D02*
X53298446Y-66700000D01*
X53298446Y-63300000D02*
X56698446Y-63300000D01*
G04 #@! TO.C,SW1*
X51253446Y-92530000D02*
X46113446Y-92530000D01*
X51253446Y-89870000D02*
X46113446Y-89870000D01*
X51253446Y-89870000D02*
X51253446Y-90290000D01*
X52523446Y-89870000D02*
X53853446Y-89870000D01*
X51253446Y-92110000D02*
X51253446Y-92530000D01*
X46113446Y-89870000D02*
X46113446Y-92530000D01*
X53853446Y-89870000D02*
X53853446Y-91200000D01*
G04 #@! TO.C,TP2*
X46698446Y-34700000D02*
X43298446Y-34700000D01*
X46698446Y-31300000D02*
X46698446Y-34700000D01*
X43298446Y-34700000D02*
X43298446Y-31300000D01*
X43298446Y-31300000D02*
X46698446Y-31300000D01*
G04 #@! TO.C,U1*
X49985946Y-51665000D02*
X51485946Y-51665000D01*
X49985946Y-51665000D02*
X48485946Y-51665000D01*
X49985946Y-54885000D02*
X52910946Y-54885000D01*
X49985946Y-54885000D02*
X48485946Y-54885000D01*
G04 #@! TO.C,kibuzzard-6259CC62*
G36*
X36474884Y-101799975D02*
G01*
X36500284Y-101898400D01*
X36521715Y-101996031D01*
X36540765Y-102097631D01*
X36348677Y-102097631D01*
X36368521Y-101996031D01*
X36390746Y-101898400D01*
X36416146Y-101799975D01*
X36445515Y-101694406D01*
X36474884Y-101799975D01*
G37*
G36*
X35681134Y-101799975D02*
G01*
X35706534Y-101898400D01*
X35727965Y-101996031D01*
X35747015Y-102097631D01*
X35554927Y-102097631D01*
X35574771Y-101996031D01*
X35596996Y-101898400D01*
X35622396Y-101799975D01*
X35651765Y-101694406D01*
X35681134Y-101799975D01*
G37*
G36*
X32548401Y-101906536D02*
G01*
X32595033Y-101952375D01*
X32621823Y-102023217D01*
X32630752Y-102113506D01*
X32621029Y-102203994D01*
X32591858Y-102275431D01*
X32543638Y-102321866D01*
X32476765Y-102337344D01*
X32408304Y-102321866D01*
X32361671Y-102275431D01*
X32334882Y-102203994D01*
X32325952Y-102113506D01*
X32335676Y-102023217D01*
X32364846Y-101952375D01*
X32413066Y-101906536D01*
X32479940Y-101891256D01*
X32548401Y-101906536D01*
G37*
G36*
X31794933Y-102087313D02*
G01*
X31840177Y-102189706D01*
X31824302Y-102260350D01*
X31783821Y-102303213D01*
X31727465Y-102323850D01*
X31662377Y-102329406D01*
X31613958Y-102327819D01*
X31568715Y-102323056D01*
X31568715Y-102056356D01*
X31673490Y-102056356D01*
X31794933Y-102087313D01*
G37*
G36*
X37268634Y-101799975D02*
G01*
X37294034Y-101898400D01*
X37315465Y-101996031D01*
X37334515Y-102097631D01*
X37142427Y-102097631D01*
X37162271Y-101996031D01*
X37184496Y-101898400D01*
X37209896Y-101799975D01*
X37239265Y-101694406D01*
X37268634Y-101799975D01*
G37*
G36*
X33342151Y-101906536D02*
G01*
X33388783Y-101952375D01*
X33415573Y-102023217D01*
X33424502Y-102113506D01*
X33414779Y-102203994D01*
X33385608Y-102275431D01*
X33337388Y-102321866D01*
X33270515Y-102337344D01*
X33202054Y-102321866D01*
X33155421Y-102275431D01*
X33128632Y-102203994D01*
X33119702Y-102113506D01*
X33129426Y-102023217D01*
X33158596Y-101952375D01*
X33206816Y-101906536D01*
X33273690Y-101891256D01*
X33342151Y-101906536D01*
G37*
G36*
X30180931Y-102000000D02*
G01*
X30860822Y-100980164D01*
X38136070Y-100980164D01*
X38815961Y-102000000D01*
X38136070Y-103019836D01*
X30860822Y-103019836D01*
X30494727Y-102470694D01*
X31373452Y-102470694D01*
X31442112Y-102483195D01*
X31511565Y-102492125D01*
X31580224Y-102497483D01*
X31646502Y-102499269D01*
X31724885Y-102495498D01*
X31798108Y-102484188D01*
X31863990Y-102463947D01*
X31920346Y-102433388D01*
X32002102Y-102338138D01*
X32024724Y-102271264D01*
X32032265Y-102189706D01*
X32023335Y-102123031D01*
X32018647Y-102111919D01*
X32127515Y-102111919D01*
X32133865Y-102196652D01*
X32152915Y-102273050D01*
X32183673Y-102340320D01*
X32225146Y-102397669D01*
X32276343Y-102444103D01*
X32336271Y-102478631D01*
X32404335Y-102500062D01*
X32479940Y-102507206D01*
X32555544Y-102500062D01*
X32623608Y-102478631D01*
X32683338Y-102444103D01*
X32733940Y-102397669D01*
X32774818Y-102340320D01*
X32805377Y-102273050D01*
X32824427Y-102196652D01*
X32830777Y-102111919D01*
X32921265Y-102111919D01*
X32927615Y-102196652D01*
X32946665Y-102273050D01*
X32977423Y-102340320D01*
X33018896Y-102397669D01*
X33070093Y-102444103D01*
X33130021Y-102478631D01*
X33198085Y-102500062D01*
X33273690Y-102507206D01*
X33349294Y-102500062D01*
X33417358Y-102478631D01*
X33477088Y-102444103D01*
X33479250Y-102442119D01*
X33754702Y-102442119D01*
X33864240Y-102481806D01*
X33939646Y-102498475D01*
X34029340Y-102504031D01*
X34117049Y-102499666D01*
X34189677Y-102486569D01*
X34295246Y-102438944D01*
X34353190Y-102367506D01*
X34370652Y-102280194D01*
X34346840Y-102180975D01*
X34285721Y-102114300D01*
X34202377Y-102070644D01*
X34113477Y-102038894D01*
X34057121Y-102019050D01*
X34011083Y-101997619D01*
X33979333Y-101973012D01*
X33967427Y-101942056D01*
X33993621Y-101903162D01*
X34094427Y-101884906D01*
X34223015Y-101903162D01*
X34307152Y-101929356D01*
X34312082Y-101902369D01*
X34519877Y-101902369D01*
X34689740Y-101902369D01*
X34689740Y-102208756D01*
X34694502Y-102293489D01*
X34708790Y-102360363D01*
X34764352Y-102450056D01*
X34853252Y-102492919D01*
X34973902Y-102504031D01*
X35095346Y-102494506D01*
X35124514Y-102486569D01*
X35270765Y-102486569D01*
X35473965Y-102486569D01*
X35518415Y-102259556D01*
X35780352Y-102259556D01*
X35826390Y-102486569D01*
X36035940Y-102486569D01*
X36064515Y-102486569D01*
X36267715Y-102486569D01*
X36312165Y-102259556D01*
X36574102Y-102259556D01*
X36620140Y-102486569D01*
X36829690Y-102486569D01*
X36858265Y-102486569D01*
X37061465Y-102486569D01*
X37105915Y-102259556D01*
X37367852Y-102259556D01*
X37413890Y-102486569D01*
X37623440Y-102486569D01*
X37597246Y-102375158D01*
X37570735Y-102266986D01*
X37543906Y-102162052D01*
X37516760Y-102060357D01*
X37489296Y-101961900D01*
X37454718Y-101842490D01*
X37420041Y-101726355D01*
X37385265Y-101613493D01*
X37350390Y-101503906D01*
X37137665Y-101503906D01*
X37104030Y-101612600D01*
X37069799Y-101724370D01*
X37034973Y-101839216D01*
X36999552Y-101957137D01*
X36971041Y-102054769D01*
X36942656Y-102156528D01*
X36914399Y-102262414D01*
X36886268Y-102372428D01*
X36858265Y-102486569D01*
X36829690Y-102486569D01*
X36803496Y-102375158D01*
X36776985Y-102266986D01*
X36750156Y-102162052D01*
X36723010Y-102060357D01*
X36695546Y-101961900D01*
X36660968Y-101842490D01*
X36626291Y-101726355D01*
X36591515Y-101613493D01*
X36556640Y-101503906D01*
X36343915Y-101503906D01*
X36310280Y-101612600D01*
X36276049Y-101724370D01*
X36241223Y-101839216D01*
X36205802Y-101957137D01*
X36177291Y-102054769D01*
X36148906Y-102156528D01*
X36120649Y-102262414D01*
X36092518Y-102372428D01*
X36064515Y-102486569D01*
X36035940Y-102486569D01*
X36009746Y-102375158D01*
X35983235Y-102266986D01*
X35956406Y-102162052D01*
X35929260Y-102060357D01*
X35901796Y-101961900D01*
X35867218Y-101842490D01*
X35832541Y-101726355D01*
X35797765Y-101613493D01*
X35762890Y-101503906D01*
X35550165Y-101503906D01*
X35516530Y-101612600D01*
X35482299Y-101724370D01*
X35447473Y-101839216D01*
X35412052Y-101957137D01*
X35383541Y-102054769D01*
X35355156Y-102156528D01*
X35326899Y-102262414D01*
X35298768Y-102372428D01*
X35270765Y-102486569D01*
X35124514Y-102486569D01*
X35212027Y-102462756D01*
X35185040Y-102294481D01*
X35135034Y-102315119D01*
X35090584Y-102327025D01*
X35046134Y-102332581D01*
X34996127Y-102334169D01*
X34950090Y-102329406D01*
X34915165Y-102310356D01*
X34892940Y-102270669D01*
X34885002Y-102203994D01*
X34885002Y-101902369D01*
X35197740Y-101902369D01*
X35197740Y-101740444D01*
X34885002Y-101740444D01*
X34885002Y-101521369D01*
X34689740Y-101553119D01*
X34689740Y-101740444D01*
X34519877Y-101740444D01*
X34519877Y-101902369D01*
X34312082Y-101902369D01*
X34337315Y-101764256D01*
X34228571Y-101732506D01*
X34163285Y-101724172D01*
X34092840Y-101721394D01*
X34014655Y-101725958D01*
X33948377Y-101739650D01*
X33849158Y-101790450D01*
X33792008Y-101865062D01*
X33773752Y-101954756D01*
X33797565Y-102052388D01*
X33857890Y-102116681D01*
X33938852Y-102158750D01*
X34026165Y-102188119D01*
X34084108Y-102207169D01*
X34133321Y-102227013D01*
X34166658Y-102251619D01*
X34178565Y-102286544D01*
X34140465Y-102328613D01*
X34030927Y-102338931D01*
X33903133Y-102319881D01*
X33784865Y-102278606D01*
X33754702Y-102442119D01*
X33479250Y-102442119D01*
X33527690Y-102397669D01*
X33568568Y-102340320D01*
X33599127Y-102273050D01*
X33618177Y-102196652D01*
X33624527Y-102111919D01*
X33618177Y-102028377D01*
X33599127Y-101952375D01*
X33568369Y-101885303D01*
X33526896Y-101828550D01*
X33475699Y-101782909D01*
X33415771Y-101749175D01*
X33348104Y-101728339D01*
X33273690Y-101721394D01*
X33200268Y-101728339D01*
X33132402Y-101749175D01*
X33071879Y-101782909D01*
X33020483Y-101828550D01*
X32978812Y-101885303D01*
X32947458Y-101952375D01*
X32927813Y-102028377D01*
X32921265Y-102111919D01*
X32830777Y-102111919D01*
X32824427Y-102028377D01*
X32805377Y-101952375D01*
X32774619Y-101885303D01*
X32733146Y-101828550D01*
X32681949Y-101782909D01*
X32622021Y-101749175D01*
X32554354Y-101728339D01*
X32479940Y-101721394D01*
X32406518Y-101728339D01*
X32338652Y-101749175D01*
X32278129Y-101782909D01*
X32226733Y-101828550D01*
X32185062Y-101885303D01*
X32153708Y-101952375D01*
X32134063Y-102028377D01*
X32127515Y-102111919D01*
X32018647Y-102111919D01*
X31996546Y-102059531D01*
X31944754Y-102003969D01*
X31860815Y-101961106D01*
X31952096Y-101875381D01*
X31977694Y-101817437D01*
X31986227Y-101751556D01*
X31971940Y-101659481D01*
X31917965Y-101576137D01*
X31808427Y-101515812D01*
X31728258Y-101498548D01*
X31627452Y-101492794D01*
X31495690Y-101499938D01*
X31373452Y-101516606D01*
X31373452Y-102470694D01*
X30494727Y-102470694D01*
X30180931Y-102000000D01*
G37*
G36*
X31710002Y-101666625D02*
G01*
X31754452Y-101682500D01*
X31784615Y-101715837D01*
X31795727Y-101772194D01*
X31757627Y-101861887D01*
X31644915Y-101894431D01*
X31568715Y-101894431D01*
X31568715Y-101669006D01*
X31611577Y-101664244D01*
X31657615Y-101662656D01*
X31710002Y-101666625D01*
G37*
G04 #@! TO.C,R2*
X54520946Y-71562742D02*
X54520946Y-72037258D01*
X53475946Y-71562742D02*
X53475946Y-72037258D01*
G04 #@! TO.C,TP2*
X43298446Y-47300000D02*
X46698446Y-47300000D01*
X46698446Y-50700000D02*
X43298446Y-50700000D01*
X46698446Y-47300000D02*
X46698446Y-50700000D01*
X43298446Y-50700000D02*
X43298446Y-47300000D01*
G04 #@! TO.C,C2*
X51509698Y-35210000D02*
X50987194Y-35210000D01*
X51509698Y-33740000D02*
X50987194Y-33740000D01*
G04 #@! TO.C,SW1*
X51253446Y-41870000D02*
X46113446Y-41870000D01*
X52523446Y-41870000D02*
X53853446Y-41870000D01*
X51253446Y-41870000D02*
X51253446Y-42290000D01*
X51253446Y-44530000D02*
X46113446Y-44530000D01*
X46113446Y-41870000D02*
X46113446Y-44530000D01*
X53853446Y-41870000D02*
X53853446Y-43200000D01*
X51253446Y-44110000D02*
X51253446Y-44530000D01*
G04 #@! TO.C,R1*
X53475946Y-36537742D02*
X53475946Y-37012258D01*
X54520946Y-36537742D02*
X54520946Y-37012258D01*
G04 #@! TO.C,C3*
X55088446Y-20634420D02*
X55088446Y-20915580D01*
X56108446Y-20634420D02*
X56108446Y-20915580D01*
G04 #@! TO.C,L1*
X46608446Y-51750000D02*
X46608446Y-55750000D01*
X42388446Y-55750000D02*
X42388446Y-51750000D01*
G04 #@! TO.C,R2*
X54520946Y-87562742D02*
X54520946Y-88037258D01*
X53475946Y-87562742D02*
X53475946Y-88037258D01*
G04 #@! TO.C,TP2*
X43298446Y-66700000D02*
X43298446Y-63300000D01*
X46698446Y-66700000D02*
X43298446Y-66700000D01*
X46698446Y-63300000D02*
X46698446Y-66700000D01*
X43298446Y-63300000D02*
X46698446Y-63300000D01*
G04 #@! TO.C,R1*
X53475946Y-100537742D02*
X53475946Y-101012258D01*
X54520946Y-100537742D02*
X54520946Y-101012258D01*
G04 #@! TO.C,C1*
X48524694Y-40760000D02*
X49047198Y-40760000D01*
X48524694Y-39290000D02*
X49047198Y-39290000D01*
G04 #@! TO.C,C3*
X55088446Y-68634420D02*
X55088446Y-68915580D01*
X56108446Y-68634420D02*
X56108446Y-68915580D01*
G04 #@! TO.C,L1*
X42388446Y-39750000D02*
X42388446Y-35750000D01*
X46608446Y-35750000D02*
X46608446Y-39750000D01*
G04 #@! TO.C,U1*
X49985946Y-86885000D02*
X48485946Y-86885000D01*
X49985946Y-83665000D02*
X51485946Y-83665000D01*
X49985946Y-86885000D02*
X52910946Y-86885000D01*
X49985946Y-83665000D02*
X48485946Y-83665000D01*
G04 #@! TO.C,C3*
X55088446Y-84634420D02*
X55088446Y-84915580D01*
X56108446Y-84634420D02*
X56108446Y-84915580D01*
G04 #@! TO.C,TP2*
X43298446Y-82700000D02*
X43298446Y-79300000D01*
X43298446Y-79300000D02*
X46698446Y-79300000D01*
X46698446Y-82700000D02*
X43298446Y-82700000D01*
X46698446Y-79300000D02*
X46698446Y-82700000D01*
G04 #@! TO.C,L1*
X46608446Y-19750000D02*
X46608446Y-23750000D01*
X42388446Y-23750000D02*
X42388446Y-19750000D01*
G04 #@! TO.C,C3*
X55088446Y-100634420D02*
X55088446Y-100915580D01*
X56108446Y-100634420D02*
X56108446Y-100915580D01*
G04 #@! TO.C,L1*
X42388446Y-103750000D02*
X42388446Y-99750000D01*
X46608446Y-99750000D02*
X46608446Y-103750000D01*
G04 #@! TO.C,R2*
X53475946Y-23562742D02*
X53475946Y-24037258D01*
X54520946Y-23562742D02*
X54520946Y-24037258D01*
G04 #@! TO.C,TP2*
X43298446Y-18700000D02*
X43298446Y-15300000D01*
X46698446Y-15300000D02*
X46698446Y-18700000D01*
X46698446Y-18700000D02*
X43298446Y-18700000D01*
X43298446Y-15300000D02*
X46698446Y-15300000D01*
G04 #@! TO.C,kibuzzard-6259CC62*
G36*
X35681134Y-85799975D02*
G01*
X35706534Y-85898400D01*
X35727965Y-85996031D01*
X35747015Y-86097631D01*
X35554927Y-86097631D01*
X35574771Y-85996031D01*
X35596996Y-85898400D01*
X35622396Y-85799975D01*
X35651765Y-85694406D01*
X35681134Y-85799975D01*
G37*
G36*
X30180931Y-86000000D02*
G01*
X30860822Y-84980164D01*
X38136070Y-84980164D01*
X38815961Y-86000000D01*
X38136070Y-87019836D01*
X30860822Y-87019836D01*
X30494727Y-86470694D01*
X31373452Y-86470694D01*
X31442112Y-86483195D01*
X31511565Y-86492125D01*
X31580224Y-86497483D01*
X31646502Y-86499269D01*
X31724885Y-86495498D01*
X31798108Y-86484188D01*
X31863990Y-86463947D01*
X31920346Y-86433388D01*
X32002102Y-86338138D01*
X32024724Y-86271264D01*
X32032265Y-86189706D01*
X32023335Y-86123031D01*
X32018647Y-86111919D01*
X32127515Y-86111919D01*
X32133865Y-86196652D01*
X32152915Y-86273050D01*
X32183673Y-86340320D01*
X32225146Y-86397669D01*
X32276343Y-86444103D01*
X32336271Y-86478631D01*
X32404335Y-86500062D01*
X32479940Y-86507206D01*
X32555544Y-86500062D01*
X32623608Y-86478631D01*
X32683338Y-86444103D01*
X32733940Y-86397669D01*
X32774818Y-86340320D01*
X32805377Y-86273050D01*
X32824427Y-86196652D01*
X32830777Y-86111919D01*
X32921265Y-86111919D01*
X32927615Y-86196652D01*
X32946665Y-86273050D01*
X32977423Y-86340320D01*
X33018896Y-86397669D01*
X33070093Y-86444103D01*
X33130021Y-86478631D01*
X33198085Y-86500062D01*
X33273690Y-86507206D01*
X33349294Y-86500062D01*
X33417358Y-86478631D01*
X33477088Y-86444103D01*
X33479250Y-86442119D01*
X33754702Y-86442119D01*
X33864240Y-86481806D01*
X33939646Y-86498475D01*
X34029340Y-86504031D01*
X34117049Y-86499666D01*
X34189677Y-86486569D01*
X34295246Y-86438944D01*
X34353190Y-86367506D01*
X34370652Y-86280194D01*
X34346840Y-86180975D01*
X34285721Y-86114300D01*
X34202377Y-86070644D01*
X34113477Y-86038894D01*
X34057121Y-86019050D01*
X34011083Y-85997619D01*
X33979333Y-85973012D01*
X33967427Y-85942056D01*
X33993621Y-85903162D01*
X34094427Y-85884906D01*
X34223015Y-85903162D01*
X34307152Y-85929356D01*
X34312082Y-85902369D01*
X34519877Y-85902369D01*
X34689740Y-85902369D01*
X34689740Y-86208756D01*
X34694502Y-86293489D01*
X34708790Y-86360363D01*
X34764352Y-86450056D01*
X34853252Y-86492919D01*
X34973902Y-86504031D01*
X35095346Y-86494506D01*
X35124514Y-86486569D01*
X35270765Y-86486569D01*
X35473965Y-86486569D01*
X35518415Y-86259556D01*
X35780352Y-86259556D01*
X35826390Y-86486569D01*
X36035940Y-86486569D01*
X36064515Y-86486569D01*
X36267715Y-86486569D01*
X36312165Y-86259556D01*
X36574102Y-86259556D01*
X36620140Y-86486569D01*
X36829690Y-86486569D01*
X36858265Y-86486569D01*
X37061465Y-86486569D01*
X37105915Y-86259556D01*
X37367852Y-86259556D01*
X37413890Y-86486569D01*
X37623440Y-86486569D01*
X37597246Y-86375158D01*
X37570735Y-86266986D01*
X37543906Y-86162052D01*
X37516760Y-86060357D01*
X37489296Y-85961900D01*
X37454718Y-85842490D01*
X37420041Y-85726355D01*
X37385265Y-85613493D01*
X37350390Y-85503906D01*
X37137665Y-85503906D01*
X37104030Y-85612600D01*
X37069799Y-85724370D01*
X37034973Y-85839216D01*
X36999552Y-85957137D01*
X36971041Y-86054769D01*
X36942656Y-86156528D01*
X36914399Y-86262414D01*
X36886268Y-86372428D01*
X36858265Y-86486569D01*
X36829690Y-86486569D01*
X36803496Y-86375158D01*
X36776985Y-86266986D01*
X36750156Y-86162052D01*
X36723010Y-86060357D01*
X36695546Y-85961900D01*
X36660968Y-85842490D01*
X36626291Y-85726355D01*
X36591515Y-85613493D01*
X36556640Y-85503906D01*
X36343915Y-85503906D01*
X36310280Y-85612600D01*
X36276049Y-85724370D01*
X36241223Y-85839216D01*
X36205802Y-85957137D01*
X36177291Y-86054769D01*
X36148906Y-86156528D01*
X36120649Y-86262414D01*
X36092518Y-86372428D01*
X36064515Y-86486569D01*
X36035940Y-86486569D01*
X36009746Y-86375158D01*
X35983235Y-86266986D01*
X35956406Y-86162052D01*
X35929260Y-86060357D01*
X35901796Y-85961900D01*
X35867218Y-85842490D01*
X35832541Y-85726355D01*
X35797765Y-85613493D01*
X35762890Y-85503906D01*
X35550165Y-85503906D01*
X35516530Y-85612600D01*
X35482299Y-85724370D01*
X35447473Y-85839216D01*
X35412052Y-85957137D01*
X35383541Y-86054769D01*
X35355156Y-86156528D01*
X35326899Y-86262414D01*
X35298768Y-86372428D01*
X35270765Y-86486569D01*
X35124514Y-86486569D01*
X35212027Y-86462756D01*
X35185040Y-86294481D01*
X35135034Y-86315119D01*
X35090584Y-86327025D01*
X35046134Y-86332581D01*
X34996127Y-86334169D01*
X34950090Y-86329406D01*
X34915165Y-86310356D01*
X34892940Y-86270669D01*
X34885002Y-86203994D01*
X34885002Y-85902369D01*
X35197740Y-85902369D01*
X35197740Y-85740444D01*
X34885002Y-85740444D01*
X34885002Y-85521369D01*
X34689740Y-85553119D01*
X34689740Y-85740444D01*
X34519877Y-85740444D01*
X34519877Y-85902369D01*
X34312082Y-85902369D01*
X34337315Y-85764256D01*
X34228571Y-85732506D01*
X34163285Y-85724172D01*
X34092840Y-85721394D01*
X34014655Y-85725958D01*
X33948377Y-85739650D01*
X33849158Y-85790450D01*
X33792008Y-85865062D01*
X33773752Y-85954756D01*
X33797565Y-86052388D01*
X33857890Y-86116681D01*
X33938852Y-86158750D01*
X34026165Y-86188119D01*
X34084108Y-86207169D01*
X34133321Y-86227013D01*
X34166658Y-86251619D01*
X34178565Y-86286544D01*
X34140465Y-86328613D01*
X34030927Y-86338931D01*
X33903133Y-86319881D01*
X33784865Y-86278606D01*
X33754702Y-86442119D01*
X33479250Y-86442119D01*
X33527690Y-86397669D01*
X33568568Y-86340320D01*
X33599127Y-86273050D01*
X33618177Y-86196652D01*
X33624527Y-86111919D01*
X33618177Y-86028377D01*
X33599127Y-85952375D01*
X33568369Y-85885303D01*
X33526896Y-85828550D01*
X33475699Y-85782909D01*
X33415771Y-85749175D01*
X33348104Y-85728339D01*
X33273690Y-85721394D01*
X33200268Y-85728339D01*
X33132402Y-85749175D01*
X33071879Y-85782909D01*
X33020483Y-85828550D01*
X32978812Y-85885303D01*
X32947458Y-85952375D01*
X32927813Y-86028377D01*
X32921265Y-86111919D01*
X32830777Y-86111919D01*
X32824427Y-86028377D01*
X32805377Y-85952375D01*
X32774619Y-85885303D01*
X32733146Y-85828550D01*
X32681949Y-85782909D01*
X32622021Y-85749175D01*
X32554354Y-85728339D01*
X32479940Y-85721394D01*
X32406518Y-85728339D01*
X32338652Y-85749175D01*
X32278129Y-85782909D01*
X32226733Y-85828550D01*
X32185062Y-85885303D01*
X32153708Y-85952375D01*
X32134063Y-86028377D01*
X32127515Y-86111919D01*
X32018647Y-86111919D01*
X31996546Y-86059531D01*
X31944754Y-86003969D01*
X31860815Y-85961106D01*
X31952096Y-85875381D01*
X31977694Y-85817437D01*
X31986227Y-85751556D01*
X31971940Y-85659481D01*
X31917965Y-85576137D01*
X31808427Y-85515812D01*
X31728258Y-85498548D01*
X31627452Y-85492794D01*
X31495690Y-85499938D01*
X31373452Y-85516606D01*
X31373452Y-86470694D01*
X30494727Y-86470694D01*
X30180931Y-86000000D01*
G37*
G36*
X31710002Y-85666625D02*
G01*
X31754452Y-85682500D01*
X31784615Y-85715837D01*
X31795727Y-85772194D01*
X31757627Y-85861887D01*
X31644915Y-85894431D01*
X31568715Y-85894431D01*
X31568715Y-85669006D01*
X31611577Y-85664244D01*
X31657615Y-85662656D01*
X31710002Y-85666625D01*
G37*
G36*
X36474884Y-85799975D02*
G01*
X36500284Y-85898400D01*
X36521715Y-85996031D01*
X36540765Y-86097631D01*
X36348677Y-86097631D01*
X36368521Y-85996031D01*
X36390746Y-85898400D01*
X36416146Y-85799975D01*
X36445515Y-85694406D01*
X36474884Y-85799975D01*
G37*
G36*
X32548401Y-85906536D02*
G01*
X32595033Y-85952375D01*
X32621823Y-86023217D01*
X32630752Y-86113506D01*
X32621029Y-86203994D01*
X32591858Y-86275431D01*
X32543638Y-86321866D01*
X32476765Y-86337344D01*
X32408304Y-86321866D01*
X32361671Y-86275431D01*
X32334882Y-86203994D01*
X32325952Y-86113506D01*
X32335676Y-86023217D01*
X32364846Y-85952375D01*
X32413066Y-85906536D01*
X32479940Y-85891256D01*
X32548401Y-85906536D01*
G37*
G36*
X33342151Y-85906536D02*
G01*
X33388783Y-85952375D01*
X33415573Y-86023217D01*
X33424502Y-86113506D01*
X33414779Y-86203994D01*
X33385608Y-86275431D01*
X33337388Y-86321866D01*
X33270515Y-86337344D01*
X33202054Y-86321866D01*
X33155421Y-86275431D01*
X33128632Y-86203994D01*
X33119702Y-86113506D01*
X33129426Y-86023217D01*
X33158596Y-85952375D01*
X33206816Y-85906536D01*
X33273690Y-85891256D01*
X33342151Y-85906536D01*
G37*
G36*
X31794933Y-86087313D02*
G01*
X31840177Y-86189706D01*
X31824302Y-86260350D01*
X31783821Y-86303213D01*
X31727465Y-86323850D01*
X31662377Y-86329406D01*
X31613958Y-86327819D01*
X31568715Y-86323056D01*
X31568715Y-86056356D01*
X31673490Y-86056356D01*
X31794933Y-86087313D01*
G37*
G36*
X37268634Y-85799975D02*
G01*
X37294034Y-85898400D01*
X37315465Y-85996031D01*
X37334515Y-86097631D01*
X37142427Y-86097631D01*
X37162271Y-85996031D01*
X37184496Y-85898400D01*
X37209896Y-85799975D01*
X37239265Y-85694406D01*
X37268634Y-85799975D01*
G37*
G04 #@! TO.C,C2*
X51509698Y-17740000D02*
X50987194Y-17740000D01*
X51509698Y-19210000D02*
X50987194Y-19210000D01*
G04 #@! TO.C,SW1*
X51253446Y-73870000D02*
X46113446Y-73870000D01*
X51253446Y-76530000D02*
X46113446Y-76530000D01*
X51253446Y-76110000D02*
X51253446Y-76530000D01*
X53853446Y-73870000D02*
X53853446Y-75200000D01*
X46113446Y-73870000D02*
X46113446Y-76530000D01*
X52523446Y-73870000D02*
X53853446Y-73870000D01*
X51253446Y-73870000D02*
X51253446Y-74290000D01*
G04 #@! TO.C,R1*
X53475946Y-20537742D02*
X53475946Y-21012258D01*
X54520946Y-20537742D02*
X54520946Y-21012258D01*
G04 #@! TO.C,U1*
X49985946Y-38885000D02*
X48485946Y-38885000D01*
X49985946Y-35665000D02*
X48485946Y-35665000D01*
X49985946Y-35665000D02*
X51485946Y-35665000D01*
X49985946Y-38885000D02*
X52910946Y-38885000D01*
G04 #@! TO.C,C2*
X51509698Y-81740000D02*
X50987194Y-81740000D01*
X51509698Y-83210000D02*
X50987194Y-83210000D01*
G04 #@! TO.C,C1*
X48524694Y-72760000D02*
X49047198Y-72760000D01*
X48524694Y-71290000D02*
X49047198Y-71290000D01*
G04 #@! TO.C,C2*
X51509698Y-51210000D02*
X50987194Y-51210000D01*
X51509698Y-49740000D02*
X50987194Y-49740000D01*
X51509698Y-65740000D02*
X50987194Y-65740000D01*
X51509698Y-67210000D02*
X50987194Y-67210000D01*
G04 #@! TO.C,kibuzzard-6259CC62*
G36*
X30180931Y-70000000D02*
G01*
X30860822Y-68980164D01*
X38136070Y-68980164D01*
X38815961Y-70000000D01*
X38136070Y-71019836D01*
X30860822Y-71019836D01*
X30494727Y-70470694D01*
X31373452Y-70470694D01*
X31442112Y-70483195D01*
X31511565Y-70492125D01*
X31580224Y-70497483D01*
X31646502Y-70499269D01*
X31724885Y-70495498D01*
X31798108Y-70484188D01*
X31863990Y-70463947D01*
X31920346Y-70433388D01*
X32002102Y-70338138D01*
X32024724Y-70271264D01*
X32032265Y-70189706D01*
X32023335Y-70123031D01*
X32018647Y-70111919D01*
X32127515Y-70111919D01*
X32133865Y-70196652D01*
X32152915Y-70273050D01*
X32183673Y-70340320D01*
X32225146Y-70397669D01*
X32276343Y-70444103D01*
X32336271Y-70478631D01*
X32404335Y-70500062D01*
X32479940Y-70507206D01*
X32555544Y-70500062D01*
X32623608Y-70478631D01*
X32683338Y-70444103D01*
X32733940Y-70397669D01*
X32774818Y-70340320D01*
X32805377Y-70273050D01*
X32824427Y-70196652D01*
X32830777Y-70111919D01*
X32921265Y-70111919D01*
X32927615Y-70196652D01*
X32946665Y-70273050D01*
X32977423Y-70340320D01*
X33018896Y-70397669D01*
X33070093Y-70444103D01*
X33130021Y-70478631D01*
X33198085Y-70500062D01*
X33273690Y-70507206D01*
X33349294Y-70500062D01*
X33417358Y-70478631D01*
X33477088Y-70444103D01*
X33479250Y-70442119D01*
X33754702Y-70442119D01*
X33864240Y-70481806D01*
X33939646Y-70498475D01*
X34029340Y-70504031D01*
X34117049Y-70499666D01*
X34189677Y-70486569D01*
X34295246Y-70438944D01*
X34353190Y-70367506D01*
X34370652Y-70280194D01*
X34346840Y-70180975D01*
X34285721Y-70114300D01*
X34202377Y-70070644D01*
X34113477Y-70038894D01*
X34057121Y-70019050D01*
X34011083Y-69997619D01*
X33979333Y-69973012D01*
X33967427Y-69942056D01*
X33993621Y-69903162D01*
X34094427Y-69884906D01*
X34223015Y-69903162D01*
X34307152Y-69929356D01*
X34312082Y-69902369D01*
X34519877Y-69902369D01*
X34689740Y-69902369D01*
X34689740Y-70208756D01*
X34694502Y-70293489D01*
X34708790Y-70360363D01*
X34764352Y-70450056D01*
X34853252Y-70492919D01*
X34973902Y-70504031D01*
X35095346Y-70494506D01*
X35124514Y-70486569D01*
X35270765Y-70486569D01*
X35473965Y-70486569D01*
X35518415Y-70259556D01*
X35780352Y-70259556D01*
X35826390Y-70486569D01*
X36035940Y-70486569D01*
X36064515Y-70486569D01*
X36267715Y-70486569D01*
X36312165Y-70259556D01*
X36574102Y-70259556D01*
X36620140Y-70486569D01*
X36829690Y-70486569D01*
X36858265Y-70486569D01*
X37061465Y-70486569D01*
X37105915Y-70259556D01*
X37367852Y-70259556D01*
X37413890Y-70486569D01*
X37623440Y-70486569D01*
X37597246Y-70375158D01*
X37570735Y-70266986D01*
X37543906Y-70162052D01*
X37516760Y-70060357D01*
X37489296Y-69961900D01*
X37454718Y-69842490D01*
X37420041Y-69726355D01*
X37385265Y-69613493D01*
X37350390Y-69503906D01*
X37137665Y-69503906D01*
X37104030Y-69612600D01*
X37069799Y-69724370D01*
X37034973Y-69839216D01*
X36999552Y-69957137D01*
X36971041Y-70054769D01*
X36942656Y-70156528D01*
X36914399Y-70262414D01*
X36886268Y-70372428D01*
X36858265Y-70486569D01*
X36829690Y-70486569D01*
X36803496Y-70375158D01*
X36776985Y-70266986D01*
X36750156Y-70162052D01*
X36723010Y-70060357D01*
X36695546Y-69961900D01*
X36660968Y-69842490D01*
X36626291Y-69726355D01*
X36591515Y-69613493D01*
X36556640Y-69503906D01*
X36343915Y-69503906D01*
X36310280Y-69612600D01*
X36276049Y-69724370D01*
X36241223Y-69839216D01*
X36205802Y-69957137D01*
X36177291Y-70054769D01*
X36148906Y-70156528D01*
X36120649Y-70262414D01*
X36092518Y-70372428D01*
X36064515Y-70486569D01*
X36035940Y-70486569D01*
X36009746Y-70375158D01*
X35983235Y-70266986D01*
X35956406Y-70162052D01*
X35929260Y-70060357D01*
X35901796Y-69961900D01*
X35867218Y-69842490D01*
X35832541Y-69726355D01*
X35797765Y-69613493D01*
X35762890Y-69503906D01*
X35550165Y-69503906D01*
X35516530Y-69612600D01*
X35482299Y-69724370D01*
X35447473Y-69839216D01*
X35412052Y-69957137D01*
X35383541Y-70054769D01*
X35355156Y-70156528D01*
X35326899Y-70262414D01*
X35298768Y-70372428D01*
X35270765Y-70486569D01*
X35124514Y-70486569D01*
X35212027Y-70462756D01*
X35185040Y-70294481D01*
X35135034Y-70315119D01*
X35090584Y-70327025D01*
X35046134Y-70332581D01*
X34996127Y-70334169D01*
X34950090Y-70329406D01*
X34915165Y-70310356D01*
X34892940Y-70270669D01*
X34885002Y-70203994D01*
X34885002Y-69902369D01*
X35197740Y-69902369D01*
X35197740Y-69740444D01*
X34885002Y-69740444D01*
X34885002Y-69521369D01*
X34689740Y-69553119D01*
X34689740Y-69740444D01*
X34519877Y-69740444D01*
X34519877Y-69902369D01*
X34312082Y-69902369D01*
X34337315Y-69764256D01*
X34228571Y-69732506D01*
X34163285Y-69724172D01*
X34092840Y-69721394D01*
X34014655Y-69725958D01*
X33948377Y-69739650D01*
X33849158Y-69790450D01*
X33792008Y-69865062D01*
X33773752Y-69954756D01*
X33797565Y-70052388D01*
X33857890Y-70116681D01*
X33938852Y-70158750D01*
X34026165Y-70188119D01*
X34084108Y-70207169D01*
X34133321Y-70227013D01*
X34166658Y-70251619D01*
X34178565Y-70286544D01*
X34140465Y-70328613D01*
X34030927Y-70338931D01*
X33903133Y-70319881D01*
X33784865Y-70278606D01*
X33754702Y-70442119D01*
X33479250Y-70442119D01*
X33527690Y-70397669D01*
X33568568Y-70340320D01*
X33599127Y-70273050D01*
X33618177Y-70196652D01*
X33624527Y-70111919D01*
X33618177Y-70028377D01*
X33599127Y-69952375D01*
X33568369Y-69885303D01*
X33526896Y-69828550D01*
X33475699Y-69782909D01*
X33415771Y-69749175D01*
X33348104Y-69728339D01*
X33273690Y-69721394D01*
X33200268Y-69728339D01*
X33132402Y-69749175D01*
X33071879Y-69782909D01*
X33020483Y-69828550D01*
X32978812Y-69885303D01*
X32947458Y-69952375D01*
X32927813Y-70028377D01*
X32921265Y-70111919D01*
X32830777Y-70111919D01*
X32824427Y-70028377D01*
X32805377Y-69952375D01*
X32774619Y-69885303D01*
X32733146Y-69828550D01*
X32681949Y-69782909D01*
X32622021Y-69749175D01*
X32554354Y-69728339D01*
X32479940Y-69721394D01*
X32406518Y-69728339D01*
X32338652Y-69749175D01*
X32278129Y-69782909D01*
X32226733Y-69828550D01*
X32185062Y-69885303D01*
X32153708Y-69952375D01*
X32134063Y-70028377D01*
X32127515Y-70111919D01*
X32018647Y-70111919D01*
X31996546Y-70059531D01*
X31944754Y-70003969D01*
X31860815Y-69961106D01*
X31952096Y-69875381D01*
X31977694Y-69817437D01*
X31986227Y-69751556D01*
X31971940Y-69659481D01*
X31917965Y-69576137D01*
X31808427Y-69515812D01*
X31728258Y-69498548D01*
X31627452Y-69492794D01*
X31495690Y-69499938D01*
X31373452Y-69516606D01*
X31373452Y-70470694D01*
X30494727Y-70470694D01*
X30180931Y-70000000D01*
G37*
G36*
X37268634Y-69799975D02*
G01*
X37294034Y-69898400D01*
X37315465Y-69996031D01*
X37334515Y-70097631D01*
X37142427Y-70097631D01*
X37162271Y-69996031D01*
X37184496Y-69898400D01*
X37209896Y-69799975D01*
X37239265Y-69694406D01*
X37268634Y-69799975D01*
G37*
G36*
X36474884Y-69799975D02*
G01*
X36500284Y-69898400D01*
X36521715Y-69996031D01*
X36540765Y-70097631D01*
X36348677Y-70097631D01*
X36368521Y-69996031D01*
X36390746Y-69898400D01*
X36416146Y-69799975D01*
X36445515Y-69694406D01*
X36474884Y-69799975D01*
G37*
G36*
X33342151Y-69906536D02*
G01*
X33388783Y-69952375D01*
X33415573Y-70023217D01*
X33424502Y-70113506D01*
X33414779Y-70203994D01*
X33385608Y-70275431D01*
X33337388Y-70321866D01*
X33270515Y-70337344D01*
X33202054Y-70321866D01*
X33155421Y-70275431D01*
X33128632Y-70203994D01*
X33119702Y-70113506D01*
X33129426Y-70023217D01*
X33158596Y-69952375D01*
X33206816Y-69906536D01*
X33273690Y-69891256D01*
X33342151Y-69906536D01*
G37*
G36*
X35681134Y-69799975D02*
G01*
X35706534Y-69898400D01*
X35727965Y-69996031D01*
X35747015Y-70097631D01*
X35554927Y-70097631D01*
X35574771Y-69996031D01*
X35596996Y-69898400D01*
X35622396Y-69799975D01*
X35651765Y-69694406D01*
X35681134Y-69799975D01*
G37*
G36*
X31710002Y-69666625D02*
G01*
X31754452Y-69682500D01*
X31784615Y-69715837D01*
X31795727Y-69772194D01*
X31757627Y-69861887D01*
X31644915Y-69894431D01*
X31568715Y-69894431D01*
X31568715Y-69669006D01*
X31611577Y-69664244D01*
X31657615Y-69662656D01*
X31710002Y-69666625D01*
G37*
G36*
X31794933Y-70087313D02*
G01*
X31840177Y-70189706D01*
X31824302Y-70260350D01*
X31783821Y-70303213D01*
X31727465Y-70323850D01*
X31662377Y-70329406D01*
X31613958Y-70327819D01*
X31568715Y-70323056D01*
X31568715Y-70056356D01*
X31673490Y-70056356D01*
X31794933Y-70087313D01*
G37*
G36*
X32548401Y-69906536D02*
G01*
X32595033Y-69952375D01*
X32621823Y-70023217D01*
X32630752Y-70113506D01*
X32621029Y-70203994D01*
X32591858Y-70275431D01*
X32543638Y-70321866D01*
X32476765Y-70337344D01*
X32408304Y-70321866D01*
X32361671Y-70275431D01*
X32334882Y-70203994D01*
X32325952Y-70113506D01*
X32335676Y-70023217D01*
X32364846Y-69952375D01*
X32413066Y-69906536D01*
X32479940Y-69891256D01*
X32548401Y-69906536D01*
G37*
G04 #@! TO.C,R2*
X53475946Y-103562742D02*
X53475946Y-104037258D01*
X54520946Y-103562742D02*
X54520946Y-104037258D01*
X54520946Y-55562742D02*
X54520946Y-56037258D01*
X53475946Y-55562742D02*
X53475946Y-56037258D01*
G04 #@! TO.C,C3*
X56108446Y-52634420D02*
X56108446Y-52915580D01*
X55088446Y-52634420D02*
X55088446Y-52915580D01*
G04 #@! TO.C,R2*
X54520946Y-39562742D02*
X54520946Y-40037258D01*
X53475946Y-39562742D02*
X53475946Y-40037258D01*
G04 #@! TO.C,R1*
X53475946Y-52537742D02*
X53475946Y-53012258D01*
X54520946Y-52537742D02*
X54520946Y-53012258D01*
G04 #@! TO.C,U1*
X49985946Y-19665000D02*
X48485946Y-19665000D01*
X49985946Y-22885000D02*
X52910946Y-22885000D01*
X49985946Y-19665000D02*
X51485946Y-19665000D01*
X49985946Y-22885000D02*
X48485946Y-22885000D01*
G04 #@! TO.C,SW1*
X53853446Y-57870000D02*
X53853446Y-59200000D01*
X51253446Y-60530000D02*
X46113446Y-60530000D01*
X52523446Y-57870000D02*
X53853446Y-57870000D01*
X51253446Y-57870000D02*
X46113446Y-57870000D01*
X51253446Y-60110000D02*
X51253446Y-60530000D01*
X46113446Y-57870000D02*
X46113446Y-60530000D01*
X51253446Y-57870000D02*
X51253446Y-58290000D01*
G04 #@! TO.C,TP1*
X56698446Y-31300000D02*
X56698446Y-34700000D01*
X53298446Y-34700000D02*
X53298446Y-31300000D01*
X56698446Y-34700000D02*
X53298446Y-34700000D01*
X53298446Y-31300000D02*
X56698446Y-31300000D01*
G04 #@! TO.C,kibuzzard-6259CC62*
G36*
X36474884Y-37799975D02*
G01*
X36500284Y-37898400D01*
X36521715Y-37996031D01*
X36540765Y-38097631D01*
X36348677Y-38097631D01*
X36368521Y-37996031D01*
X36390746Y-37898400D01*
X36416146Y-37799975D01*
X36445515Y-37694406D01*
X36474884Y-37799975D01*
G37*
G36*
X35681134Y-37799975D02*
G01*
X35706534Y-37898400D01*
X35727965Y-37996031D01*
X35747015Y-38097631D01*
X35554927Y-38097631D01*
X35574771Y-37996031D01*
X35596996Y-37898400D01*
X35622396Y-37799975D01*
X35651765Y-37694406D01*
X35681134Y-37799975D01*
G37*
G36*
X31710002Y-37666625D02*
G01*
X31754452Y-37682500D01*
X31784615Y-37715837D01*
X31795727Y-37772194D01*
X31757627Y-37861887D01*
X31644915Y-37894431D01*
X31568715Y-37894431D01*
X31568715Y-37669006D01*
X31611577Y-37664244D01*
X31657615Y-37662656D01*
X31710002Y-37666625D01*
G37*
G36*
X33342151Y-37906536D02*
G01*
X33388783Y-37952375D01*
X33415573Y-38023217D01*
X33424502Y-38113506D01*
X33414779Y-38203994D01*
X33385608Y-38275431D01*
X33337388Y-38321866D01*
X33270515Y-38337344D01*
X33202054Y-38321866D01*
X33155421Y-38275431D01*
X33128632Y-38203994D01*
X33119702Y-38113506D01*
X33129426Y-38023217D01*
X33158596Y-37952375D01*
X33206816Y-37906536D01*
X33273690Y-37891256D01*
X33342151Y-37906536D01*
G37*
G36*
X32548401Y-37906536D02*
G01*
X32595033Y-37952375D01*
X32621823Y-38023217D01*
X32630752Y-38113506D01*
X32621029Y-38203994D01*
X32591858Y-38275431D01*
X32543638Y-38321866D01*
X32476765Y-38337344D01*
X32408304Y-38321866D01*
X32361671Y-38275431D01*
X32334882Y-38203994D01*
X32325952Y-38113506D01*
X32335676Y-38023217D01*
X32364846Y-37952375D01*
X32413066Y-37906536D01*
X32479940Y-37891256D01*
X32548401Y-37906536D01*
G37*
G36*
X37268634Y-37799975D02*
G01*
X37294034Y-37898400D01*
X37315465Y-37996031D01*
X37334515Y-38097631D01*
X37142427Y-38097631D01*
X37162271Y-37996031D01*
X37184496Y-37898400D01*
X37209896Y-37799975D01*
X37239265Y-37694406D01*
X37268634Y-37799975D01*
G37*
G36*
X31794933Y-38087313D02*
G01*
X31840177Y-38189706D01*
X31824302Y-38260350D01*
X31783821Y-38303213D01*
X31727465Y-38323850D01*
X31662377Y-38329406D01*
X31613958Y-38327819D01*
X31568715Y-38323056D01*
X31568715Y-38056356D01*
X31673490Y-38056356D01*
X31794933Y-38087313D01*
G37*
G36*
X30180931Y-38000000D02*
G01*
X30860822Y-36980164D01*
X38136070Y-36980164D01*
X38815961Y-38000000D01*
X38136070Y-39019836D01*
X30860822Y-39019836D01*
X30494727Y-38470694D01*
X31373452Y-38470694D01*
X31442112Y-38483195D01*
X31511565Y-38492125D01*
X31580224Y-38497483D01*
X31646502Y-38499269D01*
X31724885Y-38495498D01*
X31798108Y-38484188D01*
X31863990Y-38463947D01*
X31920346Y-38433388D01*
X32002102Y-38338138D01*
X32024724Y-38271264D01*
X32032265Y-38189706D01*
X32023335Y-38123031D01*
X32018647Y-38111919D01*
X32127515Y-38111919D01*
X32133865Y-38196652D01*
X32152915Y-38273050D01*
X32183673Y-38340320D01*
X32225146Y-38397669D01*
X32276343Y-38444103D01*
X32336271Y-38478631D01*
X32404335Y-38500062D01*
X32479940Y-38507206D01*
X32555544Y-38500062D01*
X32623608Y-38478631D01*
X32683338Y-38444103D01*
X32733940Y-38397669D01*
X32774818Y-38340320D01*
X32805377Y-38273050D01*
X32824427Y-38196652D01*
X32830777Y-38111919D01*
X32921265Y-38111919D01*
X32927615Y-38196652D01*
X32946665Y-38273050D01*
X32977423Y-38340320D01*
X33018896Y-38397669D01*
X33070093Y-38444103D01*
X33130021Y-38478631D01*
X33198085Y-38500062D01*
X33273690Y-38507206D01*
X33349294Y-38500062D01*
X33417358Y-38478631D01*
X33477088Y-38444103D01*
X33479250Y-38442119D01*
X33754702Y-38442119D01*
X33864240Y-38481806D01*
X33939646Y-38498475D01*
X34029340Y-38504031D01*
X34117049Y-38499666D01*
X34189677Y-38486569D01*
X34295246Y-38438944D01*
X34353190Y-38367506D01*
X34370652Y-38280194D01*
X34346840Y-38180975D01*
X34285721Y-38114300D01*
X34202377Y-38070644D01*
X34113477Y-38038894D01*
X34057121Y-38019050D01*
X34011083Y-37997619D01*
X33979333Y-37973012D01*
X33967427Y-37942056D01*
X33993621Y-37903162D01*
X34094427Y-37884906D01*
X34223015Y-37903162D01*
X34307152Y-37929356D01*
X34312082Y-37902369D01*
X34519877Y-37902369D01*
X34689740Y-37902369D01*
X34689740Y-38208756D01*
X34694502Y-38293489D01*
X34708790Y-38360363D01*
X34764352Y-38450056D01*
X34853252Y-38492919D01*
X34973902Y-38504031D01*
X35095346Y-38494506D01*
X35124514Y-38486569D01*
X35270765Y-38486569D01*
X35473965Y-38486569D01*
X35518415Y-38259556D01*
X35780352Y-38259556D01*
X35826390Y-38486569D01*
X36035940Y-38486569D01*
X36064515Y-38486569D01*
X36267715Y-38486569D01*
X36312165Y-38259556D01*
X36574102Y-38259556D01*
X36620140Y-38486569D01*
X36829690Y-38486569D01*
X36858265Y-38486569D01*
X37061465Y-38486569D01*
X37105915Y-38259556D01*
X37367852Y-38259556D01*
X37413890Y-38486569D01*
X37623440Y-38486569D01*
X37597246Y-38375158D01*
X37570735Y-38266986D01*
X37543906Y-38162052D01*
X37516760Y-38060357D01*
X37489296Y-37961900D01*
X37454718Y-37842490D01*
X37420041Y-37726355D01*
X37385265Y-37613493D01*
X37350390Y-37503906D01*
X37137665Y-37503906D01*
X37104030Y-37612600D01*
X37069799Y-37724370D01*
X37034973Y-37839216D01*
X36999552Y-37957137D01*
X36971041Y-38054769D01*
X36942656Y-38156528D01*
X36914399Y-38262414D01*
X36886268Y-38372428D01*
X36858265Y-38486569D01*
X36829690Y-38486569D01*
X36803496Y-38375158D01*
X36776985Y-38266986D01*
X36750156Y-38162052D01*
X36723010Y-38060357D01*
X36695546Y-37961900D01*
X36660968Y-37842490D01*
X36626291Y-37726355D01*
X36591515Y-37613493D01*
X36556640Y-37503906D01*
X36343915Y-37503906D01*
X36310280Y-37612600D01*
X36276049Y-37724370D01*
X36241223Y-37839216D01*
X36205802Y-37957137D01*
X36177291Y-38054769D01*
X36148906Y-38156528D01*
X36120649Y-38262414D01*
X36092518Y-38372428D01*
X36064515Y-38486569D01*
X36035940Y-38486569D01*
X36009746Y-38375158D01*
X35983235Y-38266986D01*
X35956406Y-38162052D01*
X35929260Y-38060357D01*
X35901796Y-37961900D01*
X35867218Y-37842490D01*
X35832541Y-37726355D01*
X35797765Y-37613493D01*
X35762890Y-37503906D01*
X35550165Y-37503906D01*
X35516530Y-37612600D01*
X35482299Y-37724370D01*
X35447473Y-37839216D01*
X35412052Y-37957137D01*
X35383541Y-38054769D01*
X35355156Y-38156528D01*
X35326899Y-38262414D01*
X35298768Y-38372428D01*
X35270765Y-38486569D01*
X35124514Y-38486569D01*
X35212027Y-38462756D01*
X35185040Y-38294481D01*
X35135034Y-38315119D01*
X35090584Y-38327025D01*
X35046134Y-38332581D01*
X34996127Y-38334169D01*
X34950090Y-38329406D01*
X34915165Y-38310356D01*
X34892940Y-38270669D01*
X34885002Y-38203994D01*
X34885002Y-37902369D01*
X35197740Y-37902369D01*
X35197740Y-37740444D01*
X34885002Y-37740444D01*
X34885002Y-37521369D01*
X34689740Y-37553119D01*
X34689740Y-37740444D01*
X34519877Y-37740444D01*
X34519877Y-37902369D01*
X34312082Y-37902369D01*
X34337315Y-37764256D01*
X34228571Y-37732506D01*
X34163285Y-37724172D01*
X34092840Y-37721394D01*
X34014655Y-37725958D01*
X33948377Y-37739650D01*
X33849158Y-37790450D01*
X33792008Y-37865062D01*
X33773752Y-37954756D01*
X33797565Y-38052388D01*
X33857890Y-38116681D01*
X33938852Y-38158750D01*
X34026165Y-38188119D01*
X34084108Y-38207169D01*
X34133321Y-38227013D01*
X34166658Y-38251619D01*
X34178565Y-38286544D01*
X34140465Y-38328613D01*
X34030927Y-38338931D01*
X33903133Y-38319881D01*
X33784865Y-38278606D01*
X33754702Y-38442119D01*
X33479250Y-38442119D01*
X33527690Y-38397669D01*
X33568568Y-38340320D01*
X33599127Y-38273050D01*
X33618177Y-38196652D01*
X33624527Y-38111919D01*
X33618177Y-38028377D01*
X33599127Y-37952375D01*
X33568369Y-37885303D01*
X33526896Y-37828550D01*
X33475699Y-37782909D01*
X33415771Y-37749175D01*
X33348104Y-37728339D01*
X33273690Y-37721394D01*
X33200268Y-37728339D01*
X33132402Y-37749175D01*
X33071879Y-37782909D01*
X33020483Y-37828550D01*
X32978812Y-37885303D01*
X32947458Y-37952375D01*
X32927813Y-38028377D01*
X32921265Y-38111919D01*
X32830777Y-38111919D01*
X32824427Y-38028377D01*
X32805377Y-37952375D01*
X32774619Y-37885303D01*
X32733146Y-37828550D01*
X32681949Y-37782909D01*
X32622021Y-37749175D01*
X32554354Y-37728339D01*
X32479940Y-37721394D01*
X32406518Y-37728339D01*
X32338652Y-37749175D01*
X32278129Y-37782909D01*
X32226733Y-37828550D01*
X32185062Y-37885303D01*
X32153708Y-37952375D01*
X32134063Y-38028377D01*
X32127515Y-38111919D01*
X32018647Y-38111919D01*
X31996546Y-38059531D01*
X31944754Y-38003969D01*
X31860815Y-37961106D01*
X31952096Y-37875381D01*
X31977694Y-37817437D01*
X31986227Y-37751556D01*
X31971940Y-37659481D01*
X31917965Y-37576137D01*
X31808427Y-37515812D01*
X31728258Y-37498548D01*
X31627452Y-37492794D01*
X31495690Y-37499938D01*
X31373452Y-37516606D01*
X31373452Y-38470694D01*
X30494727Y-38470694D01*
X30180931Y-38000000D01*
G37*
G04 #@! TO.C,R1*
X53475946Y-84537742D02*
X53475946Y-85012258D01*
X54520946Y-84537742D02*
X54520946Y-85012258D01*
G04 #@! TO.C,kibuzzard-6259CC62*
G36*
X31710002Y-21666625D02*
G01*
X31754452Y-21682500D01*
X31784615Y-21715837D01*
X31795727Y-21772194D01*
X31757627Y-21861887D01*
X31644915Y-21894431D01*
X31568715Y-21894431D01*
X31568715Y-21669006D01*
X31611577Y-21664244D01*
X31657615Y-21662656D01*
X31710002Y-21666625D01*
G37*
G36*
X36474884Y-21799975D02*
G01*
X36500284Y-21898400D01*
X36521715Y-21996031D01*
X36540765Y-22097631D01*
X36348677Y-22097631D01*
X36368521Y-21996031D01*
X36390746Y-21898400D01*
X36416146Y-21799975D01*
X36445515Y-21694406D01*
X36474884Y-21799975D01*
G37*
G36*
X31794933Y-22087313D02*
G01*
X31840177Y-22189706D01*
X31824302Y-22260350D01*
X31783821Y-22303213D01*
X31727465Y-22323850D01*
X31662377Y-22329406D01*
X31613958Y-22327819D01*
X31568715Y-22323056D01*
X31568715Y-22056356D01*
X31673490Y-22056356D01*
X31794933Y-22087313D01*
G37*
G36*
X37268634Y-21799975D02*
G01*
X37294034Y-21898400D01*
X37315465Y-21996031D01*
X37334515Y-22097631D01*
X37142427Y-22097631D01*
X37162271Y-21996031D01*
X37184496Y-21898400D01*
X37209896Y-21799975D01*
X37239265Y-21694406D01*
X37268634Y-21799975D01*
G37*
G36*
X33342151Y-21906536D02*
G01*
X33388783Y-21952375D01*
X33415573Y-22023217D01*
X33424502Y-22113506D01*
X33414779Y-22203994D01*
X33385608Y-22275431D01*
X33337388Y-22321866D01*
X33270515Y-22337344D01*
X33202054Y-22321866D01*
X33155421Y-22275431D01*
X33128632Y-22203994D01*
X33119702Y-22113506D01*
X33129426Y-22023217D01*
X33158596Y-21952375D01*
X33206816Y-21906536D01*
X33273690Y-21891256D01*
X33342151Y-21906536D01*
G37*
G36*
X35681134Y-21799975D02*
G01*
X35706534Y-21898400D01*
X35727965Y-21996031D01*
X35747015Y-22097631D01*
X35554927Y-22097631D01*
X35574771Y-21996031D01*
X35596996Y-21898400D01*
X35622396Y-21799975D01*
X35651765Y-21694406D01*
X35681134Y-21799975D01*
G37*
G36*
X32548401Y-21906536D02*
G01*
X32595033Y-21952375D01*
X32621823Y-22023217D01*
X32630752Y-22113506D01*
X32621029Y-22203994D01*
X32591858Y-22275431D01*
X32543638Y-22321866D01*
X32476765Y-22337344D01*
X32408304Y-22321866D01*
X32361671Y-22275431D01*
X32334882Y-22203994D01*
X32325952Y-22113506D01*
X32335676Y-22023217D01*
X32364846Y-21952375D01*
X32413066Y-21906536D01*
X32479940Y-21891256D01*
X32548401Y-21906536D01*
G37*
G36*
X30180931Y-22000000D02*
G01*
X30860822Y-20980164D01*
X38136070Y-20980164D01*
X38815961Y-22000000D01*
X38136070Y-23019836D01*
X30860822Y-23019836D01*
X30494727Y-22470694D01*
X31373452Y-22470694D01*
X31442112Y-22483195D01*
X31511565Y-22492125D01*
X31580224Y-22497483D01*
X31646502Y-22499269D01*
X31724885Y-22495498D01*
X31798108Y-22484188D01*
X31863990Y-22463947D01*
X31920346Y-22433388D01*
X32002102Y-22338138D01*
X32024724Y-22271264D01*
X32032265Y-22189706D01*
X32023335Y-22123031D01*
X32018647Y-22111919D01*
X32127515Y-22111919D01*
X32133865Y-22196652D01*
X32152915Y-22273050D01*
X32183673Y-22340320D01*
X32225146Y-22397669D01*
X32276343Y-22444103D01*
X32336271Y-22478631D01*
X32404335Y-22500062D01*
X32479940Y-22507206D01*
X32555544Y-22500062D01*
X32623608Y-22478631D01*
X32683338Y-22444103D01*
X32733940Y-22397669D01*
X32774818Y-22340320D01*
X32805377Y-22273050D01*
X32824427Y-22196652D01*
X32830777Y-22111919D01*
X32921265Y-22111919D01*
X32927615Y-22196652D01*
X32946665Y-22273050D01*
X32977423Y-22340320D01*
X33018896Y-22397669D01*
X33070093Y-22444103D01*
X33130021Y-22478631D01*
X33198085Y-22500062D01*
X33273690Y-22507206D01*
X33349294Y-22500062D01*
X33417358Y-22478631D01*
X33477088Y-22444103D01*
X33479250Y-22442119D01*
X33754702Y-22442119D01*
X33864240Y-22481806D01*
X33939646Y-22498475D01*
X34029340Y-22504031D01*
X34117049Y-22499666D01*
X34189677Y-22486569D01*
X34295246Y-22438944D01*
X34353190Y-22367506D01*
X34370652Y-22280194D01*
X34346840Y-22180975D01*
X34285721Y-22114300D01*
X34202377Y-22070644D01*
X34113477Y-22038894D01*
X34057121Y-22019050D01*
X34011083Y-21997619D01*
X33979333Y-21973012D01*
X33967427Y-21942056D01*
X33993621Y-21903162D01*
X34094427Y-21884906D01*
X34223015Y-21903162D01*
X34307152Y-21929356D01*
X34312082Y-21902369D01*
X34519877Y-21902369D01*
X34689740Y-21902369D01*
X34689740Y-22208756D01*
X34694502Y-22293489D01*
X34708790Y-22360363D01*
X34764352Y-22450056D01*
X34853252Y-22492919D01*
X34973902Y-22504031D01*
X35095346Y-22494506D01*
X35124514Y-22486569D01*
X35270765Y-22486569D01*
X35473965Y-22486569D01*
X35518415Y-22259556D01*
X35780352Y-22259556D01*
X35826390Y-22486569D01*
X36035940Y-22486569D01*
X36064515Y-22486569D01*
X36267715Y-22486569D01*
X36312165Y-22259556D01*
X36574102Y-22259556D01*
X36620140Y-22486569D01*
X36829690Y-22486569D01*
X36858265Y-22486569D01*
X37061465Y-22486569D01*
X37105915Y-22259556D01*
X37367852Y-22259556D01*
X37413890Y-22486569D01*
X37623440Y-22486569D01*
X37597246Y-22375158D01*
X37570735Y-22266986D01*
X37543906Y-22162052D01*
X37516760Y-22060357D01*
X37489296Y-21961900D01*
X37454718Y-21842490D01*
X37420041Y-21726355D01*
X37385265Y-21613493D01*
X37350390Y-21503906D01*
X37137665Y-21503906D01*
X37104030Y-21612600D01*
X37069799Y-21724370D01*
X37034973Y-21839216D01*
X36999552Y-21957137D01*
X36971041Y-22054769D01*
X36942656Y-22156528D01*
X36914399Y-22262414D01*
X36886268Y-22372428D01*
X36858265Y-22486569D01*
X36829690Y-22486569D01*
X36803496Y-22375158D01*
X36776985Y-22266986D01*
X36750156Y-22162052D01*
X36723010Y-22060357D01*
X36695546Y-21961900D01*
X36660968Y-21842490D01*
X36626291Y-21726355D01*
X36591515Y-21613493D01*
X36556640Y-21503906D01*
X36343915Y-21503906D01*
X36310280Y-21612600D01*
X36276049Y-21724370D01*
X36241223Y-21839216D01*
X36205802Y-21957137D01*
X36177291Y-22054769D01*
X36148906Y-22156528D01*
X36120649Y-22262414D01*
X36092518Y-22372428D01*
X36064515Y-22486569D01*
X36035940Y-22486569D01*
X36009746Y-22375158D01*
X35983235Y-22266986D01*
X35956406Y-22162052D01*
X35929260Y-22060357D01*
X35901796Y-21961900D01*
X35867218Y-21842490D01*
X35832541Y-21726355D01*
X35797765Y-21613493D01*
X35762890Y-21503906D01*
X35550165Y-21503906D01*
X35516530Y-21612600D01*
X35482299Y-21724370D01*
X35447473Y-21839216D01*
X35412052Y-21957137D01*
X35383541Y-22054769D01*
X35355156Y-22156528D01*
X35326899Y-22262414D01*
X35298768Y-22372428D01*
X35270765Y-22486569D01*
X35124514Y-22486569D01*
X35212027Y-22462756D01*
X35185040Y-22294481D01*
X35135034Y-22315119D01*
X35090584Y-22327025D01*
X35046134Y-22332581D01*
X34996127Y-22334169D01*
X34950090Y-22329406D01*
X34915165Y-22310356D01*
X34892940Y-22270669D01*
X34885002Y-22203994D01*
X34885002Y-21902369D01*
X35197740Y-21902369D01*
X35197740Y-21740444D01*
X34885002Y-21740444D01*
X34885002Y-21521369D01*
X34689740Y-21553119D01*
X34689740Y-21740444D01*
X34519877Y-21740444D01*
X34519877Y-21902369D01*
X34312082Y-21902369D01*
X34337315Y-21764256D01*
X34228571Y-21732506D01*
X34163285Y-21724172D01*
X34092840Y-21721394D01*
X34014655Y-21725958D01*
X33948377Y-21739650D01*
X33849158Y-21790450D01*
X33792008Y-21865062D01*
X33773752Y-21954756D01*
X33797565Y-22052388D01*
X33857890Y-22116681D01*
X33938852Y-22158750D01*
X34026165Y-22188119D01*
X34084108Y-22207169D01*
X34133321Y-22227013D01*
X34166658Y-22251619D01*
X34178565Y-22286544D01*
X34140465Y-22328613D01*
X34030927Y-22338931D01*
X33903133Y-22319881D01*
X33784865Y-22278606D01*
X33754702Y-22442119D01*
X33479250Y-22442119D01*
X33527690Y-22397669D01*
X33568568Y-22340320D01*
X33599127Y-22273050D01*
X33618177Y-22196652D01*
X33624527Y-22111919D01*
X33618177Y-22028377D01*
X33599127Y-21952375D01*
X33568369Y-21885303D01*
X33526896Y-21828550D01*
X33475699Y-21782909D01*
X33415771Y-21749175D01*
X33348104Y-21728339D01*
X33273690Y-21721394D01*
X33200268Y-21728339D01*
X33132402Y-21749175D01*
X33071879Y-21782909D01*
X33020483Y-21828550D01*
X32978812Y-21885303D01*
X32947458Y-21952375D01*
X32927813Y-22028377D01*
X32921265Y-22111919D01*
X32830777Y-22111919D01*
X32824427Y-22028377D01*
X32805377Y-21952375D01*
X32774619Y-21885303D01*
X32733146Y-21828550D01*
X32681949Y-21782909D01*
X32622021Y-21749175D01*
X32554354Y-21728339D01*
X32479940Y-21721394D01*
X32406518Y-21728339D01*
X32338652Y-21749175D01*
X32278129Y-21782909D01*
X32226733Y-21828550D01*
X32185062Y-21885303D01*
X32153708Y-21952375D01*
X32134063Y-22028377D01*
X32127515Y-22111919D01*
X32018647Y-22111919D01*
X31996546Y-22059531D01*
X31944754Y-22003969D01*
X31860815Y-21961106D01*
X31952096Y-21875381D01*
X31977694Y-21817437D01*
X31986227Y-21751556D01*
X31971940Y-21659481D01*
X31917965Y-21576137D01*
X31808427Y-21515812D01*
X31728258Y-21498548D01*
X31627452Y-21492794D01*
X31495690Y-21499938D01*
X31373452Y-21516606D01*
X31373452Y-22470694D01*
X30494727Y-22470694D01*
X30180931Y-22000000D01*
G37*
G04 #@! TO.C,L1*
X42388446Y-87750000D02*
X42388446Y-83750000D01*
X46608446Y-83750000D02*
X46608446Y-87750000D01*
G04 #@! TO.C,C1*
X48524694Y-104760000D02*
X49047198Y-104760000D01*
X48524694Y-103290000D02*
X49047198Y-103290000D01*
G04 #@! TD*
M02*
