G04 #@! TF.GenerationSoftware,KiCad,Pcbnew,6.0.4-6f826c9f35~116~ubuntu20.04.1*
G04 #@! TF.CreationDate,2022-05-04T20:07:54+01:00*
G04 #@! TF.ProjectId,boostAAA-panel,626f6f73-7441-4414-912d-70616e656c2e,rev?*
G04 #@! TF.SameCoordinates,Original*
G04 #@! TF.FileFunction,Copper,L2,Bot*
G04 #@! TF.FilePolarity,Positive*
%FSLAX46Y46*%
G04 Gerber Fmt 4.6, Leading zero omitted, Abs format (unit mm)*
G04 Created by KiCad (PCBNEW 6.0.4-6f826c9f35~116~ubuntu20.04.1) date 2022-05-04 20:07:54*
%MOMM*%
%LPD*%
G01*
G04 APERTURE LIST*
G04 #@! TA.AperFunction,ComponentPad*
%ADD10R,2.000000X2.000000*%
G04 #@! TD*
G04 #@! TA.AperFunction,ComponentPad*
%ADD11C,2.000000*%
G04 #@! TD*
G04 #@! TA.AperFunction,ViaPad*
%ADD12C,0.600000*%
G04 #@! TD*
G04 APERTURE END LIST*
D10*
G04 #@! TO.P,BT1,1,+*
G04 #@! TO.N,Board_5-Net-(BT1-Pad1)*
X27698446Y-102000000D03*
D11*
G04 #@! TO.P,BT1,2,-*
G04 #@! TO.N,Board_5-GND*
X72398446Y-102000000D03*
G04 #@! TD*
D10*
G04 #@! TO.P,BT1,1,+*
G04 #@! TO.N,Board_4-Net-(BT1-Pad1)*
X27698446Y-86000000D03*
D11*
G04 #@! TO.P,BT1,2,-*
G04 #@! TO.N,Board_4-GND*
X72398446Y-86000000D03*
G04 #@! TD*
D10*
G04 #@! TO.P,BT1,1,+*
G04 #@! TO.N,Board_2-Net-(BT1-Pad1)*
X27698446Y-54000000D03*
D11*
G04 #@! TO.P,BT1,2,-*
G04 #@! TO.N,Board_2-GND*
X72398446Y-54000000D03*
G04 #@! TD*
D10*
G04 #@! TO.P,BT1,1,+*
G04 #@! TO.N,Board_0-Net-(BT1-Pad1)*
X27698446Y-22000000D03*
D11*
G04 #@! TO.P,BT1,2,-*
G04 #@! TO.N,Board_0-GND*
X72398446Y-22000000D03*
G04 #@! TD*
D10*
G04 #@! TO.P,BT1,1,+*
G04 #@! TO.N,Board_1-Net-(BT1-Pad1)*
X27698446Y-38000000D03*
D11*
G04 #@! TO.P,BT1,2,-*
G04 #@! TO.N,Board_1-GND*
X72398446Y-38000000D03*
G04 #@! TD*
D10*
G04 #@! TO.P,BT1,1,+*
G04 #@! TO.N,Board_3-Net-(BT1-Pad1)*
X27698446Y-70000000D03*
D11*
G04 #@! TO.P,BT1,2,-*
G04 #@! TO.N,Board_3-GND*
X72398446Y-70000000D03*
G04 #@! TD*
D12*
G04 #@! TO.N,*
X75998446Y-26500000D03*
X75998446Y-42500000D03*
X75998446Y-58500000D03*
X75998446Y-74500000D03*
X75998446Y-90500000D03*
X75998446Y-106500000D03*
X23998446Y-17500000D03*
X23998446Y-33500000D03*
X23998446Y-49500000D03*
X23998446Y-65500000D03*
X23998446Y-81500000D03*
X23998446Y-97500000D03*
X23998446Y-18500000D03*
X23998446Y-34500000D03*
X23998446Y-50500000D03*
X23998446Y-66500000D03*
X23998446Y-82500000D03*
X23998446Y-98500000D03*
X75998446Y-21500000D03*
X75998446Y-37500000D03*
X75998446Y-53500000D03*
X75998446Y-69500000D03*
X75998446Y-85500000D03*
X75998446Y-101500000D03*
X23998446Y-22500000D03*
X23998446Y-38500000D03*
X23998446Y-54500000D03*
X23998446Y-70500000D03*
X23998446Y-86500000D03*
X23998446Y-102500000D03*
X75998446Y-20500000D03*
X75998446Y-36500000D03*
X75998446Y-52500000D03*
X75998446Y-68500000D03*
X75998446Y-84500000D03*
X75998446Y-100500000D03*
X23998446Y-19500000D03*
X23998446Y-35500000D03*
X23998446Y-51500000D03*
X23998446Y-67500000D03*
X23998446Y-83500000D03*
X23998446Y-99500000D03*
X23998446Y-25500000D03*
X23998446Y-41500000D03*
X23998446Y-57500000D03*
X23998446Y-73500000D03*
X23998446Y-89500000D03*
X23998446Y-105500000D03*
X75998446Y-23500000D03*
X75998446Y-39500000D03*
X75998446Y-55500000D03*
X75998446Y-71500000D03*
X75998446Y-87500000D03*
X75998446Y-103500000D03*
X23998446Y-20500000D03*
X23998446Y-36500000D03*
X23998446Y-52500000D03*
X23998446Y-68500000D03*
X23998446Y-84500000D03*
X23998446Y-100500000D03*
X75998446Y-19500000D03*
X75998446Y-35500000D03*
X75998446Y-51500000D03*
X75998446Y-67500000D03*
X75998446Y-83500000D03*
X75998446Y-99500000D03*
X23998446Y-26500000D03*
X23998446Y-42500000D03*
X23998446Y-58500000D03*
X23998446Y-74500000D03*
X23998446Y-90500000D03*
X23998446Y-106500000D03*
X23998446Y-21500000D03*
X23998446Y-37500000D03*
X23998446Y-53500000D03*
X23998446Y-69500000D03*
X23998446Y-85500000D03*
X23998446Y-101500000D03*
X75998446Y-25500000D03*
X75998446Y-41500000D03*
X75998446Y-57500000D03*
X75998446Y-73500000D03*
X75998446Y-89500000D03*
X75998446Y-105500000D03*
X23998446Y-24500000D03*
X23998446Y-40500000D03*
X23998446Y-56500000D03*
X23998446Y-72500000D03*
X23998446Y-88500000D03*
X23998446Y-104500000D03*
X75998446Y-24500000D03*
X75998446Y-40500000D03*
X75998446Y-56500000D03*
X75998446Y-72500000D03*
X75998446Y-88500000D03*
X75998446Y-104500000D03*
X75998446Y-22500000D03*
X75998446Y-38500000D03*
X75998446Y-54500000D03*
X75998446Y-70500000D03*
X75998446Y-86500000D03*
X75998446Y-102500000D03*
X75998446Y-18500000D03*
X75998446Y-34500000D03*
X75998446Y-50500000D03*
X75998446Y-66500000D03*
X75998446Y-82500000D03*
X75998446Y-98500000D03*
X75998446Y-17500000D03*
X75998446Y-33500000D03*
X75998446Y-49500000D03*
X75998446Y-65500000D03*
X75998446Y-81500000D03*
X75998446Y-97500000D03*
X23998446Y-23500000D03*
X23998446Y-39500000D03*
X23998446Y-55500000D03*
X23998446Y-71500000D03*
X23998446Y-87500000D03*
X23998446Y-103500000D03*
G04 #@! TO.N,Board_0-GND*
X45998446Y-16000000D03*
X45998446Y-18000000D03*
X53698446Y-27200000D03*
X43998446Y-16000000D03*
X49735946Y-23000000D03*
X50298446Y-19500000D03*
X53998446Y-25250000D03*
X49148446Y-21300000D03*
X43998446Y-18000000D03*
G04 #@! TO.N,Board_1-GND*
X45998446Y-32000000D03*
X45998446Y-34000000D03*
X53698446Y-43200000D03*
X43998446Y-32000000D03*
X49735946Y-39000000D03*
X50298446Y-35500000D03*
X53998446Y-41250000D03*
X49148446Y-37300000D03*
X43998446Y-34000000D03*
G04 #@! TO.N,Board_2-GND*
X45998446Y-48000000D03*
X45998446Y-50000000D03*
X53698446Y-59200000D03*
X43998446Y-48000000D03*
X49735946Y-55000000D03*
X50298446Y-51500000D03*
X53998446Y-57250000D03*
X49148446Y-53300000D03*
X43998446Y-50000000D03*
G04 #@! TO.N,Board_3-GND*
X45998446Y-64000000D03*
X45998446Y-66000000D03*
X53698446Y-75200000D03*
X43998446Y-64000000D03*
X49735946Y-71000000D03*
X50298446Y-67500000D03*
X53998446Y-73250000D03*
X49148446Y-69300000D03*
X43998446Y-66000000D03*
G04 #@! TO.N,Board_4-GND*
X45998446Y-80000000D03*
X45998446Y-82000000D03*
X53698446Y-91200000D03*
X43998446Y-80000000D03*
X49735946Y-87000000D03*
X50298446Y-83500000D03*
X53998446Y-89250000D03*
X49148446Y-85300000D03*
X43998446Y-82000000D03*
G04 #@! TO.N,Board_5-GND*
X45998446Y-96000000D03*
X45998446Y-98000000D03*
X53698446Y-107200000D03*
X43998446Y-96000000D03*
X49735946Y-103000000D03*
X50298446Y-99500000D03*
X53998446Y-105250000D03*
X49148446Y-101300000D03*
X43998446Y-98000000D03*
G04 #@! TD*
G04 #@! TA.AperFunction,Conductor*
G04 #@! TO.N,Board_0-GND*
G36*
X74468503Y-15509500D02*
G01*
X74483304Y-15511805D01*
X74483308Y-15511805D01*
X74492177Y-15513186D01*
X74501079Y-15512022D01*
X74501083Y-15512022D01*
X74501179Y-15512009D01*
X74531616Y-15511738D01*
X74593821Y-15518746D01*
X74621328Y-15525024D01*
X74698517Y-15552034D01*
X74723937Y-15564276D01*
X74793184Y-15607787D01*
X74815243Y-15625379D01*
X74873067Y-15683203D01*
X74890659Y-15705262D01*
X74934170Y-15774509D01*
X74946412Y-15799930D01*
X74973421Y-15877117D01*
X74979700Y-15904625D01*
X74985779Y-15958579D01*
X74986062Y-15983379D01*
X74985375Y-15987460D01*
X74985302Y-15993461D01*
X74985260Y-15993729D01*
X74985295Y-15993998D01*
X74985222Y-15999999D01*
X74987332Y-16014733D01*
X74988282Y-16023591D01*
X74998125Y-16161228D01*
X74998446Y-16170216D01*
X74998446Y-27829781D01*
X74998125Y-27838770D01*
X74989483Y-27959597D01*
X74988059Y-27971506D01*
X74985375Y-27987462D01*
X74985302Y-27993463D01*
X74985260Y-27993731D01*
X74985295Y-27994000D01*
X74985222Y-28000001D01*
X74985912Y-28004817D01*
X74986228Y-28009672D01*
X74985939Y-28009691D01*
X74986342Y-28036428D01*
X74980632Y-28087109D01*
X74979700Y-28095377D01*
X74973421Y-28122883D01*
X74946412Y-28200070D01*
X74934170Y-28225491D01*
X74890659Y-28294738D01*
X74873067Y-28316797D01*
X74815243Y-28374621D01*
X74793184Y-28392213D01*
X74723937Y-28435724D01*
X74698516Y-28447966D01*
X74621329Y-28474975D01*
X74593822Y-28481254D01*
X74569874Y-28483952D01*
X74538190Y-28487522D01*
X74522549Y-28488305D01*
X74513591Y-28488196D01*
X74504717Y-28486814D01*
X74473196Y-28490936D01*
X74456858Y-28492000D01*
X25547773Y-28492000D01*
X25528389Y-28490500D01*
X25513588Y-28488195D01*
X25513584Y-28488195D01*
X25504715Y-28486814D01*
X25495813Y-28487978D01*
X25495809Y-28487978D01*
X25495713Y-28487991D01*
X25465276Y-28488262D01*
X25403071Y-28481254D01*
X25375564Y-28474976D01*
X25298374Y-28447966D01*
X25272955Y-28435724D01*
X25203708Y-28392213D01*
X25181649Y-28374621D01*
X25123825Y-28316797D01*
X25106233Y-28294738D01*
X25062722Y-28225491D01*
X25050480Y-28200070D01*
X25023471Y-28122883D01*
X25017192Y-28095375D01*
X25011113Y-28041421D01*
X25010830Y-28016621D01*
X25011517Y-28012540D01*
X25011590Y-28006539D01*
X25011632Y-28006271D01*
X25011597Y-28006002D01*
X25011670Y-28000001D01*
X25009560Y-27985267D01*
X25008610Y-27976409D01*
X24998767Y-27838772D01*
X24998446Y-27829784D01*
X24998446Y-23048134D01*
X26189946Y-23048134D01*
X26196701Y-23110316D01*
X26247831Y-23246705D01*
X26335185Y-23363261D01*
X26451741Y-23450615D01*
X26588130Y-23501745D01*
X26650312Y-23508500D01*
X28746580Y-23508500D01*
X28808762Y-23501745D01*
X28945151Y-23450615D01*
X29061707Y-23363261D01*
X29149061Y-23246705D01*
X29154322Y-23232670D01*
X71530606Y-23232670D01*
X71536333Y-23240320D01*
X71707488Y-23345205D01*
X71716283Y-23349687D01*
X71926434Y-23436734D01*
X71935819Y-23439783D01*
X72157000Y-23492885D01*
X72166747Y-23494428D01*
X72393516Y-23512275D01*
X72403376Y-23512275D01*
X72630145Y-23494428D01*
X72639892Y-23492885D01*
X72861073Y-23439783D01*
X72870458Y-23436734D01*
X73080609Y-23349687D01*
X73089404Y-23345205D01*
X73256891Y-23242568D01*
X73266353Y-23232110D01*
X73262570Y-23223334D01*
X72411258Y-22372022D01*
X72397314Y-22364408D01*
X72395481Y-22364539D01*
X72388866Y-22368790D01*
X71537366Y-23220290D01*
X71530606Y-23232670D01*
X29154322Y-23232670D01*
X29200191Y-23110316D01*
X29206946Y-23048134D01*
X29206946Y-22004930D01*
X70886171Y-22004930D01*
X70904018Y-22231699D01*
X70905561Y-22241446D01*
X70958663Y-22462627D01*
X70961712Y-22472012D01*
X71048759Y-22682163D01*
X71053241Y-22690958D01*
X71155878Y-22858445D01*
X71166336Y-22867907D01*
X71175112Y-22864124D01*
X72026424Y-22012812D01*
X72032802Y-22001132D01*
X72762854Y-22001132D01*
X72762985Y-22002965D01*
X72767236Y-22009580D01*
X73618736Y-22861080D01*
X73631116Y-22867840D01*
X73638766Y-22862113D01*
X73743651Y-22690958D01*
X73748133Y-22682163D01*
X73835180Y-22472012D01*
X73838229Y-22462627D01*
X73891331Y-22241446D01*
X73892874Y-22231699D01*
X73910721Y-22004930D01*
X73910721Y-21995070D01*
X73892874Y-21768301D01*
X73891331Y-21758554D01*
X73838229Y-21537373D01*
X73835180Y-21527988D01*
X73748133Y-21317837D01*
X73743651Y-21309042D01*
X73641014Y-21141555D01*
X73630556Y-21132093D01*
X73621780Y-21135876D01*
X72770468Y-21987188D01*
X72762854Y-22001132D01*
X72032802Y-22001132D01*
X72034038Y-21998868D01*
X72033907Y-21997035D01*
X72029656Y-21990420D01*
X71178156Y-21138920D01*
X71165776Y-21132160D01*
X71158126Y-21137887D01*
X71053241Y-21309042D01*
X71048759Y-21317837D01*
X70961712Y-21527988D01*
X70958663Y-21537373D01*
X70905561Y-21758554D01*
X70904018Y-21768301D01*
X70886171Y-21995070D01*
X70886171Y-22004930D01*
X29206946Y-22004930D01*
X29206946Y-20951866D01*
X29200191Y-20889684D01*
X29154532Y-20767890D01*
X71530539Y-20767890D01*
X71534322Y-20776666D01*
X72385634Y-21627978D01*
X72399578Y-21635592D01*
X72401411Y-21635461D01*
X72408026Y-21631210D01*
X73259526Y-20779710D01*
X73266286Y-20767330D01*
X73260559Y-20759680D01*
X73089404Y-20654795D01*
X73080609Y-20650313D01*
X72870458Y-20563266D01*
X72861073Y-20560217D01*
X72639892Y-20507115D01*
X72630145Y-20505572D01*
X72403376Y-20487725D01*
X72393516Y-20487725D01*
X72166747Y-20505572D01*
X72157000Y-20507115D01*
X71935819Y-20560217D01*
X71926434Y-20563266D01*
X71716283Y-20650313D01*
X71707488Y-20654795D01*
X71540001Y-20757432D01*
X71530539Y-20767890D01*
X29154532Y-20767890D01*
X29149061Y-20753295D01*
X29061707Y-20636739D01*
X28945151Y-20549385D01*
X28808762Y-20498255D01*
X28746580Y-20491500D01*
X26650312Y-20491500D01*
X26588130Y-20498255D01*
X26451741Y-20549385D01*
X26335185Y-20636739D01*
X26247831Y-20753295D01*
X26196701Y-20889684D01*
X26189946Y-20951866D01*
X26189946Y-23048134D01*
X24998446Y-23048134D01*
X24998446Y-16170219D01*
X24998767Y-16161230D01*
X25007409Y-16040403D01*
X25008833Y-16028492D01*
X25010711Y-16017329D01*
X25011517Y-16012538D01*
X25011590Y-16006537D01*
X25011632Y-16006269D01*
X25011597Y-16006000D01*
X25011670Y-15999999D01*
X25010980Y-15995183D01*
X25010664Y-15990328D01*
X25010953Y-15990309D01*
X25010550Y-15963572D01*
X25017192Y-15904623D01*
X25023471Y-15877117D01*
X25050480Y-15799930D01*
X25062722Y-15774509D01*
X25106233Y-15705262D01*
X25123825Y-15683203D01*
X25181649Y-15625379D01*
X25203708Y-15607787D01*
X25272955Y-15564276D01*
X25298376Y-15552034D01*
X25375563Y-15525025D01*
X25403070Y-15518746D01*
X25427018Y-15516048D01*
X25458702Y-15512478D01*
X25474343Y-15511695D01*
X25483301Y-15511804D01*
X25492175Y-15513186D01*
X25523697Y-15509064D01*
X25540034Y-15508000D01*
X74449119Y-15508000D01*
X74468503Y-15509500D01*
G37*
G04 #@! TD.AperFunction*
G04 #@! TD*
G04 #@! TA.AperFunction,Conductor*
G04 #@! TO.N,Board_1-GND*
G36*
X74468503Y-31509500D02*
G01*
X74483304Y-31511805D01*
X74483308Y-31511805D01*
X74492177Y-31513186D01*
X74501079Y-31512022D01*
X74501083Y-31512022D01*
X74501179Y-31512009D01*
X74531616Y-31511738D01*
X74593821Y-31518746D01*
X74621328Y-31525024D01*
X74698517Y-31552034D01*
X74723937Y-31564276D01*
X74793184Y-31607787D01*
X74815243Y-31625379D01*
X74873067Y-31683203D01*
X74890659Y-31705262D01*
X74934170Y-31774509D01*
X74946412Y-31799930D01*
X74973421Y-31877117D01*
X74979700Y-31904625D01*
X74985779Y-31958579D01*
X74986062Y-31983379D01*
X74985375Y-31987460D01*
X74985302Y-31993461D01*
X74985260Y-31993729D01*
X74985295Y-31993998D01*
X74985222Y-31999999D01*
X74987332Y-32014733D01*
X74988282Y-32023591D01*
X74998125Y-32161228D01*
X74998446Y-32170216D01*
X74998446Y-43829781D01*
X74998125Y-43838770D01*
X74989483Y-43959597D01*
X74988059Y-43971506D01*
X74985375Y-43987462D01*
X74985302Y-43993463D01*
X74985260Y-43993731D01*
X74985295Y-43994000D01*
X74985222Y-44000001D01*
X74985912Y-44004817D01*
X74986228Y-44009672D01*
X74985939Y-44009691D01*
X74986342Y-44036428D01*
X74980632Y-44087109D01*
X74979700Y-44095377D01*
X74973421Y-44122883D01*
X74946412Y-44200070D01*
X74934170Y-44225491D01*
X74890659Y-44294738D01*
X74873067Y-44316797D01*
X74815243Y-44374621D01*
X74793184Y-44392213D01*
X74723937Y-44435724D01*
X74698516Y-44447966D01*
X74621329Y-44474975D01*
X74593822Y-44481254D01*
X74569874Y-44483952D01*
X74538190Y-44487522D01*
X74522549Y-44488305D01*
X74513591Y-44488196D01*
X74504717Y-44486814D01*
X74473196Y-44490936D01*
X74456858Y-44492000D01*
X25547773Y-44492000D01*
X25528389Y-44490500D01*
X25513588Y-44488195D01*
X25513584Y-44488195D01*
X25504715Y-44486814D01*
X25495813Y-44487978D01*
X25495809Y-44487978D01*
X25495713Y-44487991D01*
X25465276Y-44488262D01*
X25403071Y-44481254D01*
X25375564Y-44474976D01*
X25298374Y-44447966D01*
X25272955Y-44435724D01*
X25203708Y-44392213D01*
X25181649Y-44374621D01*
X25123825Y-44316797D01*
X25106233Y-44294738D01*
X25062722Y-44225491D01*
X25050480Y-44200070D01*
X25023471Y-44122883D01*
X25017192Y-44095375D01*
X25011113Y-44041421D01*
X25010830Y-44016621D01*
X25011517Y-44012540D01*
X25011590Y-44006539D01*
X25011632Y-44006271D01*
X25011597Y-44006002D01*
X25011670Y-44000001D01*
X25009560Y-43985267D01*
X25008610Y-43976409D01*
X24998767Y-43838772D01*
X24998446Y-43829784D01*
X24998446Y-39048134D01*
X26189946Y-39048134D01*
X26196701Y-39110316D01*
X26247831Y-39246705D01*
X26335185Y-39363261D01*
X26451741Y-39450615D01*
X26588130Y-39501745D01*
X26650312Y-39508500D01*
X28746580Y-39508500D01*
X28808762Y-39501745D01*
X28945151Y-39450615D01*
X29061707Y-39363261D01*
X29149061Y-39246705D01*
X29154322Y-39232670D01*
X71530606Y-39232670D01*
X71536333Y-39240320D01*
X71707488Y-39345205D01*
X71716283Y-39349687D01*
X71926434Y-39436734D01*
X71935819Y-39439783D01*
X72157000Y-39492885D01*
X72166747Y-39494428D01*
X72393516Y-39512275D01*
X72403376Y-39512275D01*
X72630145Y-39494428D01*
X72639892Y-39492885D01*
X72861073Y-39439783D01*
X72870458Y-39436734D01*
X73080609Y-39349687D01*
X73089404Y-39345205D01*
X73256891Y-39242568D01*
X73266353Y-39232110D01*
X73262570Y-39223334D01*
X72411258Y-38372022D01*
X72397314Y-38364408D01*
X72395481Y-38364539D01*
X72388866Y-38368790D01*
X71537366Y-39220290D01*
X71530606Y-39232670D01*
X29154322Y-39232670D01*
X29200191Y-39110316D01*
X29206946Y-39048134D01*
X29206946Y-38004930D01*
X70886171Y-38004930D01*
X70904018Y-38231699D01*
X70905561Y-38241446D01*
X70958663Y-38462627D01*
X70961712Y-38472012D01*
X71048759Y-38682163D01*
X71053241Y-38690958D01*
X71155878Y-38858445D01*
X71166336Y-38867907D01*
X71175112Y-38864124D01*
X72026424Y-38012812D01*
X72032802Y-38001132D01*
X72762854Y-38001132D01*
X72762985Y-38002965D01*
X72767236Y-38009580D01*
X73618736Y-38861080D01*
X73631116Y-38867840D01*
X73638766Y-38862113D01*
X73743651Y-38690958D01*
X73748133Y-38682163D01*
X73835180Y-38472012D01*
X73838229Y-38462627D01*
X73891331Y-38241446D01*
X73892874Y-38231699D01*
X73910721Y-38004930D01*
X73910721Y-37995070D01*
X73892874Y-37768301D01*
X73891331Y-37758554D01*
X73838229Y-37537373D01*
X73835180Y-37527988D01*
X73748133Y-37317837D01*
X73743651Y-37309042D01*
X73641014Y-37141555D01*
X73630556Y-37132093D01*
X73621780Y-37135876D01*
X72770468Y-37987188D01*
X72762854Y-38001132D01*
X72032802Y-38001132D01*
X72034038Y-37998868D01*
X72033907Y-37997035D01*
X72029656Y-37990420D01*
X71178156Y-37138920D01*
X71165776Y-37132160D01*
X71158126Y-37137887D01*
X71053241Y-37309042D01*
X71048759Y-37317837D01*
X70961712Y-37527988D01*
X70958663Y-37537373D01*
X70905561Y-37758554D01*
X70904018Y-37768301D01*
X70886171Y-37995070D01*
X70886171Y-38004930D01*
X29206946Y-38004930D01*
X29206946Y-36951866D01*
X29200191Y-36889684D01*
X29154532Y-36767890D01*
X71530539Y-36767890D01*
X71534322Y-36776666D01*
X72385634Y-37627978D01*
X72399578Y-37635592D01*
X72401411Y-37635461D01*
X72408026Y-37631210D01*
X73259526Y-36779710D01*
X73266286Y-36767330D01*
X73260559Y-36759680D01*
X73089404Y-36654795D01*
X73080609Y-36650313D01*
X72870458Y-36563266D01*
X72861073Y-36560217D01*
X72639892Y-36507115D01*
X72630145Y-36505572D01*
X72403376Y-36487725D01*
X72393516Y-36487725D01*
X72166747Y-36505572D01*
X72157000Y-36507115D01*
X71935819Y-36560217D01*
X71926434Y-36563266D01*
X71716283Y-36650313D01*
X71707488Y-36654795D01*
X71540001Y-36757432D01*
X71530539Y-36767890D01*
X29154532Y-36767890D01*
X29149061Y-36753295D01*
X29061707Y-36636739D01*
X28945151Y-36549385D01*
X28808762Y-36498255D01*
X28746580Y-36491500D01*
X26650312Y-36491500D01*
X26588130Y-36498255D01*
X26451741Y-36549385D01*
X26335185Y-36636739D01*
X26247831Y-36753295D01*
X26196701Y-36889684D01*
X26189946Y-36951866D01*
X26189946Y-39048134D01*
X24998446Y-39048134D01*
X24998446Y-32170219D01*
X24998767Y-32161230D01*
X25007409Y-32040403D01*
X25008833Y-32028492D01*
X25010711Y-32017329D01*
X25011517Y-32012538D01*
X25011590Y-32006537D01*
X25011632Y-32006269D01*
X25011597Y-32006000D01*
X25011670Y-31999999D01*
X25010980Y-31995183D01*
X25010664Y-31990328D01*
X25010953Y-31990309D01*
X25010550Y-31963572D01*
X25017192Y-31904623D01*
X25023471Y-31877117D01*
X25050480Y-31799930D01*
X25062722Y-31774509D01*
X25106233Y-31705262D01*
X25123825Y-31683203D01*
X25181649Y-31625379D01*
X25203708Y-31607787D01*
X25272955Y-31564276D01*
X25298376Y-31552034D01*
X25375563Y-31525025D01*
X25403070Y-31518746D01*
X25427018Y-31516048D01*
X25458702Y-31512478D01*
X25474343Y-31511695D01*
X25483301Y-31511804D01*
X25492175Y-31513186D01*
X25523697Y-31509064D01*
X25540034Y-31508000D01*
X74449119Y-31508000D01*
X74468503Y-31509500D01*
G37*
G04 #@! TD.AperFunction*
G04 #@! TD*
G04 #@! TA.AperFunction,Conductor*
G04 #@! TO.N,Board_2-GND*
G36*
X74468503Y-47509500D02*
G01*
X74483304Y-47511805D01*
X74483308Y-47511805D01*
X74492177Y-47513186D01*
X74501079Y-47512022D01*
X74501083Y-47512022D01*
X74501179Y-47512009D01*
X74531616Y-47511738D01*
X74593821Y-47518746D01*
X74621328Y-47525024D01*
X74698517Y-47552034D01*
X74723937Y-47564276D01*
X74793184Y-47607787D01*
X74815243Y-47625379D01*
X74873067Y-47683203D01*
X74890659Y-47705262D01*
X74934170Y-47774509D01*
X74946412Y-47799930D01*
X74973421Y-47877117D01*
X74979700Y-47904625D01*
X74985779Y-47958579D01*
X74986062Y-47983379D01*
X74985375Y-47987460D01*
X74985302Y-47993461D01*
X74985260Y-47993729D01*
X74985295Y-47993998D01*
X74985222Y-47999999D01*
X74987332Y-48014733D01*
X74988282Y-48023591D01*
X74998125Y-48161228D01*
X74998446Y-48170216D01*
X74998446Y-59829781D01*
X74998125Y-59838770D01*
X74989483Y-59959597D01*
X74988059Y-59971506D01*
X74985375Y-59987462D01*
X74985302Y-59993463D01*
X74985260Y-59993731D01*
X74985295Y-59994000D01*
X74985222Y-60000001D01*
X74985912Y-60004817D01*
X74986228Y-60009672D01*
X74985939Y-60009691D01*
X74986342Y-60036428D01*
X74980632Y-60087109D01*
X74979700Y-60095377D01*
X74973421Y-60122883D01*
X74946412Y-60200070D01*
X74934170Y-60225491D01*
X74890659Y-60294738D01*
X74873067Y-60316797D01*
X74815243Y-60374621D01*
X74793184Y-60392213D01*
X74723937Y-60435724D01*
X74698516Y-60447966D01*
X74621329Y-60474975D01*
X74593822Y-60481254D01*
X74569874Y-60483952D01*
X74538190Y-60487522D01*
X74522549Y-60488305D01*
X74513591Y-60488196D01*
X74504717Y-60486814D01*
X74473196Y-60490936D01*
X74456858Y-60492000D01*
X25547773Y-60492000D01*
X25528389Y-60490500D01*
X25513588Y-60488195D01*
X25513584Y-60488195D01*
X25504715Y-60486814D01*
X25495813Y-60487978D01*
X25495809Y-60487978D01*
X25495713Y-60487991D01*
X25465276Y-60488262D01*
X25403071Y-60481254D01*
X25375564Y-60474976D01*
X25298374Y-60447966D01*
X25272955Y-60435724D01*
X25203708Y-60392213D01*
X25181649Y-60374621D01*
X25123825Y-60316797D01*
X25106233Y-60294738D01*
X25062722Y-60225491D01*
X25050480Y-60200070D01*
X25023471Y-60122883D01*
X25017192Y-60095375D01*
X25011113Y-60041421D01*
X25010830Y-60016621D01*
X25011517Y-60012540D01*
X25011590Y-60006539D01*
X25011632Y-60006271D01*
X25011597Y-60006002D01*
X25011670Y-60000001D01*
X25009560Y-59985267D01*
X25008610Y-59976409D01*
X24998767Y-59838772D01*
X24998446Y-59829784D01*
X24998446Y-55048134D01*
X26189946Y-55048134D01*
X26196701Y-55110316D01*
X26247831Y-55246705D01*
X26335185Y-55363261D01*
X26451741Y-55450615D01*
X26588130Y-55501745D01*
X26650312Y-55508500D01*
X28746580Y-55508500D01*
X28808762Y-55501745D01*
X28945151Y-55450615D01*
X29061707Y-55363261D01*
X29149061Y-55246705D01*
X29154322Y-55232670D01*
X71530606Y-55232670D01*
X71536333Y-55240320D01*
X71707488Y-55345205D01*
X71716283Y-55349687D01*
X71926434Y-55436734D01*
X71935819Y-55439783D01*
X72157000Y-55492885D01*
X72166747Y-55494428D01*
X72393516Y-55512275D01*
X72403376Y-55512275D01*
X72630145Y-55494428D01*
X72639892Y-55492885D01*
X72861073Y-55439783D01*
X72870458Y-55436734D01*
X73080609Y-55349687D01*
X73089404Y-55345205D01*
X73256891Y-55242568D01*
X73266353Y-55232110D01*
X73262570Y-55223334D01*
X72411258Y-54372022D01*
X72397314Y-54364408D01*
X72395481Y-54364539D01*
X72388866Y-54368790D01*
X71537366Y-55220290D01*
X71530606Y-55232670D01*
X29154322Y-55232670D01*
X29200191Y-55110316D01*
X29206946Y-55048134D01*
X29206946Y-54004930D01*
X70886171Y-54004930D01*
X70904018Y-54231699D01*
X70905561Y-54241446D01*
X70958663Y-54462627D01*
X70961712Y-54472012D01*
X71048759Y-54682163D01*
X71053241Y-54690958D01*
X71155878Y-54858445D01*
X71166336Y-54867907D01*
X71175112Y-54864124D01*
X72026424Y-54012812D01*
X72032802Y-54001132D01*
X72762854Y-54001132D01*
X72762985Y-54002965D01*
X72767236Y-54009580D01*
X73618736Y-54861080D01*
X73631116Y-54867840D01*
X73638766Y-54862113D01*
X73743651Y-54690958D01*
X73748133Y-54682163D01*
X73835180Y-54472012D01*
X73838229Y-54462627D01*
X73891331Y-54241446D01*
X73892874Y-54231699D01*
X73910721Y-54004930D01*
X73910721Y-53995070D01*
X73892874Y-53768301D01*
X73891331Y-53758554D01*
X73838229Y-53537373D01*
X73835180Y-53527988D01*
X73748133Y-53317837D01*
X73743651Y-53309042D01*
X73641014Y-53141555D01*
X73630556Y-53132093D01*
X73621780Y-53135876D01*
X72770468Y-53987188D01*
X72762854Y-54001132D01*
X72032802Y-54001132D01*
X72034038Y-53998868D01*
X72033907Y-53997035D01*
X72029656Y-53990420D01*
X71178156Y-53138920D01*
X71165776Y-53132160D01*
X71158126Y-53137887D01*
X71053241Y-53309042D01*
X71048759Y-53317837D01*
X70961712Y-53527988D01*
X70958663Y-53537373D01*
X70905561Y-53758554D01*
X70904018Y-53768301D01*
X70886171Y-53995070D01*
X70886171Y-54004930D01*
X29206946Y-54004930D01*
X29206946Y-52951866D01*
X29200191Y-52889684D01*
X29154532Y-52767890D01*
X71530539Y-52767890D01*
X71534322Y-52776666D01*
X72385634Y-53627978D01*
X72399578Y-53635592D01*
X72401411Y-53635461D01*
X72408026Y-53631210D01*
X73259526Y-52779710D01*
X73266286Y-52767330D01*
X73260559Y-52759680D01*
X73089404Y-52654795D01*
X73080609Y-52650313D01*
X72870458Y-52563266D01*
X72861073Y-52560217D01*
X72639892Y-52507115D01*
X72630145Y-52505572D01*
X72403376Y-52487725D01*
X72393516Y-52487725D01*
X72166747Y-52505572D01*
X72157000Y-52507115D01*
X71935819Y-52560217D01*
X71926434Y-52563266D01*
X71716283Y-52650313D01*
X71707488Y-52654795D01*
X71540001Y-52757432D01*
X71530539Y-52767890D01*
X29154532Y-52767890D01*
X29149061Y-52753295D01*
X29061707Y-52636739D01*
X28945151Y-52549385D01*
X28808762Y-52498255D01*
X28746580Y-52491500D01*
X26650312Y-52491500D01*
X26588130Y-52498255D01*
X26451741Y-52549385D01*
X26335185Y-52636739D01*
X26247831Y-52753295D01*
X26196701Y-52889684D01*
X26189946Y-52951866D01*
X26189946Y-55048134D01*
X24998446Y-55048134D01*
X24998446Y-48170219D01*
X24998767Y-48161230D01*
X25007409Y-48040403D01*
X25008833Y-48028492D01*
X25010711Y-48017329D01*
X25011517Y-48012538D01*
X25011590Y-48006537D01*
X25011632Y-48006269D01*
X25011597Y-48006000D01*
X25011670Y-47999999D01*
X25010980Y-47995183D01*
X25010664Y-47990328D01*
X25010953Y-47990309D01*
X25010550Y-47963572D01*
X25017192Y-47904623D01*
X25023471Y-47877117D01*
X25050480Y-47799930D01*
X25062722Y-47774509D01*
X25106233Y-47705262D01*
X25123825Y-47683203D01*
X25181649Y-47625379D01*
X25203708Y-47607787D01*
X25272955Y-47564276D01*
X25298376Y-47552034D01*
X25375563Y-47525025D01*
X25403070Y-47518746D01*
X25427018Y-47516048D01*
X25458702Y-47512478D01*
X25474343Y-47511695D01*
X25483301Y-47511804D01*
X25492175Y-47513186D01*
X25523697Y-47509064D01*
X25540034Y-47508000D01*
X74449119Y-47508000D01*
X74468503Y-47509500D01*
G37*
G04 #@! TD.AperFunction*
G04 #@! TD*
G04 #@! TA.AperFunction,Conductor*
G04 #@! TO.N,Board_3-GND*
G36*
X74468503Y-63509500D02*
G01*
X74483304Y-63511805D01*
X74483308Y-63511805D01*
X74492177Y-63513186D01*
X74501079Y-63512022D01*
X74501083Y-63512022D01*
X74501179Y-63512009D01*
X74531616Y-63511738D01*
X74593821Y-63518746D01*
X74621328Y-63525024D01*
X74698517Y-63552034D01*
X74723937Y-63564276D01*
X74793184Y-63607787D01*
X74815243Y-63625379D01*
X74873067Y-63683203D01*
X74890659Y-63705262D01*
X74934170Y-63774509D01*
X74946412Y-63799930D01*
X74973421Y-63877117D01*
X74979700Y-63904625D01*
X74985779Y-63958579D01*
X74986062Y-63983379D01*
X74985375Y-63987460D01*
X74985302Y-63993461D01*
X74985260Y-63993729D01*
X74985295Y-63993998D01*
X74985222Y-63999999D01*
X74987332Y-64014733D01*
X74988282Y-64023591D01*
X74998125Y-64161228D01*
X74998446Y-64170216D01*
X74998446Y-75829781D01*
X74998125Y-75838770D01*
X74989483Y-75959597D01*
X74988059Y-75971506D01*
X74985375Y-75987462D01*
X74985302Y-75993463D01*
X74985260Y-75993731D01*
X74985295Y-75994000D01*
X74985222Y-76000001D01*
X74985912Y-76004817D01*
X74986228Y-76009672D01*
X74985939Y-76009691D01*
X74986342Y-76036428D01*
X74980632Y-76087109D01*
X74979700Y-76095377D01*
X74973421Y-76122883D01*
X74946412Y-76200070D01*
X74934170Y-76225491D01*
X74890659Y-76294738D01*
X74873067Y-76316797D01*
X74815243Y-76374621D01*
X74793184Y-76392213D01*
X74723937Y-76435724D01*
X74698516Y-76447966D01*
X74621329Y-76474975D01*
X74593822Y-76481254D01*
X74569874Y-76483952D01*
X74538190Y-76487522D01*
X74522549Y-76488305D01*
X74513591Y-76488196D01*
X74504717Y-76486814D01*
X74473196Y-76490936D01*
X74456858Y-76492000D01*
X25547773Y-76492000D01*
X25528389Y-76490500D01*
X25513588Y-76488195D01*
X25513584Y-76488195D01*
X25504715Y-76486814D01*
X25495813Y-76487978D01*
X25495809Y-76487978D01*
X25495713Y-76487991D01*
X25465276Y-76488262D01*
X25403071Y-76481254D01*
X25375564Y-76474976D01*
X25298374Y-76447966D01*
X25272955Y-76435724D01*
X25203708Y-76392213D01*
X25181649Y-76374621D01*
X25123825Y-76316797D01*
X25106233Y-76294738D01*
X25062722Y-76225491D01*
X25050480Y-76200070D01*
X25023471Y-76122883D01*
X25017192Y-76095375D01*
X25011113Y-76041421D01*
X25010830Y-76016621D01*
X25011517Y-76012540D01*
X25011590Y-76006539D01*
X25011632Y-76006271D01*
X25011597Y-76006002D01*
X25011670Y-76000001D01*
X25009560Y-75985267D01*
X25008610Y-75976409D01*
X24998767Y-75838772D01*
X24998446Y-75829784D01*
X24998446Y-71048134D01*
X26189946Y-71048134D01*
X26196701Y-71110316D01*
X26247831Y-71246705D01*
X26335185Y-71363261D01*
X26451741Y-71450615D01*
X26588130Y-71501745D01*
X26650312Y-71508500D01*
X28746580Y-71508500D01*
X28808762Y-71501745D01*
X28945151Y-71450615D01*
X29061707Y-71363261D01*
X29149061Y-71246705D01*
X29154322Y-71232670D01*
X71530606Y-71232670D01*
X71536333Y-71240320D01*
X71707488Y-71345205D01*
X71716283Y-71349687D01*
X71926434Y-71436734D01*
X71935819Y-71439783D01*
X72157000Y-71492885D01*
X72166747Y-71494428D01*
X72393516Y-71512275D01*
X72403376Y-71512275D01*
X72630145Y-71494428D01*
X72639892Y-71492885D01*
X72861073Y-71439783D01*
X72870458Y-71436734D01*
X73080609Y-71349687D01*
X73089404Y-71345205D01*
X73256891Y-71242568D01*
X73266353Y-71232110D01*
X73262570Y-71223334D01*
X72411258Y-70372022D01*
X72397314Y-70364408D01*
X72395481Y-70364539D01*
X72388866Y-70368790D01*
X71537366Y-71220290D01*
X71530606Y-71232670D01*
X29154322Y-71232670D01*
X29200191Y-71110316D01*
X29206946Y-71048134D01*
X29206946Y-70004930D01*
X70886171Y-70004930D01*
X70904018Y-70231699D01*
X70905561Y-70241446D01*
X70958663Y-70462627D01*
X70961712Y-70472012D01*
X71048759Y-70682163D01*
X71053241Y-70690958D01*
X71155878Y-70858445D01*
X71166336Y-70867907D01*
X71175112Y-70864124D01*
X72026424Y-70012812D01*
X72032802Y-70001132D01*
X72762854Y-70001132D01*
X72762985Y-70002965D01*
X72767236Y-70009580D01*
X73618736Y-70861080D01*
X73631116Y-70867840D01*
X73638766Y-70862113D01*
X73743651Y-70690958D01*
X73748133Y-70682163D01*
X73835180Y-70472012D01*
X73838229Y-70462627D01*
X73891331Y-70241446D01*
X73892874Y-70231699D01*
X73910721Y-70004930D01*
X73910721Y-69995070D01*
X73892874Y-69768301D01*
X73891331Y-69758554D01*
X73838229Y-69537373D01*
X73835180Y-69527988D01*
X73748133Y-69317837D01*
X73743651Y-69309042D01*
X73641014Y-69141555D01*
X73630556Y-69132093D01*
X73621780Y-69135876D01*
X72770468Y-69987188D01*
X72762854Y-70001132D01*
X72032802Y-70001132D01*
X72034038Y-69998868D01*
X72033907Y-69997035D01*
X72029656Y-69990420D01*
X71178156Y-69138920D01*
X71165776Y-69132160D01*
X71158126Y-69137887D01*
X71053241Y-69309042D01*
X71048759Y-69317837D01*
X70961712Y-69527988D01*
X70958663Y-69537373D01*
X70905561Y-69758554D01*
X70904018Y-69768301D01*
X70886171Y-69995070D01*
X70886171Y-70004930D01*
X29206946Y-70004930D01*
X29206946Y-68951866D01*
X29200191Y-68889684D01*
X29154532Y-68767890D01*
X71530539Y-68767890D01*
X71534322Y-68776666D01*
X72385634Y-69627978D01*
X72399578Y-69635592D01*
X72401411Y-69635461D01*
X72408026Y-69631210D01*
X73259526Y-68779710D01*
X73266286Y-68767330D01*
X73260559Y-68759680D01*
X73089404Y-68654795D01*
X73080609Y-68650313D01*
X72870458Y-68563266D01*
X72861073Y-68560217D01*
X72639892Y-68507115D01*
X72630145Y-68505572D01*
X72403376Y-68487725D01*
X72393516Y-68487725D01*
X72166747Y-68505572D01*
X72157000Y-68507115D01*
X71935819Y-68560217D01*
X71926434Y-68563266D01*
X71716283Y-68650313D01*
X71707488Y-68654795D01*
X71540001Y-68757432D01*
X71530539Y-68767890D01*
X29154532Y-68767890D01*
X29149061Y-68753295D01*
X29061707Y-68636739D01*
X28945151Y-68549385D01*
X28808762Y-68498255D01*
X28746580Y-68491500D01*
X26650312Y-68491500D01*
X26588130Y-68498255D01*
X26451741Y-68549385D01*
X26335185Y-68636739D01*
X26247831Y-68753295D01*
X26196701Y-68889684D01*
X26189946Y-68951866D01*
X26189946Y-71048134D01*
X24998446Y-71048134D01*
X24998446Y-64170219D01*
X24998767Y-64161230D01*
X25007409Y-64040403D01*
X25008833Y-64028492D01*
X25010711Y-64017329D01*
X25011517Y-64012538D01*
X25011590Y-64006537D01*
X25011632Y-64006269D01*
X25011597Y-64006000D01*
X25011670Y-63999999D01*
X25010980Y-63995183D01*
X25010664Y-63990328D01*
X25010953Y-63990309D01*
X25010550Y-63963572D01*
X25017192Y-63904623D01*
X25023471Y-63877117D01*
X25050480Y-63799930D01*
X25062722Y-63774509D01*
X25106233Y-63705262D01*
X25123825Y-63683203D01*
X25181649Y-63625379D01*
X25203708Y-63607787D01*
X25272955Y-63564276D01*
X25298376Y-63552034D01*
X25375563Y-63525025D01*
X25403070Y-63518746D01*
X25427018Y-63516048D01*
X25458702Y-63512478D01*
X25474343Y-63511695D01*
X25483301Y-63511804D01*
X25492175Y-63513186D01*
X25523697Y-63509064D01*
X25540034Y-63508000D01*
X74449119Y-63508000D01*
X74468503Y-63509500D01*
G37*
G04 #@! TD.AperFunction*
G04 #@! TD*
G04 #@! TA.AperFunction,Conductor*
G04 #@! TO.N,Board_4-GND*
G36*
X74468503Y-79509500D02*
G01*
X74483304Y-79511805D01*
X74483308Y-79511805D01*
X74492177Y-79513186D01*
X74501079Y-79512022D01*
X74501083Y-79512022D01*
X74501179Y-79512009D01*
X74531616Y-79511738D01*
X74593821Y-79518746D01*
X74621328Y-79525024D01*
X74698517Y-79552034D01*
X74723937Y-79564276D01*
X74793184Y-79607787D01*
X74815243Y-79625379D01*
X74873067Y-79683203D01*
X74890659Y-79705262D01*
X74934170Y-79774509D01*
X74946412Y-79799930D01*
X74973421Y-79877117D01*
X74979700Y-79904625D01*
X74985779Y-79958579D01*
X74986062Y-79983379D01*
X74985375Y-79987460D01*
X74985302Y-79993461D01*
X74985260Y-79993729D01*
X74985295Y-79993998D01*
X74985222Y-79999999D01*
X74987332Y-80014733D01*
X74988282Y-80023591D01*
X74998125Y-80161228D01*
X74998446Y-80170216D01*
X74998446Y-91829781D01*
X74998125Y-91838770D01*
X74989483Y-91959597D01*
X74988059Y-91971506D01*
X74985375Y-91987462D01*
X74985302Y-91993463D01*
X74985260Y-91993731D01*
X74985295Y-91994000D01*
X74985222Y-92000001D01*
X74985912Y-92004817D01*
X74986228Y-92009672D01*
X74985939Y-92009691D01*
X74986342Y-92036428D01*
X74980632Y-92087109D01*
X74979700Y-92095377D01*
X74973421Y-92122883D01*
X74946412Y-92200070D01*
X74934170Y-92225491D01*
X74890659Y-92294738D01*
X74873067Y-92316797D01*
X74815243Y-92374621D01*
X74793184Y-92392213D01*
X74723937Y-92435724D01*
X74698516Y-92447966D01*
X74621329Y-92474975D01*
X74593822Y-92481254D01*
X74569874Y-92483952D01*
X74538190Y-92487522D01*
X74522549Y-92488305D01*
X74513591Y-92488196D01*
X74504717Y-92486814D01*
X74473196Y-92490936D01*
X74456858Y-92492000D01*
X25547773Y-92492000D01*
X25528389Y-92490500D01*
X25513588Y-92488195D01*
X25513584Y-92488195D01*
X25504715Y-92486814D01*
X25495813Y-92487978D01*
X25495809Y-92487978D01*
X25495713Y-92487991D01*
X25465276Y-92488262D01*
X25403071Y-92481254D01*
X25375564Y-92474976D01*
X25298374Y-92447966D01*
X25272955Y-92435724D01*
X25203708Y-92392213D01*
X25181649Y-92374621D01*
X25123825Y-92316797D01*
X25106233Y-92294738D01*
X25062722Y-92225491D01*
X25050480Y-92200070D01*
X25023471Y-92122883D01*
X25017192Y-92095375D01*
X25011113Y-92041421D01*
X25010830Y-92016621D01*
X25011517Y-92012540D01*
X25011590Y-92006539D01*
X25011632Y-92006271D01*
X25011597Y-92006002D01*
X25011670Y-92000001D01*
X25009560Y-91985267D01*
X25008610Y-91976409D01*
X24998767Y-91838772D01*
X24998446Y-91829784D01*
X24998446Y-87048134D01*
X26189946Y-87048134D01*
X26196701Y-87110316D01*
X26247831Y-87246705D01*
X26335185Y-87363261D01*
X26451741Y-87450615D01*
X26588130Y-87501745D01*
X26650312Y-87508500D01*
X28746580Y-87508500D01*
X28808762Y-87501745D01*
X28945151Y-87450615D01*
X29061707Y-87363261D01*
X29149061Y-87246705D01*
X29154322Y-87232670D01*
X71530606Y-87232670D01*
X71536333Y-87240320D01*
X71707488Y-87345205D01*
X71716283Y-87349687D01*
X71926434Y-87436734D01*
X71935819Y-87439783D01*
X72157000Y-87492885D01*
X72166747Y-87494428D01*
X72393516Y-87512275D01*
X72403376Y-87512275D01*
X72630145Y-87494428D01*
X72639892Y-87492885D01*
X72861073Y-87439783D01*
X72870458Y-87436734D01*
X73080609Y-87349687D01*
X73089404Y-87345205D01*
X73256891Y-87242568D01*
X73266353Y-87232110D01*
X73262570Y-87223334D01*
X72411258Y-86372022D01*
X72397314Y-86364408D01*
X72395481Y-86364539D01*
X72388866Y-86368790D01*
X71537366Y-87220290D01*
X71530606Y-87232670D01*
X29154322Y-87232670D01*
X29200191Y-87110316D01*
X29206946Y-87048134D01*
X29206946Y-86004930D01*
X70886171Y-86004930D01*
X70904018Y-86231699D01*
X70905561Y-86241446D01*
X70958663Y-86462627D01*
X70961712Y-86472012D01*
X71048759Y-86682163D01*
X71053241Y-86690958D01*
X71155878Y-86858445D01*
X71166336Y-86867907D01*
X71175112Y-86864124D01*
X72026424Y-86012812D01*
X72032802Y-86001132D01*
X72762854Y-86001132D01*
X72762985Y-86002965D01*
X72767236Y-86009580D01*
X73618736Y-86861080D01*
X73631116Y-86867840D01*
X73638766Y-86862113D01*
X73743651Y-86690958D01*
X73748133Y-86682163D01*
X73835180Y-86472012D01*
X73838229Y-86462627D01*
X73891331Y-86241446D01*
X73892874Y-86231699D01*
X73910721Y-86004930D01*
X73910721Y-85995070D01*
X73892874Y-85768301D01*
X73891331Y-85758554D01*
X73838229Y-85537373D01*
X73835180Y-85527988D01*
X73748133Y-85317837D01*
X73743651Y-85309042D01*
X73641014Y-85141555D01*
X73630556Y-85132093D01*
X73621780Y-85135876D01*
X72770468Y-85987188D01*
X72762854Y-86001132D01*
X72032802Y-86001132D01*
X72034038Y-85998868D01*
X72033907Y-85997035D01*
X72029656Y-85990420D01*
X71178156Y-85138920D01*
X71165776Y-85132160D01*
X71158126Y-85137887D01*
X71053241Y-85309042D01*
X71048759Y-85317837D01*
X70961712Y-85527988D01*
X70958663Y-85537373D01*
X70905561Y-85758554D01*
X70904018Y-85768301D01*
X70886171Y-85995070D01*
X70886171Y-86004930D01*
X29206946Y-86004930D01*
X29206946Y-84951866D01*
X29200191Y-84889684D01*
X29154532Y-84767890D01*
X71530539Y-84767890D01*
X71534322Y-84776666D01*
X72385634Y-85627978D01*
X72399578Y-85635592D01*
X72401411Y-85635461D01*
X72408026Y-85631210D01*
X73259526Y-84779710D01*
X73266286Y-84767330D01*
X73260559Y-84759680D01*
X73089404Y-84654795D01*
X73080609Y-84650313D01*
X72870458Y-84563266D01*
X72861073Y-84560217D01*
X72639892Y-84507115D01*
X72630145Y-84505572D01*
X72403376Y-84487725D01*
X72393516Y-84487725D01*
X72166747Y-84505572D01*
X72157000Y-84507115D01*
X71935819Y-84560217D01*
X71926434Y-84563266D01*
X71716283Y-84650313D01*
X71707488Y-84654795D01*
X71540001Y-84757432D01*
X71530539Y-84767890D01*
X29154532Y-84767890D01*
X29149061Y-84753295D01*
X29061707Y-84636739D01*
X28945151Y-84549385D01*
X28808762Y-84498255D01*
X28746580Y-84491500D01*
X26650312Y-84491500D01*
X26588130Y-84498255D01*
X26451741Y-84549385D01*
X26335185Y-84636739D01*
X26247831Y-84753295D01*
X26196701Y-84889684D01*
X26189946Y-84951866D01*
X26189946Y-87048134D01*
X24998446Y-87048134D01*
X24998446Y-80170219D01*
X24998767Y-80161230D01*
X25007409Y-80040403D01*
X25008833Y-80028492D01*
X25010711Y-80017329D01*
X25011517Y-80012538D01*
X25011590Y-80006537D01*
X25011632Y-80006269D01*
X25011597Y-80006000D01*
X25011670Y-79999999D01*
X25010980Y-79995183D01*
X25010664Y-79990328D01*
X25010953Y-79990309D01*
X25010550Y-79963572D01*
X25017192Y-79904623D01*
X25023471Y-79877117D01*
X25050480Y-79799930D01*
X25062722Y-79774509D01*
X25106233Y-79705262D01*
X25123825Y-79683203D01*
X25181649Y-79625379D01*
X25203708Y-79607787D01*
X25272955Y-79564276D01*
X25298376Y-79552034D01*
X25375563Y-79525025D01*
X25403070Y-79518746D01*
X25427018Y-79516048D01*
X25458702Y-79512478D01*
X25474343Y-79511695D01*
X25483301Y-79511804D01*
X25492175Y-79513186D01*
X25523697Y-79509064D01*
X25540034Y-79508000D01*
X74449119Y-79508000D01*
X74468503Y-79509500D01*
G37*
G04 #@! TD.AperFunction*
G04 #@! TD*
G04 #@! TA.AperFunction,Conductor*
G04 #@! TO.N,Board_5-GND*
G36*
X74468503Y-95509500D02*
G01*
X74483304Y-95511805D01*
X74483308Y-95511805D01*
X74492177Y-95513186D01*
X74501079Y-95512022D01*
X74501083Y-95512022D01*
X74501179Y-95512009D01*
X74531616Y-95511738D01*
X74593821Y-95518746D01*
X74621328Y-95525024D01*
X74698517Y-95552034D01*
X74723937Y-95564276D01*
X74793184Y-95607787D01*
X74815243Y-95625379D01*
X74873067Y-95683203D01*
X74890659Y-95705262D01*
X74934170Y-95774509D01*
X74946412Y-95799930D01*
X74973421Y-95877117D01*
X74979700Y-95904625D01*
X74985779Y-95958579D01*
X74986062Y-95983379D01*
X74985375Y-95987460D01*
X74985302Y-95993461D01*
X74985260Y-95993729D01*
X74985295Y-95993998D01*
X74985222Y-95999999D01*
X74987332Y-96014733D01*
X74988282Y-96023591D01*
X74998125Y-96161228D01*
X74998446Y-96170216D01*
X74998446Y-107829781D01*
X74998125Y-107838770D01*
X74989483Y-107959597D01*
X74988059Y-107971506D01*
X74985375Y-107987462D01*
X74985302Y-107993463D01*
X74985260Y-107993731D01*
X74985295Y-107994000D01*
X74985222Y-108000001D01*
X74985912Y-108004817D01*
X74986228Y-108009672D01*
X74985939Y-108009691D01*
X74986342Y-108036428D01*
X74980632Y-108087109D01*
X74979700Y-108095377D01*
X74973421Y-108122883D01*
X74946412Y-108200070D01*
X74934170Y-108225491D01*
X74890659Y-108294738D01*
X74873067Y-108316797D01*
X74815243Y-108374621D01*
X74793184Y-108392213D01*
X74723937Y-108435724D01*
X74698516Y-108447966D01*
X74621329Y-108474975D01*
X74593822Y-108481254D01*
X74569874Y-108483952D01*
X74538190Y-108487522D01*
X74522549Y-108488305D01*
X74513591Y-108488196D01*
X74504717Y-108486814D01*
X74473196Y-108490936D01*
X74456858Y-108492000D01*
X25547773Y-108492000D01*
X25528389Y-108490500D01*
X25513588Y-108488195D01*
X25513584Y-108488195D01*
X25504715Y-108486814D01*
X25495813Y-108487978D01*
X25495809Y-108487978D01*
X25495713Y-108487991D01*
X25465276Y-108488262D01*
X25403071Y-108481254D01*
X25375564Y-108474976D01*
X25298374Y-108447966D01*
X25272955Y-108435724D01*
X25203708Y-108392213D01*
X25181649Y-108374621D01*
X25123825Y-108316797D01*
X25106233Y-108294738D01*
X25062722Y-108225491D01*
X25050480Y-108200070D01*
X25023471Y-108122883D01*
X25017192Y-108095375D01*
X25011113Y-108041421D01*
X25010830Y-108016621D01*
X25011517Y-108012540D01*
X25011590Y-108006539D01*
X25011632Y-108006271D01*
X25011597Y-108006002D01*
X25011670Y-108000001D01*
X25009560Y-107985267D01*
X25008610Y-107976409D01*
X24998767Y-107838772D01*
X24998446Y-107829784D01*
X24998446Y-103048134D01*
X26189946Y-103048134D01*
X26196701Y-103110316D01*
X26247831Y-103246705D01*
X26335185Y-103363261D01*
X26451741Y-103450615D01*
X26588130Y-103501745D01*
X26650312Y-103508500D01*
X28746580Y-103508500D01*
X28808762Y-103501745D01*
X28945151Y-103450615D01*
X29061707Y-103363261D01*
X29149061Y-103246705D01*
X29154322Y-103232670D01*
X71530606Y-103232670D01*
X71536333Y-103240320D01*
X71707488Y-103345205D01*
X71716283Y-103349687D01*
X71926434Y-103436734D01*
X71935819Y-103439783D01*
X72157000Y-103492885D01*
X72166747Y-103494428D01*
X72393516Y-103512275D01*
X72403376Y-103512275D01*
X72630145Y-103494428D01*
X72639892Y-103492885D01*
X72861073Y-103439783D01*
X72870458Y-103436734D01*
X73080609Y-103349687D01*
X73089404Y-103345205D01*
X73256891Y-103242568D01*
X73266353Y-103232110D01*
X73262570Y-103223334D01*
X72411258Y-102372022D01*
X72397314Y-102364408D01*
X72395481Y-102364539D01*
X72388866Y-102368790D01*
X71537366Y-103220290D01*
X71530606Y-103232670D01*
X29154322Y-103232670D01*
X29200191Y-103110316D01*
X29206946Y-103048134D01*
X29206946Y-102004930D01*
X70886171Y-102004930D01*
X70904018Y-102231699D01*
X70905561Y-102241446D01*
X70958663Y-102462627D01*
X70961712Y-102472012D01*
X71048759Y-102682163D01*
X71053241Y-102690958D01*
X71155878Y-102858445D01*
X71166336Y-102867907D01*
X71175112Y-102864124D01*
X72026424Y-102012812D01*
X72032802Y-102001132D01*
X72762854Y-102001132D01*
X72762985Y-102002965D01*
X72767236Y-102009580D01*
X73618736Y-102861080D01*
X73631116Y-102867840D01*
X73638766Y-102862113D01*
X73743651Y-102690958D01*
X73748133Y-102682163D01*
X73835180Y-102472012D01*
X73838229Y-102462627D01*
X73891331Y-102241446D01*
X73892874Y-102231699D01*
X73910721Y-102004930D01*
X73910721Y-101995070D01*
X73892874Y-101768301D01*
X73891331Y-101758554D01*
X73838229Y-101537373D01*
X73835180Y-101527988D01*
X73748133Y-101317837D01*
X73743651Y-101309042D01*
X73641014Y-101141555D01*
X73630556Y-101132093D01*
X73621780Y-101135876D01*
X72770468Y-101987188D01*
X72762854Y-102001132D01*
X72032802Y-102001132D01*
X72034038Y-101998868D01*
X72033907Y-101997035D01*
X72029656Y-101990420D01*
X71178156Y-101138920D01*
X71165776Y-101132160D01*
X71158126Y-101137887D01*
X71053241Y-101309042D01*
X71048759Y-101317837D01*
X70961712Y-101527988D01*
X70958663Y-101537373D01*
X70905561Y-101758554D01*
X70904018Y-101768301D01*
X70886171Y-101995070D01*
X70886171Y-102004930D01*
X29206946Y-102004930D01*
X29206946Y-100951866D01*
X29200191Y-100889684D01*
X29154532Y-100767890D01*
X71530539Y-100767890D01*
X71534322Y-100776666D01*
X72385634Y-101627978D01*
X72399578Y-101635592D01*
X72401411Y-101635461D01*
X72408026Y-101631210D01*
X73259526Y-100779710D01*
X73266286Y-100767330D01*
X73260559Y-100759680D01*
X73089404Y-100654795D01*
X73080609Y-100650313D01*
X72870458Y-100563266D01*
X72861073Y-100560217D01*
X72639892Y-100507115D01*
X72630145Y-100505572D01*
X72403376Y-100487725D01*
X72393516Y-100487725D01*
X72166747Y-100505572D01*
X72157000Y-100507115D01*
X71935819Y-100560217D01*
X71926434Y-100563266D01*
X71716283Y-100650313D01*
X71707488Y-100654795D01*
X71540001Y-100757432D01*
X71530539Y-100767890D01*
X29154532Y-100767890D01*
X29149061Y-100753295D01*
X29061707Y-100636739D01*
X28945151Y-100549385D01*
X28808762Y-100498255D01*
X28746580Y-100491500D01*
X26650312Y-100491500D01*
X26588130Y-100498255D01*
X26451741Y-100549385D01*
X26335185Y-100636739D01*
X26247831Y-100753295D01*
X26196701Y-100889684D01*
X26189946Y-100951866D01*
X26189946Y-103048134D01*
X24998446Y-103048134D01*
X24998446Y-96170219D01*
X24998767Y-96161230D01*
X25007409Y-96040403D01*
X25008833Y-96028492D01*
X25010711Y-96017329D01*
X25011517Y-96012538D01*
X25011590Y-96006537D01*
X25011632Y-96006269D01*
X25011597Y-96006000D01*
X25011670Y-95999999D01*
X25010980Y-95995183D01*
X25010664Y-95990328D01*
X25010953Y-95990309D01*
X25010550Y-95963572D01*
X25017192Y-95904623D01*
X25023471Y-95877117D01*
X25050480Y-95799930D01*
X25062722Y-95774509D01*
X25106233Y-95705262D01*
X25123825Y-95683203D01*
X25181649Y-95625379D01*
X25203708Y-95607787D01*
X25272955Y-95564276D01*
X25298376Y-95552034D01*
X25375563Y-95525025D01*
X25403070Y-95518746D01*
X25427018Y-95516048D01*
X25458702Y-95512478D01*
X25474343Y-95511695D01*
X25483301Y-95511804D01*
X25492175Y-95513186D01*
X25523697Y-95509064D01*
X25540034Y-95508000D01*
X74449119Y-95508000D01*
X74468503Y-95509500D01*
G37*
G04 #@! TD.AperFunction*
G04 #@! TD*
M02*
