G04 #@! TF.GenerationSoftware,KiCad,Pcbnew,6.0.4-6f826c9f35~116~ubuntu20.04.1*
G04 #@! TF.CreationDate,2022-05-04T20:07:54+01:00*
G04 #@! TF.ProjectId,boostAAA-panel,626f6f73-7441-4414-912d-70616e656c2e,rev?*
G04 #@! TF.SameCoordinates,Original*
G04 #@! TF.FileFunction,Legend,Bot*
G04 #@! TF.FilePolarity,Positive*
%FSLAX46Y46*%
G04 Gerber Fmt 4.6, Leading zero omitted, Abs format (unit mm)*
G04 Created by KiCad (PCBNEW 6.0.4-6f826c9f35~116~ubuntu20.04.1) date 2022-05-04 20:07:54*
%MOMM*%
%LPD*%
G01*
G04 APERTURE LIST*
%ADD10C,0.150000*%
%ADD11C,0.120000*%
G04 APERTURE END LIST*
D10*
X29498446Y-22000000D02*
X30498446Y-22000000D01*
X29498446Y-54000000D02*
X30498446Y-54000000D01*
X29498446Y-38000000D02*
X30498446Y-38000000D01*
X29498446Y-70000000D02*
X30498446Y-70000000D01*
X29498446Y-86000000D02*
X30498446Y-86000000D01*
X29498446Y-102000000D02*
X30498446Y-102000000D01*
X29998446Y-21500000D02*
X29998446Y-22500000D01*
X29998446Y-37500000D02*
X29998446Y-38500000D01*
X29998446Y-53500000D02*
X29998446Y-54500000D01*
X29998446Y-85500000D02*
X29998446Y-86500000D01*
X29998446Y-69500000D02*
X29998446Y-70500000D01*
X29998446Y-101500000D02*
X29998446Y-102500000D01*
X60546065Y-19175714D02*
X60546065Y-19985238D01*
X60593684Y-20080476D01*
X60641303Y-20128095D01*
X60736541Y-20175714D01*
X60879398Y-20175714D01*
X60974636Y-20128095D01*
X60546065Y-19794761D02*
X60641303Y-19842380D01*
X60831779Y-19842380D01*
X60927017Y-19794761D01*
X60974636Y-19747142D01*
X61022255Y-19651904D01*
X61022255Y-19366190D01*
X60974636Y-19270952D01*
X60927017Y-19223333D01*
X60831779Y-19175714D01*
X60641303Y-19175714D01*
X60546065Y-19223333D01*
X60069874Y-19842380D02*
X60069874Y-18842380D01*
X59641303Y-19842380D02*
X59641303Y-19318571D01*
X59688922Y-19223333D01*
X59784160Y-19175714D01*
X59927017Y-19175714D01*
X60022255Y-19223333D01*
X60069874Y-19270952D01*
X58736541Y-19175714D02*
X58736541Y-19842380D01*
X59165112Y-19175714D02*
X59165112Y-19699523D01*
X59117493Y-19794761D01*
X59022255Y-19842380D01*
X58879398Y-19842380D01*
X58784160Y-19794761D01*
X58736541Y-19747142D01*
X58260350Y-19842380D02*
X58260350Y-18842380D01*
X58260350Y-19223333D02*
X58165112Y-19175714D01*
X57974636Y-19175714D01*
X57879398Y-19223333D01*
X57831779Y-19270952D01*
X57784160Y-19366190D01*
X57784160Y-19651904D01*
X57831779Y-19747142D01*
X57879398Y-19794761D01*
X57974636Y-19842380D01*
X58165112Y-19842380D01*
X58260350Y-19794761D01*
X57355588Y-19747142D02*
X57307969Y-19794761D01*
X57355588Y-19842380D01*
X57403207Y-19794761D01*
X57355588Y-19747142D01*
X57355588Y-19842380D01*
X57355588Y-19223333D02*
X57307969Y-19270952D01*
X57355588Y-19318571D01*
X57403207Y-19270952D01*
X57355588Y-19223333D01*
X57355588Y-19318571D01*
X56879398Y-19842380D02*
X56879398Y-18842380D01*
X56879398Y-19318571D02*
X56307969Y-19318571D01*
X56307969Y-19842380D02*
X56307969Y-18842380D01*
X55403207Y-19842380D02*
X55403207Y-19318571D01*
X55450826Y-19223333D01*
X55546065Y-19175714D01*
X55736541Y-19175714D01*
X55831779Y-19223333D01*
X55403207Y-19794761D02*
X55498446Y-19842380D01*
X55736541Y-19842380D01*
X55831779Y-19794761D01*
X55879398Y-19699523D01*
X55879398Y-19604285D01*
X55831779Y-19509047D01*
X55736541Y-19461428D01*
X55498446Y-19461428D01*
X55403207Y-19413809D01*
X54927017Y-19842380D02*
X54927017Y-19175714D01*
X54927017Y-19366190D02*
X54879398Y-19270952D01*
X54831779Y-19223333D01*
X54736541Y-19175714D01*
X54641303Y-19175714D01*
X54307969Y-19842380D02*
X54307969Y-18842380D01*
X54212731Y-19461428D02*
X53927017Y-19842380D01*
X53927017Y-19175714D02*
X54307969Y-19556666D01*
X53355588Y-19842380D02*
X53450826Y-19794761D01*
X53498446Y-19747142D01*
X53546065Y-19651904D01*
X53546065Y-19366190D01*
X53498446Y-19270952D01*
X53450826Y-19223333D01*
X53355588Y-19175714D01*
X53212731Y-19175714D01*
X53117493Y-19223333D01*
X53069874Y-19270952D01*
X53022255Y-19366190D01*
X53022255Y-19651904D01*
X53069874Y-19747142D01*
X53117493Y-19794761D01*
X53212731Y-19842380D01*
X53355588Y-19842380D01*
X52593684Y-19175714D02*
X52593684Y-19842380D01*
X52593684Y-19270952D02*
X52546065Y-19223333D01*
X52450826Y-19175714D01*
X52307969Y-19175714D01*
X52212731Y-19223333D01*
X52165112Y-19318571D01*
X52165112Y-19842380D01*
X51307969Y-19794761D02*
X51403207Y-19842380D01*
X51593684Y-19842380D01*
X51688922Y-19794761D01*
X51736541Y-19699523D01*
X51736541Y-19318571D01*
X51688922Y-19223333D01*
X51593684Y-19175714D01*
X51403207Y-19175714D01*
X51307969Y-19223333D01*
X51260350Y-19318571D01*
X51260350Y-19413809D01*
X51736541Y-19509047D01*
X50831779Y-19175714D02*
X50831779Y-19842380D01*
X50831779Y-19270952D02*
X50784160Y-19223333D01*
X50688922Y-19175714D01*
X50546065Y-19175714D01*
X50450826Y-19223333D01*
X50403207Y-19318571D01*
X50403207Y-19842380D01*
X49593684Y-19318571D02*
X49450826Y-19366190D01*
X49403207Y-19413809D01*
X49355588Y-19509047D01*
X49355588Y-19651904D01*
X49403207Y-19747142D01*
X49450826Y-19794761D01*
X49546065Y-19842380D01*
X49927017Y-19842380D01*
X49927017Y-18842380D01*
X49593684Y-18842380D01*
X49498446Y-18890000D01*
X49450826Y-18937619D01*
X49403207Y-19032857D01*
X49403207Y-19128095D01*
X49450826Y-19223333D01*
X49498446Y-19270952D01*
X49593684Y-19318571D01*
X49927017Y-19318571D01*
X48498446Y-19842380D02*
X48498446Y-19318571D01*
X48546065Y-19223333D01*
X48641303Y-19175714D01*
X48831779Y-19175714D01*
X48927017Y-19223333D01*
X48498446Y-19794761D02*
X48593684Y-19842380D01*
X48831779Y-19842380D01*
X48927017Y-19794761D01*
X48974636Y-19699523D01*
X48974636Y-19604285D01*
X48927017Y-19509047D01*
X48831779Y-19461428D01*
X48593684Y-19461428D01*
X48498446Y-19413809D01*
X47593684Y-19842380D02*
X47593684Y-18842380D01*
X47593684Y-19794761D02*
X47688922Y-19842380D01*
X47879398Y-19842380D01*
X47974636Y-19794761D01*
X48022255Y-19747142D01*
X48069874Y-19651904D01*
X48069874Y-19366190D01*
X48022255Y-19270952D01*
X47974636Y-19223333D01*
X47879398Y-19175714D01*
X47688922Y-19175714D01*
X47593684Y-19223333D01*
X46736541Y-19794761D02*
X46831779Y-19842380D01*
X47022255Y-19842380D01*
X47117493Y-19794761D01*
X47165112Y-19699523D01*
X47165112Y-19318571D01*
X47117493Y-19223333D01*
X47022255Y-19175714D01*
X46831779Y-19175714D01*
X46736541Y-19223333D01*
X46688922Y-19318571D01*
X46688922Y-19413809D01*
X47165112Y-19509047D01*
X45546065Y-18794761D02*
X46403207Y-20080476D01*
X45212731Y-19842380D02*
X45212731Y-18842380D01*
X45212731Y-19223333D02*
X45117493Y-19175714D01*
X44927017Y-19175714D01*
X44831779Y-19223333D01*
X44784160Y-19270952D01*
X44736541Y-19366190D01*
X44736541Y-19651904D01*
X44784160Y-19747142D01*
X44831779Y-19794761D01*
X44927017Y-19842380D01*
X45117493Y-19842380D01*
X45212731Y-19794761D01*
X44165112Y-19842380D02*
X44260350Y-19794761D01*
X44307969Y-19747142D01*
X44355588Y-19651904D01*
X44355588Y-19366190D01*
X44307969Y-19270952D01*
X44260350Y-19223333D01*
X44165112Y-19175714D01*
X44022255Y-19175714D01*
X43927017Y-19223333D01*
X43879398Y-19270952D01*
X43831779Y-19366190D01*
X43831779Y-19651904D01*
X43879398Y-19747142D01*
X43927017Y-19794761D01*
X44022255Y-19842380D01*
X44165112Y-19842380D01*
X43260350Y-19842380D02*
X43355588Y-19794761D01*
X43403207Y-19747142D01*
X43450826Y-19651904D01*
X43450826Y-19366190D01*
X43403207Y-19270952D01*
X43355588Y-19223333D01*
X43260350Y-19175714D01*
X43117493Y-19175714D01*
X43022255Y-19223333D01*
X42974636Y-19270952D01*
X42927017Y-19366190D01*
X42927017Y-19651904D01*
X42974636Y-19747142D01*
X43022255Y-19794761D01*
X43117493Y-19842380D01*
X43260350Y-19842380D01*
X42546065Y-19794761D02*
X42450826Y-19842380D01*
X42260350Y-19842380D01*
X42165112Y-19794761D01*
X42117493Y-19699523D01*
X42117493Y-19651904D01*
X42165112Y-19556666D01*
X42260350Y-19509047D01*
X42403207Y-19509047D01*
X42498446Y-19461428D01*
X42546065Y-19366190D01*
X42546065Y-19318571D01*
X42498446Y-19223333D01*
X42403207Y-19175714D01*
X42260350Y-19175714D01*
X42165112Y-19223333D01*
X41831779Y-19175714D02*
X41450826Y-19175714D01*
X41688922Y-18842380D02*
X41688922Y-19699523D01*
X41641303Y-19794761D01*
X41546065Y-19842380D01*
X41450826Y-19842380D01*
X41165112Y-19556666D02*
X40688922Y-19556666D01*
X41260350Y-19842380D02*
X40927017Y-18842380D01*
X40593684Y-19842380D01*
X40307969Y-19556666D02*
X39831779Y-19556666D01*
X40403207Y-19842380D02*
X40069874Y-18842380D01*
X39736541Y-19842380D01*
X39450826Y-19556666D02*
X38974636Y-19556666D01*
X39546065Y-19842380D02*
X39212731Y-18842380D01*
X38879398Y-19842380D01*
X54855588Y-20547619D02*
X54807969Y-20500000D01*
X54712731Y-20452380D01*
X54474636Y-20452380D01*
X54379398Y-20500000D01*
X54331779Y-20547619D01*
X54284160Y-20642857D01*
X54284160Y-20738095D01*
X54331779Y-20880952D01*
X54903207Y-21452380D01*
X54284160Y-21452380D01*
X53665112Y-20452380D02*
X53569874Y-20452380D01*
X53474636Y-20500000D01*
X53427017Y-20547619D01*
X53379398Y-20642857D01*
X53331779Y-20833333D01*
X53331779Y-21071428D01*
X53379398Y-21261904D01*
X53427017Y-21357142D01*
X53474636Y-21404761D01*
X53569874Y-21452380D01*
X53665112Y-21452380D01*
X53760350Y-21404761D01*
X53807969Y-21357142D01*
X53855588Y-21261904D01*
X53903207Y-21071428D01*
X53903207Y-20833333D01*
X53855588Y-20642857D01*
X53807969Y-20547619D01*
X53760350Y-20500000D01*
X53665112Y-20452380D01*
X52950826Y-20547619D02*
X52903207Y-20500000D01*
X52807969Y-20452380D01*
X52569874Y-20452380D01*
X52474636Y-20500000D01*
X52427017Y-20547619D01*
X52379398Y-20642857D01*
X52379398Y-20738095D01*
X52427017Y-20880952D01*
X52998446Y-21452380D01*
X52379398Y-21452380D01*
X51998446Y-20547619D02*
X51950826Y-20500000D01*
X51855588Y-20452380D01*
X51617493Y-20452380D01*
X51522255Y-20500000D01*
X51474636Y-20547619D01*
X51427017Y-20642857D01*
X51427017Y-20738095D01*
X51474636Y-20880952D01*
X52046065Y-21452380D01*
X51427017Y-21452380D01*
X50998446Y-21071428D02*
X50236541Y-21071428D01*
X49569874Y-20452380D02*
X49474636Y-20452380D01*
X49379398Y-20500000D01*
X49331779Y-20547619D01*
X49284160Y-20642857D01*
X49236541Y-20833333D01*
X49236541Y-21071428D01*
X49284160Y-21261904D01*
X49331779Y-21357142D01*
X49379398Y-21404761D01*
X49474636Y-21452380D01*
X49569874Y-21452380D01*
X49665112Y-21404761D01*
X49712731Y-21357142D01*
X49760350Y-21261904D01*
X49807969Y-21071428D01*
X49807969Y-20833333D01*
X49760350Y-20642857D01*
X49712731Y-20547619D01*
X49665112Y-20500000D01*
X49569874Y-20452380D01*
X48379398Y-20785714D02*
X48379398Y-21452380D01*
X48617493Y-20404761D02*
X48855588Y-21119047D01*
X48236541Y-21119047D01*
X47855588Y-21071428D02*
X47093684Y-21071428D01*
X46093684Y-21452380D02*
X46665112Y-21452380D01*
X46379398Y-21452380D02*
X46379398Y-20452380D01*
X46474636Y-20595238D01*
X46569874Y-20690476D01*
X46665112Y-20738095D01*
X45188922Y-20452380D02*
X45665112Y-20452380D01*
X45712731Y-20928571D01*
X45665112Y-20880952D01*
X45569874Y-20833333D01*
X45331779Y-20833333D01*
X45236541Y-20880952D01*
X45188922Y-20928571D01*
X45141303Y-21023809D01*
X45141303Y-21261904D01*
X45188922Y-21357142D01*
X45236541Y-21404761D01*
X45331779Y-21452380D01*
X45569874Y-21452380D01*
X45665112Y-21404761D01*
X45712731Y-21357142D01*
X51736541Y-23062380D02*
X51736541Y-22395714D01*
X51736541Y-22586190D02*
X51688922Y-22490952D01*
X51641303Y-22443333D01*
X51546065Y-22395714D01*
X51450826Y-22395714D01*
X50736541Y-23014761D02*
X50831779Y-23062380D01*
X51022255Y-23062380D01*
X51117493Y-23014761D01*
X51165112Y-22919523D01*
X51165112Y-22538571D01*
X51117493Y-22443333D01*
X51022255Y-22395714D01*
X50831779Y-22395714D01*
X50736541Y-22443333D01*
X50688922Y-22538571D01*
X50688922Y-22633809D01*
X51165112Y-22729047D01*
X50355588Y-22395714D02*
X50117493Y-23062380D01*
X49879398Y-22395714D01*
X48212731Y-23062380D02*
X48784160Y-23062380D01*
X48498446Y-23062380D02*
X48498446Y-22062380D01*
X48593684Y-22205238D01*
X48688922Y-22300476D01*
X48784160Y-22348095D01*
X60546065Y-35175714D02*
X60546065Y-35985238D01*
X60593684Y-36080476D01*
X60641303Y-36128095D01*
X60736541Y-36175714D01*
X60879398Y-36175714D01*
X60974636Y-36128095D01*
X60546065Y-35794761D02*
X60641303Y-35842380D01*
X60831779Y-35842380D01*
X60927017Y-35794761D01*
X60974636Y-35747142D01*
X61022255Y-35651904D01*
X61022255Y-35366190D01*
X60974636Y-35270952D01*
X60927017Y-35223333D01*
X60831779Y-35175714D01*
X60641303Y-35175714D01*
X60546065Y-35223333D01*
X60069874Y-35842380D02*
X60069874Y-34842380D01*
X59641303Y-35842380D02*
X59641303Y-35318571D01*
X59688922Y-35223333D01*
X59784160Y-35175714D01*
X59927017Y-35175714D01*
X60022255Y-35223333D01*
X60069874Y-35270952D01*
X58736541Y-35175714D02*
X58736541Y-35842380D01*
X59165112Y-35175714D02*
X59165112Y-35699523D01*
X59117493Y-35794761D01*
X59022255Y-35842380D01*
X58879398Y-35842380D01*
X58784160Y-35794761D01*
X58736541Y-35747142D01*
X58260350Y-35842380D02*
X58260350Y-34842380D01*
X58260350Y-35223333D02*
X58165112Y-35175714D01*
X57974636Y-35175714D01*
X57879398Y-35223333D01*
X57831779Y-35270952D01*
X57784160Y-35366190D01*
X57784160Y-35651904D01*
X57831779Y-35747142D01*
X57879398Y-35794761D01*
X57974636Y-35842380D01*
X58165112Y-35842380D01*
X58260350Y-35794761D01*
X57355588Y-35747142D02*
X57307969Y-35794761D01*
X57355588Y-35842380D01*
X57403207Y-35794761D01*
X57355588Y-35747142D01*
X57355588Y-35842380D01*
X57355588Y-35223333D02*
X57307969Y-35270952D01*
X57355588Y-35318571D01*
X57403207Y-35270952D01*
X57355588Y-35223333D01*
X57355588Y-35318571D01*
X56879398Y-35842380D02*
X56879398Y-34842380D01*
X56879398Y-35318571D02*
X56307969Y-35318571D01*
X56307969Y-35842380D02*
X56307969Y-34842380D01*
X55403207Y-35842380D02*
X55403207Y-35318571D01*
X55450826Y-35223333D01*
X55546065Y-35175714D01*
X55736541Y-35175714D01*
X55831779Y-35223333D01*
X55403207Y-35794761D02*
X55498446Y-35842380D01*
X55736541Y-35842380D01*
X55831779Y-35794761D01*
X55879398Y-35699523D01*
X55879398Y-35604285D01*
X55831779Y-35509047D01*
X55736541Y-35461428D01*
X55498446Y-35461428D01*
X55403207Y-35413809D01*
X54927017Y-35842380D02*
X54927017Y-35175714D01*
X54927017Y-35366190D02*
X54879398Y-35270952D01*
X54831779Y-35223333D01*
X54736541Y-35175714D01*
X54641303Y-35175714D01*
X54307969Y-35842380D02*
X54307969Y-34842380D01*
X54212731Y-35461428D02*
X53927017Y-35842380D01*
X53927017Y-35175714D02*
X54307969Y-35556666D01*
X53355588Y-35842380D02*
X53450826Y-35794761D01*
X53498446Y-35747142D01*
X53546065Y-35651904D01*
X53546065Y-35366190D01*
X53498446Y-35270952D01*
X53450826Y-35223333D01*
X53355588Y-35175714D01*
X53212731Y-35175714D01*
X53117493Y-35223333D01*
X53069874Y-35270952D01*
X53022255Y-35366190D01*
X53022255Y-35651904D01*
X53069874Y-35747142D01*
X53117493Y-35794761D01*
X53212731Y-35842380D01*
X53355588Y-35842380D01*
X52593684Y-35175714D02*
X52593684Y-35842380D01*
X52593684Y-35270952D02*
X52546065Y-35223333D01*
X52450826Y-35175714D01*
X52307969Y-35175714D01*
X52212731Y-35223333D01*
X52165112Y-35318571D01*
X52165112Y-35842380D01*
X51307969Y-35794761D02*
X51403207Y-35842380D01*
X51593684Y-35842380D01*
X51688922Y-35794761D01*
X51736541Y-35699523D01*
X51736541Y-35318571D01*
X51688922Y-35223333D01*
X51593684Y-35175714D01*
X51403207Y-35175714D01*
X51307969Y-35223333D01*
X51260350Y-35318571D01*
X51260350Y-35413809D01*
X51736541Y-35509047D01*
X50831779Y-35175714D02*
X50831779Y-35842380D01*
X50831779Y-35270952D02*
X50784160Y-35223333D01*
X50688922Y-35175714D01*
X50546065Y-35175714D01*
X50450826Y-35223333D01*
X50403207Y-35318571D01*
X50403207Y-35842380D01*
X49593684Y-35318571D02*
X49450826Y-35366190D01*
X49403207Y-35413809D01*
X49355588Y-35509047D01*
X49355588Y-35651904D01*
X49403207Y-35747142D01*
X49450826Y-35794761D01*
X49546065Y-35842380D01*
X49927017Y-35842380D01*
X49927017Y-34842380D01*
X49593684Y-34842380D01*
X49498446Y-34890000D01*
X49450826Y-34937619D01*
X49403207Y-35032857D01*
X49403207Y-35128095D01*
X49450826Y-35223333D01*
X49498446Y-35270952D01*
X49593684Y-35318571D01*
X49927017Y-35318571D01*
X48498446Y-35842380D02*
X48498446Y-35318571D01*
X48546065Y-35223333D01*
X48641303Y-35175714D01*
X48831779Y-35175714D01*
X48927017Y-35223333D01*
X48498446Y-35794761D02*
X48593684Y-35842380D01*
X48831779Y-35842380D01*
X48927017Y-35794761D01*
X48974636Y-35699523D01*
X48974636Y-35604285D01*
X48927017Y-35509047D01*
X48831779Y-35461428D01*
X48593684Y-35461428D01*
X48498446Y-35413809D01*
X47593684Y-35842380D02*
X47593684Y-34842380D01*
X47593684Y-35794761D02*
X47688922Y-35842380D01*
X47879398Y-35842380D01*
X47974636Y-35794761D01*
X48022255Y-35747142D01*
X48069874Y-35651904D01*
X48069874Y-35366190D01*
X48022255Y-35270952D01*
X47974636Y-35223333D01*
X47879398Y-35175714D01*
X47688922Y-35175714D01*
X47593684Y-35223333D01*
X46736541Y-35794761D02*
X46831779Y-35842380D01*
X47022255Y-35842380D01*
X47117493Y-35794761D01*
X47165112Y-35699523D01*
X47165112Y-35318571D01*
X47117493Y-35223333D01*
X47022255Y-35175714D01*
X46831779Y-35175714D01*
X46736541Y-35223333D01*
X46688922Y-35318571D01*
X46688922Y-35413809D01*
X47165112Y-35509047D01*
X45546065Y-34794761D02*
X46403207Y-36080476D01*
X45212731Y-35842380D02*
X45212731Y-34842380D01*
X45212731Y-35223333D02*
X45117493Y-35175714D01*
X44927017Y-35175714D01*
X44831779Y-35223333D01*
X44784160Y-35270952D01*
X44736541Y-35366190D01*
X44736541Y-35651904D01*
X44784160Y-35747142D01*
X44831779Y-35794761D01*
X44927017Y-35842380D01*
X45117493Y-35842380D01*
X45212731Y-35794761D01*
X44165112Y-35842380D02*
X44260350Y-35794761D01*
X44307969Y-35747142D01*
X44355588Y-35651904D01*
X44355588Y-35366190D01*
X44307969Y-35270952D01*
X44260350Y-35223333D01*
X44165112Y-35175714D01*
X44022255Y-35175714D01*
X43927017Y-35223333D01*
X43879398Y-35270952D01*
X43831779Y-35366190D01*
X43831779Y-35651904D01*
X43879398Y-35747142D01*
X43927017Y-35794761D01*
X44022255Y-35842380D01*
X44165112Y-35842380D01*
X43260350Y-35842380D02*
X43355588Y-35794761D01*
X43403207Y-35747142D01*
X43450826Y-35651904D01*
X43450826Y-35366190D01*
X43403207Y-35270952D01*
X43355588Y-35223333D01*
X43260350Y-35175714D01*
X43117493Y-35175714D01*
X43022255Y-35223333D01*
X42974636Y-35270952D01*
X42927017Y-35366190D01*
X42927017Y-35651904D01*
X42974636Y-35747142D01*
X43022255Y-35794761D01*
X43117493Y-35842380D01*
X43260350Y-35842380D01*
X42546065Y-35794761D02*
X42450826Y-35842380D01*
X42260350Y-35842380D01*
X42165112Y-35794761D01*
X42117493Y-35699523D01*
X42117493Y-35651904D01*
X42165112Y-35556666D01*
X42260350Y-35509047D01*
X42403207Y-35509047D01*
X42498446Y-35461428D01*
X42546065Y-35366190D01*
X42546065Y-35318571D01*
X42498446Y-35223333D01*
X42403207Y-35175714D01*
X42260350Y-35175714D01*
X42165112Y-35223333D01*
X41831779Y-35175714D02*
X41450826Y-35175714D01*
X41688922Y-34842380D02*
X41688922Y-35699523D01*
X41641303Y-35794761D01*
X41546065Y-35842380D01*
X41450826Y-35842380D01*
X41165112Y-35556666D02*
X40688922Y-35556666D01*
X41260350Y-35842380D02*
X40927017Y-34842380D01*
X40593684Y-35842380D01*
X40307969Y-35556666D02*
X39831779Y-35556666D01*
X40403207Y-35842380D02*
X40069874Y-34842380D01*
X39736541Y-35842380D01*
X39450826Y-35556666D02*
X38974636Y-35556666D01*
X39546065Y-35842380D02*
X39212731Y-34842380D01*
X38879398Y-35842380D01*
X54855588Y-36547619D02*
X54807969Y-36500000D01*
X54712731Y-36452380D01*
X54474636Y-36452380D01*
X54379398Y-36500000D01*
X54331779Y-36547619D01*
X54284160Y-36642857D01*
X54284160Y-36738095D01*
X54331779Y-36880952D01*
X54903207Y-37452380D01*
X54284160Y-37452380D01*
X53665112Y-36452380D02*
X53569874Y-36452380D01*
X53474636Y-36500000D01*
X53427017Y-36547619D01*
X53379398Y-36642857D01*
X53331779Y-36833333D01*
X53331779Y-37071428D01*
X53379398Y-37261904D01*
X53427017Y-37357142D01*
X53474636Y-37404761D01*
X53569874Y-37452380D01*
X53665112Y-37452380D01*
X53760350Y-37404761D01*
X53807969Y-37357142D01*
X53855588Y-37261904D01*
X53903207Y-37071428D01*
X53903207Y-36833333D01*
X53855588Y-36642857D01*
X53807969Y-36547619D01*
X53760350Y-36500000D01*
X53665112Y-36452380D01*
X52950826Y-36547619D02*
X52903207Y-36500000D01*
X52807969Y-36452380D01*
X52569874Y-36452380D01*
X52474636Y-36500000D01*
X52427017Y-36547619D01*
X52379398Y-36642857D01*
X52379398Y-36738095D01*
X52427017Y-36880952D01*
X52998446Y-37452380D01*
X52379398Y-37452380D01*
X51998446Y-36547619D02*
X51950826Y-36500000D01*
X51855588Y-36452380D01*
X51617493Y-36452380D01*
X51522255Y-36500000D01*
X51474636Y-36547619D01*
X51427017Y-36642857D01*
X51427017Y-36738095D01*
X51474636Y-36880952D01*
X52046065Y-37452380D01*
X51427017Y-37452380D01*
X50998446Y-37071428D02*
X50236541Y-37071428D01*
X49569874Y-36452380D02*
X49474636Y-36452380D01*
X49379398Y-36500000D01*
X49331779Y-36547619D01*
X49284160Y-36642857D01*
X49236541Y-36833333D01*
X49236541Y-37071428D01*
X49284160Y-37261904D01*
X49331779Y-37357142D01*
X49379398Y-37404761D01*
X49474636Y-37452380D01*
X49569874Y-37452380D01*
X49665112Y-37404761D01*
X49712731Y-37357142D01*
X49760350Y-37261904D01*
X49807969Y-37071428D01*
X49807969Y-36833333D01*
X49760350Y-36642857D01*
X49712731Y-36547619D01*
X49665112Y-36500000D01*
X49569874Y-36452380D01*
X48379398Y-36785714D02*
X48379398Y-37452380D01*
X48617493Y-36404761D02*
X48855588Y-37119047D01*
X48236541Y-37119047D01*
X47855588Y-37071428D02*
X47093684Y-37071428D01*
X46093684Y-37452380D02*
X46665112Y-37452380D01*
X46379398Y-37452380D02*
X46379398Y-36452380D01*
X46474636Y-36595238D01*
X46569874Y-36690476D01*
X46665112Y-36738095D01*
X45188922Y-36452380D02*
X45665112Y-36452380D01*
X45712731Y-36928571D01*
X45665112Y-36880952D01*
X45569874Y-36833333D01*
X45331779Y-36833333D01*
X45236541Y-36880952D01*
X45188922Y-36928571D01*
X45141303Y-37023809D01*
X45141303Y-37261904D01*
X45188922Y-37357142D01*
X45236541Y-37404761D01*
X45331779Y-37452380D01*
X45569874Y-37452380D01*
X45665112Y-37404761D01*
X45712731Y-37357142D01*
X51736541Y-39062380D02*
X51736541Y-38395714D01*
X51736541Y-38586190D02*
X51688922Y-38490952D01*
X51641303Y-38443333D01*
X51546065Y-38395714D01*
X51450826Y-38395714D01*
X50736541Y-39014761D02*
X50831779Y-39062380D01*
X51022255Y-39062380D01*
X51117493Y-39014761D01*
X51165112Y-38919523D01*
X51165112Y-38538571D01*
X51117493Y-38443333D01*
X51022255Y-38395714D01*
X50831779Y-38395714D01*
X50736541Y-38443333D01*
X50688922Y-38538571D01*
X50688922Y-38633809D01*
X51165112Y-38729047D01*
X50355588Y-38395714D02*
X50117493Y-39062380D01*
X49879398Y-38395714D01*
X48212731Y-39062380D02*
X48784160Y-39062380D01*
X48498446Y-39062380D02*
X48498446Y-38062380D01*
X48593684Y-38205238D01*
X48688922Y-38300476D01*
X48784160Y-38348095D01*
X60546065Y-51175714D02*
X60546065Y-51985238D01*
X60593684Y-52080476D01*
X60641303Y-52128095D01*
X60736541Y-52175714D01*
X60879398Y-52175714D01*
X60974636Y-52128095D01*
X60546065Y-51794761D02*
X60641303Y-51842380D01*
X60831779Y-51842380D01*
X60927017Y-51794761D01*
X60974636Y-51747142D01*
X61022255Y-51651904D01*
X61022255Y-51366190D01*
X60974636Y-51270952D01*
X60927017Y-51223333D01*
X60831779Y-51175714D01*
X60641303Y-51175714D01*
X60546065Y-51223333D01*
X60069874Y-51842380D02*
X60069874Y-50842380D01*
X59641303Y-51842380D02*
X59641303Y-51318571D01*
X59688922Y-51223333D01*
X59784160Y-51175714D01*
X59927017Y-51175714D01*
X60022255Y-51223333D01*
X60069874Y-51270952D01*
X58736541Y-51175714D02*
X58736541Y-51842380D01*
X59165112Y-51175714D02*
X59165112Y-51699523D01*
X59117493Y-51794761D01*
X59022255Y-51842380D01*
X58879398Y-51842380D01*
X58784160Y-51794761D01*
X58736541Y-51747142D01*
X58260350Y-51842380D02*
X58260350Y-50842380D01*
X58260350Y-51223333D02*
X58165112Y-51175714D01*
X57974636Y-51175714D01*
X57879398Y-51223333D01*
X57831779Y-51270952D01*
X57784160Y-51366190D01*
X57784160Y-51651904D01*
X57831779Y-51747142D01*
X57879398Y-51794761D01*
X57974636Y-51842380D01*
X58165112Y-51842380D01*
X58260350Y-51794761D01*
X57355588Y-51747142D02*
X57307969Y-51794761D01*
X57355588Y-51842380D01*
X57403207Y-51794761D01*
X57355588Y-51747142D01*
X57355588Y-51842380D01*
X57355588Y-51223333D02*
X57307969Y-51270952D01*
X57355588Y-51318571D01*
X57403207Y-51270952D01*
X57355588Y-51223333D01*
X57355588Y-51318571D01*
X56879398Y-51842380D02*
X56879398Y-50842380D01*
X56879398Y-51318571D02*
X56307969Y-51318571D01*
X56307969Y-51842380D02*
X56307969Y-50842380D01*
X55403207Y-51842380D02*
X55403207Y-51318571D01*
X55450826Y-51223333D01*
X55546065Y-51175714D01*
X55736541Y-51175714D01*
X55831779Y-51223333D01*
X55403207Y-51794761D02*
X55498446Y-51842380D01*
X55736541Y-51842380D01*
X55831779Y-51794761D01*
X55879398Y-51699523D01*
X55879398Y-51604285D01*
X55831779Y-51509047D01*
X55736541Y-51461428D01*
X55498446Y-51461428D01*
X55403207Y-51413809D01*
X54927017Y-51842380D02*
X54927017Y-51175714D01*
X54927017Y-51366190D02*
X54879398Y-51270952D01*
X54831779Y-51223333D01*
X54736541Y-51175714D01*
X54641303Y-51175714D01*
X54307969Y-51842380D02*
X54307969Y-50842380D01*
X54212731Y-51461428D02*
X53927017Y-51842380D01*
X53927017Y-51175714D02*
X54307969Y-51556666D01*
X53355588Y-51842380D02*
X53450826Y-51794761D01*
X53498446Y-51747142D01*
X53546065Y-51651904D01*
X53546065Y-51366190D01*
X53498446Y-51270952D01*
X53450826Y-51223333D01*
X53355588Y-51175714D01*
X53212731Y-51175714D01*
X53117493Y-51223333D01*
X53069874Y-51270952D01*
X53022255Y-51366190D01*
X53022255Y-51651904D01*
X53069874Y-51747142D01*
X53117493Y-51794761D01*
X53212731Y-51842380D01*
X53355588Y-51842380D01*
X52593684Y-51175714D02*
X52593684Y-51842380D01*
X52593684Y-51270952D02*
X52546065Y-51223333D01*
X52450826Y-51175714D01*
X52307969Y-51175714D01*
X52212731Y-51223333D01*
X52165112Y-51318571D01*
X52165112Y-51842380D01*
X51307969Y-51794761D02*
X51403207Y-51842380D01*
X51593684Y-51842380D01*
X51688922Y-51794761D01*
X51736541Y-51699523D01*
X51736541Y-51318571D01*
X51688922Y-51223333D01*
X51593684Y-51175714D01*
X51403207Y-51175714D01*
X51307969Y-51223333D01*
X51260350Y-51318571D01*
X51260350Y-51413809D01*
X51736541Y-51509047D01*
X50831779Y-51175714D02*
X50831779Y-51842380D01*
X50831779Y-51270952D02*
X50784160Y-51223333D01*
X50688922Y-51175714D01*
X50546065Y-51175714D01*
X50450826Y-51223333D01*
X50403207Y-51318571D01*
X50403207Y-51842380D01*
X49593684Y-51318571D02*
X49450826Y-51366190D01*
X49403207Y-51413809D01*
X49355588Y-51509047D01*
X49355588Y-51651904D01*
X49403207Y-51747142D01*
X49450826Y-51794761D01*
X49546065Y-51842380D01*
X49927017Y-51842380D01*
X49927017Y-50842380D01*
X49593684Y-50842380D01*
X49498446Y-50890000D01*
X49450826Y-50937619D01*
X49403207Y-51032857D01*
X49403207Y-51128095D01*
X49450826Y-51223333D01*
X49498446Y-51270952D01*
X49593684Y-51318571D01*
X49927017Y-51318571D01*
X48498446Y-51842380D02*
X48498446Y-51318571D01*
X48546065Y-51223333D01*
X48641303Y-51175714D01*
X48831779Y-51175714D01*
X48927017Y-51223333D01*
X48498446Y-51794761D02*
X48593684Y-51842380D01*
X48831779Y-51842380D01*
X48927017Y-51794761D01*
X48974636Y-51699523D01*
X48974636Y-51604285D01*
X48927017Y-51509047D01*
X48831779Y-51461428D01*
X48593684Y-51461428D01*
X48498446Y-51413809D01*
X47593684Y-51842380D02*
X47593684Y-50842380D01*
X47593684Y-51794761D02*
X47688922Y-51842380D01*
X47879398Y-51842380D01*
X47974636Y-51794761D01*
X48022255Y-51747142D01*
X48069874Y-51651904D01*
X48069874Y-51366190D01*
X48022255Y-51270952D01*
X47974636Y-51223333D01*
X47879398Y-51175714D01*
X47688922Y-51175714D01*
X47593684Y-51223333D01*
X46736541Y-51794761D02*
X46831779Y-51842380D01*
X47022255Y-51842380D01*
X47117493Y-51794761D01*
X47165112Y-51699523D01*
X47165112Y-51318571D01*
X47117493Y-51223333D01*
X47022255Y-51175714D01*
X46831779Y-51175714D01*
X46736541Y-51223333D01*
X46688922Y-51318571D01*
X46688922Y-51413809D01*
X47165112Y-51509047D01*
X45546065Y-50794761D02*
X46403207Y-52080476D01*
X45212731Y-51842380D02*
X45212731Y-50842380D01*
X45212731Y-51223333D02*
X45117493Y-51175714D01*
X44927017Y-51175714D01*
X44831779Y-51223333D01*
X44784160Y-51270952D01*
X44736541Y-51366190D01*
X44736541Y-51651904D01*
X44784160Y-51747142D01*
X44831779Y-51794761D01*
X44927017Y-51842380D01*
X45117493Y-51842380D01*
X45212731Y-51794761D01*
X44165112Y-51842380D02*
X44260350Y-51794761D01*
X44307969Y-51747142D01*
X44355588Y-51651904D01*
X44355588Y-51366190D01*
X44307969Y-51270952D01*
X44260350Y-51223333D01*
X44165112Y-51175714D01*
X44022255Y-51175714D01*
X43927017Y-51223333D01*
X43879398Y-51270952D01*
X43831779Y-51366190D01*
X43831779Y-51651904D01*
X43879398Y-51747142D01*
X43927017Y-51794761D01*
X44022255Y-51842380D01*
X44165112Y-51842380D01*
X43260350Y-51842380D02*
X43355588Y-51794761D01*
X43403207Y-51747142D01*
X43450826Y-51651904D01*
X43450826Y-51366190D01*
X43403207Y-51270952D01*
X43355588Y-51223333D01*
X43260350Y-51175714D01*
X43117493Y-51175714D01*
X43022255Y-51223333D01*
X42974636Y-51270952D01*
X42927017Y-51366190D01*
X42927017Y-51651904D01*
X42974636Y-51747142D01*
X43022255Y-51794761D01*
X43117493Y-51842380D01*
X43260350Y-51842380D01*
X42546065Y-51794761D02*
X42450826Y-51842380D01*
X42260350Y-51842380D01*
X42165112Y-51794761D01*
X42117493Y-51699523D01*
X42117493Y-51651904D01*
X42165112Y-51556666D01*
X42260350Y-51509047D01*
X42403207Y-51509047D01*
X42498446Y-51461428D01*
X42546065Y-51366190D01*
X42546065Y-51318571D01*
X42498446Y-51223333D01*
X42403207Y-51175714D01*
X42260350Y-51175714D01*
X42165112Y-51223333D01*
X41831779Y-51175714D02*
X41450826Y-51175714D01*
X41688922Y-50842380D02*
X41688922Y-51699523D01*
X41641303Y-51794761D01*
X41546065Y-51842380D01*
X41450826Y-51842380D01*
X41165112Y-51556666D02*
X40688922Y-51556666D01*
X41260350Y-51842380D02*
X40927017Y-50842380D01*
X40593684Y-51842380D01*
X40307969Y-51556666D02*
X39831779Y-51556666D01*
X40403207Y-51842380D02*
X40069874Y-50842380D01*
X39736541Y-51842380D01*
X39450826Y-51556666D02*
X38974636Y-51556666D01*
X39546065Y-51842380D02*
X39212731Y-50842380D01*
X38879398Y-51842380D01*
X54855588Y-52547619D02*
X54807969Y-52500000D01*
X54712731Y-52452380D01*
X54474636Y-52452380D01*
X54379398Y-52500000D01*
X54331779Y-52547619D01*
X54284160Y-52642857D01*
X54284160Y-52738095D01*
X54331779Y-52880952D01*
X54903207Y-53452380D01*
X54284160Y-53452380D01*
X53665112Y-52452380D02*
X53569874Y-52452380D01*
X53474636Y-52500000D01*
X53427017Y-52547619D01*
X53379398Y-52642857D01*
X53331779Y-52833333D01*
X53331779Y-53071428D01*
X53379398Y-53261904D01*
X53427017Y-53357142D01*
X53474636Y-53404761D01*
X53569874Y-53452380D01*
X53665112Y-53452380D01*
X53760350Y-53404761D01*
X53807969Y-53357142D01*
X53855588Y-53261904D01*
X53903207Y-53071428D01*
X53903207Y-52833333D01*
X53855588Y-52642857D01*
X53807969Y-52547619D01*
X53760350Y-52500000D01*
X53665112Y-52452380D01*
X52950826Y-52547619D02*
X52903207Y-52500000D01*
X52807969Y-52452380D01*
X52569874Y-52452380D01*
X52474636Y-52500000D01*
X52427017Y-52547619D01*
X52379398Y-52642857D01*
X52379398Y-52738095D01*
X52427017Y-52880952D01*
X52998446Y-53452380D01*
X52379398Y-53452380D01*
X51998446Y-52547619D02*
X51950826Y-52500000D01*
X51855588Y-52452380D01*
X51617493Y-52452380D01*
X51522255Y-52500000D01*
X51474636Y-52547619D01*
X51427017Y-52642857D01*
X51427017Y-52738095D01*
X51474636Y-52880952D01*
X52046065Y-53452380D01*
X51427017Y-53452380D01*
X50998446Y-53071428D02*
X50236541Y-53071428D01*
X49569874Y-52452380D02*
X49474636Y-52452380D01*
X49379398Y-52500000D01*
X49331779Y-52547619D01*
X49284160Y-52642857D01*
X49236541Y-52833333D01*
X49236541Y-53071428D01*
X49284160Y-53261904D01*
X49331779Y-53357142D01*
X49379398Y-53404761D01*
X49474636Y-53452380D01*
X49569874Y-53452380D01*
X49665112Y-53404761D01*
X49712731Y-53357142D01*
X49760350Y-53261904D01*
X49807969Y-53071428D01*
X49807969Y-52833333D01*
X49760350Y-52642857D01*
X49712731Y-52547619D01*
X49665112Y-52500000D01*
X49569874Y-52452380D01*
X48379398Y-52785714D02*
X48379398Y-53452380D01*
X48617493Y-52404761D02*
X48855588Y-53119047D01*
X48236541Y-53119047D01*
X47855588Y-53071428D02*
X47093684Y-53071428D01*
X46093684Y-53452380D02*
X46665112Y-53452380D01*
X46379398Y-53452380D02*
X46379398Y-52452380D01*
X46474636Y-52595238D01*
X46569874Y-52690476D01*
X46665112Y-52738095D01*
X45188922Y-52452380D02*
X45665112Y-52452380D01*
X45712731Y-52928571D01*
X45665112Y-52880952D01*
X45569874Y-52833333D01*
X45331779Y-52833333D01*
X45236541Y-52880952D01*
X45188922Y-52928571D01*
X45141303Y-53023809D01*
X45141303Y-53261904D01*
X45188922Y-53357142D01*
X45236541Y-53404761D01*
X45331779Y-53452380D01*
X45569874Y-53452380D01*
X45665112Y-53404761D01*
X45712731Y-53357142D01*
X51736541Y-55062380D02*
X51736541Y-54395714D01*
X51736541Y-54586190D02*
X51688922Y-54490952D01*
X51641303Y-54443333D01*
X51546065Y-54395714D01*
X51450826Y-54395714D01*
X50736541Y-55014761D02*
X50831779Y-55062380D01*
X51022255Y-55062380D01*
X51117493Y-55014761D01*
X51165112Y-54919523D01*
X51165112Y-54538571D01*
X51117493Y-54443333D01*
X51022255Y-54395714D01*
X50831779Y-54395714D01*
X50736541Y-54443333D01*
X50688922Y-54538571D01*
X50688922Y-54633809D01*
X51165112Y-54729047D01*
X50355588Y-54395714D02*
X50117493Y-55062380D01*
X49879398Y-54395714D01*
X48212731Y-55062380D02*
X48784160Y-55062380D01*
X48498446Y-55062380D02*
X48498446Y-54062380D01*
X48593684Y-54205238D01*
X48688922Y-54300476D01*
X48784160Y-54348095D01*
X60546065Y-67175714D02*
X60546065Y-67985238D01*
X60593684Y-68080476D01*
X60641303Y-68128095D01*
X60736541Y-68175714D01*
X60879398Y-68175714D01*
X60974636Y-68128095D01*
X60546065Y-67794761D02*
X60641303Y-67842380D01*
X60831779Y-67842380D01*
X60927017Y-67794761D01*
X60974636Y-67747142D01*
X61022255Y-67651904D01*
X61022255Y-67366190D01*
X60974636Y-67270952D01*
X60927017Y-67223333D01*
X60831779Y-67175714D01*
X60641303Y-67175714D01*
X60546065Y-67223333D01*
X60069874Y-67842380D02*
X60069874Y-66842380D01*
X59641303Y-67842380D02*
X59641303Y-67318571D01*
X59688922Y-67223333D01*
X59784160Y-67175714D01*
X59927017Y-67175714D01*
X60022255Y-67223333D01*
X60069874Y-67270952D01*
X58736541Y-67175714D02*
X58736541Y-67842380D01*
X59165112Y-67175714D02*
X59165112Y-67699523D01*
X59117493Y-67794761D01*
X59022255Y-67842380D01*
X58879398Y-67842380D01*
X58784160Y-67794761D01*
X58736541Y-67747142D01*
X58260350Y-67842380D02*
X58260350Y-66842380D01*
X58260350Y-67223333D02*
X58165112Y-67175714D01*
X57974636Y-67175714D01*
X57879398Y-67223333D01*
X57831779Y-67270952D01*
X57784160Y-67366190D01*
X57784160Y-67651904D01*
X57831779Y-67747142D01*
X57879398Y-67794761D01*
X57974636Y-67842380D01*
X58165112Y-67842380D01*
X58260350Y-67794761D01*
X57355588Y-67747142D02*
X57307969Y-67794761D01*
X57355588Y-67842380D01*
X57403207Y-67794761D01*
X57355588Y-67747142D01*
X57355588Y-67842380D01*
X57355588Y-67223333D02*
X57307969Y-67270952D01*
X57355588Y-67318571D01*
X57403207Y-67270952D01*
X57355588Y-67223333D01*
X57355588Y-67318571D01*
X56879398Y-67842380D02*
X56879398Y-66842380D01*
X56879398Y-67318571D02*
X56307969Y-67318571D01*
X56307969Y-67842380D02*
X56307969Y-66842380D01*
X55403207Y-67842380D02*
X55403207Y-67318571D01*
X55450826Y-67223333D01*
X55546065Y-67175714D01*
X55736541Y-67175714D01*
X55831779Y-67223333D01*
X55403207Y-67794761D02*
X55498446Y-67842380D01*
X55736541Y-67842380D01*
X55831779Y-67794761D01*
X55879398Y-67699523D01*
X55879398Y-67604285D01*
X55831779Y-67509047D01*
X55736541Y-67461428D01*
X55498446Y-67461428D01*
X55403207Y-67413809D01*
X54927017Y-67842380D02*
X54927017Y-67175714D01*
X54927017Y-67366190D02*
X54879398Y-67270952D01*
X54831779Y-67223333D01*
X54736541Y-67175714D01*
X54641303Y-67175714D01*
X54307969Y-67842380D02*
X54307969Y-66842380D01*
X54212731Y-67461428D02*
X53927017Y-67842380D01*
X53927017Y-67175714D02*
X54307969Y-67556666D01*
X53355588Y-67842380D02*
X53450826Y-67794761D01*
X53498446Y-67747142D01*
X53546065Y-67651904D01*
X53546065Y-67366190D01*
X53498446Y-67270952D01*
X53450826Y-67223333D01*
X53355588Y-67175714D01*
X53212731Y-67175714D01*
X53117493Y-67223333D01*
X53069874Y-67270952D01*
X53022255Y-67366190D01*
X53022255Y-67651904D01*
X53069874Y-67747142D01*
X53117493Y-67794761D01*
X53212731Y-67842380D01*
X53355588Y-67842380D01*
X52593684Y-67175714D02*
X52593684Y-67842380D01*
X52593684Y-67270952D02*
X52546065Y-67223333D01*
X52450826Y-67175714D01*
X52307969Y-67175714D01*
X52212731Y-67223333D01*
X52165112Y-67318571D01*
X52165112Y-67842380D01*
X51307969Y-67794761D02*
X51403207Y-67842380D01*
X51593684Y-67842380D01*
X51688922Y-67794761D01*
X51736541Y-67699523D01*
X51736541Y-67318571D01*
X51688922Y-67223333D01*
X51593684Y-67175714D01*
X51403207Y-67175714D01*
X51307969Y-67223333D01*
X51260350Y-67318571D01*
X51260350Y-67413809D01*
X51736541Y-67509047D01*
X50831779Y-67175714D02*
X50831779Y-67842380D01*
X50831779Y-67270952D02*
X50784160Y-67223333D01*
X50688922Y-67175714D01*
X50546065Y-67175714D01*
X50450826Y-67223333D01*
X50403207Y-67318571D01*
X50403207Y-67842380D01*
X49593684Y-67318571D02*
X49450826Y-67366190D01*
X49403207Y-67413809D01*
X49355588Y-67509047D01*
X49355588Y-67651904D01*
X49403207Y-67747142D01*
X49450826Y-67794761D01*
X49546065Y-67842380D01*
X49927017Y-67842380D01*
X49927017Y-66842380D01*
X49593684Y-66842380D01*
X49498446Y-66890000D01*
X49450826Y-66937619D01*
X49403207Y-67032857D01*
X49403207Y-67128095D01*
X49450826Y-67223333D01*
X49498446Y-67270952D01*
X49593684Y-67318571D01*
X49927017Y-67318571D01*
X48498446Y-67842380D02*
X48498446Y-67318571D01*
X48546065Y-67223333D01*
X48641303Y-67175714D01*
X48831779Y-67175714D01*
X48927017Y-67223333D01*
X48498446Y-67794761D02*
X48593684Y-67842380D01*
X48831779Y-67842380D01*
X48927017Y-67794761D01*
X48974636Y-67699523D01*
X48974636Y-67604285D01*
X48927017Y-67509047D01*
X48831779Y-67461428D01*
X48593684Y-67461428D01*
X48498446Y-67413809D01*
X47593684Y-67842380D02*
X47593684Y-66842380D01*
X47593684Y-67794761D02*
X47688922Y-67842380D01*
X47879398Y-67842380D01*
X47974636Y-67794761D01*
X48022255Y-67747142D01*
X48069874Y-67651904D01*
X48069874Y-67366190D01*
X48022255Y-67270952D01*
X47974636Y-67223333D01*
X47879398Y-67175714D01*
X47688922Y-67175714D01*
X47593684Y-67223333D01*
X46736541Y-67794761D02*
X46831779Y-67842380D01*
X47022255Y-67842380D01*
X47117493Y-67794761D01*
X47165112Y-67699523D01*
X47165112Y-67318571D01*
X47117493Y-67223333D01*
X47022255Y-67175714D01*
X46831779Y-67175714D01*
X46736541Y-67223333D01*
X46688922Y-67318571D01*
X46688922Y-67413809D01*
X47165112Y-67509047D01*
X45546065Y-66794761D02*
X46403207Y-68080476D01*
X45212731Y-67842380D02*
X45212731Y-66842380D01*
X45212731Y-67223333D02*
X45117493Y-67175714D01*
X44927017Y-67175714D01*
X44831779Y-67223333D01*
X44784160Y-67270952D01*
X44736541Y-67366190D01*
X44736541Y-67651904D01*
X44784160Y-67747142D01*
X44831779Y-67794761D01*
X44927017Y-67842380D01*
X45117493Y-67842380D01*
X45212731Y-67794761D01*
X44165112Y-67842380D02*
X44260350Y-67794761D01*
X44307969Y-67747142D01*
X44355588Y-67651904D01*
X44355588Y-67366190D01*
X44307969Y-67270952D01*
X44260350Y-67223333D01*
X44165112Y-67175714D01*
X44022255Y-67175714D01*
X43927017Y-67223333D01*
X43879398Y-67270952D01*
X43831779Y-67366190D01*
X43831779Y-67651904D01*
X43879398Y-67747142D01*
X43927017Y-67794761D01*
X44022255Y-67842380D01*
X44165112Y-67842380D01*
X43260350Y-67842380D02*
X43355588Y-67794761D01*
X43403207Y-67747142D01*
X43450826Y-67651904D01*
X43450826Y-67366190D01*
X43403207Y-67270952D01*
X43355588Y-67223333D01*
X43260350Y-67175714D01*
X43117493Y-67175714D01*
X43022255Y-67223333D01*
X42974636Y-67270952D01*
X42927017Y-67366190D01*
X42927017Y-67651904D01*
X42974636Y-67747142D01*
X43022255Y-67794761D01*
X43117493Y-67842380D01*
X43260350Y-67842380D01*
X42546065Y-67794761D02*
X42450826Y-67842380D01*
X42260350Y-67842380D01*
X42165112Y-67794761D01*
X42117493Y-67699523D01*
X42117493Y-67651904D01*
X42165112Y-67556666D01*
X42260350Y-67509047D01*
X42403207Y-67509047D01*
X42498446Y-67461428D01*
X42546065Y-67366190D01*
X42546065Y-67318571D01*
X42498446Y-67223333D01*
X42403207Y-67175714D01*
X42260350Y-67175714D01*
X42165112Y-67223333D01*
X41831779Y-67175714D02*
X41450826Y-67175714D01*
X41688922Y-66842380D02*
X41688922Y-67699523D01*
X41641303Y-67794761D01*
X41546065Y-67842380D01*
X41450826Y-67842380D01*
X41165112Y-67556666D02*
X40688922Y-67556666D01*
X41260350Y-67842380D02*
X40927017Y-66842380D01*
X40593684Y-67842380D01*
X40307969Y-67556666D02*
X39831779Y-67556666D01*
X40403207Y-67842380D02*
X40069874Y-66842380D01*
X39736541Y-67842380D01*
X39450826Y-67556666D02*
X38974636Y-67556666D01*
X39546065Y-67842380D02*
X39212731Y-66842380D01*
X38879398Y-67842380D01*
X54855588Y-68547619D02*
X54807969Y-68500000D01*
X54712731Y-68452380D01*
X54474636Y-68452380D01*
X54379398Y-68500000D01*
X54331779Y-68547619D01*
X54284160Y-68642857D01*
X54284160Y-68738095D01*
X54331779Y-68880952D01*
X54903207Y-69452380D01*
X54284160Y-69452380D01*
X53665112Y-68452380D02*
X53569874Y-68452380D01*
X53474636Y-68500000D01*
X53427017Y-68547619D01*
X53379398Y-68642857D01*
X53331779Y-68833333D01*
X53331779Y-69071428D01*
X53379398Y-69261904D01*
X53427017Y-69357142D01*
X53474636Y-69404761D01*
X53569874Y-69452380D01*
X53665112Y-69452380D01*
X53760350Y-69404761D01*
X53807969Y-69357142D01*
X53855588Y-69261904D01*
X53903207Y-69071428D01*
X53903207Y-68833333D01*
X53855588Y-68642857D01*
X53807969Y-68547619D01*
X53760350Y-68500000D01*
X53665112Y-68452380D01*
X52950826Y-68547619D02*
X52903207Y-68500000D01*
X52807969Y-68452380D01*
X52569874Y-68452380D01*
X52474636Y-68500000D01*
X52427017Y-68547619D01*
X52379398Y-68642857D01*
X52379398Y-68738095D01*
X52427017Y-68880952D01*
X52998446Y-69452380D01*
X52379398Y-69452380D01*
X51998446Y-68547619D02*
X51950826Y-68500000D01*
X51855588Y-68452380D01*
X51617493Y-68452380D01*
X51522255Y-68500000D01*
X51474636Y-68547619D01*
X51427017Y-68642857D01*
X51427017Y-68738095D01*
X51474636Y-68880952D01*
X52046065Y-69452380D01*
X51427017Y-69452380D01*
X50998446Y-69071428D02*
X50236541Y-69071428D01*
X49569874Y-68452380D02*
X49474636Y-68452380D01*
X49379398Y-68500000D01*
X49331779Y-68547619D01*
X49284160Y-68642857D01*
X49236541Y-68833333D01*
X49236541Y-69071428D01*
X49284160Y-69261904D01*
X49331779Y-69357142D01*
X49379398Y-69404761D01*
X49474636Y-69452380D01*
X49569874Y-69452380D01*
X49665112Y-69404761D01*
X49712731Y-69357142D01*
X49760350Y-69261904D01*
X49807969Y-69071428D01*
X49807969Y-68833333D01*
X49760350Y-68642857D01*
X49712731Y-68547619D01*
X49665112Y-68500000D01*
X49569874Y-68452380D01*
X48379398Y-68785714D02*
X48379398Y-69452380D01*
X48617493Y-68404761D02*
X48855588Y-69119047D01*
X48236541Y-69119047D01*
X47855588Y-69071428D02*
X47093684Y-69071428D01*
X46093684Y-69452380D02*
X46665112Y-69452380D01*
X46379398Y-69452380D02*
X46379398Y-68452380D01*
X46474636Y-68595238D01*
X46569874Y-68690476D01*
X46665112Y-68738095D01*
X45188922Y-68452380D02*
X45665112Y-68452380D01*
X45712731Y-68928571D01*
X45665112Y-68880952D01*
X45569874Y-68833333D01*
X45331779Y-68833333D01*
X45236541Y-68880952D01*
X45188922Y-68928571D01*
X45141303Y-69023809D01*
X45141303Y-69261904D01*
X45188922Y-69357142D01*
X45236541Y-69404761D01*
X45331779Y-69452380D01*
X45569874Y-69452380D01*
X45665112Y-69404761D01*
X45712731Y-69357142D01*
X51736541Y-71062380D02*
X51736541Y-70395714D01*
X51736541Y-70586190D02*
X51688922Y-70490952D01*
X51641303Y-70443333D01*
X51546065Y-70395714D01*
X51450826Y-70395714D01*
X50736541Y-71014761D02*
X50831779Y-71062380D01*
X51022255Y-71062380D01*
X51117493Y-71014761D01*
X51165112Y-70919523D01*
X51165112Y-70538571D01*
X51117493Y-70443333D01*
X51022255Y-70395714D01*
X50831779Y-70395714D01*
X50736541Y-70443333D01*
X50688922Y-70538571D01*
X50688922Y-70633809D01*
X51165112Y-70729047D01*
X50355588Y-70395714D02*
X50117493Y-71062380D01*
X49879398Y-70395714D01*
X48212731Y-71062380D02*
X48784160Y-71062380D01*
X48498446Y-71062380D02*
X48498446Y-70062380D01*
X48593684Y-70205238D01*
X48688922Y-70300476D01*
X48784160Y-70348095D01*
X60546065Y-83175714D02*
X60546065Y-83985238D01*
X60593684Y-84080476D01*
X60641303Y-84128095D01*
X60736541Y-84175714D01*
X60879398Y-84175714D01*
X60974636Y-84128095D01*
X60546065Y-83794761D02*
X60641303Y-83842380D01*
X60831779Y-83842380D01*
X60927017Y-83794761D01*
X60974636Y-83747142D01*
X61022255Y-83651904D01*
X61022255Y-83366190D01*
X60974636Y-83270952D01*
X60927017Y-83223333D01*
X60831779Y-83175714D01*
X60641303Y-83175714D01*
X60546065Y-83223333D01*
X60069874Y-83842380D02*
X60069874Y-82842380D01*
X59641303Y-83842380D02*
X59641303Y-83318571D01*
X59688922Y-83223333D01*
X59784160Y-83175714D01*
X59927017Y-83175714D01*
X60022255Y-83223333D01*
X60069874Y-83270952D01*
X58736541Y-83175714D02*
X58736541Y-83842380D01*
X59165112Y-83175714D02*
X59165112Y-83699523D01*
X59117493Y-83794761D01*
X59022255Y-83842380D01*
X58879398Y-83842380D01*
X58784160Y-83794761D01*
X58736541Y-83747142D01*
X58260350Y-83842380D02*
X58260350Y-82842380D01*
X58260350Y-83223333D02*
X58165112Y-83175714D01*
X57974636Y-83175714D01*
X57879398Y-83223333D01*
X57831779Y-83270952D01*
X57784160Y-83366190D01*
X57784160Y-83651904D01*
X57831779Y-83747142D01*
X57879398Y-83794761D01*
X57974636Y-83842380D01*
X58165112Y-83842380D01*
X58260350Y-83794761D01*
X57355588Y-83747142D02*
X57307969Y-83794761D01*
X57355588Y-83842380D01*
X57403207Y-83794761D01*
X57355588Y-83747142D01*
X57355588Y-83842380D01*
X57355588Y-83223333D02*
X57307969Y-83270952D01*
X57355588Y-83318571D01*
X57403207Y-83270952D01*
X57355588Y-83223333D01*
X57355588Y-83318571D01*
X56879398Y-83842380D02*
X56879398Y-82842380D01*
X56879398Y-83318571D02*
X56307969Y-83318571D01*
X56307969Y-83842380D02*
X56307969Y-82842380D01*
X55403207Y-83842380D02*
X55403207Y-83318571D01*
X55450826Y-83223333D01*
X55546065Y-83175714D01*
X55736541Y-83175714D01*
X55831779Y-83223333D01*
X55403207Y-83794761D02*
X55498446Y-83842380D01*
X55736541Y-83842380D01*
X55831779Y-83794761D01*
X55879398Y-83699523D01*
X55879398Y-83604285D01*
X55831779Y-83509047D01*
X55736541Y-83461428D01*
X55498446Y-83461428D01*
X55403207Y-83413809D01*
X54927017Y-83842380D02*
X54927017Y-83175714D01*
X54927017Y-83366190D02*
X54879398Y-83270952D01*
X54831779Y-83223333D01*
X54736541Y-83175714D01*
X54641303Y-83175714D01*
X54307969Y-83842380D02*
X54307969Y-82842380D01*
X54212731Y-83461428D02*
X53927017Y-83842380D01*
X53927017Y-83175714D02*
X54307969Y-83556666D01*
X53355588Y-83842380D02*
X53450826Y-83794761D01*
X53498446Y-83747142D01*
X53546065Y-83651904D01*
X53546065Y-83366190D01*
X53498446Y-83270952D01*
X53450826Y-83223333D01*
X53355588Y-83175714D01*
X53212731Y-83175714D01*
X53117493Y-83223333D01*
X53069874Y-83270952D01*
X53022255Y-83366190D01*
X53022255Y-83651904D01*
X53069874Y-83747142D01*
X53117493Y-83794761D01*
X53212731Y-83842380D01*
X53355588Y-83842380D01*
X52593684Y-83175714D02*
X52593684Y-83842380D01*
X52593684Y-83270952D02*
X52546065Y-83223333D01*
X52450826Y-83175714D01*
X52307969Y-83175714D01*
X52212731Y-83223333D01*
X52165112Y-83318571D01*
X52165112Y-83842380D01*
X51307969Y-83794761D02*
X51403207Y-83842380D01*
X51593684Y-83842380D01*
X51688922Y-83794761D01*
X51736541Y-83699523D01*
X51736541Y-83318571D01*
X51688922Y-83223333D01*
X51593684Y-83175714D01*
X51403207Y-83175714D01*
X51307969Y-83223333D01*
X51260350Y-83318571D01*
X51260350Y-83413809D01*
X51736541Y-83509047D01*
X50831779Y-83175714D02*
X50831779Y-83842380D01*
X50831779Y-83270952D02*
X50784160Y-83223333D01*
X50688922Y-83175714D01*
X50546065Y-83175714D01*
X50450826Y-83223333D01*
X50403207Y-83318571D01*
X50403207Y-83842380D01*
X49593684Y-83318571D02*
X49450826Y-83366190D01*
X49403207Y-83413809D01*
X49355588Y-83509047D01*
X49355588Y-83651904D01*
X49403207Y-83747142D01*
X49450826Y-83794761D01*
X49546065Y-83842380D01*
X49927017Y-83842380D01*
X49927017Y-82842380D01*
X49593684Y-82842380D01*
X49498446Y-82890000D01*
X49450826Y-82937619D01*
X49403207Y-83032857D01*
X49403207Y-83128095D01*
X49450826Y-83223333D01*
X49498446Y-83270952D01*
X49593684Y-83318571D01*
X49927017Y-83318571D01*
X48498446Y-83842380D02*
X48498446Y-83318571D01*
X48546065Y-83223333D01*
X48641303Y-83175714D01*
X48831779Y-83175714D01*
X48927017Y-83223333D01*
X48498446Y-83794761D02*
X48593684Y-83842380D01*
X48831779Y-83842380D01*
X48927017Y-83794761D01*
X48974636Y-83699523D01*
X48974636Y-83604285D01*
X48927017Y-83509047D01*
X48831779Y-83461428D01*
X48593684Y-83461428D01*
X48498446Y-83413809D01*
X47593684Y-83842380D02*
X47593684Y-82842380D01*
X47593684Y-83794761D02*
X47688922Y-83842380D01*
X47879398Y-83842380D01*
X47974636Y-83794761D01*
X48022255Y-83747142D01*
X48069874Y-83651904D01*
X48069874Y-83366190D01*
X48022255Y-83270952D01*
X47974636Y-83223333D01*
X47879398Y-83175714D01*
X47688922Y-83175714D01*
X47593684Y-83223333D01*
X46736541Y-83794761D02*
X46831779Y-83842380D01*
X47022255Y-83842380D01*
X47117493Y-83794761D01*
X47165112Y-83699523D01*
X47165112Y-83318571D01*
X47117493Y-83223333D01*
X47022255Y-83175714D01*
X46831779Y-83175714D01*
X46736541Y-83223333D01*
X46688922Y-83318571D01*
X46688922Y-83413809D01*
X47165112Y-83509047D01*
X45546065Y-82794761D02*
X46403207Y-84080476D01*
X45212731Y-83842380D02*
X45212731Y-82842380D01*
X45212731Y-83223333D02*
X45117493Y-83175714D01*
X44927017Y-83175714D01*
X44831779Y-83223333D01*
X44784160Y-83270952D01*
X44736541Y-83366190D01*
X44736541Y-83651904D01*
X44784160Y-83747142D01*
X44831779Y-83794761D01*
X44927017Y-83842380D01*
X45117493Y-83842380D01*
X45212731Y-83794761D01*
X44165112Y-83842380D02*
X44260350Y-83794761D01*
X44307969Y-83747142D01*
X44355588Y-83651904D01*
X44355588Y-83366190D01*
X44307969Y-83270952D01*
X44260350Y-83223333D01*
X44165112Y-83175714D01*
X44022255Y-83175714D01*
X43927017Y-83223333D01*
X43879398Y-83270952D01*
X43831779Y-83366190D01*
X43831779Y-83651904D01*
X43879398Y-83747142D01*
X43927017Y-83794761D01*
X44022255Y-83842380D01*
X44165112Y-83842380D01*
X43260350Y-83842380D02*
X43355588Y-83794761D01*
X43403207Y-83747142D01*
X43450826Y-83651904D01*
X43450826Y-83366190D01*
X43403207Y-83270952D01*
X43355588Y-83223333D01*
X43260350Y-83175714D01*
X43117493Y-83175714D01*
X43022255Y-83223333D01*
X42974636Y-83270952D01*
X42927017Y-83366190D01*
X42927017Y-83651904D01*
X42974636Y-83747142D01*
X43022255Y-83794761D01*
X43117493Y-83842380D01*
X43260350Y-83842380D01*
X42546065Y-83794761D02*
X42450826Y-83842380D01*
X42260350Y-83842380D01*
X42165112Y-83794761D01*
X42117493Y-83699523D01*
X42117493Y-83651904D01*
X42165112Y-83556666D01*
X42260350Y-83509047D01*
X42403207Y-83509047D01*
X42498446Y-83461428D01*
X42546065Y-83366190D01*
X42546065Y-83318571D01*
X42498446Y-83223333D01*
X42403207Y-83175714D01*
X42260350Y-83175714D01*
X42165112Y-83223333D01*
X41831779Y-83175714D02*
X41450826Y-83175714D01*
X41688922Y-82842380D02*
X41688922Y-83699523D01*
X41641303Y-83794761D01*
X41546065Y-83842380D01*
X41450826Y-83842380D01*
X41165112Y-83556666D02*
X40688922Y-83556666D01*
X41260350Y-83842380D02*
X40927017Y-82842380D01*
X40593684Y-83842380D01*
X40307969Y-83556666D02*
X39831779Y-83556666D01*
X40403207Y-83842380D02*
X40069874Y-82842380D01*
X39736541Y-83842380D01*
X39450826Y-83556666D02*
X38974636Y-83556666D01*
X39546065Y-83842380D02*
X39212731Y-82842380D01*
X38879398Y-83842380D01*
X54855588Y-84547619D02*
X54807969Y-84500000D01*
X54712731Y-84452380D01*
X54474636Y-84452380D01*
X54379398Y-84500000D01*
X54331779Y-84547619D01*
X54284160Y-84642857D01*
X54284160Y-84738095D01*
X54331779Y-84880952D01*
X54903207Y-85452380D01*
X54284160Y-85452380D01*
X53665112Y-84452380D02*
X53569874Y-84452380D01*
X53474636Y-84500000D01*
X53427017Y-84547619D01*
X53379398Y-84642857D01*
X53331779Y-84833333D01*
X53331779Y-85071428D01*
X53379398Y-85261904D01*
X53427017Y-85357142D01*
X53474636Y-85404761D01*
X53569874Y-85452380D01*
X53665112Y-85452380D01*
X53760350Y-85404761D01*
X53807969Y-85357142D01*
X53855588Y-85261904D01*
X53903207Y-85071428D01*
X53903207Y-84833333D01*
X53855588Y-84642857D01*
X53807969Y-84547619D01*
X53760350Y-84500000D01*
X53665112Y-84452380D01*
X52950826Y-84547619D02*
X52903207Y-84500000D01*
X52807969Y-84452380D01*
X52569874Y-84452380D01*
X52474636Y-84500000D01*
X52427017Y-84547619D01*
X52379398Y-84642857D01*
X52379398Y-84738095D01*
X52427017Y-84880952D01*
X52998446Y-85452380D01*
X52379398Y-85452380D01*
X51998446Y-84547619D02*
X51950826Y-84500000D01*
X51855588Y-84452380D01*
X51617493Y-84452380D01*
X51522255Y-84500000D01*
X51474636Y-84547619D01*
X51427017Y-84642857D01*
X51427017Y-84738095D01*
X51474636Y-84880952D01*
X52046065Y-85452380D01*
X51427017Y-85452380D01*
X50998446Y-85071428D02*
X50236541Y-85071428D01*
X49569874Y-84452380D02*
X49474636Y-84452380D01*
X49379398Y-84500000D01*
X49331779Y-84547619D01*
X49284160Y-84642857D01*
X49236541Y-84833333D01*
X49236541Y-85071428D01*
X49284160Y-85261904D01*
X49331779Y-85357142D01*
X49379398Y-85404761D01*
X49474636Y-85452380D01*
X49569874Y-85452380D01*
X49665112Y-85404761D01*
X49712731Y-85357142D01*
X49760350Y-85261904D01*
X49807969Y-85071428D01*
X49807969Y-84833333D01*
X49760350Y-84642857D01*
X49712731Y-84547619D01*
X49665112Y-84500000D01*
X49569874Y-84452380D01*
X48379398Y-84785714D02*
X48379398Y-85452380D01*
X48617493Y-84404761D02*
X48855588Y-85119047D01*
X48236541Y-85119047D01*
X47855588Y-85071428D02*
X47093684Y-85071428D01*
X46093684Y-85452380D02*
X46665112Y-85452380D01*
X46379398Y-85452380D02*
X46379398Y-84452380D01*
X46474636Y-84595238D01*
X46569874Y-84690476D01*
X46665112Y-84738095D01*
X45188922Y-84452380D02*
X45665112Y-84452380D01*
X45712731Y-84928571D01*
X45665112Y-84880952D01*
X45569874Y-84833333D01*
X45331779Y-84833333D01*
X45236541Y-84880952D01*
X45188922Y-84928571D01*
X45141303Y-85023809D01*
X45141303Y-85261904D01*
X45188922Y-85357142D01*
X45236541Y-85404761D01*
X45331779Y-85452380D01*
X45569874Y-85452380D01*
X45665112Y-85404761D01*
X45712731Y-85357142D01*
X51736541Y-87062380D02*
X51736541Y-86395714D01*
X51736541Y-86586190D02*
X51688922Y-86490952D01*
X51641303Y-86443333D01*
X51546065Y-86395714D01*
X51450826Y-86395714D01*
X50736541Y-87014761D02*
X50831779Y-87062380D01*
X51022255Y-87062380D01*
X51117493Y-87014761D01*
X51165112Y-86919523D01*
X51165112Y-86538571D01*
X51117493Y-86443333D01*
X51022255Y-86395714D01*
X50831779Y-86395714D01*
X50736541Y-86443333D01*
X50688922Y-86538571D01*
X50688922Y-86633809D01*
X51165112Y-86729047D01*
X50355588Y-86395714D02*
X50117493Y-87062380D01*
X49879398Y-86395714D01*
X48212731Y-87062380D02*
X48784160Y-87062380D01*
X48498446Y-87062380D02*
X48498446Y-86062380D01*
X48593684Y-86205238D01*
X48688922Y-86300476D01*
X48784160Y-86348095D01*
X60546065Y-99175714D02*
X60546065Y-99985238D01*
X60593684Y-100080476D01*
X60641303Y-100128095D01*
X60736541Y-100175714D01*
X60879398Y-100175714D01*
X60974636Y-100128095D01*
X60546065Y-99794761D02*
X60641303Y-99842380D01*
X60831779Y-99842380D01*
X60927017Y-99794761D01*
X60974636Y-99747142D01*
X61022255Y-99651904D01*
X61022255Y-99366190D01*
X60974636Y-99270952D01*
X60927017Y-99223333D01*
X60831779Y-99175714D01*
X60641303Y-99175714D01*
X60546065Y-99223333D01*
X60069874Y-99842380D02*
X60069874Y-98842380D01*
X59641303Y-99842380D02*
X59641303Y-99318571D01*
X59688922Y-99223333D01*
X59784160Y-99175714D01*
X59927017Y-99175714D01*
X60022255Y-99223333D01*
X60069874Y-99270952D01*
X58736541Y-99175714D02*
X58736541Y-99842380D01*
X59165112Y-99175714D02*
X59165112Y-99699523D01*
X59117493Y-99794761D01*
X59022255Y-99842380D01*
X58879398Y-99842380D01*
X58784160Y-99794761D01*
X58736541Y-99747142D01*
X58260350Y-99842380D02*
X58260350Y-98842380D01*
X58260350Y-99223333D02*
X58165112Y-99175714D01*
X57974636Y-99175714D01*
X57879398Y-99223333D01*
X57831779Y-99270952D01*
X57784160Y-99366190D01*
X57784160Y-99651904D01*
X57831779Y-99747142D01*
X57879398Y-99794761D01*
X57974636Y-99842380D01*
X58165112Y-99842380D01*
X58260350Y-99794761D01*
X57355588Y-99747142D02*
X57307969Y-99794761D01*
X57355588Y-99842380D01*
X57403207Y-99794761D01*
X57355588Y-99747142D01*
X57355588Y-99842380D01*
X57355588Y-99223333D02*
X57307969Y-99270952D01*
X57355588Y-99318571D01*
X57403207Y-99270952D01*
X57355588Y-99223333D01*
X57355588Y-99318571D01*
X56879398Y-99842380D02*
X56879398Y-98842380D01*
X56879398Y-99318571D02*
X56307969Y-99318571D01*
X56307969Y-99842380D02*
X56307969Y-98842380D01*
X55403207Y-99842380D02*
X55403207Y-99318571D01*
X55450826Y-99223333D01*
X55546065Y-99175714D01*
X55736541Y-99175714D01*
X55831779Y-99223333D01*
X55403207Y-99794761D02*
X55498446Y-99842380D01*
X55736541Y-99842380D01*
X55831779Y-99794761D01*
X55879398Y-99699523D01*
X55879398Y-99604285D01*
X55831779Y-99509047D01*
X55736541Y-99461428D01*
X55498446Y-99461428D01*
X55403207Y-99413809D01*
X54927017Y-99842380D02*
X54927017Y-99175714D01*
X54927017Y-99366190D02*
X54879398Y-99270952D01*
X54831779Y-99223333D01*
X54736541Y-99175714D01*
X54641303Y-99175714D01*
X54307969Y-99842380D02*
X54307969Y-98842380D01*
X54212731Y-99461428D02*
X53927017Y-99842380D01*
X53927017Y-99175714D02*
X54307969Y-99556666D01*
X53355588Y-99842380D02*
X53450826Y-99794761D01*
X53498446Y-99747142D01*
X53546065Y-99651904D01*
X53546065Y-99366190D01*
X53498446Y-99270952D01*
X53450826Y-99223333D01*
X53355588Y-99175714D01*
X53212731Y-99175714D01*
X53117493Y-99223333D01*
X53069874Y-99270952D01*
X53022255Y-99366190D01*
X53022255Y-99651904D01*
X53069874Y-99747142D01*
X53117493Y-99794761D01*
X53212731Y-99842380D01*
X53355588Y-99842380D01*
X52593684Y-99175714D02*
X52593684Y-99842380D01*
X52593684Y-99270952D02*
X52546065Y-99223333D01*
X52450826Y-99175714D01*
X52307969Y-99175714D01*
X52212731Y-99223333D01*
X52165112Y-99318571D01*
X52165112Y-99842380D01*
X51307969Y-99794761D02*
X51403207Y-99842380D01*
X51593684Y-99842380D01*
X51688922Y-99794761D01*
X51736541Y-99699523D01*
X51736541Y-99318571D01*
X51688922Y-99223333D01*
X51593684Y-99175714D01*
X51403207Y-99175714D01*
X51307969Y-99223333D01*
X51260350Y-99318571D01*
X51260350Y-99413809D01*
X51736541Y-99509047D01*
X50831779Y-99175714D02*
X50831779Y-99842380D01*
X50831779Y-99270952D02*
X50784160Y-99223333D01*
X50688922Y-99175714D01*
X50546065Y-99175714D01*
X50450826Y-99223333D01*
X50403207Y-99318571D01*
X50403207Y-99842380D01*
X49593684Y-99318571D02*
X49450826Y-99366190D01*
X49403207Y-99413809D01*
X49355588Y-99509047D01*
X49355588Y-99651904D01*
X49403207Y-99747142D01*
X49450826Y-99794761D01*
X49546065Y-99842380D01*
X49927017Y-99842380D01*
X49927017Y-98842380D01*
X49593684Y-98842380D01*
X49498446Y-98890000D01*
X49450826Y-98937619D01*
X49403207Y-99032857D01*
X49403207Y-99128095D01*
X49450826Y-99223333D01*
X49498446Y-99270952D01*
X49593684Y-99318571D01*
X49927017Y-99318571D01*
X48498446Y-99842380D02*
X48498446Y-99318571D01*
X48546065Y-99223333D01*
X48641303Y-99175714D01*
X48831779Y-99175714D01*
X48927017Y-99223333D01*
X48498446Y-99794761D02*
X48593684Y-99842380D01*
X48831779Y-99842380D01*
X48927017Y-99794761D01*
X48974636Y-99699523D01*
X48974636Y-99604285D01*
X48927017Y-99509047D01*
X48831779Y-99461428D01*
X48593684Y-99461428D01*
X48498446Y-99413809D01*
X47593684Y-99842380D02*
X47593684Y-98842380D01*
X47593684Y-99794761D02*
X47688922Y-99842380D01*
X47879398Y-99842380D01*
X47974636Y-99794761D01*
X48022255Y-99747142D01*
X48069874Y-99651904D01*
X48069874Y-99366190D01*
X48022255Y-99270952D01*
X47974636Y-99223333D01*
X47879398Y-99175714D01*
X47688922Y-99175714D01*
X47593684Y-99223333D01*
X46736541Y-99794761D02*
X46831779Y-99842380D01*
X47022255Y-99842380D01*
X47117493Y-99794761D01*
X47165112Y-99699523D01*
X47165112Y-99318571D01*
X47117493Y-99223333D01*
X47022255Y-99175714D01*
X46831779Y-99175714D01*
X46736541Y-99223333D01*
X46688922Y-99318571D01*
X46688922Y-99413809D01*
X47165112Y-99509047D01*
X45546065Y-98794761D02*
X46403207Y-100080476D01*
X45212731Y-99842380D02*
X45212731Y-98842380D01*
X45212731Y-99223333D02*
X45117493Y-99175714D01*
X44927017Y-99175714D01*
X44831779Y-99223333D01*
X44784160Y-99270952D01*
X44736541Y-99366190D01*
X44736541Y-99651904D01*
X44784160Y-99747142D01*
X44831779Y-99794761D01*
X44927017Y-99842380D01*
X45117493Y-99842380D01*
X45212731Y-99794761D01*
X44165112Y-99842380D02*
X44260350Y-99794761D01*
X44307969Y-99747142D01*
X44355588Y-99651904D01*
X44355588Y-99366190D01*
X44307969Y-99270952D01*
X44260350Y-99223333D01*
X44165112Y-99175714D01*
X44022255Y-99175714D01*
X43927017Y-99223333D01*
X43879398Y-99270952D01*
X43831779Y-99366190D01*
X43831779Y-99651904D01*
X43879398Y-99747142D01*
X43927017Y-99794761D01*
X44022255Y-99842380D01*
X44165112Y-99842380D01*
X43260350Y-99842380D02*
X43355588Y-99794761D01*
X43403207Y-99747142D01*
X43450826Y-99651904D01*
X43450826Y-99366190D01*
X43403207Y-99270952D01*
X43355588Y-99223333D01*
X43260350Y-99175714D01*
X43117493Y-99175714D01*
X43022255Y-99223333D01*
X42974636Y-99270952D01*
X42927017Y-99366190D01*
X42927017Y-99651904D01*
X42974636Y-99747142D01*
X43022255Y-99794761D01*
X43117493Y-99842380D01*
X43260350Y-99842380D01*
X42546065Y-99794761D02*
X42450826Y-99842380D01*
X42260350Y-99842380D01*
X42165112Y-99794761D01*
X42117493Y-99699523D01*
X42117493Y-99651904D01*
X42165112Y-99556666D01*
X42260350Y-99509047D01*
X42403207Y-99509047D01*
X42498446Y-99461428D01*
X42546065Y-99366190D01*
X42546065Y-99318571D01*
X42498446Y-99223333D01*
X42403207Y-99175714D01*
X42260350Y-99175714D01*
X42165112Y-99223333D01*
X41831779Y-99175714D02*
X41450826Y-99175714D01*
X41688922Y-98842380D02*
X41688922Y-99699523D01*
X41641303Y-99794761D01*
X41546065Y-99842380D01*
X41450826Y-99842380D01*
X41165112Y-99556666D02*
X40688922Y-99556666D01*
X41260350Y-99842380D02*
X40927017Y-98842380D01*
X40593684Y-99842380D01*
X40307969Y-99556666D02*
X39831779Y-99556666D01*
X40403207Y-99842380D02*
X40069874Y-98842380D01*
X39736541Y-99842380D01*
X39450826Y-99556666D02*
X38974636Y-99556666D01*
X39546065Y-99842380D02*
X39212731Y-98842380D01*
X38879398Y-99842380D01*
X54855588Y-100547619D02*
X54807969Y-100500000D01*
X54712731Y-100452380D01*
X54474636Y-100452380D01*
X54379398Y-100500000D01*
X54331779Y-100547619D01*
X54284160Y-100642857D01*
X54284160Y-100738095D01*
X54331779Y-100880952D01*
X54903207Y-101452380D01*
X54284160Y-101452380D01*
X53665112Y-100452380D02*
X53569874Y-100452380D01*
X53474636Y-100500000D01*
X53427017Y-100547619D01*
X53379398Y-100642857D01*
X53331779Y-100833333D01*
X53331779Y-101071428D01*
X53379398Y-101261904D01*
X53427017Y-101357142D01*
X53474636Y-101404761D01*
X53569874Y-101452380D01*
X53665112Y-101452380D01*
X53760350Y-101404761D01*
X53807969Y-101357142D01*
X53855588Y-101261904D01*
X53903207Y-101071428D01*
X53903207Y-100833333D01*
X53855588Y-100642857D01*
X53807969Y-100547619D01*
X53760350Y-100500000D01*
X53665112Y-100452380D01*
X52950826Y-100547619D02*
X52903207Y-100500000D01*
X52807969Y-100452380D01*
X52569874Y-100452380D01*
X52474636Y-100500000D01*
X52427017Y-100547619D01*
X52379398Y-100642857D01*
X52379398Y-100738095D01*
X52427017Y-100880952D01*
X52998446Y-101452380D01*
X52379398Y-101452380D01*
X51998446Y-100547619D02*
X51950826Y-100500000D01*
X51855588Y-100452380D01*
X51617493Y-100452380D01*
X51522255Y-100500000D01*
X51474636Y-100547619D01*
X51427017Y-100642857D01*
X51427017Y-100738095D01*
X51474636Y-100880952D01*
X52046065Y-101452380D01*
X51427017Y-101452380D01*
X50998446Y-101071428D02*
X50236541Y-101071428D01*
X49569874Y-100452380D02*
X49474636Y-100452380D01*
X49379398Y-100500000D01*
X49331779Y-100547619D01*
X49284160Y-100642857D01*
X49236541Y-100833333D01*
X49236541Y-101071428D01*
X49284160Y-101261904D01*
X49331779Y-101357142D01*
X49379398Y-101404761D01*
X49474636Y-101452380D01*
X49569874Y-101452380D01*
X49665112Y-101404761D01*
X49712731Y-101357142D01*
X49760350Y-101261904D01*
X49807969Y-101071428D01*
X49807969Y-100833333D01*
X49760350Y-100642857D01*
X49712731Y-100547619D01*
X49665112Y-100500000D01*
X49569874Y-100452380D01*
X48379398Y-100785714D02*
X48379398Y-101452380D01*
X48617493Y-100404761D02*
X48855588Y-101119047D01*
X48236541Y-101119047D01*
X47855588Y-101071428D02*
X47093684Y-101071428D01*
X46093684Y-101452380D02*
X46665112Y-101452380D01*
X46379398Y-101452380D02*
X46379398Y-100452380D01*
X46474636Y-100595238D01*
X46569874Y-100690476D01*
X46665112Y-100738095D01*
X45188922Y-100452380D02*
X45665112Y-100452380D01*
X45712731Y-100928571D01*
X45665112Y-100880952D01*
X45569874Y-100833333D01*
X45331779Y-100833333D01*
X45236541Y-100880952D01*
X45188922Y-100928571D01*
X45141303Y-101023809D01*
X45141303Y-101261904D01*
X45188922Y-101357142D01*
X45236541Y-101404761D01*
X45331779Y-101452380D01*
X45569874Y-101452380D01*
X45665112Y-101404761D01*
X45712731Y-101357142D01*
X51736541Y-103062380D02*
X51736541Y-102395714D01*
X51736541Y-102586190D02*
X51688922Y-102490952D01*
X51641303Y-102443333D01*
X51546065Y-102395714D01*
X51450826Y-102395714D01*
X50736541Y-103014761D02*
X50831779Y-103062380D01*
X51022255Y-103062380D01*
X51117493Y-103014761D01*
X51165112Y-102919523D01*
X51165112Y-102538571D01*
X51117493Y-102443333D01*
X51022255Y-102395714D01*
X50831779Y-102395714D01*
X50736541Y-102443333D01*
X50688922Y-102538571D01*
X50688922Y-102633809D01*
X51165112Y-102729047D01*
X50355588Y-102395714D02*
X50117493Y-103062380D01*
X49879398Y-102395714D01*
X48212731Y-103062380D02*
X48784160Y-103062380D01*
X48498446Y-103062380D02*
X48498446Y-102062380D01*
X48593684Y-102205238D01*
X48688922Y-102300476D01*
X48784160Y-102348095D01*
G04 #@! TO.C,BT1*
X76339398Y-102071428D02*
X75577493Y-102071428D01*
X24269398Y-102071428D02*
X23507493Y-102071428D01*
X23888446Y-102452380D02*
X23888446Y-101690476D01*
X76339398Y-86071428D02*
X75577493Y-86071428D01*
X24269398Y-86071428D02*
X23507493Y-86071428D01*
X23888446Y-86452380D02*
X23888446Y-85690476D01*
X24269398Y-54071428D02*
X23507493Y-54071428D01*
X23888446Y-54452380D02*
X23888446Y-53690476D01*
X76339398Y-54071428D02*
X75577493Y-54071428D01*
X76339398Y-22071428D02*
X75577493Y-22071428D01*
X24269398Y-22071428D02*
X23507493Y-22071428D01*
X23888446Y-22452380D02*
X23888446Y-21690476D01*
X76339398Y-38071428D02*
X75577493Y-38071428D01*
X24269398Y-38071428D02*
X23507493Y-38071428D01*
X23888446Y-38452380D02*
X23888446Y-37690476D01*
X76339398Y-70071428D02*
X75577493Y-70071428D01*
X24269398Y-70071428D02*
X23507493Y-70071428D01*
X23888446Y-70452380D02*
X23888446Y-69690476D01*
D11*
X26698446Y-100000000D02*
X25698446Y-100000000D01*
X67698446Y-103000000D02*
X67698446Y-101000000D01*
X24898446Y-108600000D02*
X24898446Y-95400000D01*
X73698446Y-108000000D02*
X73698446Y-96000000D01*
X25698446Y-96000000D02*
X28698446Y-96000000D01*
X56698446Y-108000000D02*
X42698446Y-108000000D01*
X68698446Y-104000000D02*
X68698446Y-100000000D01*
X75098446Y-108600000D02*
X24898446Y-108600000D01*
X25698446Y-104000000D02*
X26698446Y-104000000D01*
X25698446Y-108000000D02*
X28698446Y-108000000D01*
X25698446Y-108000000D02*
X25698446Y-96000000D01*
X73698446Y-96000000D02*
X70698446Y-96000000D01*
X24898446Y-95400000D02*
X75098446Y-95400000D01*
X30698446Y-106000000D02*
X40698446Y-106000000D01*
X42698446Y-96000000D02*
X56698446Y-96000000D01*
X70698446Y-106000000D02*
X70698446Y-98000000D01*
X75098446Y-95400000D02*
X75098446Y-108600000D01*
X68698446Y-106000000D02*
X58698446Y-106000000D01*
X69698446Y-99000000D02*
X69698446Y-105000000D01*
X30698446Y-98000000D02*
X40698446Y-98000000D01*
X68698446Y-98000000D02*
X58698446Y-98000000D01*
X73698446Y-108000000D02*
X70698446Y-108000000D01*
X56698446Y-96000000D02*
G75*
G03*
X58698446Y-98000000I2000000J0D01*
G01*
X30698446Y-106000000D02*
G75*
G03*
X28698446Y-108000000I0J-2000000D01*
G01*
X40698446Y-98000000D02*
G75*
G03*
X42698446Y-96000000I0J2000000D01*
G01*
X68698446Y-98000000D02*
G75*
G03*
X70698446Y-96000000I0J2000000D01*
G01*
X28698446Y-96000000D02*
G75*
G03*
X30698446Y-98000000I2000000J0D01*
G01*
X58698446Y-106000000D02*
G75*
G03*
X56698446Y-108000000I0J-2000000D01*
G01*
X42698446Y-108000000D02*
G75*
G03*
X40698446Y-106000000I-2000000J0D01*
G01*
X70698446Y-108000000D02*
G75*
G03*
X68698446Y-106000000I-2000000J0D01*
G01*
X75098446Y-79400000D02*
X75098446Y-92600000D01*
X25698446Y-92000000D02*
X28698446Y-92000000D01*
X73698446Y-80000000D02*
X70698446Y-80000000D01*
X56698446Y-92000000D02*
X42698446Y-92000000D01*
X69698446Y-83000000D02*
X69698446Y-89000000D01*
X25698446Y-92000000D02*
X25698446Y-80000000D01*
X73698446Y-92000000D02*
X73698446Y-80000000D01*
X26698446Y-84000000D02*
X25698446Y-84000000D01*
X75098446Y-92600000D02*
X24898446Y-92600000D01*
X67698446Y-87000000D02*
X67698446Y-85000000D01*
X73698446Y-92000000D02*
X70698446Y-92000000D01*
X24898446Y-79400000D02*
X75098446Y-79400000D01*
X25698446Y-88000000D02*
X26698446Y-88000000D01*
X68698446Y-88000000D02*
X68698446Y-84000000D01*
X30698446Y-82000000D02*
X40698446Y-82000000D01*
X42698446Y-80000000D02*
X56698446Y-80000000D01*
X70698446Y-90000000D02*
X70698446Y-82000000D01*
X24898446Y-92600000D02*
X24898446Y-79400000D01*
X68698446Y-90000000D02*
X58698446Y-90000000D01*
X68698446Y-82000000D02*
X58698446Y-82000000D01*
X25698446Y-80000000D02*
X28698446Y-80000000D01*
X30698446Y-90000000D02*
X40698446Y-90000000D01*
X58698446Y-90000000D02*
G75*
G03*
X56698446Y-92000000I0J-2000000D01*
G01*
X30698446Y-90000000D02*
G75*
G03*
X28698446Y-92000000I0J-2000000D01*
G01*
X42698446Y-92000000D02*
G75*
G03*
X40698446Y-90000000I-2000000J0D01*
G01*
X28698446Y-80000000D02*
G75*
G03*
X30698446Y-82000000I2000000J0D01*
G01*
X68698446Y-82000000D02*
G75*
G03*
X70698446Y-80000000I0J2000000D01*
G01*
X70698446Y-92000000D02*
G75*
G03*
X68698446Y-90000000I-2000000J0D01*
G01*
X56698446Y-80000000D02*
G75*
G03*
X58698446Y-82000000I2000000J0D01*
G01*
X40698446Y-82000000D02*
G75*
G03*
X42698446Y-80000000I0J2000000D01*
G01*
X68698446Y-56000000D02*
X68698446Y-52000000D01*
X69698446Y-51000000D02*
X69698446Y-57000000D01*
X70698446Y-58000000D02*
X70698446Y-50000000D01*
X25698446Y-60000000D02*
X25698446Y-48000000D01*
X26698446Y-52000000D02*
X25698446Y-52000000D01*
X30698446Y-58000000D02*
X40698446Y-58000000D01*
X67698446Y-55000000D02*
X67698446Y-53000000D01*
X73698446Y-60000000D02*
X73698446Y-48000000D01*
X75098446Y-47400000D02*
X75098446Y-60600000D01*
X68698446Y-50000000D02*
X58698446Y-50000000D01*
X75098446Y-60600000D02*
X24898446Y-60600000D01*
X25698446Y-60000000D02*
X28698446Y-60000000D01*
X42698446Y-48000000D02*
X56698446Y-48000000D01*
X25698446Y-56000000D02*
X26698446Y-56000000D01*
X24898446Y-47400000D02*
X75098446Y-47400000D01*
X68698446Y-58000000D02*
X58698446Y-58000000D01*
X30698446Y-50000000D02*
X40698446Y-50000000D01*
X56698446Y-60000000D02*
X42698446Y-60000000D01*
X24898446Y-60600000D02*
X24898446Y-47400000D01*
X73698446Y-48000000D02*
X70698446Y-48000000D01*
X25698446Y-48000000D02*
X28698446Y-48000000D01*
X73698446Y-60000000D02*
X70698446Y-60000000D01*
X56698446Y-48000000D02*
G75*
G03*
X58698446Y-50000000I2000000J0D01*
G01*
X70698446Y-60000000D02*
G75*
G03*
X68698446Y-58000000I-2000000J0D01*
G01*
X58698446Y-58000000D02*
G75*
G03*
X56698446Y-60000000I0J-2000000D01*
G01*
X42698446Y-60000000D02*
G75*
G03*
X40698446Y-58000000I-2000000J0D01*
G01*
X68698446Y-50000000D02*
G75*
G03*
X70698446Y-48000000I0J2000000D01*
G01*
X40698446Y-50000000D02*
G75*
G03*
X42698446Y-48000000I0J2000000D01*
G01*
X30698446Y-58000000D02*
G75*
G03*
X28698446Y-60000000I0J-2000000D01*
G01*
X28698446Y-48000000D02*
G75*
G03*
X30698446Y-50000000I2000000J0D01*
G01*
X73698446Y-16000000D02*
X70698446Y-16000000D01*
X24898446Y-28600000D02*
X24898446Y-15400000D01*
X25698446Y-16000000D02*
X28698446Y-16000000D01*
X68698446Y-18000000D02*
X58698446Y-18000000D01*
X30698446Y-26000000D02*
X40698446Y-26000000D01*
X26698446Y-20000000D02*
X25698446Y-20000000D01*
X73698446Y-28000000D02*
X73698446Y-16000000D01*
X73698446Y-28000000D02*
X70698446Y-28000000D01*
X70698446Y-26000000D02*
X70698446Y-18000000D01*
X30698446Y-18000000D02*
X40698446Y-18000000D01*
X75098446Y-28600000D02*
X24898446Y-28600000D01*
X25698446Y-28000000D02*
X25698446Y-16000000D01*
X25698446Y-24000000D02*
X26698446Y-24000000D01*
X67698446Y-23000000D02*
X67698446Y-21000000D01*
X56698446Y-28000000D02*
X42698446Y-28000000D01*
X75098446Y-15400000D02*
X75098446Y-28600000D01*
X24898446Y-15400000D02*
X75098446Y-15400000D01*
X68698446Y-24000000D02*
X68698446Y-20000000D01*
X25698446Y-28000000D02*
X28698446Y-28000000D01*
X42698446Y-16000000D02*
X56698446Y-16000000D01*
X69698446Y-19000000D02*
X69698446Y-25000000D01*
X68698446Y-26000000D02*
X58698446Y-26000000D01*
X40698446Y-18000000D02*
G75*
G03*
X42698446Y-16000000I0J2000000D01*
G01*
X28698446Y-16000000D02*
G75*
G03*
X30698446Y-18000000I2000000J0D01*
G01*
X70698446Y-28000000D02*
G75*
G03*
X68698446Y-26000000I-2000000J0D01*
G01*
X56698446Y-16000000D02*
G75*
G03*
X58698446Y-18000000I2000000J0D01*
G01*
X30698446Y-26000000D02*
G75*
G03*
X28698446Y-28000000I0J-2000000D01*
G01*
X58698446Y-26000000D02*
G75*
G03*
X56698446Y-28000000I0J-2000000D01*
G01*
X42698446Y-28000000D02*
G75*
G03*
X40698446Y-26000000I-2000000J0D01*
G01*
X68698446Y-18000000D02*
G75*
G03*
X70698446Y-16000000I0J2000000D01*
G01*
X30698446Y-42000000D02*
X40698446Y-42000000D01*
X42698446Y-32000000D02*
X56698446Y-32000000D01*
X73698446Y-32000000D02*
X70698446Y-32000000D01*
X68698446Y-34000000D02*
X58698446Y-34000000D01*
X26698446Y-36000000D02*
X25698446Y-36000000D01*
X25698446Y-44000000D02*
X25698446Y-32000000D01*
X25698446Y-40000000D02*
X26698446Y-40000000D01*
X75098446Y-31400000D02*
X75098446Y-44600000D01*
X73698446Y-44000000D02*
X70698446Y-44000000D01*
X24898446Y-44600000D02*
X24898446Y-31400000D01*
X69698446Y-35000000D02*
X69698446Y-41000000D01*
X75098446Y-44600000D02*
X24898446Y-44600000D01*
X30698446Y-34000000D02*
X40698446Y-34000000D01*
X25698446Y-32000000D02*
X28698446Y-32000000D01*
X68698446Y-40000000D02*
X68698446Y-36000000D01*
X25698446Y-44000000D02*
X28698446Y-44000000D01*
X67698446Y-39000000D02*
X67698446Y-37000000D01*
X70698446Y-42000000D02*
X70698446Y-34000000D01*
X24898446Y-31400000D02*
X75098446Y-31400000D01*
X73698446Y-44000000D02*
X73698446Y-32000000D01*
X56698446Y-44000000D02*
X42698446Y-44000000D01*
X68698446Y-42000000D02*
X58698446Y-42000000D01*
X40698446Y-34000000D02*
G75*
G03*
X42698446Y-32000000I0J2000000D01*
G01*
X56698446Y-32000000D02*
G75*
G03*
X58698446Y-34000000I2000000J0D01*
G01*
X42698446Y-44000000D02*
G75*
G03*
X40698446Y-42000000I-2000000J0D01*
G01*
X70698446Y-44000000D02*
G75*
G03*
X68698446Y-42000000I-2000000J0D01*
G01*
X30698446Y-42000000D02*
G75*
G03*
X28698446Y-44000000I0J-2000000D01*
G01*
X28698446Y-32000000D02*
G75*
G03*
X30698446Y-34000000I2000000J0D01*
G01*
X58698446Y-42000000D02*
G75*
G03*
X56698446Y-44000000I0J-2000000D01*
G01*
X68698446Y-34000000D02*
G75*
G03*
X70698446Y-32000000I0J2000000D01*
G01*
X24898446Y-76600000D02*
X24898446Y-63400000D01*
X30698446Y-74000000D02*
X40698446Y-74000000D01*
X68698446Y-72000000D02*
X68698446Y-68000000D01*
X75098446Y-76600000D02*
X24898446Y-76600000D01*
X67698446Y-71000000D02*
X67698446Y-69000000D01*
X70698446Y-74000000D02*
X70698446Y-66000000D01*
X30698446Y-66000000D02*
X40698446Y-66000000D01*
X25698446Y-72000000D02*
X26698446Y-72000000D01*
X68698446Y-74000000D02*
X58698446Y-74000000D01*
X56698446Y-76000000D02*
X42698446Y-76000000D01*
X69698446Y-67000000D02*
X69698446Y-73000000D01*
X68698446Y-66000000D02*
X58698446Y-66000000D01*
X42698446Y-64000000D02*
X56698446Y-64000000D01*
X73698446Y-64000000D02*
X70698446Y-64000000D01*
X24898446Y-63400000D02*
X75098446Y-63400000D01*
X75098446Y-63400000D02*
X75098446Y-76600000D01*
X73698446Y-76000000D02*
X73698446Y-64000000D01*
X25698446Y-76000000D02*
X25698446Y-64000000D01*
X25698446Y-64000000D02*
X28698446Y-64000000D01*
X25698446Y-76000000D02*
X28698446Y-76000000D01*
X73698446Y-76000000D02*
X70698446Y-76000000D01*
X26698446Y-68000000D02*
X25698446Y-68000000D01*
X68698446Y-66000000D02*
G75*
G03*
X70698446Y-64000000I0J2000000D01*
G01*
X56698446Y-64000000D02*
G75*
G03*
X58698446Y-66000000I2000000J0D01*
G01*
X58698446Y-74000000D02*
G75*
G03*
X56698446Y-76000000I0J-2000000D01*
G01*
X40698446Y-66000000D02*
G75*
G03*
X42698446Y-64000000I0J2000000D01*
G01*
X30698446Y-74000000D02*
G75*
G03*
X28698446Y-76000000I0J-2000000D01*
G01*
X28698446Y-64000000D02*
G75*
G03*
X30698446Y-66000000I2000000J0D01*
G01*
X42698446Y-76000000D02*
G75*
G03*
X40698446Y-74000000I-2000000J0D01*
G01*
X70698446Y-76000000D02*
G75*
G03*
X68698446Y-74000000I-2000000J0D01*
G01*
G04 #@! TD*
M02*
