M48
; DRILL file {KiCad 6.0.4-6f826c9f35~116~ubuntu20.04.1} date Wed May  4 20:07:56 2022
; FORMAT={-:-/ absolute / metric / decimal}
; #@! TF.CreationDate,2022-05-04T20:07:56+01:00
; #@! TF.GenerationSoftware,Kicad,Pcbnew,6.0.4-6f826c9f35~116~ubuntu20.04.1
; #@! TF.FileFunction,MixedPlating,1,2
FMAT,2
METRIC
; #@! TA.AperFunction,Plated,PTH,ViaDrill
T1C0.300
; #@! TA.AperFunction,Plated,PTH,ComponentDrill
T2C1.020
; #@! TA.AperFunction,NonPlated,NPTH,ComponentDrill
T3C3.200
%
G90
G05
T1
X49.0Y-70.5
X49.0Y-71.5
X49.0Y-72.5
X49.0Y-73.5
X49.0Y-74.5
X49.0Y-75.5
X49.0Y-76.5
X49.0Y-77.5
X49.0Y-78.5
X49.0Y-79.5
X69.0Y-69.0
X69.0Y-71.0
X71.0Y-69.0
X71.0Y-71.0
X74.15Y-74.3
X74.737Y-76.0
X75.3Y-72.5
X78.7Y-80.2
X79.0Y-78.25
X101.0Y-70.5
X101.0Y-71.5
X101.0Y-72.5
X101.0Y-73.5
X101.0Y-74.5
X101.0Y-75.5
X101.0Y-76.5
X101.0Y-77.5
X101.0Y-78.5
X101.0Y-79.5
T2
X52.7Y-75.0
X97.4Y-75.0
T3
X45.0Y-75.0
X105.0Y-75.0
T0
M30
